<?xml version="1.0" encoding="UTF-8" standalone="no"?><!-- Generator: Gravit.io --><svg xmlns="http://www.w3.org/2000/svg" xmlns:xlink="http://www.w3.org/1999/xlink" style="isolation:isolate" viewBox="0 0 1600 1200" width="1600pt" height="1200pt"><defs><clipPath id="_clipPath_uOtkrvUhsqwAgn2XmlwuiLc8FBWRYLPm"><rect width="1600" height="1200"/></clipPath></defs><g clip-path="url(#_clipPath_uOtkrvUhsqwAgn2XmlwuiLc8FBWRYLPm)"><path d=" M 616.997 393.442 L 679.007 429.243 L 741.017 465.045 C 748.186 469.184 748.186 475.905 741.017 480.045 L 679.007 515.846 L 616.997 551.647 C 609.828 555.787 604.007 552.426 604.007 544.147 L 604.007 472.545 L 604.007 400.942 C 604.007 392.663 609.828 389.303 616.997 393.442 Z " fill="none"/><path d=" M 616.997 393.442 L 679.007 429.243 L 741.017 465.045 C 748.186 469.184 748.186 475.905 741.017 480.045 L 679.007 515.846 L 616.997 551.647 C 609.828 555.787 604.007 552.426 604.007 544.147 L 604.007 472.545 L 604.007 400.942 C 604.007 392.663 609.828 389.303 616.997 393.442 Z " fill="none"/><path d=" M 616.997 393.442 L 679.007 429.243 L 741.017 465.045 C 748.186 469.184 748.186 475.905 741.017 480.045 L 679.007 515.846 L 616.997 551.647 C 609.828 555.787 604.007 552.426 604.007 544.147 L 604.007 472.545 L 604.007 400.942 C 604.007 392.663 609.828 389.303 616.997 393.442 Z " fill="rgb(0,100,255)"/><g style="isolation: isolate;"><mask id="_mask_Uhzum0oJSB1PjoRVZBqilXVoACAwc9JP"><path d=" M 616.997 393.442 L 679.007 429.243 L 741.017 465.045 C 748.186 469.184 748.186 475.905 741.017 480.045 L 679.007 515.846 L 616.997 551.647 C 609.828 555.787 604.007 552.426 604.007 544.147 L 604.007 472.545 L 604.007 400.942 C 604.007 392.663 609.828 389.303 616.997 393.442 Z " fill="white" stroke="none"/></mask><path d=" M 616.997 393.442 L 679.007 429.243 L 741.017 465.045 C 748.186 469.184 748.186 475.905 741.017 480.045 L 679.007 515.846 L 616.997 551.647 C 609.828 555.787 604.007 552.426 604.007 544.147 L 604.007 472.545 L 604.007 400.942 C 604.007 392.663 609.828 389.303 616.997 393.442 Z " fill="none" mask="url(#_mask_Uhzum0oJSB1PjoRVZBqilXVoACAwc9JP)" vector-effect="non-scaling-stroke" stroke-width="70" stroke="rgb(17,86,189)" stroke-linejoin="miter" stroke-linecap="square" stroke-miterlimit="3"/><mask id="_mask_CYybdaFBBAFYPR0bqfRuB7ckDxclu2lf"><path d=" M 616.997 393.442 L 679.007 429.243 L 741.017 465.045 C 748.186 469.184 748.186 475.905 741.017 480.045 L 679.007 515.846 L 616.997 551.647 C 609.828 555.787 604.007 552.426 604.007 544.147 L 604.007 472.545 L 604.007 400.942 C 604.007 392.663 609.828 389.303 616.997 393.442 Z " fill="white" stroke="none"/></mask><path d=" M 616.997 393.442 L 679.007 429.243 L 741.017 465.045 C 748.186 469.184 748.186 475.905 741.017 480.045 L 679.007 515.846 L 616.997 551.647 C 609.828 555.787 604.007 552.426 604.007 544.147 L 604.007 472.545 L 604.007 400.942 C 604.007 392.663 609.828 389.303 616.997 393.442 Z " fill="none" mask="url(#_mask_CYybdaFBBAFYPR0bqfRuB7ckDxclu2lf)" vector-effect="non-scaling-stroke" stroke-width="20" stroke="rgb(15,25,40)" stroke-linejoin="miter" stroke-linecap="square" stroke-miterlimit="3"/></g><path d=" M 983.003 393.442 L 920.993 429.243 L 858.983 465.045 C 851.814 469.184 851.814 475.905 858.983 480.045 L 920.993 515.846 L 983.003 551.647 C 990.172 555.787 995.993 552.426 995.993 544.147 L 995.993 472.545 L 995.993 400.942 C 995.993 392.663 990.172 389.303 983.003 393.442 Z " fill="none"/><path d=" M 983.003 393.442 L 920.993 429.243 L 858.983 465.045 C 851.814 469.184 851.814 475.905 858.983 480.045 L 920.993 515.846 L 983.003 551.647 C 990.172 555.787 995.993 552.426 995.993 544.147 L 995.993 472.545 L 995.993 400.942 C 995.993 392.663 990.172 389.303 983.003 393.442 Z " fill="none"/><path d=" M 983.003 393.442 L 920.993 429.243 L 858.983 465.045 C 851.814 469.184 851.814 475.905 858.983 480.045 L 920.993 515.846 L 983.003 551.647 C 990.172 555.787 995.993 552.426 995.993 544.147 L 995.993 472.545 L 995.993 400.942 C 995.993 392.663 990.172 389.303 983.003 393.442 Z " fill="rgb(0,100,255)"/><g style="isolation: isolate;"><mask id="_mask_TggBGudl7egcNCmKOPc5yq5SmNw4CEIy"><path d=" M 983.003 393.442 L 920.993 429.243 L 858.983 465.045 C 851.814 469.184 851.814 475.905 858.983 480.045 L 920.993 515.846 L 983.003 551.647 C 990.172 555.787 995.993 552.426 995.993 544.147 L 995.993 472.545 L 995.993 400.942 C 995.993 392.663 990.172 389.303 983.003 393.442 Z " fill="white" stroke="none"/></mask><path d=" M 983.003 393.442 L 920.993 429.243 L 858.983 465.045 C 851.814 469.184 851.814 475.905 858.983 480.045 L 920.993 515.846 L 983.003 551.647 C 990.172 555.787 995.993 552.426 995.993 544.147 L 995.993 472.545 L 995.993 400.942 C 995.993 392.663 990.172 389.303 983.003 393.442 Z " fill="none" mask="url(#_mask_TggBGudl7egcNCmKOPc5yq5SmNw4CEIy)" vector-effect="non-scaling-stroke" stroke-width="70" stroke="rgb(17,86,189)" stroke-linejoin="miter" stroke-linecap="square" stroke-miterlimit="3"/><mask id="_mask_I8g8iWw8BXCoVob1iQ1ezYdcZeiGE4sZ"><path d=" M 983.003 393.442 L 920.993 429.243 L 858.983 465.045 C 851.814 469.184 851.814 475.905 858.983 480.045 L 920.993 515.846 L 983.003 551.647 C 990.172 555.787 995.993 552.426 995.993 544.147 L 995.993 472.545 L 995.993 400.942 C 995.993 392.663 990.172 389.303 983.003 393.442 Z " fill="white" stroke="none"/></mask><path d=" M 983.003 393.442 L 920.993 429.243 L 858.983 465.045 C 851.814 469.184 851.814 475.905 858.983 480.045 L 920.993 515.846 L 983.003 551.647 C 990.172 555.787 995.993 552.426 995.993 544.147 L 995.993 472.545 L 995.993 400.942 C 995.993 392.663 990.172 389.303 983.003 393.442 Z " fill="none" mask="url(#_mask_I8g8iWw8BXCoVob1iQ1ezYdcZeiGE4sZ)" vector-effect="non-scaling-stroke" stroke-width="20" stroke="rgb(15,25,40)" stroke-linejoin="miter" stroke-linecap="square" stroke-miterlimit="3"/></g><mask id="_mask_mzPG19YW2ugu98nb7mmhWu3vg71Dp95Y"><circle vector-effect="non-scaling-stroke" cx="800" cy="600" r="200" fill="white" stroke="none"/></mask><circle vector-effect="non-scaling-stroke" cx="800" cy="600" r="200" fill="rgb(17,86,189)"/><circle vector-effect="non-scaling-stroke" cx="800" cy="600" r="200" fill="rgb(17,86,189)" mask="url(#_mask_mzPG19YW2ugu98nb7mmhWu3vg71Dp95Y)" stroke-width="20" stroke="rgb(15,25,40)" stroke-linejoin="miter" stroke-linecap="square" stroke-miterlimit="3"/><clipPath id="_clipPath_PYXIaPSqrY7JbIjLOY88LnlPBvnuGsWv"><circle vector-effect="non-scaling-stroke" cx="800" cy="600" r="200" fill="rgb(17,86,189)"/><circle vector-effect="non-scaling-stroke" cx="800" cy="600" r="200" fill="rgb(17,86,189)" mask="url(#_mask_mzPG19YW2ugu98nb7mmhWu3vg71Dp95Y)" stroke-width="20" stroke="rgb(15,25,40)" stroke-linejoin="miter" stroke-linecap="square" stroke-miterlimit="3"/></clipPath><g clip-path="url(#_clipPath_PYXIaPSqrY7JbIjLOY88LnlPBvnuGsWv)"><rect x="600" y="500" width="400" height="100" transform="matrix(1,0,0,1,0,0)" fill="rgb(15,25,40)"/><circle vector-effect="non-scaling-stroke" cx="750" cy="600" r="200" fill="rgb(0,100,255)"/><clipPath id="_clipPath_BYz57YaWNuIycC3wUxyYl8CcF3YJz7oc"><circle vector-effect="non-scaling-stroke" cx="750" cy="600" r="200" fill="rgb(0,100,255)"/></clipPath><g clip-path="url(#_clipPath_BYz57YaWNuIycC3wUxyYl8CcF3YJz7oc)"><rect x="550" y="500" width="400" height="100" transform="matrix(1,0,0,1,0,0)" fill="rgb(15,25,40)"/></g></g><circle vector-effect="non-scaling-stroke" cx="800" cy="600" r="200" fill="transparent" mask="url(#_mask_mzPG19YW2ugu98nb7mmhWu3vg71Dp95Y)" stroke-width="20" stroke="rgb(15,25,40)" stroke-linejoin="miter" stroke-linecap="square" stroke-miterlimit="3"/><path d=" M 771.617 652.54 C 773.964 634.352 784.793 618.807 800 610 C 815.207 618.807 826.036 634.352 828.383 652.54 C 820.001 657.289 810.314 660 800 660 C 789.686 660 779.999 657.289 771.617 652.54 Z " fill-rule="evenodd" fill="rgb(15,25,40)"/><path d=" M 866.986 694.224 C 849.251 710.242 825.756 720 800 720 C 774.244 720 750.749 710.242 733.014 694.224" fill="none" vector-effect="non-scaling-stroke" stroke-width="15" stroke="rgb(15,25,40)" stroke-linejoin="miter" stroke-linecap="round" stroke-miterlimit="3"/><path d=" M 882.446 694.224 C 874.497 693.361 868.301 686.62 868.301 678.443" fill="rgb(0,100,255)" vector-effect="non-scaling-stroke" stroke-width="15" stroke="rgb(15,25,40)" stroke-linejoin="miter" stroke-linecap="round" stroke-miterlimit="3"/><path d=" M 714.286 636.333 L 600 579.191 M 714.286 636.333 L 600 636.333 M 714.286 636.333 L 600 693.476 M 885.714 636.333 L 1000 579.191 M 885.714 636.333 L 1000 636.333 M 885.714 636.333 L 1000 693.476" fill-rule="evenodd" fill="none" vector-effect="non-scaling-stroke" stroke-width="15" stroke="rgb(15,25,40)" stroke-linejoin="miter" stroke-linecap="round" stroke-miterlimit="3"/><path d=" M 1006.36 559.147 L 1059.393 506.114 C 1065.247 500.26 1065.247 490.755 1059.393 484.901 L 1059.393 484.901 C 1053.539 479.047 1044.034 479.047 1038.18 484.901 L 974.541 548.541 L 974.541 548.541 L 974.541 548.541 C 968.687 554.395 968.687 563.9 974.541 569.754 L 974.541 569.754 L 974.541 569.754 L 974.541 569.754 L 974.541 569.754 L 1038.18 633.393 C 1044.034 639.247 1053.539 639.247 1059.393 633.393 L 1059.393 633.393 C 1065.247 627.539 1065.247 618.034 1059.393 612.18 L 1006.36 559.147 Z " fill-rule="evenodd" fill="rgb(15,25,40)"/><circle vector-effect="non-scaling-stroke" cx="729.0070550091853" cy="549.9971862576112" r="25" fill="rgb(255,255,255)"/><circle vector-effect="non-scaling-stroke" cx="729.0070550091853" cy="550" r="18.3005142552463" fill="rgb(15,25,40)"/><circle vector-effect="non-scaling-stroke" cx="870.9929449908147" cy="549.9971862576111" r="25" fill="rgb(255,255,255)"/><circle vector-effect="non-scaling-stroke" cx="870.9929449908147" cy="550" r="18.3005142552463" fill="rgb(15,25,40)"/></g></svg>
