<?xml version="1.0" encoding="UTF-8" standalone="no"?><!-- Generator: Gravit.io --><svg xmlns="http://www.w3.org/2000/svg" xmlns:xlink="http://www.w3.org/1999/xlink" style="isolation:isolate" viewBox="0 0 1600 1200" width="1600pt" height="1200pt"><defs><clipPath id="_clipPath_rwr2Lg2HNrCIk8s97pehgbAxtCfxAkb5"><rect width="1600" height="1200"/></clipPath></defs><g clip-path="url(#_clipPath_rwr2Lg2HNrCIk8s97pehgbAxtCfxAkb5)"><path d=" M 628.274 392.339 C 654.955 410.049 685.181 449.881 698.296 498.828 C 711.412 547.776 705.151 597.384 684.224 639.494 C 645.045 613.489 614.819 573.658 601.704 524.71 C 588.588 475.763 594.849 426.154 609.101 397.477 C 612.785 390.063 621.376 387.761 628.274 392.339 Z " fill="none"/><path d=" M 628.274 392.339 C 654.955 410.049 685.181 449.881 698.296 498.828 C 711.412 547.776 705.151 597.384 684.224 639.494 C 645.045 613.489 614.819 573.658 601.704 524.71 C 588.588 475.763 594.849 426.154 609.101 397.477 C 612.785 390.063 621.376 387.761 628.274 392.339 Z " fill="none"/><path d=" M 628.274 392.339 C 654.955 410.049 685.181 449.881 698.296 498.828 C 711.412 547.776 705.151 597.384 684.224 639.494 C 645.045 613.489 614.819 573.658 601.704 524.71 C 588.588 475.763 594.849 426.154 609.101 397.477 C 612.785 390.063 621.376 387.761 628.274 392.339 Z " fill="rgb(17,86,189)"/><g style="isolation: isolate;"><mask id="_mask_6LMNdq0tMNcYVoNwP0sAvNROX3SFmOlR"><path d=" M 628.274 392.339 C 654.955 410.049 685.181 449.881 698.296 498.828 C 711.412 547.776 705.151 597.384 684.224 639.494 C 645.045 613.489 614.819 573.658 601.704 524.71 C 588.588 475.763 594.849 426.154 609.101 397.477 C 612.785 390.063 621.376 387.761 628.274 392.339 Z " fill="white" stroke="none"/></mask><path d=" M 628.274 392.339 C 654.955 410.049 685.181 449.881 698.296 498.828 C 711.412 547.776 705.151 597.384 684.224 639.494 C 645.045 613.489 614.819 573.658 601.704 524.71 C 588.588 475.763 594.849 426.154 609.101 397.477 C 612.785 390.063 621.376 387.761 628.274 392.339 Z " fill="none" mask="url(#_mask_6LMNdq0tMNcYVoNwP0sAvNROX3SFmOlR)" vector-effect="non-scaling-stroke" stroke-width="60" stroke="rgb(0,100,255)" stroke-linejoin="miter" stroke-linecap="square" stroke-miterlimit="3"/><mask id="_mask_SaxdyAH8KSGUvUdqjvsKcNpjiQnvcJmU"><path d=" M 628.274 392.339 C 654.955 410.049 685.181 449.881 698.296 498.828 C 711.412 547.776 705.151 597.384 684.224 639.494 C 645.045 613.489 614.819 573.658 601.704 524.71 C 588.588 475.763 594.849 426.154 609.101 397.477 C 612.785 390.063 621.376 387.761 628.274 392.339 Z " fill="white" stroke="none"/></mask><path d=" M 628.274 392.339 C 654.955 410.049 685.181 449.881 698.296 498.828 C 711.412 547.776 705.151 597.384 684.224 639.494 C 645.045 613.489 614.819 573.658 601.704 524.71 C 588.588 475.763 594.849 426.154 609.101 397.477 C 612.785 390.063 621.376 387.761 628.274 392.339 Z " fill="none" mask="url(#_mask_SaxdyAH8KSGUvUdqjvsKcNpjiQnvcJmU)" vector-effect="non-scaling-stroke" stroke-width="20" stroke="rgb(15,25,40)" stroke-linejoin="miter" stroke-linecap="square" stroke-miterlimit="3"/></g><path d=" M 990.899 397.477 C 1005.151 426.154 1011.412 475.763 998.296 524.71 C 985.181 573.658 954.955 613.489 915.776 639.494 C 894.849 597.384 888.588 547.776 901.704 498.828 C 914.819 449.881 945.045 410.049 971.726 392.339 C 978.624 387.761 987.215 390.063 990.899 397.477 Z " fill="none"/><path d=" M 990.899 397.477 C 1005.151 426.154 1011.412 475.763 998.296 524.71 C 985.181 573.658 954.955 613.489 915.776 639.494 C 894.849 597.384 888.588 547.776 901.704 498.828 C 914.819 449.881 945.045 410.049 971.726 392.339 C 978.624 387.761 987.215 390.063 990.899 397.477 Z " fill="none"/><path d=" M 990.899 397.477 C 1005.151 426.154 1011.412 475.763 998.296 524.71 C 985.181 573.658 954.955 613.489 915.776 639.494 C 894.849 597.384 888.588 547.776 901.704 498.828 C 914.819 449.881 945.045 410.049 971.726 392.339 C 978.624 387.761 987.215 390.063 990.899 397.477 Z " fill="rgb(17,86,189)"/><g style="isolation: isolate;"><mask id="_mask_XF6ONwlCSXgdQVqusJAHM6K71DdyJMcm"><path d=" M 990.899 397.477 C 1005.151 426.154 1011.412 475.763 998.296 524.71 C 985.181 573.658 954.955 613.489 915.776 639.494 C 894.849 597.384 888.588 547.776 901.704 498.828 C 914.819 449.881 945.045 410.049 971.726 392.339 C 978.624 387.761 987.215 390.063 990.899 397.477 Z " fill="white" stroke="none"/></mask><path d=" M 990.899 397.477 C 1005.151 426.154 1011.412 475.763 998.296 524.71 C 985.181 573.658 954.955 613.489 915.776 639.494 C 894.849 597.384 888.588 547.776 901.704 498.828 C 914.819 449.881 945.045 410.049 971.726 392.339 C 978.624 387.761 987.215 390.063 990.899 397.477 Z " fill="none" mask="url(#_mask_XF6ONwlCSXgdQVqusJAHM6K71DdyJMcm)" vector-effect="non-scaling-stroke" stroke-width="60" stroke="rgb(0,100,255)" stroke-linejoin="miter" stroke-linecap="square" stroke-miterlimit="3"/><mask id="_mask_UG8ugVpkng5fBtKSD8cvYgeM2UnyXVCI"><path d=" M 990.899 397.477 C 1005.151 426.154 1011.412 475.763 998.296 524.71 C 985.181 573.658 954.955 613.489 915.776 639.494 C 894.849 597.384 888.588 547.776 901.704 498.828 C 914.819 449.881 945.045 410.049 971.726 392.339 C 978.624 387.761 987.215 390.063 990.899 397.477 Z " fill="white" stroke="none"/></mask><path d=" M 990.899 397.477 C 1005.151 426.154 1011.412 475.763 998.296 524.71 C 985.181 573.658 954.955 613.489 915.776 639.494 C 894.849 597.384 888.588 547.776 901.704 498.828 C 914.819 449.881 945.045 410.049 971.726 392.339 C 978.624 387.761 987.215 390.063 990.899 397.477 Z " fill="none" mask="url(#_mask_UG8ugVpkng5fBtKSD8cvYgeM2UnyXVCI)" vector-effect="non-scaling-stroke" stroke-width="20" stroke="rgb(15,25,40)" stroke-linejoin="miter" stroke-linecap="square" stroke-miterlimit="3"/></g><mask id="_mask_dfqkoGT5MhTcBzyeMHR50CvbmceeVeHG"><circle vector-effect="non-scaling-stroke" cx="800" cy="600" r="200" fill="white" stroke="none"/></mask><circle vector-effect="non-scaling-stroke" cx="800" cy="600" r="200" fill="rgb(17,86,189)"/><circle vector-effect="non-scaling-stroke" cx="800" cy="600" r="200" fill="rgb(17,86,189)" mask="url(#_mask_dfqkoGT5MhTcBzyeMHR50CvbmceeVeHG)" stroke-width="20" stroke="rgb(15,25,40)" stroke-linejoin="miter" stroke-linecap="square" stroke-miterlimit="3"/><clipPath id="_clipPath_0hXlKLm36t8yFZNYgHJROaMPqCIlYlzU"><circle vector-effect="non-scaling-stroke" cx="800" cy="600" r="200" fill="rgb(17,86,189)"/><circle vector-effect="non-scaling-stroke" cx="800" cy="600" r="200" fill="rgb(17,86,189)" mask="url(#_mask_dfqkoGT5MhTcBzyeMHR50CvbmceeVeHG)" stroke-width="20" stroke="rgb(15,25,40)" stroke-linejoin="miter" stroke-linecap="square" stroke-miterlimit="3"/></clipPath><g clip-path="url(#_clipPath_0hXlKLm36t8yFZNYgHJROaMPqCIlYlzU)"><rect x="600" y="500" width="400" height="100" transform="matrix(1,0,0,1,0,0)" fill="rgb(15,25,40)"/><circle vector-effect="non-scaling-stroke" cx="750" cy="600" r="200" fill="rgb(0,100,255)"/><clipPath id="_clipPath_jRvljjOaWzBdwGgtGIxJoxVGQEb2bF4L"><circle vector-effect="non-scaling-stroke" cx="750" cy="600" r="200" fill="rgb(0,100,255)"/></clipPath><g clip-path="url(#_clipPath_jRvljjOaWzBdwGgtGIxJoxVGQEb2bF4L)"><rect x="550" y="500" width="400" height="100" transform="matrix(1,0,0,1,0,0)" fill="rgb(15,25,40)"/></g></g><circle vector-effect="non-scaling-stroke" cx="800" cy="600" r="200" fill="transparent" mask="url(#_mask_dfqkoGT5MhTcBzyeMHR50CvbmceeVeHG)" stroke-width="20" stroke="rgb(15,25,40)" stroke-linejoin="miter" stroke-linecap="square" stroke-miterlimit="3"/><path d=" M 771.617 652.54 C 773.964 634.352 784.793 618.807 800 610 C 815.207 618.807 826.036 634.352 828.383 652.54 C 820.001 657.289 810.314 660 800 660 C 789.686 660 779.999 657.289 771.617 652.54 Z " fill-rule="evenodd" fill="rgb(15,25,40)"/><path d=" M 866.986 694.224 C 849.251 710.242 825.756 720 800 720 C 774.244 720 750.749 710.242 733.014 694.224" fill="none" vector-effect="non-scaling-stroke" stroke-width="15" stroke="rgb(15,25,40)" stroke-linejoin="miter" stroke-linecap="round" stroke-miterlimit="3"/><path d=" M 882.446 694.224 C 874.497 693.361 868.301 686.62 868.301 678.443" fill="rgb(0,100,255)" vector-effect="non-scaling-stroke" stroke-width="15" stroke="rgb(15,25,40)" stroke-linejoin="miter" stroke-linecap="round" stroke-miterlimit="3"/><path d=" M 714.286 636.333 L 600 579.191 M 714.286 636.333 L 600 636.333 M 714.286 636.333 L 600 693.476 M 885.714 636.333 L 1000 579.191 M 885.714 636.333 L 1000 636.333 M 885.714 636.333 L 1000 693.476" fill-rule="evenodd" fill="none" vector-effect="non-scaling-stroke" stroke-width="15" stroke="rgb(15,25,40)" stroke-linejoin="miter" stroke-linecap="round" stroke-miterlimit="3"/><path d=" M 1006.36 559.147 L 1059.393 506.114 C 1065.247 500.26 1065.247 490.755 1059.393 484.901 L 1059.393 484.901 C 1053.539 479.047 1044.034 479.047 1038.18 484.901 L 974.541 548.541 L 974.541 548.541 L 974.541 548.541 C 968.687 554.395 968.687 563.9 974.541 569.754 L 974.541 569.754 L 974.541 569.754 L 974.541 569.754 L 974.541 569.754 L 1038.18 633.393 C 1044.034 639.247 1053.539 639.247 1059.393 633.393 L 1059.393 633.393 C 1065.247 627.539 1065.247 618.034 1059.393 612.18 L 1006.36 559.147 Z " fill-rule="evenodd" fill="rgb(15,25,40)"/><circle vector-effect="non-scaling-stroke" cx="729.0070550091853" cy="549.9971862576112" r="25" fill="rgb(255,255,255)"/><circle vector-effect="non-scaling-stroke" cx="729.0070550091853" cy="550" r="18.3005142552463" fill="rgb(15,25,40)"/><circle vector-effect="non-scaling-stroke" cx="870.9929449908147" cy="549.9971862576111" r="25" fill="rgb(255,255,255)"/><circle vector-effect="non-scaling-stroke" cx="870.9929449908147" cy="550" r="18.3005142552463" fill="rgb(15,25,40)"/></g></svg>
