<?xml version="1.0" encoding="UTF-8" standalone="no"?><!-- Generator: Gravit.io --><svg xmlns="http://www.w3.org/2000/svg" xmlns:xlink="http://www.w3.org/1999/xlink" style="isolation:isolate" viewBox="0 0 60 60" width="60pt" height="60pt"><defs><clipPath id="_clipPath_JAHA1fKFVlyoZkPG7a3ILVb4mdxqoPDF"><rect width="60" height="60"/></clipPath></defs><g clip-path="url(#_clipPath_JAHA1fKFVlyoZkPG7a3ILVb4mdxqoPDF)"><path d="M 49.005 21.995 L 57.494 30.477 C 58.275 31.258 58.275 32.525 57.494 33.305 L 57.494 33.305 C 56.713 34.085 55.446 34.085 54.665 33.305 L 46.176 24.823 C 45.395 24.042 45.395 22.775 46.176 21.995 L 46.176 21.995 C 46.957 21.215 48.224 21.215 49.005 21.995 Z" style="stroke:none;fill:#003D99;stroke-miterlimit:10;"/><path d="M 45.659 23.928 L 48.766 35.517 C 49.052 36.584 50.15 37.217 51.217 36.931 L 51.217 36.931 C 52.283 36.646 52.917 35.548 52.631 34.482 L 49.524 22.893 C 49.238 21.826 48.14 21.193 47.073 21.479 L 47.073 21.479 C 46.007 21.764 45.373 22.862 45.659 23.928 Z" style="stroke:none;fill:#003D99;stroke-miterlimit:10;"/><path d=" M 21.838 14.873 L 18.362 18.349 L 14.885 21.826 C 13.896 22.815 12.8 22.521 12.438 21.171 L 11.166 16.421 L 9.893 11.672 C 9.531 10.322 10.334 9.519 11.684 9.881 L 16.434 11.153 L 21.183 12.426 C 22.533 12.788 22.827 13.884 21.838 14.873 Z " fill="rgb(0,100,255)"/><path d=" M 19.245 15.43 L 17.344 17.332 L 15.442 19.233 C 14.902 19.774 14.302 19.613 14.104 18.875 L 13.408 16.277 L 12.712 13.679 C 12.514 12.941 12.953 12.502 13.692 12.7 L 16.289 13.396 L 18.887 14.092 C 19.625 14.29 19.786 14.889 19.245 15.43 Z " fill="rgb(0,88,221)"/><path d=" M 38.162 14.873 L 41.638 18.349 L 45.115 21.826 C 46.104 22.815 47.2 22.521 47.562 21.171 L 48.834 16.421 L 50.107 11.672 C 50.469 10.322 49.666 9.519 48.316 9.881 L 43.566 11.153 L 38.817 12.426 C 37.467 12.788 37.173 13.884 38.162 14.873 Z " fill="rgb(0,100,255)"/><path d=" M 40.755 15.43 L 42.656 17.332 L 44.558 19.233 C 45.098 19.774 45.698 19.613 45.896 18.875 L 46.592 16.277 L 47.288 13.679 C 47.486 12.941 47.047 12.502 46.308 12.7 L 43.711 13.396 L 41.113 14.092 C 40.375 14.29 40.214 14.889 40.755 15.43 Z " fill="rgb(0,88,221)"/><circle vector-effect="non-scaling-stroke" cx="30.19365755786829" cy="30.205930632330762" r="20" fill="rgb(0,100,255)"/><circle vector-effect="non-scaling-stroke" cx="22.693657557868296" cy="30.205930632330798" r="2" fill="rgb(0,61,153)"/><circle vector-effect="non-scaling-stroke" cx="37.69365755786829" cy="30.205930632330798" r="2" fill="rgb(0,61,153)"/><path d=" M 31.467 37.751 L 30.194 37.751 L 28.921 37.751 C 27.822 37.751 27.376 36.979 27.925 36.027 L 28.562 34.924 L 29.198 33.822 C 29.748 32.87 30.64 32.87 31.189 33.822 L 31.826 34.924 L 32.462 36.027 C 33.012 36.979 32.566 37.751 31.467 37.751 Z " fill="rgb(0,61,153)"/><g><path d="M 34.393 38.151 L 42.96 33.205 C 43.298 33.01 43.73 33.126 43.925 33.463 L 43.925 33.463 C 44.12 33.801 44.004 34.234 43.667 34.429 L 35.1 39.375 C 34.762 39.57 34.33 39.454 34.135 39.117 L 34.135 39.117 C 33.94 38.779 34.056 38.346 34.393 38.151 Z" style="stroke:none;fill:#003D99;stroke-miterlimit:10;"/><path d="M 34.746 38.05 L 44.634 38.05 C 45.024 38.05 45.34 38.368 45.34 38.76 L 45.34 38.76 C 45.34 39.152 45.024 39.47 44.634 39.47 L 34.746 39.47 C 34.356 39.47 34.04 39.152 34.04 38.76 L 34.04 38.76 C 34.04 38.368 34.356 38.05 34.746 38.05 Z" style="stroke:none;fill:#003D99;stroke-miterlimit:10;"/><path d="M 34.393 39.369 L 42.96 44.315 C 43.298 44.51 43.73 44.394 43.925 44.057 L 43.925 44.057 C 44.12 43.719 44.004 43.286 43.667 43.091 L 35.1 38.145 C 34.762 37.95 34.33 38.066 34.135 38.403 L 34.135 38.403 C 33.94 38.741 34.056 39.174 34.393 39.369 Z" style="stroke:none;fill:#003D99;stroke-miterlimit:10;"/></g><g><path d="M 25.987 38.151 L 17.429 33.205 C 17.091 33.01 16.659 33.126 16.465 33.463 L 16.465 33.463 C 16.27 33.801 16.386 34.234 16.723 34.429 L 25.281 39.375 C 25.619 39.57 26.051 39.454 26.245 39.117 L 26.245 39.117 C 26.44 38.779 26.324 38.346 25.987 38.151 Z" style="stroke:none;fill:#003D99;stroke-miterlimit:10;"/><path d="M 25.634 38.05 L 15.746 38.05 C 15.356 38.05 15.04 38.368 15.04 38.76 L 15.04 38.76 C 15.04 39.152 15.356 39.47 15.746 39.47 L 25.634 39.47 C 26.024 39.47 26.34 39.152 26.34 38.76 L 26.34 38.76 C 26.34 38.368 26.024 38.05 25.634 38.05 Z" style="stroke:none;fill:#003D99;stroke-miterlimit:10;"/><path d="M 25.987 39.369 L 17.429 44.315 C 17.091 44.51 16.659 44.394 16.465 44.057 L 16.465 44.057 C 16.27 43.719 16.386 43.286 16.723 43.091 L 25.281 38.145 C 25.619 37.95 26.051 38.066 26.245 38.403 L 26.245 38.403 C 26.44 38.741 26.324 39.174 25.987 39.369 Z" style="stroke:none;fill:#003D99;stroke-miterlimit:10;"/></g><path d=" M 10.594 26 C 11.03 23.856 11.81 21.836 12.873 20 L 47.514 20 C 48.577 21.836 49.357 23.856 49.793 26 L 10.594 26 Z " fill-rule="evenodd" fill="rgb(0,61,153)"/></g></svg>