<?xml version="1.0" encoding="UTF-8" standalone="no"?><!-- Generator: Gravit.io --><svg xmlns="http://www.w3.org/2000/svg" xmlns:xlink="http://www.w3.org/1999/xlink" style="isolation:isolate" viewBox="0 0 480 360" width="480pt" height="360pt"><defs><clipPath id="_clipPath_fuSQM6Vktr90nG2tC4KRLk41ulUeHa3a"><rect width="480" height="360"/></clipPath></defs><g clip-path="url(#_clipPath_fuSQM6Vktr90nG2tC4KRLk41ulUeHa3a)"><path d="M 256.341 171.268 L 266.738 165.268 C 267.695 164.716 268.92 165.044 269.472 166 L 269.472 166 C 270.024 166.956 269.696 168.18 268.739 168.732 L 258.342 174.732 C 257.385 175.284 256.16 174.956 255.608 174 L 255.608 174 C 255.056 173.044 255.384 171.82 256.341 171.268 Z" style="stroke:none;fill:#003D99;stroke-miterlimit:10;"/><path d="M 256.341 174.732 L 266.738 180.732 C 267.695 181.284 268.92 180.956 269.472 180 L 269.472 180 C 270.024 179.044 269.696 177.82 268.739 177.268 L 258.342 171.268 C 257.385 170.716 256.16 171.044 255.608 172 L 255.608 172 C 255.056 172.956 255.384 174.18 256.341 174.732 Z" style="stroke:none;fill:#003D99;stroke-miterlimit:10;"/><path d=" M 231.838 164.873 L 228.362 168.349 L 224.885 171.826 C 223.896 172.815 222.8 172.521 222.438 171.171 L 221.166 166.421 L 219.893 161.672 C 219.531 160.322 220.334 159.519 221.684 159.881 L 226.434 161.153 L 231.183 162.426 C 232.533 162.788 232.827 163.884 231.838 164.873 Z " fill="rgb(0,100,255)"/><path d=" M 229.245 165.43 L 227.344 167.332 L 225.442 169.233 C 224.902 169.774 224.302 169.613 224.104 168.875 L 223.408 166.277 L 222.712 163.679 C 222.514 162.941 222.953 162.502 223.692 162.7 L 226.289 163.396 L 228.887 164.092 C 229.625 164.29 229.786 164.889 229.245 165.43 Z " fill="rgb(0,88,221)"/><path d=" M 248.162 164.873 L 251.638 168.349 L 255.115 171.826 C 256.104 172.815 257.2 172.521 257.562 171.171 L 258.834 166.421 L 260.107 161.672 C 260.469 160.322 259.666 159.519 258.316 159.881 L 253.566 161.153 L 248.817 162.426 C 247.467 162.788 247.173 163.884 248.162 164.873 Z " fill="rgb(0,100,255)"/><path d=" M 250.755 165.43 L 252.656 167.332 L 254.558 169.233 C 255.098 169.774 255.698 169.613 255.896 168.875 L 256.592 166.277 L 257.288 163.679 C 257.486 162.941 257.047 162.502 256.308 162.7 L 253.711 163.396 L 251.113 164.092 C 250.375 164.29 250.214 164.889 250.755 165.43 Z " fill="rgb(0,88,221)"/><circle vector-effect="non-scaling-stroke" cx="240.19365755786828" cy="180.2059306323308" r="20.000000000000014" fill="rgb(0,100,255)"/><circle vector-effect="non-scaling-stroke" cx="232.69365755786825" cy="180.20593063233082" r="2" fill="rgb(0,61,153)"/><circle vector-effect="non-scaling-stroke" cx="247.69365755786825" cy="180.20593063233082" r="2" fill="rgb(0,61,153)"/><path d=" M 241.467 187.751 L 240.194 187.751 L 238.921 187.751 C 237.822 187.751 237.376 186.979 237.925 186.027 L 238.562 184.924 L 239.198 183.822 C 239.748 182.87 240.64 182.87 241.189 183.822 L 241.826 184.924 L 242.462 186.027 C 243.012 186.979 242.566 187.751 241.467 187.751 Z " fill="rgb(0,61,153)"/><g><path d="M 244.393 188.151 L 252.96 183.205 C 253.298 183.01 253.73 183.126 253.925 183.463 L 253.925 183.463 C 254.12 183.801 254.004 184.234 253.667 184.429 L 245.1 189.375 C 244.762 189.57 244.33 189.454 244.135 189.117 L 244.135 189.117 C 243.94 188.779 244.056 188.346 244.393 188.151 Z" style="stroke:none;fill:#003D99;stroke-miterlimit:10;"/><path d="M 244.746 188.05 L 254.634 188.05 C 255.024 188.05 255.34 188.368 255.34 188.76 L 255.34 188.76 C 255.34 189.152 255.024 189.47 254.634 189.47 L 244.746 189.47 C 244.356 189.47 244.04 189.152 244.04 188.76 L 244.04 188.76 C 244.04 188.368 244.356 188.05 244.746 188.05 Z" style="stroke:none;fill:#003D99;stroke-miterlimit:10;"/><path d="M 244.393 189.369 L 252.96 194.315 C 253.298 194.51 253.73 194.394 253.925 194.057 L 253.925 194.057 C 254.12 193.719 254.004 193.286 253.667 193.091 L 245.1 188.145 C 244.762 187.95 244.33 188.066 244.135 188.403 L 244.135 188.403 C 243.94 188.741 244.056 189.174 244.393 189.369 Z" style="stroke:none;fill:#003D99;stroke-miterlimit:10;"/></g><g><path d="M 235.987 188.151 L 227.429 183.205 C 227.091 183.01 226.659 183.126 226.465 183.463 L 226.465 183.463 C 226.27 183.801 226.386 184.234 226.723 184.429 L 235.281 189.375 C 235.619 189.57 236.051 189.454 236.245 189.117 L 236.245 189.117 C 236.44 188.779 236.324 188.346 235.987 188.151 Z" style="stroke:none;fill:#003D99;stroke-miterlimit:10;"/><path d="M 235.634 188.05 L 225.746 188.05 C 225.356 188.05 225.04 188.368 225.04 188.76 L 225.04 188.76 C 225.04 189.152 225.356 189.47 225.746 189.47 L 235.634 189.47 C 236.024 189.47 236.34 189.152 236.34 188.76 L 236.34 188.76 C 236.34 188.368 236.024 188.05 235.634 188.05 Z" style="stroke:none;fill:#003D99;stroke-miterlimit:10;"/><path d="M 235.987 189.369 L 227.429 194.315 C 227.091 194.51 226.659 194.394 226.465 194.057 L 226.465 194.057 C 226.27 193.719 226.386 193.286 226.723 193.091 L 235.281 188.145 C 235.619 187.95 236.051 188.066 236.245 188.403 L 236.245 188.403 C 236.44 188.741 236.324 189.174 235.987 189.369 Z" style="stroke:none;fill:#003D99;stroke-miterlimit:10;"/></g><path d=" M 220.594 176 C 221.03 173.856 221.81 171.836 222.873 170 L 257.514 170 C 258.577 171.836 259.357 173.856 259.793 176 L 220.594 176 Z " fill-rule="evenodd" fill="rgb(0,61,153)"/></g></svg>