<?xml version="1.0" encoding="UTF-8" standalone="no"?><!-- Generator: Gravit.io --><svg xmlns="http://www.w3.org/2000/svg" xmlns:xlink="http://www.w3.org/1999/xlink" style="isolation:isolate" viewBox="0 0 480 360" width="480pt" height="360pt"><defs><clipPath id="_clipPath_17Lrnr6sqtAh0r8VnGPAOwpWh36eKSkv"><rect width="480" height="360"/></clipPath></defs><g clip-path="url(#_clipPath_17Lrnr6sqtAh0r8VnGPAOwpWh36eKSkv)"><path d=" M 166.775 39.4 L 170.325 39.4 L 158.525 74.4 L 154.625 74.4 L 144.375 44.55 L 134.075 74.4 L 130.225 74.4 L 118.425 39.4 L 122.225 39.4 L 132.325 69.5 L 142.775 39.4 L 146.225 39.4 L 156.525 69.65 L 166.775 39.4 L 166.775 39.4 Z  M 197.275 61.25 L 197.225 62.35 L 175.225 62.35 L 175.225 62.35 Q 175.525 66.45 178.375 68.975 L 178.375 68.975 L 178.375 68.975 Q 181.225 71.5 185.575 71.5 L 185.575 71.5 L 185.575 71.5 Q 188.025 71.5 190.075 70.625 L 190.075 70.625 L 190.075 70.625 Q 192.125 69.75 193.625 68.05 L 193.625 68.05 L 195.625 70.35 L 195.625 70.35 Q 193.875 72.45 191.25 73.55 L 191.25 73.55 L 191.25 73.55 Q 188.625 74.65 185.475 74.65 L 185.475 74.65 L 185.475 74.65 Q 181.425 74.65 178.3 72.925 L 178.3 72.925 L 178.3 72.925 Q 175.175 71.2 173.425 68.15 L 173.425 68.15 L 173.425 68.15 Q 171.675 65.1 171.675 61.25 L 171.675 61.25 L 171.675 61.25 Q 171.675 57.4 173.35 54.35 L 173.35 54.35 L 173.35 54.35 Q 175.025 51.3 177.95 49.6 L 177.95 49.6 L 177.95 49.6 Q 180.875 47.9 184.525 47.9 L 184.525 47.9 L 184.525 47.9 Q 188.175 47.9 191.075 49.6 L 191.075 49.6 L 191.075 49.6 Q 193.975 51.3 195.625 54.325 L 195.625 54.325 L 195.625 54.325 Q 197.275 57.35 197.275 61.25 L 197.275 61.25 L 197.275 61.25 Z  M 184.525 50.95 L 184.525 50.95 Q 180.725 50.95 178.15 53.375 L 178.15 53.375 L 178.15 53.375 Q 175.575 55.8 175.225 59.7 L 175.225 59.7 L 193.875 59.7 L 193.875 59.7 Q 193.525 55.8 190.95 53.375 L 190.95 53.375 L 190.95 53.375 Q 188.375 50.95 184.525 50.95 L 184.525 50.95 L 184.525 50.95 Z  M 204.525 74.4 L 204.525 37.3 L 208.075 37.3 L 208.075 74.4 L 204.525 74.4 L 204.525 74.4 Z  M 228.875 74.65 L 228.875 74.65 Q 224.975 74.65 221.9 72.95 L 221.9 72.95 L 221.9 72.95 Q 218.825 71.25 217.075 68.175 L 217.075 68.175 L 217.075 68.175 Q 215.325 65.1 215.325 61.25 L 215.325 61.25 L 215.325 61.25 Q 215.325 57.4 217.075 54.35 L 217.075 54.35 L 217.075 54.35 Q 218.825 51.3 221.9 49.6 L 221.9 49.6 L 221.9 49.6 Q 224.975 47.9 228.875 47.9 L 228.875 47.9 L 228.875 47.9 Q 232.275 47.9 234.95 49.225 L 234.95 49.225 L 234.95 49.225 Q 237.625 50.55 239.175 53.1 L 239.175 53.1 L 236.525 54.9 L 236.525 54.9 Q 235.225 52.95 233.225 51.975 L 233.225 51.975 L 233.225 51.975 Q 231.225 51 228.875 51 L 228.875 51 L 228.875 51 Q 226.025 51 223.75 52.275 L 223.75 52.275 L 223.75 52.275 Q 221.475 53.55 220.2 55.9 L 220.2 55.9 L 220.2 55.9 Q 218.925 58.25 218.925 61.25 L 218.925 61.25 L 218.925 61.25 Q 218.925 64.3 220.2 66.625 L 220.2 66.625 L 220.2 66.625 Q 221.475 68.95 223.75 70.225 L 223.75 70.225 L 223.75 70.225 Q 226.025 71.5 228.875 71.5 L 228.875 71.5 L 228.875 71.5 Q 231.225 71.5 233.225 70.55 L 233.225 70.55 L 233.225 70.55 Q 235.225 69.6 236.525 67.65 L 236.525 67.65 L 239.175 69.45 L 239.175 69.45 Q 237.625 72 234.925 73.325 L 234.925 73.325 L 234.925 73.325 Q 232.225 74.65 228.875 74.65 L 228.875 74.65 L 228.875 74.65 Z  M 256.425 74.65 L 256.425 74.65 Q 252.625 74.65 249.575 72.925 L 249.575 72.925 L 249.575 72.925 Q 246.525 71.2 244.775 68.15 L 244.775 68.15 L 244.775 68.15 Q 243.025 65.1 243.025 61.25 L 243.025 61.25 L 243.025 61.25 Q 243.025 57.4 244.775 54.35 L 244.775 54.35 L 244.775 54.35 Q 246.525 51.3 249.575 49.6 L 249.575 49.6 L 249.575 49.6 Q 252.625 47.9 256.425 47.9 L 256.425 47.9 L 256.425 47.9 Q 260.225 47.9 263.275 49.6 L 263.275 49.6 L 263.275 49.6 Q 266.325 51.3 268.05 54.35 L 268.05 54.35 L 268.05 54.35 Q 269.775 57.4 269.775 61.25 L 269.775 61.25 L 269.775 61.25 Q 269.775 65.1 268.05 68.15 L 268.05 68.15 L 268.05 68.15 Q 266.325 71.2 263.275 72.925 L 263.275 72.925 L 263.275 72.925 Q 260.225 74.65 256.425 74.65 L 256.425 74.65 L 256.425 74.65 Z  M 256.425 71.5 L 256.425 71.5 Q 259.225 71.5 261.45 70.225 L 261.45 70.225 L 261.45 70.225 Q 263.675 68.95 264.925 66.6 L 264.925 66.6 L 264.925 66.6 Q 266.175 64.25 266.175 61.25 L 266.175 61.25 L 266.175 61.25 Q 266.175 58.25 264.925 55.9 L 264.925 55.9 L 264.925 55.9 Q 263.675 53.55 261.45 52.275 L 261.45 52.275 L 261.45 52.275 Q 259.225 51 256.425 51 L 256.425 51 L 256.425 51 Q 253.625 51 251.4 52.275 L 251.4 52.275 L 251.4 52.275 Q 249.175 53.55 247.9 55.9 L 247.9 55.9 L 247.9 55.9 Q 246.625 58.25 246.625 61.25 L 246.625 61.25 L 246.625 61.25 Q 246.625 64.25 247.9 66.6 L 247.9 66.6 L 247.9 66.6 Q 249.175 68.95 251.4 70.225 L 251.4 70.225 L 251.4 70.225 Q 253.625 71.5 256.425 71.5 L 256.425 71.5 L 256.425 71.5 Z  M 309.825 47.9 L 309.825 47.9 Q 314.775 47.9 317.6 50.75 L 317.6 50.75 L 317.6 50.75 Q 320.425 53.6 320.425 59.15 L 320.425 59.15 L 320.425 74.4 L 316.875 74.4 L 316.875 59.5 L 316.875 59.5 Q 316.875 55.4 314.9 53.25 L 314.9 53.25 L 314.9 53.25 Q 312.925 51.1 309.325 51.1 L 309.325 51.1 L 309.325 51.1 Q 305.225 51.1 302.875 53.625 L 302.875 53.625 L 302.875 53.625 Q 300.525 56.15 300.525 60.6 L 300.525 60.6 L 300.525 74.4 L 296.975 74.4 L 296.975 59.5 L 296.975 59.5 Q 296.975 55.4 295 53.25 L 295 53.25 L 295 53.25 Q 293.025 51.1 289.375 51.1 L 289.375 51.1 L 289.375 51.1 Q 285.325 51.1 282.95 53.625 L 282.95 53.625 L 282.95 53.625 Q 280.575 56.15 280.575 60.6 L 280.575 60.6 L 280.575 74.4 L 277.025 74.4 L 277.025 48.1 L 280.425 48.1 L 280.425 52.9 L 280.425 52.9 Q 281.825 50.5 284.325 49.2 L 284.325 49.2 L 284.325 49.2 Q 286.825 47.9 290.075 47.9 L 290.075 47.9 L 290.075 47.9 Q 293.375 47.9 295.8 49.3 L 295.8 49.3 L 295.8 49.3 Q 298.225 50.7 299.425 53.45 L 299.425 53.45 L 299.425 53.45 Q 300.875 50.85 303.6 49.375 L 303.6 49.375 L 303.6 49.375 Q 306.325 47.9 309.825 47.9 L 309.825 47.9 L 309.825 47.9 Z  M 353.125 61.25 L 353.075 62.35 L 331.075 62.35 L 331.075 62.35 Q 331.375 66.45 334.225 68.975 L 334.225 68.975 L 334.225 68.975 Q 337.075 71.5 341.425 71.5 L 341.425 71.5 L 341.425 71.5 Q 343.875 71.5 345.925 70.625 L 345.925 70.625 L 345.925 70.625 Q 347.975 69.75 349.475 68.05 L 349.475 68.05 L 351.475 70.35 L 351.475 70.35 Q 349.725 72.45 347.1 73.55 L 347.1 73.55 L 347.1 73.55 Q 344.475 74.65 341.325 74.65 L 341.325 74.65 L 341.325 74.65 Q 337.275 74.65 334.15 72.925 L 334.15 72.925 L 334.15 72.925 Q 331.025 71.2 329.275 68.15 L 329.275 68.15 L 329.275 68.15 Q 327.525 65.1 327.525 61.25 L 327.525 61.25 L 327.525 61.25 Q 327.525 57.4 329.2 54.35 L 329.2 54.35 L 329.2 54.35 Q 330.875 51.3 333.8 49.6 L 333.8 49.6 L 333.8 49.6 Q 336.725 47.9 340.375 47.9 L 340.375 47.9 L 340.375 47.9 Q 344.025 47.9 346.925 49.6 L 346.925 49.6 L 346.925 49.6 Q 349.825 51.3 351.475 54.325 L 351.475 54.325 L 351.475 54.325 Q 353.125 57.35 353.125 61.25 L 353.125 61.25 L 353.125 61.25 Z  M 340.375 50.95 L 340.375 50.95 Q 336.575 50.95 334 53.375 L 334 53.375 L 334 53.375 Q 331.425 55.8 331.075 59.7 L 331.075 59.7 L 349.725 59.7 L 349.725 59.7 Q 349.375 55.8 346.8 53.375 L 346.8 53.375 L 346.8 53.375 Q 344.225 50.95 340.375 50.95 L 340.375 50.95 L 340.375 50.95 Z  M 360.525 63.9 L 359.825 39.4 L 364.025 39.4 L 363.275 63.9 L 360.525 63.9 L 360.525 63.9 Z  M 361.925 74.65 L 361.925 74.65 Q 360.825 74.65 360.05 73.875 L 360.05 73.875 L 360.05 73.875 Q 359.275 73.1 359.275 72.05 L 359.275 72.05 L 359.275 72.05 Q 359.275 70.95 360.025 70.225 L 360.025 70.225 L 360.025 70.225 Q 360.775 69.5 361.925 69.5 L 361.925 69.5 L 361.925 69.5 Q 363.025 69.5 363.775 70.225 L 363.775 70.225 L 363.775 70.225 Q 364.525 70.95 364.525 72.05 L 364.525 72.05 L 364.525 72.05 Q 364.525 73.1 363.775 73.875 L 363.775 73.875 L 363.775 73.875 Q 363.025 74.65 361.925 74.65 L 361.925 74.65 L 361.925 74.65 Z " fill="rgb(255,255,255)"/><path d=" M 311.6 163.2 L 330.85 163.2 L 330.85 166.4 L 306.3 166.4 L 306.3 163.85 L 320.85 149.6 L 320.85 149.6 Q 323.6 146.9 324.575 144.925 L 324.575 144.925 L 324.575 144.925 Q 325.55 142.95 325.55 140.95 L 325.55 140.95 L 325.55 140.95 Q 325.55 137.85 323.425 136.125 L 323.425 136.125 L 323.425 136.125 Q 321.3 134.4 317.35 134.4 L 317.35 134.4 L 317.35 134.4 Q 311.2 134.4 307.8 138.3 L 307.8 138.3 L 305.25 136.1 L 305.25 136.1 Q 307.3 133.7 310.475 132.4 L 310.475 132.4 L 310.475 132.4 Q 313.65 131.1 317.65 131.1 L 317.65 131.1 L 317.65 131.1 Q 323 131.1 326.125 133.625 L 326.125 133.625 L 326.125 133.625 Q 329.25 136.15 329.25 140.55 L 329.25 140.55 L 329.25 140.55 Q 329.25 143.25 328.05 145.75 L 328.05 145.75 L 328.05 145.75 Q 326.85 148.25 323.5 151.5 L 323.5 151.5 L 311.6 163.2 L 311.6 163.2 Z  M 355.4 148.05 L 355.4 148.05 Q 358.7 149.15 360.475 151.35 L 360.475 151.35 L 360.475 151.35 Q 362.25 153.55 362.25 156.65 L 362.25 156.65 L 362.25 156.65 Q 362.25 159.7 360.6 161.975 L 360.6 161.975 L 360.6 161.975 Q 358.95 164.25 355.875 165.475 L 355.875 165.475 L 355.875 165.475 Q 352.8 166.7 348.65 166.7 L 348.65 166.7 L 348.65 166.7 Q 342.35 166.7 338.75 164 L 338.75 164 L 338.75 164 Q 335.15 161.3 335.15 156.65 L 335.15 156.65 L 335.15 156.65 Q 335.15 153.5 336.875 151.325 L 336.875 151.325 L 336.875 151.325 Q 338.6 149.15 341.9 148.05 L 341.9 148.05 L 341.9 148.05 Q 339.2 147 337.8 145.025 L 337.8 145.025 L 337.8 145.025 Q 336.4 143.05 336.4 140.35 L 336.4 140.35 L 336.4 140.35 Q 336.4 136.1 339.725 133.6 L 339.725 133.6 L 339.725 133.6 Q 343.05 131.1 348.65 131.1 L 348.65 131.1 L 348.65 131.1 Q 352.35 131.1 355.125 132.225 L 355.125 132.225 L 355.125 132.225 Q 357.9 133.35 359.45 135.45 L 359.45 135.45 L 359.45 135.45 Q 361 137.55 361 140.35 L 361 140.35 L 361 140.35 Q 361 143.05 359.55 145.025 L 359.55 145.025 L 359.55 145.025 Q 358.1 147 355.4 148.05 L 355.4 148.05 L 355.4 148.05 Z  M 340 140.45 L 340 140.45 Q 340 143.35 342.3 145.05 L 342.3 145.05 L 342.3 145.05 Q 344.6 146.75 348.65 146.75 L 348.65 146.75 L 348.65 146.75 Q 352.7 146.75 355.025 145.05 L 355.025 145.05 L 355.025 145.05 Q 357.35 143.35 357.35 140.5 L 357.35 140.5 L 357.35 140.5 Q 357.35 137.55 354.975 135.85 L 354.975 135.85 L 354.975 135.85 Q 352.6 134.15 348.65 134.15 L 348.65 134.15 L 348.65 134.15 Q 344.65 134.15 342.325 135.85 L 342.325 135.85 L 342.325 135.85 Q 340 137.55 340 140.45 L 340 140.45 L 340 140.45 Z  M 348.65 163.65 L 348.65 163.65 Q 353.3 163.65 355.925 161.75 L 355.925 161.75 L 355.925 161.75 Q 358.55 159.85 358.55 156.6 L 358.55 156.6 L 358.55 156.6 Q 358.55 153.35 355.925 151.475 L 355.925 151.475 L 355.925 151.475 Q 353.3 149.6 348.65 149.6 L 348.65 149.6 L 348.65 149.6 Q 344.05 149.6 341.425 151.475 L 341.425 151.475 L 341.425 151.475 Q 338.8 153.35 338.8 156.6 L 338.8 156.6 L 338.8 156.6 Q 338.8 159.9 341.4 161.775 L 341.4 161.775 L 341.4 161.775 Q 344 163.65 348.65 163.65 L 348.65 163.65 L 348.65 163.65 Z  M 396.25 166.4 L 392.05 157.05 L 372.55 157.05 L 368.35 166.4 L 364.5 166.4 L 380.5 131.4 L 384.15 131.4 L 400.15 166.4 L 396.25 166.4 L 396.25 166.4 Z  M 373.9 154.05 L 390.7 154.05 L 382.3 135.25 L 373.9 154.05 L 373.9 154.05 Z  M 439.25 131.4 L 442.3 131.4 L 442.3 166.4 L 438.75 166.4 L 438.75 138.4 L 425 161.95 L 423.25 161.95 L 409.5 138.55 L 409.5 166.4 L 405.95 166.4 L 405.95 131.4 L 409 131.4 L 424.2 157.35 L 439.25 131.4 L 439.25 131.4 Z  M 276.15 131.4 L 288 131.4 L 288 166.4 L 284.4 166.4 L 284.4 134.6 L 276.15 134.6 L 276.15 131.4 L 276.15 131.4 Z  M 299.05 145.35 L 299.05 145.35 Q 297.95 145.35 297.175 144.55 L 297.175 144.55 L 297.175 144.55 Q 296.4 143.75 296.4 142.6 L 296.4 142.6 L 296.4 142.6 Q 296.4 141.45 297.175 140.675 L 297.175 140.675 L 297.175 140.675 Q 297.95 139.9 299.05 139.9 L 299.05 139.9 L 299.05 139.9 Q 300.15 139.9 300.95 140.675 L 300.95 140.675 L 300.95 140.675 Q 301.75 141.45 301.75 142.6 L 301.75 142.6 L 301.75 142.6 Q 301.75 143.75 300.95 144.55 L 300.95 144.55 L 300.95 144.55 Q 300.15 145.35 299.05 145.35 L 299.05 145.35 L 299.05 145.35 Z  M 299.05 166.65 L 299.05 166.65 Q 297.95 166.65 297.175 165.85 L 297.175 165.85 L 297.175 165.85 Q 296.4 165.05 296.4 163.9 L 296.4 163.9 L 296.4 163.9 Q 296.4 162.75 297.175 161.975 L 297.175 161.975 L 297.175 161.975 Q 297.95 161.2 299.05 161.2 L 299.05 161.2 L 299.05 161.2 Q 300.15 161.2 300.95 161.975 L 300.95 161.975 L 300.95 161.975 Q 301.75 162.75 301.75 163.9 L 301.75 163.9 L 301.75 163.9 Q 301.75 165.05 300.95 165.85 L 300.95 165.85 L 300.95 165.85 Q 300.15 166.65 299.05 166.65 L 299.05 166.65 L 299.05 166.65 Z " fill="rgb(255,255,255)"/><path d=" M 351.64 199.48 L 351.64 199.48 Q 348.92 199.48 347.4 197.92 L 347.4 197.92 L 347.4 197.92 Q 345.88 196.36 345.88 193.38 L 345.88 193.38 L 345.88 185.36 L 347.36 185.36 L 347.36 193.32 L 347.36 193.32 Q 347.36 195.76 348.46 196.96 L 348.46 196.96 L 348.46 196.96 Q 349.56 198.16 351.64 198.16 L 351.64 198.16 L 351.64 198.16 Q 353.74 198.16 354.84 196.96 L 354.84 196.96 L 354.84 196.96 Q 355.94 195.76 355.94 193.32 L 355.94 193.32 L 355.94 185.36 L 357.38 185.36 L 357.38 193.38 L 357.38 193.38 Q 357.38 196.36 355.87 197.92 L 355.87 197.92 L 355.87 197.92 Q 354.36 199.48 351.64 199.48 L 351.64 199.48 L 351.64 199.48 Z  M 364.36 199.46 L 364.36 199.46 Q 363.08 199.46 361.91 199.09 L 361.91 199.09 L 361.91 199.09 Q 360.74 198.72 360.08 198.16 L 360.08 198.16 L 360.72 197.04 L 360.72 197.04 Q 361.38 197.56 362.38 197.89 L 362.38 197.89 L 362.38 197.89 Q 363.38 198.22 364.46 198.22 L 364.46 198.22 L 364.46 198.22 Q 365.9 198.22 366.59 197.77 L 366.59 197.77 L 366.59 197.77 Q 367.28 197.32 367.28 196.5 L 367.28 196.5 L 367.28 196.5 Q 367.28 195.92 366.9 195.59 L 366.9 195.59 L 366.9 195.59 Q 366.52 195.26 365.94 195.09 L 365.94 195.09 L 365.94 195.09 Q 365.36 194.92 364.4 194.76 L 364.4 194.76 L 364.4 194.76 Q 363.12 194.52 362.34 194.27 L 362.34 194.27 L 362.34 194.27 Q 361.56 194.02 361.01 193.42 L 361.01 193.42 L 361.01 193.42 Q 360.46 192.82 360.46 191.76 L 360.46 191.76 L 360.46 191.76 Q 360.46 190.44 361.56 189.6 L 361.56 189.6 L 361.56 189.6 Q 362.66 188.76 364.62 188.76 L 364.62 188.76 L 364.62 188.76 Q 365.64 188.76 366.66 189.03 L 366.66 189.03 L 366.66 189.03 Q 367.68 189.3 368.34 189.74 L 368.34 189.74 L 367.72 190.88 L 367.72 190.88 Q 366.42 189.98 364.62 189.98 L 364.62 189.98 L 364.62 189.98 Q 363.26 189.98 362.57 190.46 L 362.57 190.46 L 362.57 190.46 Q 361.88 190.94 361.88 191.72 L 361.88 191.72 L 361.88 191.72 Q 361.88 192.32 362.27 192.68 L 362.27 192.68 L 362.27 192.68 Q 362.66 193.04 363.24 193.21 L 363.24 193.21 L 363.24 193.21 Q 363.82 193.38 364.84 193.56 L 364.84 193.56 L 364.84 193.56 Q 366.1 193.8 366.86 194.04 L 366.86 194.04 L 366.86 194.04 Q 367.62 194.28 368.16 194.86 L 368.16 194.86 L 368.16 194.86 Q 368.7 195.44 368.7 196.46 L 368.7 196.46 L 368.7 196.46 Q 368.7 197.84 367.55 198.65 L 367.55 198.65 L 367.55 198.65 Q 366.4 199.46 364.36 199.46 L 364.36 199.46 L 364.36 199.46 Z  M 380.5 194.1 L 380.48 194.54 L 371.68 194.54 L 371.68 194.54 Q 371.8 196.18 372.94 197.19 L 372.94 197.19 L 372.94 197.19 Q 374.08 198.2 375.82 198.2 L 375.82 198.2 L 375.82 198.2 Q 376.8 198.2 377.62 197.85 L 377.62 197.85 L 377.62 197.85 Q 378.44 197.5 379.04 196.82 L 379.04 196.82 L 379.84 197.74 L 379.84 197.74 Q 379.14 198.58 378.09 199.02 L 378.09 199.02 L 378.09 199.02 Q 377.04 199.46 375.78 199.46 L 375.78 199.46 L 375.78 199.46 Q 374.16 199.46 372.91 198.77 L 372.91 198.77 L 372.91 198.77 Q 371.66 198.08 370.96 196.86 L 370.96 196.86 L 370.96 196.86 Q 370.26 195.64 370.26 194.1 L 370.26 194.1 L 370.26 194.1 Q 370.26 192.56 370.93 191.34 L 370.93 191.34 L 370.93 191.34 Q 371.6 190.12 372.77 189.44 L 372.77 189.44 L 372.77 189.44 Q 373.94 188.76 375.4 188.76 L 375.4 188.76 L 375.4 188.76 Q 376.86 188.76 378.02 189.44 L 378.02 189.44 L 378.02 189.44 Q 379.18 190.12 379.84 191.33 L 379.84 191.33 L 379.84 191.33 Q 380.5 192.54 380.5 194.1 L 380.5 194.1 L 380.5 194.1 Z  M 375.4 189.98 L 375.4 189.98 Q 373.88 189.98 372.85 190.95 L 372.85 190.95 L 372.85 190.95 Q 371.82 191.92 371.68 193.48 L 371.68 193.48 L 379.14 193.48 L 379.14 193.48 Q 379 191.92 377.97 190.95 L 377.97 190.95 L 377.97 190.95 Q 376.94 189.98 375.4 189.98 L 375.4 189.98 L 375.4 189.98 Z  M 384.76 190.9 L 384.76 190.9 Q 385.26 189.84 386.25 189.3 L 386.25 189.3 L 386.25 189.3 Q 387.24 188.76 388.7 188.76 L 388.7 188.76 L 388.7 190.14 L 388.36 190.12 L 388.36 190.12 Q 386.7 190.12 385.76 191.14 L 385.76 191.14 L 385.76 191.14 Q 384.82 192.16 384.82 194 L 384.82 194 L 384.82 199.36 L 383.4 199.36 L 383.4 188.84 L 384.76 188.84 L 384.76 190.9 L 384.76 190.9 Z  M 396.62 188.76 L 396.62 188.76 Q 398.6 188.76 399.77 189.91 L 399.77 189.91 L 399.77 189.91 Q 400.94 191.06 400.94 193.26 L 400.94 193.26 L 400.94 199.36 L 399.52 199.36 L 399.52 193.4 L 399.52 193.4 Q 399.52 191.76 398.7 190.9 L 398.7 190.9 L 398.7 190.9 Q 397.88 190.04 396.36 190.04 L 396.36 190.04 L 396.36 190.04 Q 394.66 190.04 393.67 191.05 L 393.67 191.05 L 393.67 191.05 Q 392.68 192.06 392.68 193.84 L 392.68 193.84 L 392.68 199.36 L 391.26 199.36 L 391.26 188.84 L 392.62 188.84 L 392.62 190.78 L 392.62 190.78 Q 393.2 189.82 394.23 189.29 L 394.23 189.29 L 394.23 189.29 Q 395.26 188.76 396.62 188.76 L 396.62 188.76 L 396.62 188.76 Z  M 408.48 188.76 L 408.48 188.76 Q 410.54 188.76 411.64 189.79 L 411.64 189.79 L 411.64 189.79 Q 412.74 190.82 412.74 192.84 L 412.74 192.84 L 412.74 199.36 L 411.38 199.36 L 411.38 197.72 L 411.38 197.72 Q 410.9 198.54 409.97 199 L 409.97 199 L 409.97 199 Q 409.04 199.46 407.76 199.46 L 407.76 199.46 L 407.76 199.46 Q 406 199.46 404.96 198.62 L 404.96 198.62 L 404.96 198.62 Q 403.92 197.78 403.92 196.4 L 403.92 196.4 L 403.92 196.4 Q 403.92 195.06 404.89 194.24 L 404.89 194.24 L 404.89 194.24 Q 405.86 193.42 407.98 193.42 L 407.98 193.42 L 411.32 193.42 L 411.32 192.78 L 411.32 192.78 Q 411.32 191.42 410.56 190.71 L 410.56 190.71 L 410.56 190.71 Q 409.8 190 408.34 190 L 408.34 190 L 408.34 190 Q 407.34 190 406.42 190.33 L 406.42 190.33 L 406.42 190.33 Q 405.5 190.66 404.84 191.24 L 404.84 191.24 L 404.2 190.18 L 404.2 190.18 Q 405 189.5 406.12 189.13 L 406.12 189.13 L 406.12 189.13 Q 407.24 188.76 408.48 188.76 L 408.48 188.76 L 408.48 188.76 Z  M 407.98 198.34 L 407.98 198.34 Q 409.18 198.34 410.04 197.79 L 410.04 197.79 L 410.04 197.79 Q 410.9 197.24 411.32 196.2 L 411.32 196.2 L 411.32 194.48 L 408.02 194.48 L 408.02 194.48 Q 405.32 194.48 405.32 196.36 L 405.32 196.36 L 405.32 196.36 Q 405.32 197.28 406.02 197.81 L 406.02 197.81 L 406.02 197.81 Q 406.72 198.34 407.98 198.34 L 407.98 198.34 L 407.98 198.34 Z  M 429.72 188.76 L 429.72 188.76 Q 431.7 188.76 432.83 189.9 L 432.83 189.9 L 432.83 189.9 Q 433.96 191.04 433.96 193.26 L 433.96 193.26 L 433.96 199.36 L 432.54 199.36 L 432.54 193.4 L 432.54 193.4 Q 432.54 191.76 431.75 190.9 L 431.75 190.9 L 431.75 190.9 Q 430.96 190.04 429.52 190.04 L 429.52 190.04 L 429.52 190.04 Q 427.88 190.04 426.94 191.05 L 426.94 191.05 L 426.94 191.05 Q 426 192.06 426 193.84 L 426 193.84 L 426 199.36 L 424.58 199.36 L 424.58 193.4 L 424.58 193.4 Q 424.58 191.76 423.79 190.9 L 423.79 190.9 L 423.79 190.9 Q 423 190.04 421.54 190.04 L 421.54 190.04 L 421.54 190.04 Q 419.92 190.04 418.97 191.05 L 418.97 191.05 L 418.97 191.05 Q 418.02 192.06 418.02 193.84 L 418.02 193.84 L 418.02 199.36 L 416.6 199.36 L 416.6 188.84 L 417.96 188.84 L 417.96 190.76 L 417.96 190.76 Q 418.52 189.8 419.52 189.28 L 419.52 189.28 L 419.52 189.28 Q 420.52 188.76 421.82 188.76 L 421.82 188.76 L 421.82 188.76 Q 423.14 188.76 424.11 189.32 L 424.11 189.32 L 424.11 189.32 Q 425.08 189.88 425.56 190.98 L 425.56 190.98 L 425.56 190.98 Q 426.14 189.94 427.23 189.35 L 427.23 189.35 L 427.23 189.35 Q 428.32 188.76 429.72 188.76 L 429.72 188.76 L 429.72 188.76 Z  M 447.04 194.1 L 447.02 194.54 L 438.22 194.54 L 438.22 194.54 Q 438.34 196.18 439.48 197.19 L 439.48 197.19 L 439.48 197.19 Q 440.62 198.2 442.36 198.2 L 442.36 198.2 L 442.36 198.2 Q 443.34 198.2 444.16 197.85 L 444.16 197.85 L 444.16 197.85 Q 444.98 197.5 445.58 196.82 L 445.58 196.82 L 446.38 197.74 L 446.38 197.74 Q 445.68 198.58 444.63 199.02 L 444.63 199.02 L 444.63 199.02 Q 443.58 199.46 442.32 199.46 L 442.32 199.46 L 442.32 199.46 Q 440.7 199.46 439.45 198.77 L 439.45 198.77 L 439.45 198.77 Q 438.2 198.08 437.5 196.86 L 437.5 196.86 L 437.5 196.86 Q 436.8 195.64 436.8 194.1 L 436.8 194.1 L 436.8 194.1 Q 436.8 192.56 437.47 191.34 L 437.47 191.34 L 437.47 191.34 Q 438.14 190.12 439.31 189.44 L 439.31 189.44 L 439.31 189.44 Q 440.48 188.76 441.94 188.76 L 441.94 188.76 L 441.94 188.76 Q 443.4 188.76 444.56 189.44 L 444.56 189.44 L 444.56 189.44 Q 445.72 190.12 446.38 191.33 L 446.38 191.33 L 446.38 191.33 Q 447.04 192.54 447.04 194.1 L 447.04 194.1 L 447.04 194.1 Z  M 441.94 189.98 L 441.94 189.98 Q 440.42 189.98 439.39 190.95 L 439.39 190.95 L 439.39 190.95 Q 438.36 191.92 438.22 193.48 L 438.22 193.48 L 445.68 193.48 L 445.68 193.48 Q 445.54 191.92 444.51 190.95 L 444.51 190.95 L 444.51 190.95 Q 443.48 189.98 441.94 189.98 L 441.94 189.98 L 441.94 189.98 Z " fill="rgb(255,255,255)"/></g></svg>