<?xml version="1.0" encoding="UTF-8" standalone="no"?><!-- Generator: Gravit.io --><svg xmlns="http://www.w3.org/2000/svg" xmlns:xlink="http://www.w3.org/1999/xlink" style="isolation:isolate" viewBox="0 0 50 50" width="50pt" height="50pt"><defs><clipPath id="_clipPath_xVoQInNQJ7QYymYRX4Dp06Icg3WsLv1f"><rect width="50" height="50"/></clipPath></defs><g clip-path="url(#_clipPath_xVoQInNQJ7QYymYRX4Dp06Icg3WsLv1f)"><path d="M 24.872 2.5 L 25.128 2.5 C 26.437 2.5 27.5 3.563 27.5 4.872 L 27.5 45.128 C 27.5 46.437 26.437 47.5 25.128 47.5 L 24.872 47.5 C 23.563 47.5 22.5 46.437 22.5 45.128 L 22.5 4.872 C 22.5 3.563 23.563 2.5 24.872 2.5 Z" style="stroke:none;fill:#FFFFFF;stroke-miterlimit:10;"/><path d="M 2.5 25.128 L 2.5 24.872 C 2.5 23.563 3.563 22.5 4.872 22.5 L 45.128 22.5 C 46.437 22.5 47.5 23.563 47.5 24.872 L 47.5 25.128 C 47.5 26.437 46.437 27.5 45.128 27.5 L 4.872 27.5 C 3.563 27.5 2.5 26.437 2.5 25.128 Z" style="stroke:none;fill:#FFFFFF;stroke-miterlimit:10;"/></g></svg>