<?xml version="1.0" encoding="UTF-8" standalone="no"?><!-- Generator: Gravit.io --><svg xmlns="http://www.w3.org/2000/svg" xmlns:xlink="http://www.w3.org/1999/xlink" style="isolation:isolate" viewBox="0 0 480 360" width="480pt" height="360pt"><defs><clipPath id="_clipPath_zpKYIgBdL2d6ux5glxPtnZpHeMq36FK9"><rect width="480" height="360"/></clipPath></defs><g clip-path="url(#_clipPath_zpKYIgBdL2d6ux5glxPtnZpHeMq36FK9)"><path d=" M 195.18 187.06 L 195.18 187.06 Q 192.46 187.06 190.94 185.5 L 190.94 185.5 L 190.94 185.5 Q 189.42 183.94 189.42 180.96 L 189.42 180.96 L 189.42 172.94 L 190.9 172.94 L 190.9 180.9 L 190.9 180.9 Q 190.9 183.34 192 184.54 L 192 184.54 L 192 184.54 Q 193.1 185.74 195.18 185.74 L 195.18 185.74 L 195.18 185.74 Q 197.28 185.74 198.38 184.54 L 198.38 184.54 L 198.38 184.54 Q 199.48 183.34 199.48 180.9 L 199.48 180.9 L 199.48 172.94 L 200.92 172.94 L 200.92 180.96 L 200.92 180.96 Q 200.92 183.94 199.41 185.5 L 199.41 185.5 L 199.41 185.5 Q 197.9 187.06 195.18 187.06 L 195.18 187.06 Z  M 207.9 187.04 L 207.9 187.04 Q 206.62 187.04 205.45 186.67 L 205.45 186.67 L 205.45 186.67 Q 204.28 186.3 203.62 185.74 L 203.62 185.74 L 204.26 184.62 L 204.26 184.62 Q 204.92 185.14 205.92 185.47 L 205.92 185.47 L 205.92 185.47 Q 206.92 185.8 208 185.8 L 208 185.8 L 208 185.8 Q 209.44 185.8 210.13 185.35 L 210.13 185.35 L 210.13 185.35 Q 210.82 184.9 210.82 184.08 L 210.82 184.08 L 210.82 184.08 Q 210.82 183.5 210.44 183.17 L 210.44 183.17 L 210.44 183.17 Q 210.06 182.84 209.48 182.67 L 209.48 182.67 L 209.48 182.67 Q 208.9 182.5 207.94 182.34 L 207.94 182.34 L 207.94 182.34 Q 206.66 182.1 205.88 181.85 L 205.88 181.85 L 205.88 181.85 Q 205.1 181.6 204.55 181 L 204.55 181 L 204.55 181 Q 204 180.4 204 179.34 L 204 179.34 L 204 179.34 Q 204 178.02 205.1 177.18 L 205.1 177.18 L 205.1 177.18 Q 206.2 176.34 208.16 176.34 L 208.16 176.34 L 208.16 176.34 Q 209.18 176.34 210.2 176.61 L 210.2 176.61 L 210.2 176.61 Q 211.22 176.88 211.88 177.32 L 211.88 177.32 L 211.26 178.46 L 211.26 178.46 Q 209.96 177.56 208.16 177.56 L 208.16 177.56 L 208.16 177.56 Q 206.8 177.56 206.11 178.04 L 206.11 178.04 L 206.11 178.04 Q 205.42 178.52 205.42 179.3 L 205.42 179.3 L 205.42 179.3 Q 205.42 179.9 205.81 180.26 L 205.81 180.26 L 205.81 180.26 Q 206.2 180.62 206.78 180.79 L 206.78 180.79 L 206.78 180.79 Q 207.36 180.96 208.38 181.14 L 208.38 181.14 L 208.38 181.14 Q 209.64 181.38 210.4 181.62 L 210.4 181.62 L 210.4 181.62 Q 211.16 181.86 211.7 182.44 L 211.7 182.44 L 211.7 182.44 Q 212.24 183.02 212.24 184.04 L 212.24 184.04 L 212.24 184.04 Q 212.24 185.42 211.09 186.23 L 211.09 186.23 L 211.09 186.23 Q 209.94 187.04 207.9 187.04 L 207.9 187.04 Z  M 224.04 181.68 L 224.02 182.12 L 215.22 182.12 L 215.22 182.12 Q 215.34 183.76 216.48 184.77 L 216.48 184.77 L 216.48 184.77 Q 217.62 185.78 219.36 185.78 L 219.36 185.78 L 219.36 185.78 Q 220.34 185.78 221.16 185.43 L 221.16 185.43 L 221.16 185.43 Q 221.98 185.08 222.58 184.4 L 222.58 184.4 L 223.38 185.32 L 223.38 185.32 Q 222.68 186.16 221.63 186.6 L 221.63 186.6 L 221.63 186.6 Q 220.58 187.04 219.32 187.04 L 219.32 187.04 L 219.32 187.04 Q 217.7 187.04 216.45 186.35 L 216.45 186.35 L 216.45 186.35 Q 215.2 185.66 214.5 184.44 L 214.5 184.44 L 214.5 184.44 Q 213.8 183.22 213.8 181.68 L 213.8 181.68 L 213.8 181.68 Q 213.8 180.14 214.47 178.92 L 214.47 178.92 L 214.47 178.92 Q 215.14 177.7 216.31 177.02 L 216.31 177.02 L 216.31 177.02 Q 217.48 176.34 218.94 176.34 L 218.94 176.34 L 218.94 176.34 Q 220.4 176.34 221.56 177.02 L 221.56 177.02 L 221.56 177.02 Q 222.72 177.7 223.38 178.91 L 223.38 178.91 L 223.38 178.91 Q 224.04 180.12 224.04 181.68 L 224.04 181.68 Z  M 218.94 177.56 L 218.94 177.56 Q 217.42 177.56 216.39 178.53 L 216.39 178.53 L 216.39 178.53 Q 215.36 179.5 215.22 181.06 L 215.22 181.06 L 222.68 181.06 L 222.68 181.06 Q 222.54 179.5 221.51 178.53 L 221.51 178.53 L 221.51 178.53 Q 220.48 177.56 218.94 177.56 L 218.94 177.56 Z  M 228.3 178.48 L 228.3 178.48 Q 228.8 177.42 229.79 176.88 L 229.79 176.88 L 229.79 176.88 Q 230.78 176.34 232.24 176.34 L 232.24 176.34 L 232.24 177.72 L 231.9 177.7 L 231.9 177.7 Q 230.24 177.7 229.3 178.72 L 229.3 178.72 L 229.3 178.72 Q 228.36 179.74 228.36 181.58 L 228.36 181.58 L 228.36 186.94 L 226.94 186.94 L 226.94 176.42 L 228.3 176.42 L 228.3 178.48 Z  M 240.16 176.34 L 240.16 176.34 Q 242.14 176.34 243.31 177.49 L 243.31 177.49 L 243.31 177.49 Q 244.48 178.64 244.48 180.84 L 244.48 180.84 L 244.48 186.94 L 243.06 186.94 L 243.06 180.98 L 243.06 180.98 Q 243.06 179.34 242.24 178.48 L 242.24 178.48 L 242.24 178.48 Q 241.42 177.62 239.9 177.62 L 239.9 177.62 L 239.9 177.62 Q 238.2 177.62 237.21 178.63 L 237.21 178.63 L 237.21 178.63 Q 236.22 179.64 236.22 181.42 L 236.22 181.42 L 236.22 186.94 L 234.8 186.94 L 234.8 176.42 L 236.16 176.42 L 236.16 178.36 L 236.16 178.36 Q 236.74 177.4 237.77 176.87 L 237.77 176.87 L 237.77 176.87 Q 238.8 176.34 240.16 176.34 L 240.16 176.34 Z  M 252.02 176.34 L 252.02 176.34 Q 254.08 176.34 255.18 177.37 L 255.18 177.37 L 255.18 177.37 Q 256.28 178.4 256.28 180.42 L 256.28 180.42 L 256.28 186.94 L 254.92 186.94 L 254.92 185.3 L 254.92 185.3 Q 254.44 186.12 253.51 186.58 L 253.51 186.58 L 253.51 186.58 Q 252.58 187.04 251.3 187.04 L 251.3 187.04 L 251.3 187.04 Q 249.54 187.04 248.5 186.2 L 248.5 186.2 L 248.5 186.2 Q 247.46 185.36 247.46 183.98 L 247.46 183.98 L 247.46 183.98 Q 247.46 182.64 248.43 181.82 L 248.43 181.82 L 248.43 181.82 Q 249.4 181 251.52 181 L 251.52 181 L 254.86 181 L 254.86 180.36 L 254.86 180.36 Q 254.86 179 254.1 178.29 L 254.1 178.29 L 254.1 178.29 Q 253.34 177.58 251.88 177.58 L 251.88 177.58 L 251.88 177.58 Q 250.88 177.58 249.96 177.91 L 249.96 177.91 L 249.96 177.91 Q 249.04 178.24 248.38 178.82 L 248.38 178.82 L 247.74 177.76 L 247.74 177.76 Q 248.54 177.08 249.66 176.71 L 249.66 176.71 L 249.66 176.71 Q 250.78 176.34 252.02 176.34 L 252.02 176.34 Z  M 251.52 185.92 L 251.52 185.92 Q 252.72 185.92 253.58 185.37 L 253.58 185.37 L 253.58 185.37 Q 254.44 184.82 254.86 183.78 L 254.86 183.78 L 254.86 182.06 L 251.56 182.06 L 251.56 182.06 Q 248.86 182.06 248.86 183.94 L 248.86 183.94 L 248.86 183.94 Q 248.86 184.86 249.56 185.39 L 249.56 185.39 L 249.56 185.39 Q 250.26 185.92 251.52 185.92 L 251.52 185.92 Z  M 273.26 176.34 L 273.26 176.34 Q 275.24 176.34 276.37 177.48 L 276.37 177.48 L 276.37 177.48 Q 277.5 178.62 277.5 180.84 L 277.5 180.84 L 277.5 186.94 L 276.08 186.94 L 276.08 180.98 L 276.08 180.98 Q 276.08 179.34 275.29 178.48 L 275.29 178.48 L 275.29 178.48 Q 274.5 177.62 273.06 177.62 L 273.06 177.62 L 273.06 177.62 Q 271.42 177.62 270.48 178.63 L 270.48 178.63 L 270.48 178.63 Q 269.54 179.64 269.54 181.42 L 269.54 181.42 L 269.54 186.94 L 268.12 186.94 L 268.12 180.98 L 268.12 180.98 Q 268.12 179.34 267.33 178.48 L 267.33 178.48 L 267.33 178.48 Q 266.54 177.62 265.08 177.62 L 265.08 177.62 L 265.08 177.62 Q 263.46 177.62 262.51 178.63 L 262.51 178.63 L 262.51 178.63 Q 261.56 179.64 261.56 181.42 L 261.56 181.42 L 261.56 186.94 L 260.14 186.94 L 260.14 176.42 L 261.5 176.42 L 261.5 178.34 L 261.5 178.34 Q 262.06 177.38 263.06 176.86 L 263.06 176.86 L 263.06 176.86 Q 264.06 176.34 265.36 176.34 L 265.36 176.34 L 265.36 176.34 Q 266.68 176.34 267.65 176.9 L 267.65 176.9 L 267.65 176.9 Q 268.62 177.46 269.1 178.56 L 269.1 178.56 L 269.1 178.56 Q 269.68 177.52 270.77 176.93 L 270.77 176.93 L 270.77 176.93 Q 271.86 176.34 273.26 176.34 L 273.26 176.34 Z  M 290.58 181.68 L 290.56 182.12 L 281.76 182.12 L 281.76 182.12 Q 281.88 183.76 283.02 184.77 L 283.02 184.77 L 283.02 184.77 Q 284.16 185.78 285.9 185.78 L 285.9 185.78 L 285.9 185.78 Q 286.88 185.78 287.7 185.43 L 287.7 185.43 L 287.7 185.43 Q 288.52 185.08 289.12 184.4 L 289.12 184.4 L 289.92 185.32 L 289.92 185.32 Q 289.22 186.16 288.17 186.6 L 288.17 186.6 L 288.17 186.6 Q 287.12 187.04 285.86 187.04 L 285.86 187.04 L 285.86 187.04 Q 284.24 187.04 282.99 186.35 L 282.99 186.35 L 282.99 186.35 Q 281.74 185.66 281.04 184.44 L 281.04 184.44 L 281.04 184.44 Q 280.34 183.22 280.34 181.68 L 280.34 181.68 L 280.34 181.68 Q 280.34 180.14 281.01 178.92 L 281.01 178.92 L 281.01 178.92 Q 281.68 177.7 282.85 177.02 L 282.85 177.02 L 282.85 177.02 Q 284.02 176.34 285.48 176.34 L 285.48 176.34 L 285.48 176.34 Q 286.94 176.34 288.1 177.02 L 288.1 177.02 L 288.1 177.02 Q 289.26 177.7 289.92 178.91 L 289.92 178.91 L 289.92 178.91 Q 290.58 180.12 290.58 181.68 L 290.58 181.68 Z  M 285.48 177.56 L 285.48 177.56 Q 283.96 177.56 282.93 178.53 L 282.93 178.53 L 282.93 178.53 Q 281.9 179.5 281.76 181.06 L 281.76 181.06 L 289.22 181.06 L 289.22 181.06 Q 289.08 179.5 288.05 178.53 L 288.05 178.53 L 288.05 178.53 Q 287.02 177.56 285.48 177.56 L 285.48 177.56 Z " fill="rgb(255,255,255)"/><path d=" M 199.19 190.9 L 199.19 190.9 Q 201.87 190.9 203.39 192.18 L 203.39 192.18 L 203.39 192.18 Q 204.91 193.46 204.91 195.7 L 204.91 195.7 L 204.91 195.7 Q 204.91 197.94 203.39 199.21 L 203.39 199.21 L 203.39 199.21 Q 201.87 200.48 199.19 200.48 L 199.19 200.48 L 195.43 200.48 L 195.43 204.9 L 193.95 204.9 L 193.95 190.9 L 199.19 190.9 Z  M 199.15 199.18 L 199.15 199.18 Q 201.23 199.18 202.33 198.27 L 202.33 198.27 L 202.33 198.27 Q 203.43 197.36 203.43 195.7 L 203.43 195.7 L 203.43 195.7 Q 203.43 194 202.33 193.09 L 202.33 193.09 L 202.33 193.09 Q 201.23 192.18 199.15 192.18 L 199.15 192.18 L 195.43 192.18 L 195.43 199.18 L 199.15 199.18 Z  M 211.39 194.3 L 211.39 194.3 Q 213.45 194.3 214.55 195.33 L 214.55 195.33 L 214.55 195.33 Q 215.65 196.36 215.65 198.38 L 215.65 198.38 L 215.65 204.9 L 214.29 204.9 L 214.29 203.26 L 214.29 203.26 Q 213.81 204.08 212.88 204.54 L 212.88 204.54 L 212.88 204.54 Q 211.95 205 210.67 205 L 210.67 205 L 210.67 205 Q 208.91 205 207.87 204.16 L 207.87 204.16 L 207.87 204.16 Q 206.83 203.32 206.83 201.94 L 206.83 201.94 L 206.83 201.94 Q 206.83 200.6 207.8 199.78 L 207.8 199.78 L 207.8 199.78 Q 208.77 198.96 210.89 198.96 L 210.89 198.96 L 214.23 198.96 L 214.23 198.32 L 214.23 198.32 Q 214.23 196.96 213.47 196.25 L 213.47 196.25 L 213.47 196.25 Q 212.71 195.54 211.25 195.54 L 211.25 195.54 L 211.25 195.54 Q 210.25 195.54 209.33 195.87 L 209.33 195.87 L 209.33 195.87 Q 208.41 196.2 207.75 196.78 L 207.75 196.78 L 207.11 195.72 L 207.11 195.72 Q 207.91 195.04 209.03 194.67 L 209.03 194.67 L 209.03 194.67 Q 210.15 194.3 211.39 194.3 L 211.39 194.3 Z  M 210.89 203.88 L 210.89 203.88 Q 212.09 203.88 212.95 203.33 L 212.95 203.33 L 212.95 203.33 Q 213.81 202.78 214.23 201.74 L 214.23 201.74 L 214.23 200.02 L 210.93 200.02 L 210.93 200.02 Q 208.23 200.02 208.23 201.9 L 208.23 201.9 L 208.23 201.9 Q 208.23 202.82 208.93 203.35 L 208.93 203.35 L 208.93 203.35 Q 209.63 203.88 210.89 203.88 L 210.89 203.88 Z  M 222.33 205 L 222.33 205 Q 221.05 205 219.88 204.63 L 219.88 204.63 L 219.88 204.63 Q 218.71 204.26 218.05 203.7 L 218.05 203.7 L 218.69 202.58 L 218.69 202.58 Q 219.35 203.1 220.35 203.43 L 220.35 203.43 L 220.35 203.43 Q 221.35 203.76 222.43 203.76 L 222.43 203.76 L 222.43 203.76 Q 223.87 203.76 224.56 203.31 L 224.56 203.31 L 224.56 203.31 Q 225.25 202.86 225.25 202.04 L 225.25 202.04 L 225.25 202.04 Q 225.25 201.46 224.87 201.13 L 224.87 201.13 L 224.87 201.13 Q 224.49 200.8 223.91 200.63 L 223.91 200.63 L 223.91 200.63 Q 223.33 200.46 222.37 200.3 L 222.37 200.3 L 222.37 200.3 Q 221.09 200.06 220.31 199.81 L 220.31 199.81 L 220.31 199.81 Q 219.53 199.56 218.98 198.96 L 218.98 198.96 L 218.98 198.96 Q 218.43 198.36 218.43 197.3 L 218.43 197.3 L 218.43 197.3 Q 218.43 195.98 219.53 195.14 L 219.53 195.14 L 219.53 195.14 Q 220.63 194.3 222.59 194.3 L 222.59 194.3 L 222.59 194.3 Q 223.61 194.3 224.63 194.57 L 224.63 194.57 L 224.63 194.57 Q 225.65 194.84 226.31 195.28 L 226.31 195.28 L 225.69 196.42 L 225.69 196.42 Q 224.39 195.52 222.59 195.52 L 222.59 195.52 L 222.59 195.52 Q 221.23 195.52 220.54 196 L 220.54 196 L 220.54 196 Q 219.85 196.48 219.85 197.26 L 219.85 197.26 L 219.85 197.26 Q 219.85 197.86 220.24 198.22 L 220.24 198.22 L 220.24 198.22 Q 220.63 198.58 221.21 198.75 L 221.21 198.75 L 221.21 198.75 Q 221.79 198.92 222.81 199.1 L 222.81 199.1 L 222.81 199.1 Q 224.07 199.34 224.83 199.58 L 224.83 199.58 L 224.83 199.58 Q 225.59 199.82 226.13 200.4 L 226.13 200.4 L 226.13 200.4 Q 226.67 200.98 226.67 202 L 226.67 202 L 226.67 202 Q 226.67 203.38 225.52 204.19 L 225.52 204.19 L 225.52 204.19 Q 224.37 205 222.33 205 L 222.33 205 Z  M 232.11 205 L 232.11 205 Q 230.83 205 229.66 204.63 L 229.66 204.63 L 229.66 204.63 Q 228.49 204.26 227.83 203.7 L 227.83 203.7 L 228.47 202.58 L 228.47 202.58 Q 229.13 203.1 230.13 203.43 L 230.13 203.43 L 230.13 203.43 Q 231.13 203.76 232.21 203.76 L 232.21 203.76 L 232.21 203.76 Q 233.65 203.76 234.34 203.31 L 234.34 203.31 L 234.34 203.31 Q 235.03 202.86 235.03 202.04 L 235.03 202.04 L 235.03 202.04 Q 235.03 201.46 234.65 201.13 L 234.65 201.13 L 234.65 201.13 Q 234.27 200.8 233.69 200.63 L 233.69 200.63 L 233.69 200.63 Q 233.11 200.46 232.15 200.3 L 232.15 200.3 L 232.15 200.3 Q 230.87 200.06 230.09 199.81 L 230.09 199.81 L 230.09 199.81 Q 229.31 199.56 228.76 198.96 L 228.76 198.96 L 228.76 198.96 Q 228.21 198.36 228.21 197.3 L 228.21 197.3 L 228.21 197.3 Q 228.21 195.98 229.31 195.14 L 229.31 195.14 L 229.31 195.14 Q 230.41 194.3 232.37 194.3 L 232.37 194.3 L 232.37 194.3 Q 233.39 194.3 234.41 194.57 L 234.41 194.57 L 234.41 194.57 Q 235.43 194.84 236.09 195.28 L 236.09 195.28 L 235.47 196.42 L 235.47 196.42 Q 234.17 195.52 232.37 195.52 L 232.37 195.52 L 232.37 195.52 Q 231.01 195.52 230.32 196 L 230.32 196 L 230.32 196 Q 229.63 196.48 229.63 197.26 L 229.63 197.26 L 229.63 197.26 Q 229.63 197.86 230.02 198.22 L 230.02 198.22 L 230.02 198.22 Q 230.41 198.58 230.99 198.75 L 230.99 198.75 L 230.99 198.75 Q 231.57 198.92 232.59 199.1 L 232.59 199.1 L 232.59 199.1 Q 233.85 199.34 234.61 199.58 L 234.61 199.58 L 234.61 199.58 Q 235.37 199.82 235.91 200.4 L 235.91 200.4 L 235.91 200.4 Q 236.45 200.98 236.45 202 L 236.45 202 L 236.45 202 Q 236.45 203.38 235.3 204.19 L 235.3 204.19 L 235.3 204.19 Q 234.15 205 232.11 205 L 232.11 205 Z  M 253.01 194.38 L 254.31 194.38 L 250.33 204.9 L 248.99 204.9 L 245.67 196.28 L 242.35 204.9 L 241.01 204.9 L 237.05 194.38 L 238.41 194.38 L 241.71 203.32 L 245.09 194.38 L 246.31 194.38 L 249.67 203.32 L 253.01 194.38 Z  M 260.45 205 L 260.45 205 Q 258.93 205 257.71 204.31 L 257.71 204.31 L 257.71 204.31 Q 256.49 203.62 255.79 202.4 L 255.79 202.4 L 255.79 202.4 Q 255.09 201.18 255.09 199.64 L 255.09 199.64 L 255.09 199.64 Q 255.09 198.1 255.79 196.88 L 255.79 196.88 L 255.79 196.88 Q 256.49 195.66 257.71 194.98 L 257.71 194.98 L 257.71 194.98 Q 258.93 194.3 260.45 194.3 L 260.45 194.3 L 260.45 194.3 Q 261.97 194.3 263.19 194.98 L 263.19 194.98 L 263.19 194.98 Q 264.41 195.66 265.1 196.88 L 265.1 196.88 L 265.1 196.88 Q 265.79 198.1 265.79 199.64 L 265.79 199.64 L 265.79 199.64 Q 265.79 201.18 265.1 202.4 L 265.1 202.4 L 265.1 202.4 Q 264.41 203.62 263.19 204.31 L 263.19 204.31 L 263.19 204.31 Q 261.97 205 260.45 205 L 260.45 205 Z  M 260.45 203.74 L 260.45 203.74 Q 261.57 203.74 262.46 203.23 L 262.46 203.23 L 262.46 203.23 Q 263.35 202.72 263.85 201.78 L 263.85 201.78 L 263.85 201.78 Q 264.35 200.84 264.35 199.64 L 264.35 199.64 L 264.35 199.64 Q 264.35 198.44 263.85 197.5 L 263.85 197.5 L 263.85 197.5 Q 263.35 196.56 262.46 196.05 L 262.46 196.05 L 262.46 196.05 Q 261.57 195.54 260.45 195.54 L 260.45 195.54 L 260.45 195.54 Q 259.33 195.54 258.44 196.05 L 258.44 196.05 L 258.44 196.05 Q 257.55 196.56 257.04 197.5 L 257.04 197.5 L 257.04 197.5 Q 256.53 198.44 256.53 199.64 L 256.53 199.64 L 256.53 199.64 Q 256.53 200.84 257.04 201.78 L 257.04 201.78 L 257.04 201.78 Q 257.55 202.72 258.44 203.23 L 258.44 203.23 L 258.44 203.23 Q 259.33 203.74 260.45 203.74 L 260.45 203.74 Z  M 270.05 196.44 L 270.05 196.44 Q 270.55 195.38 271.54 194.84 L 271.54 194.84 L 271.54 194.84 Q 272.53 194.3 273.99 194.3 L 273.99 194.3 L 273.99 195.68 L 273.65 195.66 L 273.65 195.66 Q 271.99 195.66 271.05 196.68 L 271.05 196.68 L 271.05 196.68 Q 270.11 197.7 270.11 199.54 L 270.11 199.54 L 270.11 204.9 L 268.69 204.9 L 268.69 194.38 L 270.05 194.38 L 270.05 196.44 Z  M 284.63 190.06 L 286.05 190.06 L 286.05 204.9 L 284.69 204.9 L 284.69 202.82 L 284.69 202.82 Q 284.05 203.88 283 204.44 L 283 204.44 L 283 204.44 Q 281.95 205 280.63 205 L 280.63 205 L 280.63 205 Q 279.15 205 277.95 204.32 L 277.95 204.32 L 277.95 204.32 Q 276.75 203.64 276.07 202.42 L 276.07 202.42 L 276.07 202.42 Q 275.39 201.2 275.39 199.64 L 275.39 199.64 L 275.39 199.64 Q 275.39 198.08 276.07 196.86 L 276.07 196.86 L 276.07 196.86 Q 276.75 195.64 277.95 194.97 L 277.95 194.97 L 277.95 194.97 Q 279.15 194.3 280.63 194.3 L 280.63 194.3 L 280.63 194.3 Q 281.91 194.3 282.94 194.83 L 282.94 194.83 L 282.94 194.83 Q 283.97 195.36 284.63 196.38 L 284.63 196.38 L 284.63 190.06 Z  M 280.75 203.74 L 280.75 203.74 Q 281.85 203.74 282.74 203.23 L 282.74 203.23 L 282.74 203.23 Q 283.63 202.72 284.14 201.78 L 284.14 201.78 L 284.14 201.78 Q 284.65 200.84 284.65 199.64 L 284.65 199.64 L 284.65 199.64 Q 284.65 198.44 284.14 197.5 L 284.14 197.5 L 284.14 197.5 Q 283.63 196.56 282.74 196.05 L 282.74 196.05 L 282.74 196.05 Q 281.85 195.54 280.75 195.54 L 280.75 195.54 L 280.75 195.54 Q 279.63 195.54 278.74 196.05 L 278.74 196.05 L 278.74 196.05 Q 277.85 196.56 277.34 197.5 L 277.34 197.5 L 277.34 197.5 Q 276.83 198.44 276.83 199.64 L 276.83 199.64 L 276.83 199.64 Q 276.83 200.84 277.34 201.78 L 277.34 201.78 L 277.34 201.78 Q 277.85 202.72 278.74 203.23 L 278.74 203.23 L 278.74 203.23 Q 279.63 203.74 280.75 203.74 L 280.75 203.74 Z " fill="rgb(255,255,255)"/><path d=" M 181.18 231.98 L 181.18 219.26 L 176.26 219.26 L 176.26 217.98 L 187.58 217.98 L 187.58 219.26 L 182.66 219.26 L 182.66 231.98 L 181.18 231.98 Z  M 197.72 226.72 L 197.7 227.16 L 188.9 227.16 L 188.9 227.16 Q 189.02 228.8 190.16 229.81 L 190.16 229.81 L 190.16 229.81 Q 191.3 230.82 193.04 230.82 L 193.04 230.82 L 193.04 230.82 Q 194.02 230.82 194.84 230.47 L 194.84 230.47 L 194.84 230.47 Q 195.66 230.12 196.26 229.44 L 196.26 229.44 L 197.06 230.36 L 197.06 230.36 Q 196.36 231.2 195.31 231.64 L 195.31 231.64 L 195.31 231.64 Q 194.26 232.08 193 232.08 L 193 232.08 L 193 232.08 Q 191.38 232.08 190.13 231.39 L 190.13 231.39 L 190.13 231.39 Q 188.88 230.7 188.18 229.48 L 188.18 229.48 L 188.18 229.48 Q 187.48 228.26 187.48 226.72 L 187.48 226.72 L 187.48 226.72 Q 187.48 225.18 188.15 223.96 L 188.15 223.96 L 188.15 223.96 Q 188.82 222.74 189.99 222.06 L 189.99 222.06 L 189.99 222.06 Q 191.16 221.38 192.62 221.38 L 192.62 221.38 L 192.62 221.38 Q 194.08 221.38 195.24 222.06 L 195.24 222.06 L 195.24 222.06 Q 196.4 222.74 197.06 223.95 L 197.06 223.95 L 197.06 223.95 Q 197.72 225.16 197.72 226.72 L 197.72 226.72 Z  M 192.62 222.6 L 192.62 222.6 Q 191.1 222.6 190.07 223.57 L 190.07 223.57 L 190.07 223.57 Q 189.04 224.54 188.9 226.1 L 188.9 226.1 L 196.36 226.1 L 196.36 226.1 Q 196.22 224.54 195.19 223.57 L 195.19 223.57 L 195.19 223.57 Q 194.16 222.6 192.62 222.6 L 192.62 222.6 Z  M 213.74 221.38 L 213.74 221.38 Q 215.72 221.38 216.85 222.52 L 216.85 222.52 L 216.85 222.52 Q 217.98 223.66 217.98 225.88 L 217.98 225.88 L 217.98 231.98 L 216.56 231.98 L 216.56 226.02 L 216.56 226.02 Q 216.56 224.38 215.77 223.52 L 215.77 223.52 L 215.77 223.52 Q 214.98 222.66 213.54 222.66 L 213.54 222.66 L 213.54 222.66 Q 211.9 222.66 210.96 223.67 L 210.96 223.67 L 210.96 223.67 Q 210.02 224.68 210.02 226.46 L 210.02 226.46 L 210.02 231.98 L 208.6 231.98 L 208.6 226.02 L 208.6 226.02 Q 208.6 224.38 207.81 223.52 L 207.81 223.52 L 207.81 223.52 Q 207.02 222.66 205.56 222.66 L 205.56 222.66 L 205.56 222.66 Q 203.94 222.66 202.99 223.67 L 202.99 223.67 L 202.99 223.67 Q 202.04 224.68 202.04 226.46 L 202.04 226.46 L 202.04 231.98 L 200.62 231.98 L 200.62 221.46 L 201.98 221.46 L 201.98 223.38 L 201.98 223.38 Q 202.54 222.42 203.54 221.9 L 203.54 221.9 L 203.54 221.9 Q 204.54 221.38 205.84 221.38 L 205.84 221.38 L 205.84 221.38 Q 207.16 221.38 208.13 221.94 L 208.13 221.94 L 208.13 221.94 Q 209.1 222.5 209.58 223.6 L 209.58 223.6 L 209.58 223.6 Q 210.16 222.56 211.25 221.97 L 211.25 221.97 L 211.25 221.97 Q 212.34 221.38 213.74 221.38 L 213.74 221.38 Z  M 227.26 221.38 L 227.26 221.38 Q 228.74 221.38 229.94 222.05 L 229.94 222.05 L 229.94 222.05 Q 231.14 222.72 231.82 223.94 L 231.82 223.94 L 231.82 223.94 Q 232.5 225.16 232.5 226.72 L 232.5 226.72 L 232.5 226.72 Q 232.5 228.3 231.82 229.52 L 231.82 229.52 L 231.82 229.52 Q 231.14 230.74 229.95 231.41 L 229.95 231.41 L 229.95 231.41 Q 228.76 232.08 227.26 232.08 L 227.26 232.08 L 227.26 232.08 Q 225.98 232.08 224.95 231.55 L 224.95 231.55 L 224.95 231.55 Q 223.92 231.02 223.26 230 L 223.26 230 L 223.26 235.86 L 221.84 235.86 L 221.84 221.46 L 223.2 221.46 L 223.2 223.54 L 223.2 223.54 Q 223.84 222.5 224.89 221.94 L 224.89 221.94 L 224.89 221.94 Q 225.94 221.38 227.26 221.38 L 227.26 221.38 Z  M 227.16 230.82 L 227.16 230.82 Q 228.26 230.82 229.16 230.31 L 229.16 230.31 L 229.16 230.31 Q 230.06 229.8 230.57 228.86 L 230.57 228.86 L 230.57 228.86 Q 231.08 227.92 231.08 226.72 L 231.08 226.72 L 231.08 226.72 Q 231.08 225.52 230.57 224.59 L 230.57 224.59 L 230.57 224.59 Q 230.06 223.66 229.16 223.14 L 229.16 223.14 L 229.16 223.14 Q 228.26 222.62 227.16 222.62 L 227.16 222.62 L 227.16 222.62 Q 226.04 222.62 225.15 223.14 L 225.15 223.14 L 225.15 223.14 Q 224.26 223.66 223.75 224.59 L 223.75 224.59 L 223.75 224.59 Q 223.24 225.52 223.24 226.72 L 223.24 226.72 L 223.24 226.72 Q 223.24 227.92 223.75 228.86 L 223.75 228.86 L 223.75 228.86 Q 224.26 229.8 225.15 230.31 L 225.15 230.31 L 225.15 230.31 Q 226.04 230.82 227.16 230.82 L 227.16 230.82 Z  M 244.58 226.72 L 244.56 227.16 L 235.76 227.16 L 235.76 227.16 Q 235.88 228.8 237.02 229.81 L 237.02 229.81 L 237.02 229.81 Q 238.16 230.82 239.9 230.82 L 239.9 230.82 L 239.9 230.82 Q 240.88 230.82 241.7 230.47 L 241.7 230.47 L 241.7 230.47 Q 242.52 230.12 243.12 229.44 L 243.12 229.44 L 243.92 230.36 L 243.92 230.36 Q 243.22 231.2 242.17 231.64 L 242.17 231.64 L 242.17 231.64 Q 241.12 232.08 239.86 232.08 L 239.86 232.08 L 239.86 232.08 Q 238.24 232.08 236.99 231.39 L 236.99 231.39 L 236.99 231.39 Q 235.74 230.7 235.04 229.48 L 235.04 229.48 L 235.04 229.48 Q 234.34 228.26 234.34 226.72 L 234.34 226.72 L 234.34 226.72 Q 234.34 225.18 235.01 223.96 L 235.01 223.96 L 235.01 223.96 Q 235.68 222.74 236.85 222.06 L 236.85 222.06 L 236.85 222.06 Q 238.02 221.38 239.48 221.38 L 239.48 221.38 L 239.48 221.38 Q 240.94 221.38 242.1 222.06 L 242.1 222.06 L 242.1 222.06 Q 243.26 222.74 243.92 223.95 L 243.92 223.95 L 243.92 223.95 Q 244.58 225.16 244.58 226.72 L 244.58 226.72 Z  M 239.48 222.6 L 239.48 222.6 Q 237.96 222.6 236.93 223.57 L 236.93 223.57 L 236.93 223.57 Q 235.9 224.54 235.76 226.1 L 235.76 226.1 L 243.22 226.1 L 243.22 226.1 Q 243.08 224.54 242.05 223.57 L 242.05 223.57 L 242.05 223.57 Q 241.02 222.6 239.48 222.6 L 239.48 222.6 Z  M 248.84 223.52 L 248.84 223.52 Q 249.34 222.46 250.33 221.92 L 250.33 221.92 L 250.33 221.92 Q 251.32 221.38 252.78 221.38 L 252.78 221.38 L 252.78 222.76 L 252.44 222.74 L 252.44 222.74 Q 250.78 222.74 249.84 223.76 L 249.84 223.76 L 249.84 223.76 Q 248.9 224.78 248.9 226.62 L 248.9 226.62 L 248.9 231.98 L 247.48 231.98 L 247.48 221.46 L 248.84 221.46 L 248.84 223.52 Z  M 259 221.38 L 259 221.38 Q 261.06 221.38 262.16 222.41 L 262.16 222.41 L 262.16 222.41 Q 263.26 223.44 263.26 225.46 L 263.26 225.46 L 263.26 231.98 L 261.9 231.98 L 261.9 230.34 L 261.9 230.34 Q 261.42 231.16 260.49 231.62 L 260.49 231.62 L 260.49 231.62 Q 259.56 232.08 258.28 232.08 L 258.28 232.08 L 258.28 232.08 Q 256.52 232.08 255.48 231.24 L 255.48 231.24 L 255.48 231.24 Q 254.44 230.4 254.44 229.02 L 254.44 229.02 L 254.44 229.02 Q 254.44 227.68 255.41 226.86 L 255.41 226.86 L 255.41 226.86 Q 256.38 226.04 258.5 226.04 L 258.5 226.04 L 261.84 226.04 L 261.84 225.4 L 261.84 225.4 Q 261.84 224.04 261.08 223.33 L 261.08 223.33 L 261.08 223.33 Q 260.32 222.62 258.86 222.62 L 258.86 222.62 L 258.86 222.62 Q 257.86 222.62 256.94 222.95 L 256.94 222.95 L 256.94 222.95 Q 256.02 223.28 255.36 223.86 L 255.36 223.86 L 254.72 222.8 L 254.72 222.8 Q 255.52 222.12 256.64 221.75 L 256.64 221.75 L 256.64 221.75 Q 257.76 221.38 259 221.38 L 259 221.38 Z  M 258.5 230.96 L 258.5 230.96 Q 259.7 230.96 260.56 230.41 L 260.56 230.41 L 260.56 230.41 Q 261.42 229.86 261.84 228.82 L 261.84 228.82 L 261.84 227.1 L 258.54 227.1 L 258.54 227.1 Q 255.84 227.1 255.84 228.98 L 255.84 228.98 L 255.84 228.98 Q 255.84 229.9 256.54 230.43 L 256.54 230.43 L 256.54 230.43 Q 257.24 230.96 258.5 230.96 L 258.5 230.96 Z  M 272.16 230.32 L 272.66 231.34 L 272.66 231.34 Q 272.26 231.7 271.67 231.89 L 271.67 231.89 L 271.67 231.89 Q 271.08 232.08 270.44 232.08 L 270.44 232.08 L 270.44 232.08 Q 268.96 232.08 268.16 231.28 L 268.16 231.28 L 268.16 231.28 Q 267.36 230.48 267.36 229.02 L 267.36 229.02 L 267.36 222.66 L 265.48 222.66 L 265.48 221.46 L 267.36 221.46 L 267.36 219.16 L 268.78 219.16 L 268.78 221.46 L 271.98 221.46 L 271.98 222.66 L 268.78 222.66 L 268.78 228.94 L 268.78 228.94 Q 268.78 229.88 269.25 230.37 L 269.25 230.37 L 269.25 230.37 Q 269.72 230.86 270.6 230.86 L 270.6 230.86 L 270.6 230.86 Q 271.04 230.86 271.45 230.72 L 271.45 230.72 L 271.45 230.72 Q 271.86 230.58 272.16 230.32 L 272.16 230.32 Z  M 283.3 221.46 L 284.72 221.46 L 284.72 231.98 L 283.36 231.98 L 283.36 230.06 L 283.36 230.06 Q 282.8 231.02 281.82 231.55 L 281.82 231.55 L 281.82 231.55 Q 280.84 232.08 279.58 232.08 L 279.58 232.08 L 279.58 232.08 Q 277.52 232.08 276.33 230.93 L 276.33 230.93 L 276.33 230.93 Q 275.14 229.78 275.14 227.56 L 275.14 227.56 L 275.14 221.46 L 276.56 221.46 L 276.56 227.42 L 276.56 227.42 Q 276.56 229.08 277.38 229.94 L 277.38 229.94 L 277.38 229.94 Q 278.2 230.8 279.72 230.8 L 279.72 230.8 L 279.72 230.8 Q 281.38 230.8 282.34 229.79 L 282.34 229.79 L 282.34 229.79 Q 283.3 228.78 283.3 226.98 L 283.3 226.98 L 283.3 221.46 Z  M 290.06 223.52 L 290.06 223.52 Q 290.56 222.46 291.55 221.92 L 291.55 221.92 L 291.55 221.92 Q 292.54 221.38 294 221.38 L 294 221.38 L 294 222.76 L 293.66 222.74 L 293.66 222.74 Q 292 222.74 291.06 223.76 L 291.06 223.76 L 291.06 223.76 Q 290.12 224.78 290.12 226.62 L 290.12 226.62 L 290.12 231.98 L 288.7 231.98 L 288.7 221.46 L 290.06 221.46 L 290.06 223.52 Z  M 305.64 226.72 L 305.62 227.16 L 296.82 227.16 L 296.82 227.16 Q 296.94 228.8 298.08 229.81 L 298.08 229.81 L 298.08 229.81 Q 299.22 230.82 300.96 230.82 L 300.96 230.82 L 300.96 230.82 Q 301.94 230.82 302.76 230.47 L 302.76 230.47 L 302.76 230.47 Q 303.58 230.12 304.18 229.44 L 304.18 229.44 L 304.98 230.36 L 304.98 230.36 Q 304.28 231.2 303.23 231.64 L 303.23 231.64 L 303.23 231.64 Q 302.18 232.08 300.92 232.08 L 300.92 232.08 L 300.92 232.08 Q 299.3 232.08 298.05 231.39 L 298.05 231.39 L 298.05 231.39 Q 296.8 230.7 296.1 229.48 L 296.1 229.48 L 296.1 229.48 Q 295.4 228.26 295.4 226.72 L 295.4 226.72 L 295.4 226.72 Q 295.4 225.18 296.07 223.96 L 296.07 223.96 L 296.07 223.96 Q 296.74 222.74 297.91 222.06 L 297.91 222.06 L 297.91 222.06 Q 299.08 221.38 300.54 221.38 L 300.54 221.38 L 300.54 221.38 Q 302 221.38 303.16 222.06 L 303.16 222.06 L 303.16 222.06 Q 304.32 222.74 304.98 223.95 L 304.98 223.95 L 304.98 223.95 Q 305.64 225.16 305.64 226.72 L 305.64 226.72 Z  M 300.54 222.6 L 300.54 222.6 Q 299.02 222.6 297.99 223.57 L 297.99 223.57 L 297.99 223.57 Q 296.96 224.54 296.82 226.1 L 296.82 226.1 L 304.28 226.1 L 304.28 226.1 Q 304.14 224.54 303.11 223.57 L 303.11 223.57 L 303.11 223.57 Q 302.08 222.6 300.54 222.6 L 300.54 222.6 Z " fill="rgb(255,255,255)"/><path d=" M 218.07 244.36 L 219.49 244.36 L 214.77 258.36 L 213.21 258.36 L 209.11 246.42 L 204.99 258.36 L 203.45 258.36 L 198.73 244.36 L 200.25 244.36 L 204.29 256.4 L 208.47 244.36 L 209.85 244.36 L 213.97 256.46 L 218.07 244.36 Z  M 230.27 253.1 L 230.25 253.54 L 221.45 253.54 L 221.45 253.54 Q 221.57 255.18 222.71 256.19 L 222.71 256.19 L 222.71 256.19 Q 223.85 257.2 225.59 257.2 L 225.59 257.2 L 225.59 257.2 Q 226.57 257.2 227.39 256.85 L 227.39 256.85 L 227.39 256.85 Q 228.21 256.5 228.81 255.82 L 228.81 255.82 L 229.61 256.74 L 229.61 256.74 Q 228.91 257.58 227.86 258.02 L 227.86 258.02 L 227.86 258.02 Q 226.81 258.46 225.55 258.46 L 225.55 258.46 L 225.55 258.46 Q 223.93 258.46 222.68 257.77 L 222.68 257.77 L 222.68 257.77 Q 221.43 257.08 220.73 255.86 L 220.73 255.86 L 220.73 255.86 Q 220.03 254.64 220.03 253.1 L 220.03 253.1 L 220.03 253.1 Q 220.03 251.56 220.7 250.34 L 220.7 250.34 L 220.7 250.34 Q 221.37 249.12 222.54 248.44 L 222.54 248.44 L 222.54 248.44 Q 223.71 247.76 225.17 247.76 L 225.17 247.76 L 225.17 247.76 Q 226.63 247.76 227.79 248.44 L 227.79 248.44 L 227.79 248.44 Q 228.95 249.12 229.61 250.33 L 229.61 250.33 L 229.61 250.33 Q 230.27 251.54 230.27 253.1 L 230.27 253.1 Z  M 225.17 248.98 L 225.17 248.98 Q 223.65 248.98 222.62 249.95 L 222.62 249.95 L 222.62 249.95 Q 221.59 250.92 221.45 252.48 L 221.45 252.48 L 228.91 252.48 L 228.91 252.48 Q 228.77 250.92 227.74 249.95 L 227.74 249.95 L 227.74 249.95 Q 226.71 248.98 225.17 248.98 L 225.17 248.98 Z  M 236.55 247.76 L 236.55 247.76 Q 238.61 247.76 239.71 248.79 L 239.71 248.79 L 239.71 248.79 Q 240.81 249.82 240.81 251.84 L 240.81 251.84 L 240.81 258.36 L 239.45 258.36 L 239.45 256.72 L 239.45 256.72 Q 238.97 257.54 238.04 258 L 238.04 258 L 238.04 258 Q 237.11 258.46 235.83 258.46 L 235.83 258.46 L 235.83 258.46 Q 234.07 258.46 233.03 257.62 L 233.03 257.62 L 233.03 257.62 Q 231.99 256.78 231.99 255.4 L 231.99 255.4 L 231.99 255.4 Q 231.99 254.06 232.96 253.24 L 232.96 253.24 L 232.96 253.24 Q 233.93 252.42 236.05 252.42 L 236.05 252.42 L 239.39 252.42 L 239.39 251.78 L 239.39 251.78 Q 239.39 250.42 238.63 249.71 L 238.63 249.71 L 238.63 249.71 Q 237.87 249 236.41 249 L 236.41 249 L 236.41 249 Q 235.41 249 234.49 249.33 L 234.49 249.33 L 234.49 249.33 Q 233.57 249.66 232.91 250.24 L 232.91 250.24 L 232.27 249.18 L 232.27 249.18 Q 233.07 248.5 234.19 248.13 L 234.19 248.13 L 234.19 248.13 Q 235.31 247.76 236.55 247.76 L 236.55 247.76 Z  M 236.05 257.34 L 236.05 257.34 Q 237.25 257.34 238.11 256.79 L 238.11 256.79 L 238.11 256.79 Q 238.97 256.24 239.39 255.2 L 239.39 255.2 L 239.39 253.48 L 236.09 253.48 L 236.09 253.48 Q 233.39 253.48 233.39 255.36 L 233.39 255.36 L 233.39 255.36 Q 233.39 256.28 234.09 256.81 L 234.09 256.81 L 234.09 256.81 Q 234.79 257.34 236.05 257.34 L 236.05 257.34 Z  M 249.71 256.7 L 250.21 257.72 L 250.21 257.72 Q 249.81 258.08 249.22 258.27 L 249.22 258.27 L 249.22 258.27 Q 248.63 258.46 247.99 258.46 L 247.99 258.46 L 247.99 258.46 Q 246.51 258.46 245.71 257.66 L 245.71 257.66 L 245.71 257.66 Q 244.91 256.86 244.91 255.4 L 244.91 255.4 L 244.91 249.04 L 243.03 249.04 L 243.03 247.84 L 244.91 247.84 L 244.91 245.54 L 246.33 245.54 L 246.33 247.84 L 249.53 247.84 L 249.53 249.04 L 246.33 249.04 L 246.33 255.32 L 246.33 255.32 Q 246.33 256.26 246.8 256.75 L 246.8 256.75 L 246.8 256.75 Q 247.27 257.24 248.15 257.24 L 248.15 257.24 L 248.15 257.24 Q 248.59 257.24 249 257.1 L 249 257.1 L 249 257.1 Q 249.41 256.96 249.71 256.7 L 249.71 256.7 Z  M 258.15 247.76 L 258.15 247.76 Q 260.13 247.76 261.3 248.91 L 261.3 248.91 L 261.3 248.91 Q 262.47 250.06 262.47 252.26 L 262.47 252.26 L 262.47 258.36 L 261.05 258.36 L 261.05 252.4 L 261.05 252.4 Q 261.05 250.76 260.23 249.9 L 260.23 249.9 L 260.23 249.9 Q 259.41 249.04 257.89 249.04 L 257.89 249.04 L 257.89 249.04 Q 256.19 249.04 255.2 250.05 L 255.2 250.05 L 255.2 250.05 Q 254.21 251.06 254.21 252.84 L 254.21 252.84 L 254.21 258.36 L 252.79 258.36 L 252.79 243.52 L 254.21 243.52 L 254.21 249.68 L 254.21 249.68 Q 254.79 248.76 255.81 248.26 L 255.81 248.26 L 255.81 248.26 Q 256.83 247.76 258.15 247.76 L 258.15 247.76 Z  M 275.55 253.1 L 275.53 253.54 L 266.73 253.54 L 266.73 253.54 Q 266.85 255.18 267.99 256.19 L 267.99 256.19 L 267.99 256.19 Q 269.13 257.2 270.87 257.2 L 270.87 257.2 L 270.87 257.2 Q 271.85 257.2 272.67 256.85 L 272.67 256.85 L 272.67 256.85 Q 273.49 256.5 274.09 255.82 L 274.09 255.82 L 274.89 256.74 L 274.89 256.74 Q 274.19 257.58 273.14 258.02 L 273.14 258.02 L 273.14 258.02 Q 272.09 258.46 270.83 258.46 L 270.83 258.46 L 270.83 258.46 Q 269.21 258.46 267.96 257.77 L 267.96 257.77 L 267.96 257.77 Q 266.71 257.08 266.01 255.86 L 266.01 255.86 L 266.01 255.86 Q 265.31 254.64 265.31 253.1 L 265.31 253.1 L 265.31 253.1 Q 265.31 251.56 265.98 250.34 L 265.98 250.34 L 265.98 250.34 Q 266.65 249.12 267.82 248.44 L 267.82 248.44 L 267.82 248.44 Q 268.99 247.76 270.45 247.76 L 270.45 247.76 L 270.45 247.76 Q 271.91 247.76 273.07 248.44 L 273.07 248.44 L 273.07 248.44 Q 274.23 249.12 274.89 250.33 L 274.89 250.33 L 274.89 250.33 Q 275.55 251.54 275.55 253.1 L 275.55 253.1 Z  M 270.45 248.98 L 270.45 248.98 Q 268.93 248.98 267.9 249.95 L 267.9 249.95 L 267.9 249.95 Q 266.87 250.92 266.73 252.48 L 266.73 252.48 L 274.19 252.48 L 274.19 252.48 Q 274.05 250.92 273.02 249.95 L 273.02 249.95 L 273.02 249.95 Q 271.99 248.98 270.45 248.98 L 270.45 248.98 Z  M 279.81 249.9 L 279.81 249.9 Q 280.31 248.84 281.3 248.3 L 281.3 248.3 L 281.3 248.3 Q 282.29 247.76 283.75 247.76 L 283.75 247.76 L 283.75 249.14 L 283.41 249.12 L 283.41 249.12 Q 281.75 249.12 280.81 250.14 L 280.81 250.14 L 280.81 250.14 Q 279.87 251.16 279.87 253 L 279.87 253 L 279.87 258.36 L 278.45 258.36 L 278.45 247.84 L 279.81 247.84 L 279.81 249.9 Z " fill="rgb(255,255,255)"/><path d=" M 227.88 270.98 L 229.34 270.98 L 229.34 284.98 L 227.88 284.98 L 227.88 278.52 L 219.12 278.52 L 219.12 284.98 L 217.64 284.98 L 217.64 270.98 L 219.12 270.98 L 219.12 277.22 L 227.88 277.22 L 227.88 270.98 Z  M 242.78 279.72 L 242.76 280.16 L 233.96 280.16 L 233.96 280.16 Q 234.08 281.8 235.22 282.81 L 235.22 282.81 L 235.22 282.81 Q 236.36 283.82 238.1 283.82 L 238.1 283.82 L 238.1 283.82 Q 239.08 283.82 239.9 283.47 L 239.9 283.47 L 239.9 283.47 Q 240.72 283.12 241.32 282.44 L 241.32 282.44 L 242.12 283.36 L 242.12 283.36 Q 241.42 284.2 240.37 284.64 L 240.37 284.64 L 240.37 284.64 Q 239.32 285.08 238.06 285.08 L 238.06 285.08 L 238.06 285.08 Q 236.44 285.08 235.19 284.39 L 235.19 284.39 L 235.19 284.39 Q 233.94 283.7 233.24 282.48 L 233.24 282.48 L 233.24 282.48 Q 232.54 281.26 232.54 279.72 L 232.54 279.72 L 232.54 279.72 Q 232.54 278.18 233.21 276.96 L 233.21 276.96 L 233.21 276.96 Q 233.88 275.74 235.05 275.06 L 235.05 275.06 L 235.05 275.06 Q 236.22 274.38 237.68 274.38 L 237.68 274.38 L 237.68 274.38 Q 239.14 274.38 240.3 275.06 L 240.3 275.06 L 240.3 275.06 Q 241.46 275.74 242.12 276.95 L 242.12 276.95 L 242.12 276.95 Q 242.78 278.16 242.78 279.72 L 242.78 279.72 Z  M 237.68 275.6 L 237.68 275.6 Q 236.16 275.6 235.13 276.57 L 235.13 276.57 L 235.13 276.57 Q 234.1 277.54 233.96 279.1 L 233.96 279.1 L 241.42 279.1 L 241.42 279.1 Q 241.28 277.54 240.25 276.57 L 240.25 276.57 L 240.25 276.57 Q 239.22 275.6 237.68 275.6 L 237.68 275.6 Z  M 245.68 284.98 L 245.68 270.14 L 247.1 270.14 L 247.1 284.98 L 245.68 284.98 Z  M 256.48 274.38 L 256.48 274.38 Q 257.96 274.38 259.16 275.05 L 259.16 275.05 L 259.16 275.05 Q 260.36 275.72 261.04 276.94 L 261.04 276.94 L 261.04 276.94 Q 261.72 278.16 261.72 279.72 L 261.72 279.72 L 261.72 279.72 Q 261.72 281.3 261.04 282.52 L 261.04 282.52 L 261.04 282.52 Q 260.36 283.74 259.17 284.41 L 259.17 284.41 L 259.17 284.41 Q 257.98 285.08 256.48 285.08 L 256.48 285.08 L 256.48 285.08 Q 255.2 285.08 254.17 284.55 L 254.17 284.55 L 254.17 284.55 Q 253.14 284.02 252.48 283 L 252.48 283 L 252.48 288.86 L 251.06 288.86 L 251.06 274.46 L 252.42 274.46 L 252.42 276.54 L 252.42 276.54 Q 253.06 275.5 254.11 274.94 L 254.11 274.94 L 254.11 274.94 Q 255.16 274.38 256.48 274.38 L 256.48 274.38 Z  M 256.38 283.82 L 256.38 283.82 Q 257.48 283.82 258.38 283.31 L 258.38 283.31 L 258.38 283.31 Q 259.28 282.8 259.79 281.86 L 259.79 281.86 L 259.79 281.86 Q 260.3 280.92 260.3 279.72 L 260.3 279.72 L 260.3 279.72 Q 260.3 278.52 259.79 277.59 L 259.79 277.59 L 259.79 277.59 Q 259.28 276.66 258.38 276.14 L 258.38 276.14 L 258.38 276.14 Q 257.48 275.62 256.38 275.62 L 256.38 275.62 L 256.38 275.62 Q 255.26 275.62 254.37 276.14 L 254.37 276.14 L 254.37 276.14 Q 253.48 276.66 252.97 277.59 L 252.97 277.59 L 252.97 277.59 Q 252.46 278.52 252.46 279.72 L 252.46 279.72 L 252.46 279.72 Q 252.46 280.92 252.97 281.86 L 252.97 281.86 L 252.97 281.86 Q 253.48 282.8 254.37 283.31 L 254.37 283.31 L 254.37 283.31 Q 255.26 283.82 256.38 283.82 L 256.38 283.82 Z " fill="rgb(255,255,255)"/><path d=" M 211.83 312.1 L 211.83 312.1 Q 209.75 312.1 208.08 311.18 L 208.08 311.18 L 208.08 311.18 Q 206.41 310.26 205.46 308.63 L 205.46 308.63 L 205.46 308.63 Q 204.51 307 204.51 304.98 L 204.51 304.98 L 204.51 304.98 Q 204.51 302.96 205.46 301.33 L 205.46 301.33 L 205.46 301.33 Q 206.41 299.7 208.09 298.78 L 208.09 298.78 L 208.09 298.78 Q 209.77 297.86 211.85 297.86 L 211.85 297.86 L 211.85 297.86 Q 213.41 297.86 214.73 298.38 L 214.73 298.38 L 214.73 298.38 Q 216.05 298.9 216.97 299.9 L 216.97 299.9 L 216.03 300.84 L 216.03 300.84 Q 214.39 299.18 211.89 299.18 L 211.89 299.18 L 211.89 299.18 Q 210.23 299.18 208.87 299.94 L 208.87 299.94 L 208.87 299.94 Q 207.51 300.7 206.74 302.02 L 206.74 302.02 L 206.74 302.02 Q 205.97 303.34 205.97 304.98 L 205.97 304.98 L 205.97 304.98 Q 205.97 306.62 206.74 307.94 L 206.74 307.94 L 206.74 307.94 Q 207.51 309.26 208.87 310.02 L 208.87 310.02 L 208.87 310.02 Q 210.23 310.78 211.89 310.78 L 211.89 310.78 L 211.89 310.78 Q 214.41 310.78 216.03 309.1 L 216.03 309.1 L 216.97 310.04 L 216.97 310.04 Q 216.05 311.04 214.72 311.57 L 214.72 311.57 L 214.72 311.57 Q 213.39 312.1 211.83 312.1 L 211.83 312.1 Z  M 221.19 303.52 L 221.19 303.52 Q 221.69 302.46 222.68 301.92 L 222.68 301.92 L 222.68 301.92 Q 223.67 301.38 225.13 301.38 L 225.13 301.38 L 225.13 302.76 L 224.79 302.74 L 224.79 302.74 Q 223.13 302.74 222.19 303.76 L 222.19 303.76 L 222.19 303.76 Q 221.25 304.78 221.25 306.62 L 221.25 306.62 L 221.25 311.98 L 219.83 311.98 L 219.83 301.46 L 221.19 301.46 L 221.19 303.52 Z  M 236.77 306.72 L 236.75 307.16 L 227.95 307.16 L 227.95 307.16 Q 228.07 308.8 229.21 309.81 L 229.21 309.81 L 229.21 309.81 Q 230.35 310.82 232.09 310.82 L 232.09 310.82 L 232.09 310.82 Q 233.07 310.82 233.89 310.47 L 233.89 310.47 L 233.89 310.47 Q 234.71 310.12 235.31 309.44 L 235.31 309.44 L 236.11 310.36 L 236.11 310.36 Q 235.41 311.2 234.36 311.64 L 234.36 311.64 L 234.36 311.64 Q 233.31 312.08 232.05 312.08 L 232.05 312.08 L 232.05 312.08 Q 230.43 312.08 229.18 311.39 L 229.18 311.39 L 229.18 311.39 Q 227.93 310.7 227.23 309.48 L 227.23 309.48 L 227.23 309.48 Q 226.53 308.26 226.53 306.72 L 226.53 306.72 L 226.53 306.72 Q 226.53 305.18 227.2 303.96 L 227.2 303.96 L 227.2 303.96 Q 227.87 302.74 229.04 302.06 L 229.04 302.06 L 229.04 302.06 Q 230.21 301.38 231.67 301.38 L 231.67 301.38 L 231.67 301.38 Q 233.13 301.38 234.29 302.06 L 234.29 302.06 L 234.29 302.06 Q 235.45 302.74 236.11 303.95 L 236.11 303.95 L 236.11 303.95 Q 236.77 305.16 236.77 306.72 L 236.77 306.72 Z  M 231.67 302.6 L 231.67 302.6 Q 230.15 302.6 229.12 303.57 L 229.12 303.57 L 229.12 303.57 Q 228.09 304.54 227.95 306.1 L 227.95 306.1 L 235.41 306.1 L 235.41 306.1 Q 235.27 304.54 234.24 303.57 L 234.24 303.57 L 234.24 303.57 Q 233.21 302.6 231.67 302.6 L 231.67 302.6 Z  M 247.85 297.14 L 249.27 297.14 L 249.27 311.98 L 247.91 311.98 L 247.91 309.9 L 247.91 309.9 Q 247.27 310.96 246.22 311.52 L 246.22 311.52 L 246.22 311.52 Q 245.17 312.08 243.85 312.08 L 243.85 312.08 L 243.85 312.08 Q 242.37 312.08 241.17 311.4 L 241.17 311.4 L 241.17 311.4 Q 239.97 310.72 239.29 309.5 L 239.29 309.5 L 239.29 309.5 Q 238.61 308.28 238.61 306.72 L 238.61 306.72 L 238.61 306.72 Q 238.61 305.16 239.29 303.94 L 239.29 303.94 L 239.29 303.94 Q 239.97 302.72 241.17 302.05 L 241.17 302.05 L 241.17 302.05 Q 242.37 301.38 243.85 301.38 L 243.85 301.38 L 243.85 301.38 Q 245.13 301.38 246.16 301.91 L 246.16 301.91 L 246.16 301.91 Q 247.19 302.44 247.85 303.46 L 247.85 303.46 L 247.85 297.14 Z  M 243.97 310.82 L 243.97 310.82 Q 245.07 310.82 245.96 310.31 L 245.96 310.31 L 245.96 310.31 Q 246.85 309.8 247.36 308.86 L 247.36 308.86 L 247.36 308.86 Q 247.87 307.92 247.87 306.72 L 247.87 306.72 L 247.87 306.72 Q 247.87 305.52 247.36 304.58 L 247.36 304.58 L 247.36 304.58 Q 246.85 303.64 245.96 303.13 L 245.96 303.13 L 245.96 303.13 Q 245.07 302.62 243.97 302.62 L 243.97 302.62 L 243.97 302.62 Q 242.85 302.62 241.96 303.13 L 241.96 303.13 L 241.96 303.13 Q 241.07 303.64 240.56 304.58 L 240.56 304.58 L 240.56 304.58 Q 240.05 305.52 240.05 306.72 L 240.05 306.72 L 240.05 306.72 Q 240.05 307.92 240.56 308.86 L 240.56 308.86 L 240.56 308.86 Q 241.07 309.8 241.96 310.31 L 241.96 310.31 L 241.96 310.31 Q 242.85 310.82 243.97 310.82 L 243.97 310.82 Z  M 253.23 311.98 L 253.23 301.46 L 254.65 301.46 L 254.65 311.98 L 253.23 311.98 Z  M 253.95 299.16 L 253.95 299.16 Q 253.51 299.16 253.21 298.86 L 253.21 298.86 L 253.21 298.86 Q 252.91 298.56 252.91 298.14 L 252.91 298.14 L 252.91 298.14 Q 252.91 297.74 253.21 297.44 L 253.21 297.44 L 253.21 297.44 Q 253.51 297.14 253.95 297.14 L 253.95 297.14 L 253.95 297.14 Q 254.39 297.14 254.69 297.43 L 254.69 297.43 L 254.69 297.43 Q 254.99 297.72 254.99 298.12 L 254.99 298.12 L 254.99 298.12 Q 254.99 298.56 254.69 298.86 L 254.69 298.86 L 254.69 298.86 Q 254.39 299.16 253.95 299.16 L 253.95 299.16 Z  M 263.65 310.32 L 264.15 311.34 L 264.15 311.34 Q 263.75 311.7 263.16 311.89 L 263.16 311.89 L 263.16 311.89 Q 262.57 312.08 261.93 312.08 L 261.93 312.08 L 261.93 312.08 Q 260.45 312.08 259.65 311.28 L 259.65 311.28 L 259.65 311.28 Q 258.85 310.48 258.85 309.02 L 258.85 309.02 L 258.85 302.66 L 256.97 302.66 L 256.97 301.46 L 258.85 301.46 L 258.85 299.16 L 260.27 299.16 L 260.27 301.46 L 263.47 301.46 L 263.47 302.66 L 260.27 302.66 L 260.27 308.94 L 260.27 308.94 Q 260.27 309.88 260.74 310.37 L 260.74 310.37 L 260.74 310.37 Q 261.21 310.86 262.09 310.86 L 262.09 310.86 L 262.09 310.86 Q 262.53 310.86 262.94 310.72 L 262.94 310.72 L 262.94 310.72 Q 263.35 310.58 263.65 310.32 L 263.65 310.32 Z  M 269.55 312.08 L 269.55 312.08 Q 268.27 312.08 267.1 311.71 L 267.1 311.71 L 267.1 311.71 Q 265.93 311.34 265.27 310.78 L 265.27 310.78 L 265.91 309.66 L 265.91 309.66 Q 266.57 310.18 267.57 310.51 L 267.57 310.51 L 267.57 310.51 Q 268.57 310.84 269.65 310.84 L 269.65 310.84 L 269.65 310.84 Q 271.09 310.84 271.78 310.39 L 271.78 310.39 L 271.78 310.39 Q 272.47 309.94 272.47 309.12 L 272.47 309.12 L 272.47 309.12 Q 272.47 308.54 272.09 308.21 L 272.09 308.21 L 272.09 308.21 Q 271.71 307.88 271.13 307.71 L 271.13 307.71 L 271.13 307.71 Q 270.55 307.54 269.59 307.38 L 269.59 307.38 L 269.59 307.38 Q 268.31 307.14 267.53 306.89 L 267.53 306.89 L 267.53 306.89 Q 266.75 306.64 266.2 306.04 L 266.2 306.04 L 266.2 306.04 Q 265.65 305.44 265.65 304.38 L 265.65 304.38 L 265.65 304.38 Q 265.65 303.06 266.75 302.22 L 266.75 302.22 L 266.75 302.22 Q 267.85 301.38 269.81 301.38 L 269.81 301.38 L 269.81 301.38 Q 270.83 301.38 271.85 301.65 L 271.85 301.65 L 271.85 301.65 Q 272.87 301.92 273.53 302.36 L 273.53 302.36 L 272.91 303.5 L 272.91 303.5 Q 271.61 302.6 269.81 302.6 L 269.81 302.6 L 269.81 302.6 Q 268.45 302.6 267.76 303.08 L 267.76 303.08 L 267.76 303.08 Q 267.07 303.56 267.07 304.34 L 267.07 304.34 L 267.07 304.34 Q 267.07 304.94 267.46 305.3 L 267.46 305.3 L 267.46 305.3 Q 267.85 305.66 268.43 305.83 L 268.43 305.83 L 268.43 305.83 Q 269.01 306 270.03 306.18 L 270.03 306.18 L 270.03 306.18 Q 271.29 306.42 272.05 306.66 L 272.05 306.66 L 272.05 306.66 Q 272.81 306.9 273.35 307.48 L 273.35 307.48 L 273.35 307.48 Q 273.89 308.06 273.89 309.08 L 273.89 309.08 L 273.89 309.08 Q 273.89 310.46 272.74 311.27 L 272.74 311.27 L 272.74 311.27 Q 271.59 312.08 269.55 312.08 L 269.55 312.08 Z " fill="rgb(255,255,255)"/><path d=" M 203.74 336.48 L 203.74 336.48 Q 202.18 336.48 200.75 335.98 L 200.75 335.98 L 200.75 335.98 Q 199.32 335.48 198.54 334.66 L 198.54 334.66 L 199.12 333.52 L 199.12 333.52 Q 199.88 334.28 201.14 334.75 L 201.14 334.75 L 201.14 334.75 Q 202.4 335.22 203.74 335.22 L 203.74 335.22 L 203.74 335.22 Q 205.62 335.22 206.56 334.53 L 206.56 334.53 L 206.56 334.53 Q 207.5 333.84 207.5 332.74 L 207.5 332.74 L 207.5 332.74 Q 207.5 331.9 206.99 331.4 L 206.99 331.4 L 206.99 331.4 Q 206.48 330.9 205.74 330.63 L 205.74 330.63 L 205.74 330.63 Q 205 330.36 203.68 330.04 L 203.68 330.04 L 203.68 330.04 Q 202.1 329.64 201.16 329.27 L 201.16 329.27 L 201.16 329.27 Q 200.22 328.9 199.55 328.14 L 199.55 328.14 L 199.55 328.14 Q 198.88 327.38 198.88 326.08 L 198.88 326.08 L 198.88 326.08 Q 198.88 325.02 199.44 324.15 L 199.44 324.15 L 199.44 324.15 Q 200 323.28 201.16 322.76 L 201.16 322.76 L 201.16 322.76 Q 202.32 322.24 204.04 322.24 L 204.04 322.24 L 204.04 322.24 Q 205.24 322.24 206.39 322.57 L 206.39 322.57 L 206.39 322.57 Q 207.54 322.9 208.38 323.48 L 208.38 323.48 L 207.88 324.66 L 207.88 324.66 Q 207 324.08 206 323.79 L 206 323.79 L 206 323.79 Q 205 323.5 204.04 323.5 L 204.04 323.5 L 204.04 323.5 Q 202.2 323.5 201.27 324.21 L 201.27 324.21 L 201.27 324.21 Q 200.34 324.92 200.34 326.04 L 200.34 326.04 L 200.34 326.04 Q 200.34 326.88 200.85 327.39 L 200.85 327.39 L 200.85 327.39 Q 201.36 327.9 202.13 328.17 L 202.13 328.17 L 202.13 328.17 Q 202.9 328.44 204.2 328.76 L 204.2 328.76 L 204.2 328.76 Q 205.74 329.14 206.69 329.51 L 206.69 329.51 L 206.69 329.51 Q 207.64 329.88 208.3 330.63 L 208.3 330.63 L 208.3 330.63 Q 208.96 331.38 208.96 332.66 L 208.96 332.66 L 208.96 332.66 Q 208.96 333.72 208.39 334.59 L 208.39 334.59 L 208.39 334.59 Q 207.82 335.46 206.64 335.97 L 206.64 335.97 L 206.64 335.97 Q 205.46 336.48 203.74 336.48 L 203.74 336.48 Z  M 221.06 331.1 L 221.04 331.54 L 212.24 331.54 L 212.24 331.54 Q 212.36 333.18 213.5 334.19 L 213.5 334.19 L 213.5 334.19 Q 214.64 335.2 216.38 335.2 L 216.38 335.2 L 216.38 335.2 Q 217.36 335.2 218.18 334.85 L 218.18 334.85 L 218.18 334.85 Q 219 334.5 219.6 333.82 L 219.6 333.82 L 220.4 334.74 L 220.4 334.74 Q 219.7 335.58 218.65 336.02 L 218.65 336.02 L 218.65 336.02 Q 217.6 336.46 216.34 336.46 L 216.34 336.46 L 216.34 336.46 Q 214.72 336.46 213.47 335.77 L 213.47 335.77 L 213.47 335.77 Q 212.22 335.08 211.52 333.86 L 211.52 333.86 L 211.52 333.86 Q 210.82 332.64 210.82 331.1 L 210.82 331.1 L 210.82 331.1 Q 210.82 329.56 211.49 328.34 L 211.49 328.34 L 211.49 328.34 Q 212.16 327.12 213.33 326.44 L 213.33 326.44 L 213.33 326.44 Q 214.5 325.76 215.96 325.76 L 215.96 325.76 L 215.96 325.76 Q 217.42 325.76 218.58 326.44 L 218.58 326.44 L 218.58 326.44 Q 219.74 327.12 220.4 328.33 L 220.4 328.33 L 220.4 328.33 Q 221.06 329.54 221.06 331.1 L 221.06 331.1 Z  M 215.96 326.98 L 215.96 326.98 Q 214.44 326.98 213.41 327.95 L 213.41 327.95 L 213.41 327.95 Q 212.38 328.92 212.24 330.48 L 212.24 330.48 L 219.7 330.48 L 219.7 330.48 Q 219.56 328.92 218.53 327.95 L 218.53 327.95 L 218.53 327.95 Q 217.5 326.98 215.96 326.98 L 215.96 326.98 Z  M 229 334.7 L 229.5 335.72 L 229.5 335.72 Q 229.1 336.08 228.51 336.27 L 228.51 336.27 L 228.51 336.27 Q 227.92 336.46 227.28 336.46 L 227.28 336.46 L 227.28 336.46 Q 225.8 336.46 225 335.66 L 225 335.66 L 225 335.66 Q 224.2 334.86 224.2 333.4 L 224.2 333.4 L 224.2 327.04 L 222.32 327.04 L 222.32 325.84 L 224.2 325.84 L 224.2 323.54 L 225.62 323.54 L 225.62 325.84 L 228.82 325.84 L 228.82 327.04 L 225.62 327.04 L 225.62 333.32 L 225.62 333.32 Q 225.62 334.26 226.09 334.75 L 226.09 334.75 L 226.09 334.75 Q 226.56 335.24 227.44 335.24 L 227.44 335.24 L 227.44 335.24 Q 227.88 335.24 228.29 335.1 L 228.29 335.1 L 228.29 335.1 Q 228.7 334.96 229 334.7 L 229 334.7 Z  M 236.84 334.7 L 237.34 335.72 L 237.34 335.72 Q 236.94 336.08 236.35 336.27 L 236.35 336.27 L 236.35 336.27 Q 235.76 336.46 235.12 336.46 L 235.12 336.46 L 235.12 336.46 Q 233.64 336.46 232.84 335.66 L 232.84 335.66 L 232.84 335.66 Q 232.04 334.86 232.04 333.4 L 232.04 333.4 L 232.04 327.04 L 230.16 327.04 L 230.16 325.84 L 232.04 325.84 L 232.04 323.54 L 233.46 323.54 L 233.46 325.84 L 236.66 325.84 L 236.66 327.04 L 233.46 327.04 L 233.46 333.32 L 233.46 333.32 Q 233.46 334.26 233.93 334.75 L 233.93 334.75 L 233.93 334.75 Q 234.4 335.24 235.28 335.24 L 235.28 335.24 L 235.28 335.24 Q 235.72 335.24 236.13 335.1 L 236.13 335.1 L 236.13 335.1 Q 236.54 334.96 236.84 334.7 L 236.84 334.7 Z  M 239.92 336.36 L 239.92 325.84 L 241.34 325.84 L 241.34 336.36 L 239.92 336.36 Z  M 240.64 323.54 L 240.64 323.54 Q 240.2 323.54 239.9 323.24 L 239.9 323.24 L 239.9 323.24 Q 239.6 322.94 239.6 322.52 L 239.6 322.52 L 239.6 322.52 Q 239.6 322.12 239.9 321.82 L 239.9 321.82 L 239.9 321.82 Q 240.2 321.52 240.64 321.52 L 240.64 321.52 L 240.64 321.52 Q 241.08 321.52 241.38 321.81 L 241.38 321.81 L 241.38 321.81 Q 241.68 322.1 241.68 322.5 L 241.68 322.5 L 241.68 322.5 Q 241.68 322.94 241.38 323.24 L 241.38 323.24 L 241.38 323.24 Q 241.08 323.54 240.64 323.54 L 240.64 323.54 Z  M 250.66 325.76 L 250.66 325.76 Q 252.64 325.76 253.81 326.91 L 253.81 326.91 L 253.81 326.91 Q 254.98 328.06 254.98 330.26 L 254.98 330.26 L 254.98 336.36 L 253.56 336.36 L 253.56 330.4 L 253.56 330.4 Q 253.56 328.76 252.74 327.9 L 252.74 327.9 L 252.74 327.9 Q 251.92 327.04 250.4 327.04 L 250.4 327.04 L 250.4 327.04 Q 248.7 327.04 247.71 328.05 L 247.71 328.05 L 247.71 328.05 Q 246.72 329.06 246.72 330.84 L 246.72 330.84 L 246.72 336.36 L 245.3 336.36 L 245.3 325.84 L 246.66 325.84 L 246.66 327.78 L 246.66 327.78 Q 247.24 326.82 248.27 326.29 L 248.27 326.29 L 248.27 326.29 Q 249.3 325.76 250.66 325.76 L 250.66 325.76 Z  M 267.26 325.84 L 268.62 325.84 L 268.62 335.08 L 268.62 335.08 Q 268.62 337.76 267.31 339.05 L 267.31 339.05 L 267.31 339.05 Q 266 340.34 263.36 340.34 L 263.36 340.34 L 263.36 340.34 Q 261.9 340.34 260.59 339.91 L 260.59 339.91 L 260.59 339.91 Q 259.28 339.48 258.46 338.72 L 258.46 338.72 L 259.18 337.64 L 259.18 337.64 Q 259.94 338.32 261.03 338.7 L 261.03 338.7 L 261.03 338.7 Q 262.12 339.08 263.32 339.08 L 263.32 339.08 L 263.32 339.08 Q 265.32 339.08 266.26 338.15 L 266.26 338.15 L 266.26 338.15 Q 267.2 337.22 267.2 335.26 L 267.2 335.26 L 267.2 333.92 L 267.2 333.92 Q 266.54 334.92 265.47 335.44 L 265.47 335.44 L 265.47 335.44 Q 264.4 335.96 263.1 335.96 L 263.1 335.96 L 263.1 335.96 Q 261.62 335.96 260.41 335.31 L 260.41 335.31 L 260.41 335.31 Q 259.2 334.66 258.51 333.49 L 258.51 333.49 L 258.51 333.49 Q 257.82 332.32 257.82 330.84 L 257.82 330.84 L 257.82 330.84 Q 257.82 329.36 258.51 328.2 L 258.51 328.2 L 258.51 328.2 Q 259.2 327.04 260.4 326.4 L 260.4 326.4 L 260.4 326.4 Q 261.6 325.76 263.1 325.76 L 263.1 325.76 L 263.1 325.76 Q 264.44 325.76 265.52 326.3 L 265.52 326.3 L 265.52 326.3 Q 266.6 326.84 267.26 327.86 L 267.26 327.86 L 267.26 325.84 Z  M 263.24 334.7 L 263.24 334.7 Q 264.38 334.7 265.3 334.21 L 265.3 334.21 L 265.3 334.21 Q 266.22 333.72 266.73 332.84 L 266.73 332.84 L 266.73 332.84 Q 267.24 331.96 267.24 330.84 L 267.24 330.84 L 267.24 330.84 Q 267.24 329.72 266.73 328.85 L 266.73 328.85 L 266.73 328.85 Q 266.22 327.98 265.31 327.49 L 265.31 327.49 L 265.31 327.49 Q 264.4 327 263.24 327 L 263.24 327 L 263.24 327 Q 262.1 327 261.19 327.48 L 261.19 327.48 L 261.19 327.48 Q 260.28 327.96 259.77 328.84 L 259.77 328.84 L 259.77 328.84 Q 259.26 329.72 259.26 330.84 L 259.26 330.84 L 259.26 330.84 Q 259.26 331.96 259.77 332.84 L 259.77 332.84 L 259.77 332.84 Q 260.28 333.72 261.19 334.21 L 261.19 334.21 L 261.19 334.21 Q 262.1 334.7 263.24 334.7 L 263.24 334.7 Z  M 275.42 336.46 L 275.42 336.46 Q 274.14 336.46 272.97 336.09 L 272.97 336.09 L 272.97 336.09 Q 271.8 335.72 271.14 335.16 L 271.14 335.16 L 271.78 334.04 L 271.78 334.04 Q 272.44 334.56 273.44 334.89 L 273.44 334.89 L 273.44 334.89 Q 274.44 335.22 275.52 335.22 L 275.52 335.22 L 275.52 335.22 Q 276.96 335.22 277.65 334.77 L 277.65 334.77 L 277.65 334.77 Q 278.34 334.32 278.34 333.5 L 278.34 333.5 L 278.34 333.5 Q 278.34 332.92 277.96 332.59 L 277.96 332.59 L 277.96 332.59 Q 277.58 332.26 277 332.09 L 277 332.09 L 277 332.09 Q 276.42 331.92 275.46 331.76 L 275.46 331.76 L 275.46 331.76 Q 274.18 331.52 273.4 331.27 L 273.4 331.27 L 273.4 331.27 Q 272.62 331.02 272.07 330.42 L 272.07 330.42 L 272.07 330.42 Q 271.52 329.82 271.52 328.76 L 271.52 328.76 L 271.52 328.76 Q 271.52 327.44 272.62 326.6 L 272.62 326.6 L 272.62 326.6 Q 273.72 325.76 275.68 325.76 L 275.68 325.76 L 275.68 325.76 Q 276.7 325.76 277.72 326.03 L 277.72 326.03 L 277.72 326.03 Q 278.74 326.3 279.4 326.74 L 279.4 326.74 L 278.78 327.88 L 278.78 327.88 Q 277.48 326.98 275.68 326.98 L 275.68 326.98 L 275.68 326.98 Q 274.32 326.98 273.63 327.46 L 273.63 327.46 L 273.63 327.46 Q 272.94 327.94 272.94 328.72 L 272.94 328.72 L 272.94 328.72 Q 272.94 329.32 273.33 329.68 L 273.33 329.68 L 273.33 329.68 Q 273.72 330.04 274.3 330.21 L 274.3 330.21 L 274.3 330.21 Q 274.88 330.38 275.9 330.56 L 275.9 330.56 L 275.9 330.56 Q 277.16 330.8 277.92 331.04 L 277.92 331.04 L 277.92 331.04 Q 278.68 331.28 279.22 331.86 L 279.22 331.86 L 279.22 331.86 Q 279.76 332.44 279.76 333.46 L 279.76 333.46 L 279.76 333.46 Q 279.76 334.84 278.61 335.65 L 278.61 335.65 L 278.61 335.65 Q 277.46 336.46 275.42 336.46 L 275.42 336.46 Z " fill="rgb(255,255,255)"/><path d=" M 214.66 150.92 L 214.66 150.92 Q 217.34 150.92 218.86 152.2 L 218.86 152.2 L 218.86 152.2 Q 220.38 153.48 220.38 155.72 L 220.38 155.72 L 220.38 155.72 Q 220.38 157.96 218.86 159.23 L 218.86 159.23 L 218.86 159.23 Q 217.34 160.5 214.66 160.5 L 214.66 160.5 L 210.9 160.5 L 210.9 164.92 L 209.42 164.92 L 209.42 150.92 L 214.66 150.92 Z  M 214.62 159.2 L 214.62 159.2 Q 216.7 159.2 217.8 158.29 L 217.8 158.29 L 217.8 158.29 Q 218.9 157.38 218.9 155.72 L 218.9 155.72 L 218.9 155.72 Q 218.9 154.02 217.8 153.11 L 217.8 153.11 L 217.8 153.11 Q 216.7 152.2 214.62 152.2 L 214.62 152.2 L 210.9 152.2 L 210.9 159.2 L 214.62 159.2 Z  M 227.52 165.02 L 227.52 165.02 Q 226 165.02 224.78 164.33 L 224.78 164.33 L 224.78 164.33 Q 223.56 163.64 222.86 162.42 L 222.86 162.42 L 222.86 162.42 Q 222.16 161.2 222.16 159.66 L 222.16 159.66 L 222.16 159.66 Q 222.16 158.12 222.86 156.9 L 222.86 156.9 L 222.86 156.9 Q 223.56 155.68 224.78 155 L 224.78 155 L 224.78 155 Q 226 154.32 227.52 154.32 L 227.52 154.32 L 227.52 154.32 Q 229.04 154.32 230.26 155 L 230.26 155 L 230.26 155 Q 231.48 155.68 232.17 156.9 L 232.17 156.9 L 232.17 156.9 Q 232.86 158.12 232.86 159.66 L 232.86 159.66 L 232.86 159.66 Q 232.86 161.2 232.17 162.42 L 232.17 162.42 L 232.17 162.42 Q 231.48 163.64 230.26 164.33 L 230.26 164.33 L 230.26 164.33 Q 229.04 165.02 227.52 165.02 L 227.52 165.02 Z  M 227.52 163.76 L 227.52 163.76 Q 228.64 163.76 229.53 163.25 L 229.53 163.25 L 229.53 163.25 Q 230.42 162.74 230.92 161.8 L 230.92 161.8 L 230.92 161.8 Q 231.42 160.86 231.42 159.66 L 231.42 159.66 L 231.42 159.66 Q 231.42 158.46 230.92 157.52 L 230.92 157.52 L 230.92 157.52 Q 230.42 156.58 229.53 156.07 L 229.53 156.07 L 229.53 156.07 Q 228.64 155.56 227.52 155.56 L 227.52 155.56 L 227.52 155.56 Q 226.4 155.56 225.51 156.07 L 225.51 156.07 L 225.51 156.07 Q 224.62 156.58 224.11 157.52 L 224.11 157.52 L 224.11 157.52 Q 223.6 158.46 223.6 159.66 L 223.6 159.66 L 223.6 159.66 Q 223.6 160.86 224.11 161.8 L 224.11 161.8 L 224.11 161.8 Q 224.62 162.74 225.51 163.25 L 225.51 163.25 L 225.51 163.25 Q 226.4 163.76 227.52 163.76 L 227.52 163.76 Z  M 249.6 154.4 L 250.9 154.4 L 246.92 164.92 L 245.58 164.92 L 242.26 156.3 L 238.94 164.92 L 237.6 164.92 L 233.64 154.4 L 235 154.4 L 238.3 163.34 L 241.68 154.4 L 242.9 154.4 L 246.26 163.34 L 249.6 154.4 Z  M 261.92 159.66 L 261.9 160.1 L 253.1 160.1 L 253.1 160.1 Q 253.22 161.74 254.36 162.75 L 254.36 162.75 L 254.36 162.75 Q 255.5 163.76 257.24 163.76 L 257.24 163.76 L 257.24 163.76 Q 258.22 163.76 259.04 163.41 L 259.04 163.41 L 259.04 163.41 Q 259.86 163.06 260.46 162.38 L 260.46 162.38 L 261.26 163.3 L 261.26 163.3 Q 260.56 164.14 259.51 164.58 L 259.51 164.58 L 259.51 164.58 Q 258.46 165.02 257.2 165.02 L 257.2 165.02 L 257.2 165.02 Q 255.58 165.02 254.33 164.33 L 254.33 164.33 L 254.33 164.33 Q 253.08 163.64 252.38 162.42 L 252.38 162.42 L 252.38 162.42 Q 251.68 161.2 251.68 159.66 L 251.68 159.66 L 251.68 159.66 Q 251.68 158.12 252.35 156.9 L 252.35 156.9 L 252.35 156.9 Q 253.02 155.68 254.19 155 L 254.19 155 L 254.19 155 Q 255.36 154.32 256.82 154.32 L 256.82 154.32 L 256.82 154.32 Q 258.28 154.32 259.44 155 L 259.44 155 L 259.44 155 Q 260.6 155.68 261.26 156.89 L 261.26 156.89 L 261.26 156.89 Q 261.92 158.1 261.92 159.66 L 261.92 159.66 Z  M 256.82 155.54 L 256.82 155.54 Q 255.3 155.54 254.27 156.51 L 254.27 156.51 L 254.27 156.51 Q 253.24 157.48 253.1 159.04 L 253.1 159.04 L 260.56 159.04 L 260.56 159.04 Q 260.42 157.48 259.39 156.51 L 259.39 156.51 L 259.39 156.51 Q 258.36 155.54 256.82 155.54 L 256.82 155.54 Z  M 266.18 156.46 L 266.18 156.46 Q 266.68 155.4 267.67 154.86 L 267.67 154.86 L 267.67 154.86 Q 268.66 154.32 270.12 154.32 L 270.12 154.32 L 270.12 155.7 L 269.78 155.68 L 269.78 155.68 Q 268.12 155.68 267.18 156.7 L 267.18 156.7 L 267.18 156.7 Q 266.24 157.72 266.24 159.56 L 266.24 159.56 L 266.24 164.92 L 264.82 164.92 L 264.82 154.4 L 266.18 154.4 L 266.18 156.46 Z " fill="rgb(255,255,255)"/></g></svg>