<?xml version="1.0" encoding="UTF-8" standalone="no"?><!-- Generator: Gravit.io --><svg xmlns="http://www.w3.org/2000/svg" xmlns:xlink="http://www.w3.org/1999/xlink" style="isolation:isolate" viewBox="0 0 480 360" width="480pt" height="360pt"><defs><clipPath id="_clipPath_nt2QCa588cCroeKMMn66hSJfTClrlN7H"><rect width="480" height="360"/></clipPath></defs><g clip-path="url(#_clipPath_nt2QCa588cCroeKMMn66hSJfTClrlN7H)"><rect width="480" height="360" style="fill:rgb(54,54,54)"/><path d=" M 245.465 129.707 L 239.388 135.922 C 237.409 133.94 235.713 132.756 234.3 132.372 C 232.807 131.898 231.053 131.93 229.041 132.469 C 226.568 133.132 224.705 134.381 223.45 136.22 C 222.188 138.033 221.837 139.984 222.397 142.074 C 223.168 144.951 225.93 146.697 230.683 147.309 L 237.213 148.139 C 242.522 148.793 246.659 150.218 249.623 152.413 C 252.588 154.609 254.613 157.732 255.698 161.783 C 257.152 167.21 256.544 172.18 253.874 176.692 C 251.188 181.236 247.144 184.231 241.742 185.678 C 236.619 187.051 231.984 186.667 227.834 184.529 C 223.735 182.377 220.539 178.659 218.25 173.376 L 226.738 168.971 C 228.072 172.326 229.428 174.532 230.802 175.582 C 233.32 177.638 236.336 178.196 239.853 177.253 C 242.629 176.51 244.687 174.961 246.023 172.61 C 247.36 170.257 247.645 167.656 246.881 164.803 C 246.574 163.655 246.131 162.647 245.559 161.775 C 244.984 160.907 244.252 160.16 243.361 159.54 C 242.471 158.917 241.396 158.4 240.138 157.985 C 238.879 157.572 237.427 157.245 235.779 157.003 L 229.449 156.16 C 220.458 154.91 215.08 150.997 213.319 144.424 C 212.131 139.99 212.833 135.829 215.422 131.94 C 218.004 128.025 221.818 125.392 226.864 124.04 C 233.668 122.217 239.867 124.105 245.465 129.707 L 245.465 129.707 L 245.465 129.707 Z " fill="rgb(54,73,221)"/><path d=" M 183.699 105.194 L 183.699 105.194 Q 179.919 105.194 176.877 103.52 L 176.877 103.52 L 176.877 103.52 Q 173.835 101.846 172.107 98.912 L 172.107 98.912 L 172.107 98.912 Q 170.379 95.978 170.379 92.306 L 170.379 92.306 L 170.379 92.306 Q 170.379 88.634 172.107 85.7 L 172.107 85.7 L 172.107 85.7 Q 173.835 82.766 176.895 81.092 L 176.895 81.092 L 176.895 81.092 Q 179.955 79.418 183.735 79.418 L 183.735 79.418 L 183.735 79.418 Q 186.687 79.418 189.135 80.408 L 189.135 80.408 L 189.135 80.408 Q 191.583 81.398 193.311 83.342 L 193.311 83.342 L 190.971 85.61 L 190.971 85.61 Q 188.127 82.622 183.879 82.622 L 183.879 82.622 L 183.879 82.622 Q 181.071 82.622 178.803 83.882 L 178.803 83.882 L 178.803 83.882 Q 176.535 85.142 175.257 87.356 L 175.257 87.356 L 175.257 87.356 Q 173.979 89.57 173.979 92.306 L 173.979 92.306 L 173.979 92.306 Q 173.979 95.042 175.257 97.256 L 175.257 97.256 L 175.257 97.256 Q 176.535 99.47 178.803 100.73 L 178.803 100.73 L 178.803 100.73 Q 181.071 101.99 183.879 101.99 L 183.879 101.99 L 183.879 101.99 Q 188.091 101.99 190.971 98.966 L 190.971 98.966 L 193.311 101.234 L 193.311 101.234 Q 191.583 103.178 189.117 104.186 L 189.117 104.186 L 189.117 104.186 Q 186.651 105.194 183.699 105.194 L 183.699 105.194 L 183.699 105.194 Z  M 201.267 89.03 L 201.267 89.03 Q 202.167 87.374 203.931 86.51 L 203.931 86.51 L 203.931 86.51 Q 205.695 85.646 208.215 85.646 L 208.215 85.646 L 208.215 88.994 L 208.215 88.994 Q 207.927 88.958 207.423 88.958 L 207.423 88.958 L 207.423 88.958 Q 204.615 88.958 203.013 90.632 L 203.013 90.632 L 203.013 90.632 Q 201.411 92.306 201.411 95.402 L 201.411 95.402 L 201.411 104.906 L 197.955 104.906 L 197.955 85.826 L 201.267 85.826 L 201.267 89.03 L 201.267 89.03 Z  M 229.527 95.474 L 229.527 95.474 Q 229.527 95.87 229.455 96.518 L 229.455 96.518 L 213.975 96.518 L 213.975 96.518 Q 214.299 99.038 216.189 100.568 L 216.189 100.568 L 216.189 100.568 Q 218.079 102.098 220.887 102.098 L 220.887 102.098 L 220.887 102.098 Q 224.307 102.098 226.395 99.794 L 226.395 99.794 L 228.303 102.026 L 228.303 102.026 Q 227.007 103.538 225.081 104.33 L 225.081 104.33 L 225.081 104.33 Q 223.155 105.122 220.779 105.122 L 220.779 105.122 L 220.779 105.122 Q 217.755 105.122 215.415 103.88 L 215.415 103.88 L 215.415 103.88 Q 213.075 102.638 211.797 100.406 L 211.797 100.406 L 211.797 100.406 Q 210.519 98.174 210.519 95.366 L 210.519 95.366 L 210.519 95.366 Q 210.519 92.594 211.761 90.362 L 211.761 90.362 L 211.761 90.362 Q 213.003 88.13 215.181 86.888 L 215.181 86.888 L 215.181 86.888 Q 217.359 85.646 220.095 85.646 L 220.095 85.646 L 220.095 85.646 Q 222.831 85.646 224.973 86.888 L 224.973 86.888 L 224.973 86.888 Q 227.115 88.13 228.321 90.362 L 228.321 90.362 L 228.321 90.362 Q 229.527 92.594 229.527 95.474 L 229.527 95.474 L 229.527 95.474 Z  M 220.095 88.562 L 220.095 88.562 Q 217.611 88.562 215.937 90.074 L 215.937 90.074 L 215.937 90.074 Q 214.263 91.586 213.975 94.034 L 213.975 94.034 L 226.215 94.034 L 226.215 94.034 Q 225.927 91.622 224.253 90.092 L 224.253 90.092 L 224.253 90.092 Q 222.579 88.562 220.095 88.562 L 220.095 88.562 L 220.095 88.562 Z  M 248.859 78.194 L 252.315 78.194 L 252.315 104.906 L 249.003 104.906 L 249.003 101.882 L 249.003 101.882 Q 247.851 103.466 246.087 104.294 L 246.087 104.294 L 246.087 104.294 Q 244.323 105.122 242.199 105.122 L 242.199 105.122 L 242.199 105.122 Q 239.427 105.122 237.231 103.898 L 237.231 103.898 L 237.231 103.898 Q 235.035 102.674 233.793 100.46 L 233.793 100.46 L 233.793 100.46 Q 232.551 98.246 232.551 95.366 L 232.551 95.366 L 232.551 95.366 Q 232.551 92.486 233.793 90.29 L 233.793 90.29 L 233.793 90.29 Q 235.035 88.094 237.231 86.87 L 237.231 86.87 L 237.231 86.87 Q 239.427 85.646 242.199 85.646 L 242.199 85.646 L 242.199 85.646 Q 244.251 85.646 245.979 86.42 L 245.979 86.42 L 245.979 86.42 Q 247.707 87.194 248.859 88.706 L 248.859 88.706 L 248.859 78.194 L 248.859 78.194 Z  M 242.487 102.098 L 242.487 102.098 Q 244.287 102.098 245.763 101.252 L 245.763 101.252 L 245.763 101.252 Q 247.239 100.406 248.067 98.876 L 248.067 98.876 L 248.067 98.876 Q 248.895 97.346 248.895 95.366 L 248.895 95.366 L 248.895 95.366 Q 248.895 93.386 248.067 91.856 L 248.067 91.856 L 248.067 91.856 Q 247.239 90.326 245.763 89.498 L 245.763 89.498 L 245.763 89.498 Q 244.287 88.67 242.487 88.67 L 242.487 88.67 L 242.487 88.67 Q 240.651 88.67 239.193 89.498 L 239.193 89.498 L 239.193 89.498 Q 237.735 90.326 236.889 91.856 L 236.889 91.856 L 236.889 91.856 Q 236.043 93.386 236.043 95.366 L 236.043 95.366 L 236.043 95.366 Q 236.043 97.346 236.889 98.876 L 236.889 98.876 L 236.889 98.876 Q 237.735 100.406 239.193 101.252 L 239.193 101.252 L 239.193 101.252 Q 240.651 102.098 242.487 102.098 L 242.487 102.098 L 242.487 102.098 Z  M 258.867 104.906 L 258.867 85.826 L 262.323 85.826 L 262.323 104.906 L 258.867 104.906 L 258.867 104.906 Z  M 260.595 82.154 L 260.595 82.154 Q 259.587 82.154 258.921 81.506 L 258.921 81.506 L 258.921 81.506 Q 258.255 80.858 258.255 79.922 L 258.255 79.922 L 258.255 79.922 Q 258.255 78.986 258.921 78.32 L 258.921 78.32 L 258.921 78.32 Q 259.587 77.654 260.595 77.654 L 260.595 77.654 L 260.595 77.654 Q 261.603 77.654 262.269 78.284 L 262.269 78.284 L 262.269 78.284 Q 262.935 78.914 262.935 79.85 L 262.935 79.85 L 262.935 79.85 Q 262.935 80.822 262.269 81.488 L 262.269 81.488 L 262.269 81.488 Q 261.603 82.154 260.595 82.154 L 260.595 82.154 L 260.595 82.154 Z  M 278.559 101.306 L 279.639 103.79 L 279.639 103.79 Q 278.883 104.438 277.767 104.78 L 277.767 104.78 L 277.767 104.78 Q 276.651 105.122 275.463 105.122 L 275.463 105.122 L 275.463 105.122 Q 272.583 105.122 270.999 103.574 L 270.999 103.574 L 270.999 103.574 Q 269.415 102.026 269.415 99.146 L 269.415 99.146 L 269.415 88.67 L 266.175 88.67 L 266.175 85.826 L 269.415 85.826 L 269.415 81.65 L 272.871 81.65 L 272.871 85.826 L 278.343 85.826 L 278.343 88.67 L 272.871 88.67 L 272.871 99.002 L 272.871 99.002 Q 272.871 100.55 273.645 101.378 L 273.645 101.378 L 273.645 101.378 Q 274.419 102.206 275.859 102.206 L 275.859 102.206 L 275.859 102.206 Q 277.443 102.206 278.559 101.306 L 278.559 101.306 L 278.559 101.306 Z  M 289.287 105.122 L 289.287 105.122 Q 286.947 105.122 284.787 104.492 L 284.787 104.492 L 284.787 104.492 Q 282.627 103.862 281.403 102.89 L 281.403 102.89 L 282.843 100.154 L 282.843 100.154 Q 284.103 101.054 285.903 101.594 L 285.903 101.594 L 285.903 101.594 Q 287.703 102.134 289.539 102.134 L 289.539 102.134 L 289.539 102.134 Q 294.075 102.134 294.075 99.542 L 294.075 99.542 L 294.075 99.542 Q 294.075 98.678 293.463 98.174 L 293.463 98.174 L 293.463 98.174 Q 292.851 97.67 291.933 97.436 L 291.933 97.436 L 291.933 97.436 Q 291.015 97.202 289.323 96.914 L 289.323 96.914 L 289.323 96.914 Q 287.019 96.554 285.561 96.086 L 285.561 96.086 L 285.561 96.086 Q 284.103 95.618 283.059 94.502 L 283.059 94.502 L 283.059 94.502 Q 282.015 93.386 282.015 91.37 L 282.015 91.37 L 282.015 91.37 Q 282.015 88.778 284.175 87.212 L 284.175 87.212 L 284.175 87.212 Q 286.335 85.646 289.971 85.646 L 289.971 85.646 L 289.971 85.646 Q 291.879 85.646 293.787 86.114 L 293.787 86.114 L 293.787 86.114 Q 295.695 86.582 296.919 87.374 L 296.919 87.374 L 295.443 90.11 L 295.443 90.11 Q 293.103 88.598 289.935 88.598 L 289.935 88.598 L 289.935 88.598 Q 287.739 88.598 286.587 89.318 L 286.587 89.318 L 286.587 89.318 Q 285.435 90.038 285.435 91.226 L 285.435 91.226 L 285.435 91.226 Q 285.435 92.162 286.083 92.702 L 286.083 92.702 L 286.083 92.702 Q 286.731 93.242 287.685 93.494 L 287.685 93.494 L 287.685 93.494 Q 288.639 93.746 290.367 94.07 L 290.367 94.07 L 290.367 94.07 Q 292.671 94.466 294.093 94.916 L 294.093 94.916 L 294.093 94.916 Q 295.515 95.366 296.523 96.446 L 296.523 96.446 L 296.523 96.446 Q 297.531 97.526 297.531 99.47 L 297.531 99.47 L 297.531 99.47 Q 297.531 102.062 295.317 103.592 L 295.317 103.592 L 295.317 103.592 Q 293.103 105.122 289.287 105.122 L 289.287 105.122 L 289.287 105.122 Z " fill="rgb(255,255,255)"/><path d=" M 277.113 210.43 L 277.113 210.43 Q 278.658 210.58 279.468 211.383 L 279.468 211.383 L 279.468 211.383 Q 280.278 212.185 280.278 213.43 L 280.278 213.43 L 280.278 213.43 Q 280.278 214.33 279.828 215.058 L 279.828 215.058 L 279.828 215.058 Q 279.378 215.785 278.485 216.213 L 278.485 216.213 L 278.485 216.213 Q 277.593 216.64 276.303 216.64 L 276.303 216.64 L 276.303 216.64 Q 275.178 216.64 274.143 216.303 L 274.143 216.303 L 274.143 216.303 Q 273.108 215.965 272.448 215.365 L 272.448 215.365 L 273.138 214.18 L 273.138 214.18 Q 273.678 214.69 274.518 214.998 L 274.518 214.998 L 274.518 214.998 Q 275.358 215.305 276.303 215.305 L 276.303 215.305 L 276.303 215.305 Q 277.473 215.305 278.125 214.81 L 278.125 214.81 L 278.125 214.81 Q 278.778 214.315 278.778 213.445 L 278.778 213.445 L 278.778 213.445 Q 278.778 212.575 278.133 212.095 L 278.133 212.095 L 278.133 212.095 Q 277.488 211.615 276.183 211.615 L 276.183 211.615 L 275.343 211.615 L 275.343 210.565 L 277.983 207.325 L 272.928 207.325 L 272.928 206.02 L 279.858 206.02 L 279.858 207.04 L 277.113 210.43 L 277.113 210.43 Z  M 286.203 210.145 L 286.203 210.145 Q 287.238 210.145 288.055 210.535 L 288.055 210.535 L 288.055 210.535 Q 288.873 210.925 289.338 211.653 L 289.338 211.653 L 289.338 211.653 Q 289.803 212.38 289.803 213.325 L 289.803 213.325 L 289.803 213.325 Q 289.803 214.315 289.315 215.065 L 289.315 215.065 L 289.315 215.065 Q 288.828 215.815 287.98 216.228 L 287.98 216.228 L 287.98 216.228 Q 287.133 216.64 286.083 216.64 L 286.083 216.64 L 286.083 216.64 Q 283.968 216.64 282.82 215.275 L 282.82 215.275 L 282.82 215.275 Q 281.673 213.91 281.673 211.405 L 281.673 211.405 L 281.673 211.405 Q 281.673 209.65 282.295 208.413 L 282.295 208.413 L 282.295 208.413 Q 282.918 207.175 284.035 206.538 L 284.035 206.538 L 284.035 206.538 Q 285.153 205.9 286.638 205.9 L 286.638 205.9 L 286.638 205.9 Q 287.403 205.9 288.078 206.058 L 288.078 206.058 L 288.078 206.058 Q 288.753 206.215 289.248 206.515 L 289.248 206.515 L 288.678 207.685 L 288.678 207.685 Q 287.928 207.19 286.668 207.19 L 286.668 207.19 L 286.668 207.19 Q 285.033 207.19 284.103 208.203 L 284.103 208.203 L 284.103 208.203 Q 283.173 209.215 283.173 211.15 L 283.173 211.15 L 283.173 211.15 Q 283.173 211.39 283.188 211.525 L 283.188 211.525 L 283.188 211.525 Q 283.638 210.85 284.425 210.498 L 284.425 210.498 L 284.425 210.498 Q 285.213 210.145 286.203 210.145 L 286.203 210.145 L 286.203 210.145 Z  M 286.023 215.425 L 286.023 215.425 Q 287.058 215.425 287.703 214.87 L 287.703 214.87 L 287.703 214.87 Q 288.348 214.315 288.348 213.385 L 288.348 213.385 L 288.348 213.385 Q 288.348 212.455 287.695 211.908 L 287.695 211.908 L 287.695 211.908 Q 287.043 211.36 285.948 211.36 L 285.948 211.36 L 285.948 211.36 Q 285.243 211.36 284.695 211.63 L 284.695 211.63 L 284.695 211.63 Q 284.148 211.9 283.84 212.365 L 283.84 212.365 L 283.84 212.365 Q 283.533 212.83 283.533 213.4 L 283.533 213.4 L 283.533 213.4 Q 283.533 213.955 283.825 214.413 L 283.825 214.413 L 283.825 214.413 Q 284.118 214.87 284.68 215.148 L 284.68 215.148 L 284.68 215.148 Q 285.243 215.425 286.023 215.425 L 286.023 215.425 L 286.023 215.425 Z  M 295.218 216.64 L 295.218 216.64 Q 293.973 216.64 293.005 216.003 L 293.005 216.003 L 293.005 216.003 Q 292.038 215.365 291.483 214.15 L 291.483 214.15 L 291.483 214.15 Q 290.928 212.935 290.928 211.27 L 290.928 211.27 L 290.928 211.27 Q 290.928 209.605 291.483 208.39 L 291.483 208.39 L 291.483 208.39 Q 292.038 207.175 293.005 206.538 L 293.005 206.538 L 293.005 206.538 Q 293.973 205.9 295.218 205.9 L 295.218 205.9 L 295.218 205.9 Q 296.448 205.9 297.415 206.538 L 297.415 206.538 L 297.415 206.538 Q 298.383 207.175 298.938 208.39 L 298.938 208.39 L 298.938 208.39 Q 299.493 209.605 299.493 211.27 L 299.493 211.27 L 299.493 211.27 Q 299.493 212.935 298.938 214.15 L 298.938 214.15 L 298.938 214.15 Q 298.383 215.365 297.415 216.003 L 297.415 216.003 L 297.415 216.003 Q 296.448 216.64 295.218 216.64 L 295.218 216.64 L 295.218 216.64 Z  M 295.218 215.305 L 295.218 215.305 Q 296.478 215.305 297.235 214.27 L 297.235 214.27 L 297.235 214.27 Q 297.993 213.235 297.993 211.27 L 297.993 211.27 L 297.993 211.27 Q 297.993 209.305 297.235 208.27 L 297.235 208.27 L 297.235 208.27 Q 296.478 207.235 295.218 207.235 L 295.218 207.235 L 295.218 207.235 Q 293.943 207.235 293.185 208.27 L 293.185 208.27 L 293.185 208.27 Q 292.428 209.305 292.428 211.27 L 292.428 211.27 L 292.428 211.27 Q 292.428 213.235 293.185 214.27 L 293.185 214.27 L 293.185 214.27 Q 293.943 215.305 295.218 215.305 L 295.218 215.305 L 295.218 215.305 Z  M 171.648 216.64 L 171.648 216.64 Q 170.463 216.64 169.36 216.273 L 169.36 216.273 L 169.36 216.273 Q 168.258 215.905 167.628 215.32 L 167.628 215.32 L 168.183 214.15 L 168.183 214.15 Q 168.783 214.69 169.72 215.028 L 169.72 215.028 L 169.72 215.028 Q 170.658 215.365 171.648 215.365 L 171.648 215.365 L 171.648 215.365 Q 172.953 215.365 173.598 214.923 L 173.598 214.923 L 173.598 214.923 Q 174.243 214.48 174.243 213.745 L 174.243 213.745 L 174.243 213.745 Q 174.243 213.205 173.89 212.868 L 173.89 212.868 L 173.89 212.868 Q 173.538 212.53 173.02 212.35 L 173.02 212.35 L 173.02 212.35 Q 172.503 212.17 171.558 211.945 L 171.558 211.945 L 171.558 211.945 Q 170.373 211.66 169.645 211.375 L 169.645 211.375 L 169.645 211.375 Q 168.918 211.09 168.4 210.498 L 168.4 210.498 L 168.4 210.498 Q 167.883 209.905 167.883 208.9 L 167.883 208.9 L 167.883 208.9 Q 167.883 208.06 168.325 207.385 L 168.325 207.385 L 168.325 207.385 Q 168.768 206.71 169.668 206.305 L 169.668 206.305 L 169.668 206.305 Q 170.568 205.9 171.903 205.9 L 171.903 205.9 L 171.903 205.9 Q 172.833 205.9 173.733 206.14 L 173.733 206.14 L 173.733 206.14 Q 174.633 206.38 175.278 206.83 L 175.278 206.83 L 174.783 208.03 L 174.783 208.03 Q 174.123 207.61 173.373 207.393 L 173.373 207.393 L 173.373 207.393 Q 172.623 207.175 171.903 207.175 L 171.903 207.175 L 171.903 207.175 Q 170.628 207.175 169.99 207.64 L 169.99 207.64 L 169.99 207.64 Q 169.353 208.105 169.353 208.84 L 169.353 208.84 L 169.353 208.84 Q 169.353 209.38 169.713 209.718 L 169.713 209.718 L 169.713 209.718 Q 170.073 210.055 170.605 210.243 L 170.605 210.243 L 170.605 210.243 Q 171.138 210.43 172.053 210.64 L 172.053 210.64 L 172.053 210.64 Q 173.238 210.925 173.958 211.21 L 173.958 211.21 L 173.958 211.21 Q 174.678 211.495 175.195 212.08 L 175.195 212.08 L 175.195 212.08 Q 175.713 212.665 175.713 213.655 L 175.713 213.655 L 175.713 213.655 Q 175.713 214.48 175.263 215.163 L 175.263 215.163 L 175.263 215.163 Q 174.813 215.845 173.898 216.243 L 173.898 216.243 L 173.898 216.243 Q 172.983 216.64 171.648 216.64 L 171.648 216.64 L 171.648 216.64 Z  M 180.588 208.495 L 180.588 208.495 Q 182.238 208.495 183.115 209.305 L 183.115 209.305 L 183.115 209.305 Q 183.993 210.115 183.993 211.72 L 183.993 211.72 L 183.993 216.52 L 182.628 216.52 L 182.628 215.47 L 182.628 215.47 Q 182.268 216.025 181.6 216.318 L 181.6 216.318 L 181.6 216.318 Q 180.933 216.61 180.018 216.61 L 180.018 216.61 L 180.018 216.61 Q 178.683 216.61 177.88 215.965 L 177.88 215.965 L 177.88 215.965 Q 177.078 215.32 177.078 214.27 L 177.078 214.27 L 177.078 214.27 Q 177.078 213.22 177.843 212.583 L 177.843 212.583 L 177.843 212.583 Q 178.608 211.945 180.273 211.945 L 180.273 211.945 L 182.553 211.945 L 182.553 211.66 L 182.553 211.66 Q 182.553 210.73 182.013 210.235 L 182.013 210.235 L 182.013 210.235 Q 181.473 209.74 180.423 209.74 L 180.423 209.74 L 180.423 209.74 Q 179.718 209.74 179.043 209.973 L 179.043 209.973 L 179.043 209.973 Q 178.368 210.205 177.903 210.595 L 177.903 210.595 L 177.303 209.515 L 177.303 209.515 Q 177.918 209.02 178.773 208.758 L 178.773 208.758 L 178.773 208.758 Q 179.628 208.495 180.588 208.495 L 180.588 208.495 L 180.588 208.495 Z  M 180.258 215.5 L 180.258 215.5 Q 181.083 215.5 181.683 215.133 L 181.683 215.133 L 181.683 215.133 Q 182.283 214.765 182.553 214.09 L 182.553 214.09 L 182.553 212.98 L 180.333 212.98 L 180.333 212.98 Q 178.503 212.98 178.503 214.21 L 178.503 214.21 L 178.503 214.21 Q 178.503 214.81 178.968 215.155 L 178.968 215.155 L 178.968 215.155 Q 179.433 215.5 180.258 215.5 L 180.258 215.5 L 180.258 215.5 Z  M 196.608 208.495 L 196.608 208.495 Q 198.108 208.495 198.985 209.365 L 198.985 209.365 L 198.985 209.365 Q 199.863 210.235 199.863 211.945 L 199.863 211.945 L 199.863 216.52 L 198.423 216.52 L 198.423 212.11 L 198.423 212.11 Q 198.423 210.955 197.89 210.37 L 197.89 210.37 L 197.89 210.37 Q 197.358 209.785 196.368 209.785 L 196.368 209.785 L 196.368 209.785 Q 195.273 209.785 194.628 210.468 L 194.628 210.468 L 194.628 210.468 Q 193.983 211.15 193.983 212.425 L 193.983 212.425 L 193.983 216.52 L 192.543 216.52 L 192.543 212.11 L 192.543 212.11 Q 192.543 210.955 192.01 210.37 L 192.01 210.37 L 192.01 210.37 Q 191.478 209.785 190.488 209.785 L 190.488 209.785 L 190.488 209.785 Q 189.393 209.785 188.748 210.468 L 188.748 210.468 L 188.748 210.468 Q 188.103 211.15 188.103 212.425 L 188.103 212.425 L 188.103 216.52 L 186.663 216.52 L 186.663 208.57 L 188.043 208.57 L 188.043 209.755 L 188.043 209.755 Q 188.478 209.14 189.183 208.818 L 189.183 208.818 L 189.183 208.818 Q 189.888 208.495 190.788 208.495 L 190.788 208.495 L 190.788 208.495 Q 191.718 208.495 192.438 208.87 L 192.438 208.87 L 192.438 208.87 Q 193.158 209.245 193.548 209.965 L 193.548 209.965 L 193.548 209.965 Q 193.998 209.275 194.8 208.885 L 194.8 208.885 L 194.8 208.885 Q 195.603 208.495 196.608 208.495 L 196.608 208.495 L 196.608 208.495 Z  M 208.488 208.57 L 209.928 208.57 L 209.928 216.52 L 208.563 216.52 L 208.563 215.32 L 208.563 215.32 Q 208.128 215.935 207.415 216.273 L 207.415 216.273 L 207.415 216.273 Q 206.703 216.61 205.863 216.61 L 205.863 216.61 L 205.863 216.61 Q 204.273 216.61 203.358 215.733 L 203.358 215.733 L 203.358 215.733 Q 202.443 214.855 202.443 213.145 L 202.443 213.145 L 202.443 208.57 L 203.883 208.57 L 203.883 212.98 L 203.883 212.98 Q 203.883 214.135 204.438 214.728 L 204.438 214.728 L 204.438 214.728 Q 204.993 215.32 206.028 215.32 L 206.028 215.32 L 206.028 215.32 Q 207.168 215.32 207.828 214.63 L 207.828 214.63 L 207.828 214.63 Q 208.488 213.94 208.488 212.68 L 208.488 212.68 L 208.488 208.57 L 208.488 208.57 Z  M 214.053 209.905 L 214.053 209.905 Q 214.428 209.215 215.163 208.855 L 215.163 208.855 L 215.163 208.855 Q 215.898 208.495 216.948 208.495 L 216.948 208.495 L 216.948 209.89 L 216.948 209.89 Q 216.828 209.875 216.618 209.875 L 216.618 209.875 L 216.618 209.875 Q 215.448 209.875 214.78 210.573 L 214.78 210.573 L 214.78 210.573 Q 214.113 211.27 214.113 212.56 L 214.113 212.56 L 214.113 216.52 L 212.673 216.52 L 212.673 208.57 L 214.053 208.57 L 214.053 209.905 L 214.053 209.905 Z  M 221.598 208.495 L 221.598 208.495 Q 223.248 208.495 224.125 209.305 L 224.125 209.305 L 224.125 209.305 Q 225.003 210.115 225.003 211.72 L 225.003 211.72 L 225.003 216.52 L 223.638 216.52 L 223.638 215.47 L 223.638 215.47 Q 223.278 216.025 222.61 216.318 L 222.61 216.318 L 222.61 216.318 Q 221.943 216.61 221.028 216.61 L 221.028 216.61 L 221.028 216.61 Q 219.693 216.61 218.89 215.965 L 218.89 215.965 L 218.89 215.965 Q 218.088 215.32 218.088 214.27 L 218.088 214.27 L 218.088 214.27 Q 218.088 213.22 218.853 212.583 L 218.853 212.583 L 218.853 212.583 Q 219.618 211.945 221.283 211.945 L 221.283 211.945 L 223.563 211.945 L 223.563 211.66 L 223.563 211.66 Q 223.563 210.73 223.023 210.235 L 223.023 210.235 L 223.023 210.235 Q 222.483 209.74 221.433 209.74 L 221.433 209.74 L 221.433 209.74 Q 220.728 209.74 220.053 209.973 L 220.053 209.973 L 220.053 209.973 Q 219.378 210.205 218.913 210.595 L 218.913 210.595 L 218.313 209.515 L 218.313 209.515 Q 218.928 209.02 219.783 208.758 L 219.783 208.758 L 219.783 208.758 Q 220.638 208.495 221.598 208.495 L 221.598 208.495 L 221.598 208.495 Z  M 221.268 215.5 L 221.268 215.5 Q 222.093 215.5 222.693 215.133 L 222.693 215.133 L 222.693 215.133 Q 223.293 214.765 223.563 214.09 L 223.563 214.09 L 223.563 212.98 L 221.343 212.98 L 221.343 212.98 Q 219.513 212.98 219.513 214.21 L 219.513 214.21 L 219.513 214.21 Q 219.513 214.81 219.978 215.155 L 219.978 215.155 L 219.978 215.155 Q 220.443 215.5 221.268 215.5 L 221.268 215.5 L 221.268 215.5 Z  M 227.673 216.52 L 227.673 208.57 L 229.113 208.57 L 229.113 216.52 L 227.673 216.52 L 227.673 216.52 Z  M 228.393 207.04 L 228.393 207.04 Q 227.973 207.04 227.695 206.77 L 227.695 206.77 L 227.695 206.77 Q 227.418 206.5 227.418 206.11 L 227.418 206.11 L 227.418 206.11 Q 227.418 205.72 227.695 205.443 L 227.695 205.443 L 227.695 205.443 Q 227.973 205.165 228.393 205.165 L 228.393 205.165 L 228.393 205.165 Q 228.813 205.165 229.09 205.428 L 229.09 205.428 L 229.09 205.428 Q 229.368 205.69 229.368 206.08 L 229.368 206.08 L 229.368 206.08 Q 229.368 206.485 229.09 206.763 L 229.09 206.763 L 229.09 206.763 Q 228.813 207.04 228.393 207.04 L 228.393 207.04 L 228.393 207.04 Z  M 236.103 208.495 L 236.103 208.495 Q 237.618 208.495 238.51 209.373 L 238.51 209.373 L 238.51 209.373 Q 239.403 210.25 239.403 211.945 L 239.403 211.945 L 239.403 216.52 L 237.963 216.52 L 237.963 212.11 L 237.963 212.11 Q 237.963 210.955 237.408 210.37 L 237.408 210.37 L 237.408 210.37 Q 236.853 209.785 235.818 209.785 L 235.818 209.785 L 235.818 209.785 Q 234.648 209.785 233.973 210.468 L 233.973 210.468 L 233.973 210.468 Q 233.298 211.15 233.298 212.425 L 233.298 212.425 L 233.298 216.52 L 231.858 216.52 L 231.858 208.57 L 233.238 208.57 L 233.238 209.77 L 233.238 209.77 Q 233.673 209.155 234.415 208.825 L 234.415 208.825 L 234.415 208.825 Q 235.158 208.495 236.103 208.495 L 236.103 208.495 L 236.103 208.495 Z  M 242.073 216.52 L 242.073 208.57 L 243.513 208.57 L 243.513 216.52 L 242.073 216.52 L 242.073 216.52 Z  M 242.793 207.04 L 242.793 207.04 Q 242.373 207.04 242.095 206.77 L 242.095 206.77 L 242.095 206.77 Q 241.818 206.5 241.818 206.11 L 241.818 206.11 L 241.818 206.11 Q 241.818 205.72 242.095 205.443 L 242.095 205.443 L 242.095 205.443 Q 242.373 205.165 242.793 205.165 L 242.793 205.165 L 242.793 205.165 Q 243.213 205.165 243.49 205.428 L 243.49 205.428 L 243.49 205.428 Q 243.768 205.69 243.768 206.08 L 243.768 206.08 L 243.768 206.08 Q 243.768 206.485 243.49 206.763 L 243.49 206.763 L 243.49 206.763 Q 243.213 207.04 242.793 207.04 L 242.793 207.04 L 242.793 207.04 Z  M 250.503 208.495 L 250.503 208.495 Q 252.018 208.495 252.91 209.373 L 252.91 209.373 L 252.91 209.373 Q 253.803 210.25 253.803 211.945 L 253.803 211.945 L 253.803 216.52 L 252.363 216.52 L 252.363 212.11 L 252.363 212.11 Q 252.363 210.955 251.808 210.37 L 251.808 210.37 L 251.808 210.37 Q 251.253 209.785 250.218 209.785 L 250.218 209.785 L 250.218 209.785 Q 249.048 209.785 248.373 210.468 L 248.373 210.468 L 248.373 210.468 Q 247.698 211.15 247.698 212.425 L 247.698 212.425 L 247.698 216.52 L 246.258 216.52 L 246.258 208.57 L 247.638 208.57 L 247.638 209.77 L 247.638 209.77 Q 248.073 209.155 248.815 208.825 L 248.815 208.825 L 248.815 208.825 Q 249.558 208.495 250.503 208.495 L 250.503 208.495 L 250.503 208.495 Z  M 255.453 219.52 L 255.453 219.52 Q 254.928 219.52 254.478 219.4 L 254.478 219.4 L 254.478 219.4 Q 254.028 219.28 253.728 219.04 L 253.728 219.04 L 254.193 217.93 L 254.193 217.93 Q 254.643 218.305 255.363 218.305 L 255.363 218.305 L 255.363 218.305 Q 255.933 218.305 256.24 217.953 L 256.24 217.953 L 256.24 217.953 Q 256.548 217.6 256.548 216.91 L 256.548 216.91 L 256.548 208.57 L 257.988 208.57 L 257.988 216.88 L 257.988 216.88 Q 257.988 218.11 257.328 218.815 L 257.328 218.815 L 257.328 218.815 Q 256.668 219.52 255.453 219.52 L 255.453 219.52 L 255.453 219.52 Z  M 257.268 207.04 L 257.268 207.04 Q 256.848 207.04 256.57 206.77 L 256.57 206.77 L 256.57 206.77 Q 256.293 206.5 256.293 206.11 L 256.293 206.11 L 256.293 206.11 Q 256.293 205.72 256.57 205.443 L 256.57 205.443 L 256.57 205.443 Q 256.848 205.165 257.268 205.165 L 257.268 205.165 L 257.268 205.165 Q 257.688 205.165 257.965 205.428 L 257.965 205.428 L 257.965 205.428 Q 258.243 205.69 258.243 206.08 L 258.243 206.08 L 258.243 206.08 Q 258.243 206.485 257.965 206.763 L 257.965 206.763 L 257.965 206.763 Q 257.688 207.04 257.268 207.04 L 257.268 207.04 L 257.268 207.04 Z  M 263.628 208.495 L 263.628 208.495 Q 265.278 208.495 266.155 209.305 L 266.155 209.305 L 266.155 209.305 Q 267.033 210.115 267.033 211.72 L 267.033 211.72 L 267.033 216.52 L 265.668 216.52 L 265.668 215.47 L 265.668 215.47 Q 265.308 216.025 264.64 216.318 L 264.64 216.318 L 264.64 216.318 Q 263.973 216.61 263.058 216.61 L 263.058 216.61 L 263.058 216.61 Q 261.723 216.61 260.92 215.965 L 260.92 215.965 L 260.92 215.965 Q 260.118 215.32 260.118 214.27 L 260.118 214.27 L 260.118 214.27 Q 260.118 213.22 260.883 212.583 L 260.883 212.583 L 260.883 212.583 Q 261.648 211.945 263.313 211.945 L 263.313 211.945 L 265.593 211.945 L 265.593 211.66 L 265.593 211.66 Q 265.593 210.73 265.053 210.235 L 265.053 210.235 L 265.053 210.235 Q 264.513 209.74 263.463 209.74 L 263.463 209.74 L 263.463 209.74 Q 262.758 209.74 262.083 209.973 L 262.083 209.973 L 262.083 209.973 Q 261.408 210.205 260.943 210.595 L 260.943 210.595 L 260.343 209.515 L 260.343 209.515 Q 260.958 209.02 261.813 208.758 L 261.813 208.758 L 261.813 208.758 Q 262.668 208.495 263.628 208.495 L 263.628 208.495 L 263.628 208.495 Z  M 263.298 215.5 L 263.298 215.5 Q 264.123 215.5 264.723 215.133 L 264.723 215.133 L 264.723 215.133 Q 265.323 214.765 265.593 214.09 L 265.593 214.09 L 265.593 212.98 L 263.373 212.98 L 263.373 212.98 Q 261.543 212.98 261.543 214.21 L 261.543 214.21 L 261.543 214.21 Q 261.543 214.81 262.008 215.155 L 262.008 215.155 L 262.008 215.155 Q 262.473 215.5 263.298 215.5 L 263.298 215.5 L 263.298 215.5 Z " fill="rgb(255,255,255)"/><path d=" M 219.423 236.025 L 219.423 234.78 L 223.458 234.78 L 223.458 236.025 L 219.423 236.025 L 219.423 236.025 Z  M 225.888 239.52 L 225.888 229.02 L 227.388 229.02 L 227.388 239.52 L 225.888 239.52 L 225.888 239.52 Z  M 230.538 239.52 L 230.538 229.02 L 232.038 229.02 L 232.038 239.52 L 230.538 239.52 L 230.538 239.52 Z  M 235.188 239.52 L 235.188 229.02 L 236.688 229.02 L 236.688 239.52 L 235.188 239.52 L 235.188 239.52 Z  M 239.838 239.52 L 239.838 229.02 L 241.338 229.02 L 241.338 239.52 L 239.838 239.52 L 239.838 239.52 Z  M 243.768 236.025 L 243.768 234.78 L 247.803 234.78 L 247.803 236.025 L 243.768 236.025 L 243.768 236.025 Z " fill="rgb(255,255,255)"/></g></svg>