<svg version="1.1" xmlns="http://www.w3.org/2000/svg" xmlns:xlink="http://www.w3.org/1999/xlink" width="210.251" height="50.23864" viewBox="0,0,210.251,50.23864"><g transform="translate(-134.8745,-154.88068)"><g data-paper-data="{&quot;isPaintingLayer&quot;:true}" stroke="none" stroke-width="1" stroke-linecap="butt" stroke-linejoin="miter" stroke-miterlimit="10" stroke-dasharray="" stroke-dashoffset="0" style="mix-blend-mode: normal"><path d="M180.53896,154.88068c1.62077,0 2.9374,1.31663 2.9374,2.9374v44.32782c0,1.62211 -1.31663,2.9374 -2.9374,2.9374c-1.62077,0 -2.9374,-1.31529 -2.9374,-2.9374v-44.32782c0,-1.62077 1.31663,-2.9374 2.9374,-2.9374z" fill="#ffffff" fill-rule="nonzero"/><path d="M246.4971,177.84631c-5.89481,0 -10.6811,4.78628 -10.6811,10.6811c0,5.89615 4.78628,10.6811 10.6811,10.6811v5.8748c-9.13769,0 -16.5559,-7.41821 -16.5559,-16.5559c0,-9.13636 7.41821,-16.5559 16.5559,-16.5559c9.13769,0 16.5559,7.41954 16.5559,16.5559h-5.8748c0,-5.89481 -4.78628,-10.6811 -10.6811,-10.6811zM246.4971,185.59c-1.62211,0 -2.9374,1.31663 -2.9374,2.9374c0,1.62211 1.31529,2.9374 2.9374,2.9374c1.62077,0 2.9374,-1.31529 2.9374,-2.9374c0,-1.62077 -1.31663,-2.9374 -2.9374,-2.9374z" fill="#ffffff" fill-rule="evenodd"/><path d="M199.70944,196.11903c4.16999,4.16732 10.93722,4.16732 15.10587,0c4.16999,-4.16866 4.16999,-10.93855 0,-15.10587l4.15398,-4.15398c6.46175,6.46175 6.46175,16.95209 0,23.41384c-6.46042,6.46175 -16.95209,6.46175 -23.41384,0c-6.46042,-6.46175 -6.46042,-16.95209 0,-23.41384l4.15398,4.15398c-4.16866,4.16732 -4.16866,10.93722 0,15.10587z" fill="#ffffff" fill-rule="nonzero"/><path d="M151.43174,205.0833c-8.8789,0 -16.13437,-7.00334 -16.54256,-15.7822c-0.008,-0.11072 -0.01467,-0.22011 -0.01467,-0.33082v-0.44288v-30.55858c0,-1.70348 1.31663,-3.08814 2.9374,-3.08814c1.62211,0 2.93874,1.38466 2.93874,3.08814v30.55858c0,5.89615 4.78628,10.6811 10.6811,10.6811c5.89481,0 10.6811,-4.78495 10.6811,-10.6811c0,-5.89481 -4.78628,-10.6811 -10.6811,-10.6811v-5.8748c9.13769,0 16.5559,7.41954 16.5559,16.5559c0,9.13769 -7.41821,16.5559 -16.5559,16.5559z" fill="#ffffff" fill-rule="nonzero"/><path d="M271.24091,184.07461c0,-5.66804 2.07699,-10.53569 6.23231,-14.6043c4.13797,-4.06727 9.11101,-6.10158 14.91645,-6.10158c5.7374,0 10.65842,2.05165 14.76038,6.1536c4.12063,4.10329 6.18162,9.03098 6.18162,14.78572c0,5.78943 -2.06899,10.70111 -6.20696,14.73503c-4.15532,4.04993 -9.17104,6.07623 -15.04718,6.07623c-5.19848,0 -9.86604,-1.79953 -14.00402,-5.39858c-4.55551,-3.9819 -6.83259,-9.19639 -6.83259,-15.64613zM277.3705,184.15198c0,4.45146 1.49405,8.11054 4.48481,10.97857c2.97342,2.86804 6.40572,4.30339 10.29958,4.30339c4.22468,0 7.78905,-1.4607 10.6931,-4.38076c2.90272,-2.95608 4.35408,-6.55513 4.35408,-10.79582c0,-4.29538 -1.43402,-7.89443 -4.30205,-10.79715c-2.85203,-2.92006 -6.38038,-4.38076 -10.58772,-4.38076c-4.19,0 -7.72769,1.4607 -10.6144,4.38076c-2.88538,2.88671 -4.3274,6.44974 -4.3274,10.69177zM344.08233,170.12262l-4.92902,2.92006c-0.92177,-1.59943 -1.79953,-2.64259 -2.63326,-3.12816c-0.86975,-0.55627 -1.99162,-0.83507 -3.36427,-0.83507c-1.68747,0 -3.08681,0.47756 -4.19934,1.43402c-1.11253,0.93911 -1.6688,2.12101 -1.6688,3.54703c0,1.9636 1.4607,3.54569 4.38209,4.74626l4.01525,1.64212c3.26823,1.32196 5.6587,2.93473 7.17142,4.83831c1.51272,1.90358 2.26908,4.23669 2.26908,7.00067c0,3.7031 -1.23526,6.76323 -3.70443,9.18038c-2.48519,2.4345 -5.57066,3.65108 -9.25642,3.65108c-3.495,0 -6.38038,-1.03516 -8.65746,-3.10415c-2.2424,-2.06899 -3.64307,-4.98104 -4.19934,-8.73483l6.15494,-1.35665c0.27747,2.36379 0.76436,3.99924 1.45936,4.90234c1.2526,1.73816 3.07747,2.60791 5.47728,2.60791c1.89424,0 3.46832,-0.63497 4.71959,-1.90358c1.2526,-1.26994 1.87823,-2.87737 1.87823,-4.82364c0,-0.78304 -0.10939,-1.50072 -0.32549,-2.15303c-0.21744,-0.65098 -0.55627,-1.25126 -1.01782,-1.79819c-0.46022,-0.54826 -1.0565,-1.06051 -1.78619,-1.5394c-0.73102,-0.47756 -1.59943,-0.93378 -2.60791,-1.36865l-3.88585,-1.61677c-5.51063,-2.32911 -8.26661,-5.7374 -8.26661,-10.22221c0,-3.02544 1.15655,-5.55465 3.46832,-7.58895c2.31177,-2.05165 5.18914,-3.07747 8.63212,-3.07747c4.64222,0 8.26661,2.25974 10.87452,6.78057z" fill="#3649dd" fill-rule="nonzero"/></g></g></svg>