<?xml version="1.0" encoding="UTF-8" standalone="no"?><!-- Generator: Gravit.io --><svg xmlns="http://www.w3.org/2000/svg" xmlns:xlink="http://www.w3.org/1999/xlink" style="isolation:isolate" viewBox="0 0 150 50" width="150pt" height="50pt"><defs><clipPath id="_clipPath_LjxG0X9smVeqbEDniFi0o66YVxknccaB"><rect width="150" height="50"/></clipPath></defs><g clip-path="url(#_clipPath_LjxG0X9smVeqbEDniFi0o66YVxknccaB)"><path d="M 25 0 L 125 0 C 138.798 0 150 11.202 150 25 L 150 25 C 150 38.798 138.798 50 125 50 L 25 50 C 11.202 50 0 38.798 0 25 L 0 25 C 0 11.202 11.202 0 25 0 Z" style="stroke:none;fill:#FFFFFF;stroke-miterlimit:10;"/><path d=" M 95.975 33.45 L 95.975 15.95 L 97.825 15.95 L 97.825 33.45 L 95.975 33.45 L 95.975 33.45 Z  M 109.85 20.2 L 109.85 20.2 Q 112.325 20.2 113.788 21.638 L 113.788 21.638 L 113.788 21.638 Q 115.25 23.075 115.25 25.825 L 115.25 25.825 L 115.25 33.45 L 113.475 33.45 L 113.475 26 L 113.475 26 Q 113.475 23.95 112.45 22.875 L 112.45 22.875 L 112.45 22.875 Q 111.425 21.8 109.525 21.8 L 109.525 21.8 L 109.525 21.8 Q 107.4 21.8 106.163 23.063 L 106.163 23.063 L 106.163 23.063 Q 104.925 24.325 104.925 26.55 L 104.925 26.55 L 104.925 33.45 L 103.15 33.45 L 103.15 20.3 L 104.85 20.3 L 104.85 22.725 L 104.85 22.725 Q 105.575 21.525 106.863 20.863 L 106.863 20.863 L 106.863 20.863 Q 108.15 20.2 109.85 20.2 L 109.85 20.2 L 109.85 20.2 Z  M 38.075 33.6 L 38.075 33.6 Q 36.125 33.6 34.338 32.975 L 34.338 32.975 L 34.338 32.975 Q 32.55 32.35 31.575 31.325 L 31.575 31.325 L 32.3 29.9 L 32.3 29.9 Q 33.25 30.85 34.825 31.438 L 34.825 31.438 L 34.825 31.438 Q 36.4 32.025 38.075 32.025 L 38.075 32.025 L 38.075 32.025 Q 40.425 32.025 41.6 31.163 L 41.6 31.163 L 41.6 31.163 Q 42.775 30.3 42.775 28.925 L 42.775 28.925 L 42.775 28.925 Q 42.775 27.875 42.138 27.25 L 42.138 27.25 L 42.138 27.25 Q 41.5 26.625 40.575 26.288 L 40.575 26.288 L 40.575 26.288 Q 39.65 25.95 38 25.55 L 38 25.55 L 38 25.55 Q 36.025 25.05 34.85 24.588 L 34.85 24.588 L 34.85 24.588 Q 33.675 24.125 32.838 23.175 L 32.838 23.175 L 32.838 23.175 Q 32 22.225 32 20.6 L 32 20.6 L 32 20.6 Q 32 19.275 32.7 18.188 L 32.7 18.188 L 32.7 18.188 Q 33.4 17.1 34.85 16.45 L 34.85 16.45 L 34.85 16.45 Q 36.3 15.8 38.45 15.8 L 38.45 15.8 L 38.45 15.8 Q 39.95 15.8 41.388 16.213 L 41.388 16.213 L 41.388 16.213 Q 42.825 16.625 43.875 17.35 L 43.875 17.35 L 43.25 18.825 L 43.25 18.825 Q 42.15 18.1 40.9 17.738 L 40.9 17.738 L 40.9 17.738 Q 39.65 17.375 38.45 17.375 L 38.45 17.375 L 38.45 17.375 Q 36.15 17.375 34.988 18.263 L 34.988 18.263 L 34.988 18.263 Q 33.825 19.15 33.825 20.55 L 33.825 20.55 L 33.825 20.55 Q 33.825 21.6 34.463 22.238 L 34.463 22.238 L 34.463 22.238 Q 35.1 22.875 36.063 23.213 L 36.063 23.213 L 36.063 23.213 Q 37.025 23.55 38.65 23.95 L 38.65 23.95 L 38.65 23.95 Q 40.575 24.425 41.763 24.888 L 41.763 24.888 L 41.763 24.888 Q 42.95 25.35 43.775 26.288 L 43.775 26.288 L 43.775 26.288 Q 44.6 27.225 44.6 28.825 L 44.6 28.825 L 44.6 28.825 Q 44.6 30.15 43.888 31.238 L 43.888 31.238 L 43.888 31.238 Q 43.175 32.325 41.7 32.963 L 41.7 32.963 L 41.7 32.963 Q 40.225 33.6 38.075 33.6 L 38.075 33.6 L 38.075 33.6 Z  M 48.25 33.45 L 48.25 20.3 L 50.025 20.3 L 50.025 33.45 L 48.25 33.45 L 48.25 33.45 Z  M 49.15 17.425 L 49.15 17.425 Q 48.6 17.425 48.225 17.05 L 48.225 17.05 L 48.225 17.05 Q 47.85 16.675 47.85 16.15 L 47.85 16.15 L 47.85 16.15 Q 47.85 15.65 48.225 15.275 L 48.225 15.275 L 48.225 15.275 Q 48.6 14.9 49.15 14.9 L 49.15 14.9 L 49.15 14.9 Q 49.7 14.9 50.075 15.263 L 50.075 15.263 L 50.075 15.263 Q 50.45 15.625 50.45 16.125 L 50.45 16.125 L 50.45 16.125 Q 50.45 16.675 50.075 17.05 L 50.075 17.05 L 50.075 17.05 Q 49.7 17.425 49.15 17.425 L 49.15 17.425 L 49.15 17.425 Z  M 65.45 20.3 L 67.15 20.3 L 67.15 31.85 L 67.15 31.85 Q 67.15 35.2 65.513 36.813 L 65.513 36.813 L 65.513 36.813 Q 63.875 38.425 60.575 38.425 L 60.575 38.425 L 60.575 38.425 Q 58.75 38.425 57.113 37.888 L 57.113 37.888 L 57.113 37.888 Q 55.475 37.35 54.45 36.4 L 54.45 36.4 L 55.35 35.05 L 55.35 35.05 Q 56.3 35.9 57.663 36.375 L 57.663 36.375 L 57.663 36.375 Q 59.025 36.85 60.525 36.85 L 60.525 36.85 L 60.525 36.85 Q 63.025 36.85 64.2 35.688 L 64.2 35.688 L 64.2 35.688 Q 65.375 34.525 65.375 32.075 L 65.375 32.075 L 65.375 30.4 L 65.375 30.4 Q 64.55 31.65 63.213 32.3 L 63.213 32.3 L 63.213 32.3 Q 61.875 32.95 60.25 32.95 L 60.25 32.95 L 60.25 32.95 Q 58.4 32.95 56.888 32.138 L 56.888 32.138 L 56.888 32.138 Q 55.375 31.325 54.513 29.863 L 54.513 29.863 L 54.513 29.863 Q 53.65 28.4 53.65 26.55 L 53.65 26.55 L 53.65 26.55 Q 53.65 24.7 54.513 23.25 L 54.513 23.25 L 54.513 23.25 Q 55.375 21.8 56.875 21 L 56.875 21 L 56.875 21 Q 58.375 20.2 60.25 20.2 L 60.25 20.2 L 60.25 20.2 Q 61.925 20.2 63.275 20.875 L 63.275 20.875 L 63.275 20.875 Q 64.625 21.55 65.45 22.825 L 65.45 22.825 L 65.45 20.3 L 65.45 20.3 Z  M 60.425 31.375 L 60.425 31.375 Q 61.85 31.375 63 30.763 L 63 30.763 L 63 30.763 Q 64.15 30.15 64.788 29.05 L 64.788 29.05 L 64.788 29.05 Q 65.425 27.95 65.425 26.55 L 65.425 26.55 L 65.425 26.55 Q 65.425 25.15 64.788 24.063 L 64.788 24.063 L 64.788 24.063 Q 64.15 22.975 63.013 22.363 L 63.013 22.363 L 63.013 22.363 Q 61.875 21.75 60.425 21.75 L 60.425 21.75 L 60.425 21.75 Q 59 21.75 57.863 22.35 L 57.863 22.35 L 57.863 22.35 Q 56.725 22.95 56.088 24.05 L 56.088 24.05 L 56.088 24.05 Q 55.45 25.15 55.45 26.55 L 55.45 26.55 L 55.45 26.55 Q 55.45 27.95 56.088 29.05 L 56.088 29.05 L 56.088 29.05 Q 56.725 30.15 57.863 30.763 L 57.863 30.763 L 57.863 30.763 Q 59 31.375 60.425 31.375 L 60.425 31.375 L 60.425 31.375 Z  M 78.825 20.2 L 78.825 20.2 Q 81.3 20.2 82.763 21.638 L 82.763 21.638 L 82.763 21.638 Q 84.225 23.075 84.225 25.825 L 84.225 25.825 L 84.225 33.45 L 82.45 33.45 L 82.45 26 L 82.45 26 Q 82.45 23.95 81.425 22.875 L 81.425 22.875 L 81.425 22.875 Q 80.4 21.8 78.5 21.8 L 78.5 21.8 L 78.5 21.8 Q 76.375 21.8 75.138 23.063 L 75.138 23.063 L 75.138 23.063 Q 73.9 24.325 73.9 26.55 L 73.9 26.55 L 73.9 33.45 L 72.125 33.45 L 72.125 20.3 L 73.825 20.3 L 73.825 22.725 L 73.825 22.725 Q 74.55 21.525 75.838 20.863 L 75.838 20.863 L 75.838 20.863 Q 77.125 20.2 78.825 20.2 L 78.825 20.2 L 78.825 20.2 Z " fill="rgb(0,0,0)"/></g></svg>