<?xml version="1.0" encoding="UTF-8" standalone="no"?><!-- Generator: Gravit.io --><svg xmlns="http://www.w3.org/2000/svg" xmlns:xlink="http://www.w3.org/1999/xlink" style="isolation:isolate" viewBox="0 0 480 360" width="480pt" height="360pt"><defs><clipPath id="_clipPath_4hdA8bdQKGcCAxqQ1WiFEKW4rBp5FnfX"><rect width="480" height="360"/></clipPath></defs><g clip-path="url(#_clipPath_4hdA8bdQKGcCAxqQ1WiFEKW4rBp5FnfX)"><rect width="480" height="360" style="fill:rgb(54,54,54)"/><path d=" M 245.465 129.707 L 239.388 135.922 C 237.409 133.94 235.713 132.756 234.3 132.372 C 232.807 131.898 231.053 131.93 229.041 132.469 C 226.568 133.132 224.705 134.381 223.45 136.22 C 222.188 138.033 221.837 139.984 222.397 142.074 C 223.168 144.951 225.93 146.697 230.683 147.309 L 237.213 148.139 C 242.522 148.793 246.659 150.218 249.623 152.413 C 252.588 154.609 254.613 157.732 255.698 161.783 C 257.152 167.21 256.544 172.18 253.874 176.692 C 251.188 181.236 247.144 184.231 241.742 185.678 C 236.619 187.051 231.984 186.667 227.834 184.529 C 223.735 182.377 220.539 178.659 218.25 173.376 L 226.738 168.971 C 228.072 172.326 229.428 174.532 230.802 175.582 C 233.32 177.638 236.336 178.196 239.853 177.253 C 242.629 176.51 244.687 174.961 246.023 172.61 C 247.36 170.257 247.645 167.656 246.881 164.803 C 246.574 163.655 246.131 162.647 245.559 161.775 C 244.984 160.907 244.252 160.16 243.361 159.54 C 242.471 158.917 241.396 158.4 240.138 157.985 C 238.879 157.572 237.427 157.245 235.779 157.003 L 229.449 156.16 C 220.458 154.91 215.08 150.997 213.319 144.424 C 212.131 139.99 212.833 135.829 215.422 131.94 C 218.004 128.025 221.818 125.392 226.864 124.04 C 233.668 122.217 239.867 124.105 245.465 129.707 L 245.465 129.707 L 245.465 129.707 Z " fill="rgb(54,73,221)"/><path d=" M 187.785 79.764 L 191.385 79.764 L 180.333 104.964 L 176.769 104.964 L 165.681 79.764 L 169.569 79.764 L 178.641 100.464 L 187.785 79.764 L 187.785 79.764 Z  M 209.889 95.532 L 209.889 95.532 Q 209.889 95.928 209.817 96.576 L 209.817 96.576 L 194.337 96.576 L 194.337 96.576 Q 194.661 99.096 196.551 100.626 L 196.551 100.626 L 196.551 100.626 Q 198.441 102.156 201.249 102.156 L 201.249 102.156 L 201.249 102.156 Q 204.669 102.156 206.757 99.852 L 206.757 99.852 L 208.665 102.084 L 208.665 102.084 Q 207.369 103.596 205.443 104.388 L 205.443 104.388 L 205.443 104.388 Q 203.517 105.18 201.141 105.18 L 201.141 105.18 L 201.141 105.18 Q 198.117 105.18 195.777 103.938 L 195.777 103.938 L 195.777 103.938 Q 193.437 102.696 192.159 100.464 L 192.159 100.464 L 192.159 100.464 Q 190.881 98.232 190.881 95.424 L 190.881 95.424 L 190.881 95.424 Q 190.881 92.652 192.123 90.42 L 192.123 90.42 L 192.123 90.42 Q 193.365 88.188 195.543 86.946 L 195.543 86.946 L 195.543 86.946 Q 197.721 85.704 200.457 85.704 L 200.457 85.704 L 200.457 85.704 Q 203.193 85.704 205.335 86.946 L 205.335 86.946 L 205.335 86.946 Q 207.477 88.188 208.683 90.42 L 208.683 90.42 L 208.683 90.42 Q 209.889 92.652 209.889 95.532 L 209.889 95.532 L 209.889 95.532 Z  M 200.457 88.62 L 200.457 88.62 Q 197.973 88.62 196.299 90.132 L 196.299 90.132 L 196.299 90.132 Q 194.625 91.644 194.337 94.092 L 194.337 94.092 L 206.577 94.092 L 206.577 94.092 Q 206.289 91.68 204.615 90.15 L 204.615 90.15 L 204.615 90.15 Q 202.941 88.62 200.457 88.62 L 200.457 88.62 L 200.457 88.62 Z  M 217.989 89.088 L 217.989 89.088 Q 218.889 87.432 220.653 86.568 L 220.653 86.568 L 220.653 86.568 Q 222.417 85.704 224.937 85.704 L 224.937 85.704 L 224.937 89.052 L 224.937 89.052 Q 224.649 89.016 224.145 89.016 L 224.145 89.016 L 224.145 89.016 Q 221.337 89.016 219.735 90.69 L 219.735 90.69 L 219.735 90.69 Q 218.133 92.364 218.133 95.46 L 218.133 95.46 L 218.133 104.964 L 214.677 104.964 L 214.677 85.884 L 217.989 85.884 L 217.989 89.088 L 217.989 89.088 Z  M 234.801 105.18 L 234.801 105.18 Q 232.461 105.18 230.301 104.55 L 230.301 104.55 L 230.301 104.55 Q 228.141 103.92 226.917 102.948 L 226.917 102.948 L 228.357 100.212 L 228.357 100.212 Q 229.617 101.112 231.417 101.652 L 231.417 101.652 L 231.417 101.652 Q 233.217 102.192 235.053 102.192 L 235.053 102.192 L 235.053 102.192 Q 239.589 102.192 239.589 99.6 L 239.589 99.6 L 239.589 99.6 Q 239.589 98.736 238.977 98.232 L 238.977 98.232 L 238.977 98.232 Q 238.365 97.728 237.447 97.494 L 237.447 97.494 L 237.447 97.494 Q 236.529 97.26 234.837 96.972 L 234.837 96.972 L 234.837 96.972 Q 232.533 96.612 231.075 96.144 L 231.075 96.144 L 231.075 96.144 Q 229.617 95.676 228.573 94.56 L 228.573 94.56 L 228.573 94.56 Q 227.529 93.444 227.529 91.428 L 227.529 91.428 L 227.529 91.428 Q 227.529 88.836 229.689 87.27 L 229.689 87.27 L 229.689 87.27 Q 231.849 85.704 235.485 85.704 L 235.485 85.704 L 235.485 85.704 Q 237.393 85.704 239.301 86.172 L 239.301 86.172 L 239.301 86.172 Q 241.209 86.64 242.433 87.432 L 242.433 87.432 L 240.957 90.168 L 240.957 90.168 Q 238.617 88.656 235.449 88.656 L 235.449 88.656 L 235.449 88.656 Q 233.253 88.656 232.101 89.376 L 232.101 89.376 L 232.101 89.376 Q 230.949 90.096 230.949 91.284 L 230.949 91.284 L 230.949 91.284 Q 230.949 92.22 231.597 92.76 L 231.597 92.76 L 231.597 92.76 Q 232.245 93.3 233.199 93.552 L 233.199 93.552 L 233.199 93.552 Q 234.153 93.804 235.881 94.128 L 235.881 94.128 L 235.881 94.128 Q 238.185 94.524 239.607 94.974 L 239.607 94.974 L 239.607 94.974 Q 241.029 95.424 242.037 96.504 L 242.037 96.504 L 242.037 96.504 Q 243.045 97.584 243.045 99.528 L 243.045 99.528 L 243.045 99.528 Q 243.045 102.12 240.831 103.65 L 240.831 103.65 L 240.831 103.65 Q 238.617 105.18 234.801 105.18 L 234.801 105.18 L 234.801 105.18 Z  M 247.365 104.964 L 247.365 85.884 L 250.821 85.884 L 250.821 104.964 L 247.365 104.964 L 247.365 104.964 Z  M 249.093 82.212 L 249.093 82.212 Q 248.085 82.212 247.419 81.564 L 247.419 81.564 L 247.419 81.564 Q 246.753 80.916 246.753 79.98 L 246.753 79.98 L 246.753 79.98 Q 246.753 79.044 247.419 78.378 L 247.419 78.378 L 247.419 78.378 Q 248.085 77.712 249.093 77.712 L 249.093 77.712 L 249.093 77.712 Q 250.101 77.712 250.767 78.342 L 250.767 78.342 L 250.767 78.342 Q 251.433 78.972 251.433 79.908 L 251.433 79.908 L 251.433 79.908 Q 251.433 80.88 250.767 81.546 L 250.767 81.546 L 250.767 81.546 Q 250.101 82.212 249.093 82.212 L 249.093 82.212 L 249.093 82.212 Z  M 265.581 105.18 L 265.581 105.18 Q 262.737 105.18 260.469 103.92 L 260.469 103.92 L 260.469 103.92 Q 258.201 102.66 256.923 100.446 L 256.923 100.446 L 256.923 100.446 Q 255.645 98.232 255.645 95.424 L 255.645 95.424 L 255.645 95.424 Q 255.645 92.616 256.923 90.402 L 256.923 90.402 L 256.923 90.402 Q 258.201 88.188 260.469 86.946 L 260.469 86.946 L 260.469 86.946 Q 262.737 85.704 265.581 85.704 L 265.581 85.704 L 265.581 85.704 Q 268.425 85.704 270.675 86.946 L 270.675 86.946 L 270.675 86.946 Q 272.925 88.188 274.203 90.402 L 274.203 90.402 L 274.203 90.402 Q 275.481 92.616 275.481 95.424 L 275.481 95.424 L 275.481 95.424 Q 275.481 98.232 274.203 100.446 L 274.203 100.446 L 274.203 100.446 Q 272.925 102.66 270.675 103.92 L 270.675 103.92 L 270.675 103.92 Q 268.425 105.18 265.581 105.18 L 265.581 105.18 L 265.581 105.18 Z  M 265.581 102.156 L 265.581 102.156 Q 267.417 102.156 268.875 101.31 L 268.875 101.31 L 268.875 101.31 Q 270.333 100.464 271.161 98.934 L 271.161 98.934 L 271.161 98.934 Q 271.989 97.404 271.989 95.424 L 271.989 95.424 L 271.989 95.424 Q 271.989 93.444 271.161 91.914 L 271.161 91.914 L 271.161 91.914 Q 270.333 90.384 268.875 89.556 L 268.875 89.556 L 268.875 89.556 Q 267.417 88.728 265.581 88.728 L 265.581 88.728 L 265.581 88.728 Q 263.745 88.728 262.287 89.556 L 262.287 89.556 L 262.287 89.556 Q 260.829 90.384 259.983 91.914 L 259.983 91.914 L 259.983 91.914 Q 259.137 93.444 259.137 95.424 L 259.137 95.424 L 259.137 95.424 Q 259.137 97.404 259.983 98.934 L 259.983 98.934 L 259.983 98.934 Q 260.829 100.464 262.287 101.31 L 262.287 101.31 L 262.287 101.31 Q 263.745 102.156 265.581 102.156 L 265.581 102.156 L 265.581 102.156 Z  M 290.457 85.704 L 290.457 85.704 Q 294.093 85.704 296.235 87.81 L 296.235 87.81 L 296.235 87.81 Q 298.377 89.916 298.377 93.984 L 298.377 93.984 L 298.377 104.964 L 294.921 104.964 L 294.921 94.38 L 294.921 94.38 Q 294.921 91.608 293.589 90.204 L 293.589 90.204 L 293.589 90.204 Q 292.257 88.8 289.773 88.8 L 289.773 88.8 L 289.773 88.8 Q 286.965 88.8 285.345 90.438 L 285.345 90.438 L 285.345 90.438 Q 283.725 92.076 283.725 95.136 L 283.725 95.136 L 283.725 104.964 L 280.269 104.964 L 280.269 85.884 L 283.581 85.884 L 283.581 88.764 L 283.581 88.764 Q 284.625 87.288 286.407 86.496 L 286.407 86.496 L 286.407 86.496 Q 288.189 85.704 290.457 85.704 L 290.457 85.704 L 290.457 85.704 Z " fill="rgb(255,255,255)"/><path d=" M 259 219.43 L 259 219.43 Q 258.145 218.05 257.68 216.258 L 257.68 216.258 L 257.68 216.258 Q 257.215 214.465 257.215 212.41 L 257.215 212.41 L 257.215 212.41 Q 257.215 210.355 257.68 208.548 L 257.68 208.548 L 257.68 208.548 Q 258.145 206.74 259 205.39 L 259 205.39 L 260.365 205.39 L 260.365 205.39 Q 259.465 206.965 259.045 208.69 L 259.045 208.69 L 259.045 208.69 Q 258.625 210.415 258.625 212.41 L 258.625 212.41 L 258.625 212.41 Q 258.625 214.405 259.045 216.13 L 259.045 216.13 L 259.045 216.13 Q 259.465 217.855 260.365 219.43 L 260.365 219.43 L 259 219.43 L 259 219.43 Z  M 269.485 211.075 L 269.485 211.075 Q 270.4 211.33 270.925 211.998 L 270.925 211.998 L 270.925 211.998 Q 271.45 212.665 271.45 213.685 L 271.45 213.685 L 271.45 213.685 Q 271.45 215.05 270.423 215.785 L 270.423 215.785 L 270.423 215.785 Q 269.395 216.52 267.43 216.52 L 267.43 216.52 L 262.42 216.52 L 262.42 206.02 L 267.13 206.02 L 267.13 206.02 Q 268.93 206.02 269.913 206.74 L 269.913 206.74 L 269.913 206.74 Q 270.895 207.46 270.895 208.735 L 270.895 208.735 L 270.895 208.735 Q 270.895 209.56 270.513 210.16 L 270.513 210.16 L 270.513 210.16 Q 270.13 210.76 269.485 211.075 L 269.485 211.075 L 269.485 211.075 Z  M 266.995 207.235 L 263.92 207.235 L 263.92 210.595 L 266.995 210.595 L 266.995 210.595 Q 268.15 210.595 268.773 210.168 L 268.773 210.168 L 268.773 210.168 Q 269.395 209.74 269.395 208.915 L 269.395 208.915 L 269.395 208.915 Q 269.395 208.09 268.773 207.663 L 268.773 207.663 L 268.773 207.663 Q 268.15 207.235 266.995 207.235 L 266.995 207.235 L 266.995 207.235 Z  M 267.37 215.305 L 267.37 215.305 Q 268.645 215.305 269.29 214.885 L 269.29 214.885 L 269.29 214.885 Q 269.935 214.465 269.935 213.565 L 269.935 213.565 L 269.935 213.565 Q 269.935 211.81 267.37 211.81 L 267.37 211.81 L 263.92 211.81 L 263.92 215.305 L 267.37 215.305 L 267.37 215.305 Z  M 280.75 212.59 L 280.75 212.59 Q 280.75 212.755 280.72 213.025 L 280.72 213.025 L 274.27 213.025 L 274.27 213.025 Q 274.405 214.075 275.193 214.713 L 275.193 214.713 L 275.193 214.713 Q 275.98 215.35 277.15 215.35 L 277.15 215.35 L 277.15 215.35 Q 278.575 215.35 279.445 214.39 L 279.445 214.39 L 280.24 215.32 L 280.24 215.32 Q 279.7 215.95 278.898 216.28 L 278.898 216.28 L 278.898 216.28 Q 278.095 216.61 277.105 216.61 L 277.105 216.61 L 277.105 216.61 Q 275.845 216.61 274.87 216.093 L 274.87 216.093 L 274.87 216.093 Q 273.895 215.575 273.363 214.645 L 273.363 214.645 L 273.363 214.645 Q 272.83 213.715 272.83 212.545 L 272.83 212.545 L 272.83 212.545 Q 272.83 211.39 273.348 210.46 L 273.348 210.46 L 273.348 210.46 Q 273.865 209.53 274.773 209.013 L 274.773 209.013 L 274.773 209.013 Q 275.68 208.495 276.82 208.495 L 276.82 208.495 L 276.82 208.495 Q 277.96 208.495 278.853 209.013 L 278.853 209.013 L 278.853 209.013 Q 279.745 209.53 280.248 210.46 L 280.248 210.46 L 280.248 210.46 Q 280.75 211.39 280.75 212.59 L 280.75 212.59 L 280.75 212.59 Z  M 276.82 209.71 L 276.82 209.71 Q 275.785 209.71 275.088 210.34 L 275.088 210.34 L 275.088 210.34 Q 274.39 210.97 274.27 211.99 L 274.27 211.99 L 279.37 211.99 L 279.37 211.99 Q 279.25 210.985 278.553 210.348 L 278.553 210.348 L 278.553 210.348 Q 277.855 209.71 276.82 209.71 L 276.82 209.71 L 276.82 209.71 Z  M 286.765 215.02 L 287.215 216.055 L 287.215 216.055 Q 286.9 216.325 286.435 216.468 L 286.435 216.468 L 286.435 216.468 Q 285.97 216.61 285.475 216.61 L 285.475 216.61 L 285.475 216.61 Q 284.275 216.61 283.615 215.965 L 283.615 215.965 L 283.615 215.965 Q 282.955 215.32 282.955 214.12 L 282.955 214.12 L 282.955 209.755 L 281.605 209.755 L 281.605 208.57 L 282.955 208.57 L 282.955 206.83 L 284.395 206.83 L 284.395 208.57 L 286.675 208.57 L 286.675 209.755 L 284.395 209.755 L 284.395 214.06 L 284.395 214.06 Q 284.395 214.705 284.718 215.05 L 284.718 215.05 L 284.718 215.05 Q 285.04 215.395 285.64 215.395 L 285.64 215.395 L 285.64 215.395 Q 286.3 215.395 286.765 215.02 L 286.765 215.02 L 286.765 215.02 Z  M 291.85 208.495 L 291.85 208.495 Q 293.5 208.495 294.378 209.305 L 294.378 209.305 L 294.378 209.305 Q 295.255 210.115 295.255 211.72 L 295.255 211.72 L 295.255 216.52 L 293.89 216.52 L 293.89 215.47 L 293.89 215.47 Q 293.53 216.025 292.863 216.318 L 292.863 216.318 L 292.863 216.318 Q 292.195 216.61 291.28 216.61 L 291.28 216.61 L 291.28 216.61 Q 289.945 216.61 289.143 215.965 L 289.143 215.965 L 289.143 215.965 Q 288.34 215.32 288.34 214.27 L 288.34 214.27 L 288.34 214.27 Q 288.34 213.22 289.105 212.583 L 289.105 212.583 L 289.105 212.583 Q 289.87 211.945 291.535 211.945 L 291.535 211.945 L 293.815 211.945 L 293.815 211.66 L 293.815 211.66 Q 293.815 210.73 293.275 210.235 L 293.275 210.235 L 293.275 210.235 Q 292.735 209.74 291.685 209.74 L 291.685 209.74 L 291.685 209.74 Q 290.98 209.74 290.305 209.973 L 290.305 209.973 L 290.305 209.973 Q 289.63 210.205 289.165 210.595 L 289.165 210.595 L 288.565 209.515 L 288.565 209.515 Q 289.18 209.02 290.035 208.758 L 290.035 208.758 L 290.035 208.758 Q 290.89 208.495 291.85 208.495 L 291.85 208.495 L 291.85 208.495 Z  M 291.52 215.5 L 291.52 215.5 Q 292.345 215.5 292.945 215.133 L 292.945 215.133 L 292.945 215.133 Q 293.545 214.765 293.815 214.09 L 293.815 214.09 L 293.815 212.98 L 291.595 212.98 L 291.595 212.98 Q 289.765 212.98 289.765 214.21 L 289.765 214.21 L 289.765 214.21 Q 289.765 214.81 290.23 215.155 L 290.23 215.155 L 290.23 215.155 Q 290.695 215.5 291.52 215.5 L 291.52 215.5 L 291.52 215.5 Z  M 298.405 219.43 L 297.04 219.43 L 297.04 219.43 Q 297.94 217.855 298.368 216.13 L 298.368 216.13 L 298.368 216.13 Q 298.795 214.405 298.795 212.41 L 298.795 212.41 L 298.795 212.41 Q 298.795 210.415 298.368 208.69 L 298.368 208.69 L 298.368 208.69 Q 297.94 206.965 297.04 205.39 L 297.04 205.39 L 298.405 205.39 L 298.405 205.39 Q 299.275 206.74 299.74 208.54 L 299.74 208.54 L 299.74 208.54 Q 300.205 210.34 300.205 212.41 L 300.205 212.41 L 300.205 212.41 Q 300.205 214.465 299.74 216.265 L 299.74 216.265 L 299.74 216.265 Q 299.275 218.065 298.405 219.43 L 298.405 219.43 L 298.405 219.43 Z  M 217.42 215.215 L 222.805 215.215 L 222.805 216.52 L 215.26 216.52 L 215.26 215.5 L 219.535 211.375 L 219.535 211.375 Q 220.315 210.625 220.585 210.078 L 220.585 210.078 L 220.585 210.078 Q 220.855 209.53 220.855 208.975 L 220.855 208.975 L 220.855 208.975 Q 220.855 208.15 220.278 207.693 L 220.278 207.693 L 220.278 207.693 Q 219.7 207.235 218.62 207.235 L 218.62 207.235 L 218.62 207.235 Q 216.88 207.235 215.935 208.375 L 215.935 208.375 L 214.915 207.49 L 214.915 207.49 Q 215.53 206.74 216.528 206.32 L 216.528 206.32 L 216.528 206.32 Q 217.525 205.9 218.755 205.9 L 218.755 205.9 L 218.755 205.9 Q 220.405 205.9 221.38 206.688 L 221.38 206.688 L 221.38 206.688 Q 222.355 207.475 222.355 208.825 L 222.355 208.825 L 222.355 208.825 Q 222.355 209.665 221.995 210.415 L 221.995 210.415 L 221.995 210.415 Q 221.635 211.165 220.63 212.125 L 220.63 212.125 L 217.42 215.215 L 217.42 215.215 Z  M 228.28 216.64 L 228.28 216.64 Q 227.035 216.64 226.068 216.003 L 226.068 216.003 L 226.068 216.003 Q 225.1 215.365 224.545 214.15 L 224.545 214.15 L 224.545 214.15 Q 223.99 212.935 223.99 211.27 L 223.99 211.27 L 223.99 211.27 Q 223.99 209.605 224.545 208.39 L 224.545 208.39 L 224.545 208.39 Q 225.1 207.175 226.068 206.538 L 226.068 206.538 L 226.068 206.538 Q 227.035 205.9 228.28 205.9 L 228.28 205.9 L 228.28 205.9 Q 229.51 205.9 230.478 206.538 L 230.478 206.538 L 230.478 206.538 Q 231.445 207.175 232 208.39 L 232 208.39 L 232 208.39 Q 232.555 209.605 232.555 211.27 L 232.555 211.27 L 232.555 211.27 Q 232.555 212.935 232 214.15 L 232 214.15 L 232 214.15 Q 231.445 215.365 230.478 216.003 L 230.478 216.003 L 230.478 216.003 Q 229.51 216.64 228.28 216.64 L 228.28 216.64 L 228.28 216.64 Z  M 228.28 215.305 L 228.28 215.305 Q 229.54 215.305 230.298 214.27 L 230.298 214.27 L 230.298 214.27 Q 231.055 213.235 231.055 211.27 L 231.055 211.27 L 231.055 211.27 Q 231.055 209.305 230.298 208.27 L 230.298 208.27 L 230.298 208.27 Q 229.54 207.235 228.28 207.235 L 228.28 207.235 L 228.28 207.235 Q 227.005 207.235 226.248 208.27 L 226.248 208.27 L 226.248 208.27 Q 225.49 209.305 225.49 211.27 L 225.49 211.27 L 225.49 211.27 Q 225.49 213.235 226.248 214.27 L 226.248 214.27 L 226.248 214.27 Q 227.005 215.305 228.28 215.305 L 228.28 215.305 L 228.28 215.305 Z  M 235.945 215.215 L 241.33 215.215 L 241.33 216.52 L 233.785 216.52 L 233.785 215.5 L 238.06 211.375 L 238.06 211.375 Q 238.84 210.625 239.11 210.078 L 239.11 210.078 L 239.11 210.078 Q 239.38 209.53 239.38 208.975 L 239.38 208.975 L 239.38 208.975 Q 239.38 208.15 238.803 207.693 L 238.803 207.693 L 238.803 207.693 Q 238.225 207.235 237.145 207.235 L 237.145 207.235 L 237.145 207.235 Q 235.405 207.235 234.46 208.375 L 234.46 208.375 L 233.44 207.49 L 233.44 207.49 Q 234.055 206.74 235.053 206.32 L 235.053 206.32 L 235.053 206.32 Q 236.05 205.9 237.28 205.9 L 237.28 205.9 L 237.28 205.9 Q 238.93 205.9 239.905 206.688 L 239.905 206.688 L 239.905 206.688 Q 240.88 207.475 240.88 208.825 L 240.88 208.825 L 240.88 208.825 Q 240.88 209.665 240.52 210.415 L 240.52 210.415 L 240.52 210.415 Q 240.16 211.165 239.155 212.125 L 239.155 212.125 L 235.945 215.215 L 235.945 215.215 Z  M 246.805 216.64 L 246.805 216.64 Q 245.56 216.64 244.593 216.003 L 244.593 216.003 L 244.593 216.003 Q 243.625 215.365 243.07 214.15 L 243.07 214.15 L 243.07 214.15 Q 242.515 212.935 242.515 211.27 L 242.515 211.27 L 242.515 211.27 Q 242.515 209.605 243.07 208.39 L 243.07 208.39 L 243.07 208.39 Q 243.625 207.175 244.593 206.538 L 244.593 206.538 L 244.593 206.538 Q 245.56 205.9 246.805 205.9 L 246.805 205.9 L 246.805 205.9 Q 248.035 205.9 249.003 206.538 L 249.003 206.538 L 249.003 206.538 Q 249.97 207.175 250.525 208.39 L 250.525 208.39 L 250.525 208.39 Q 251.08 209.605 251.08 211.27 L 251.08 211.27 L 251.08 211.27 Q 251.08 212.935 250.525 214.15 L 250.525 214.15 L 250.525 214.15 Q 249.97 215.365 249.003 216.003 L 249.003 216.003 L 249.003 216.003 Q 248.035 216.64 246.805 216.64 L 246.805 216.64 L 246.805 216.64 Z  M 246.805 215.305 L 246.805 215.305 Q 248.065 215.305 248.823 214.27 L 248.823 214.27 L 248.823 214.27 Q 249.58 213.235 249.58 211.27 L 249.58 211.27 L 249.58 211.27 Q 249.58 209.305 248.823 208.27 L 248.823 208.27 L 248.823 208.27 Q 248.065 207.235 246.805 207.235 L 246.805 207.235 L 246.805 207.235 Q 245.53 207.235 244.773 208.27 L 244.773 208.27 L 244.773 208.27 Q 244.015 209.305 244.015 211.27 L 244.015 211.27 L 244.015 211.27 Q 244.015 213.235 244.773 214.27 L 244.773 214.27 L 244.773 214.27 Q 245.53 215.305 246.805 215.305 L 246.805 215.305 L 246.805 215.305 Z  M 196.63 206.02 L 200.485 206.02 L 200.485 216.52 L 199 216.52 L 199 207.325 L 196.63 207.325 L 196.63 206.02 L 196.63 206.02 Z  M 204.775 215.215 L 210.16 215.215 L 210.16 216.52 L 202.615 216.52 L 202.615 215.5 L 206.89 211.375 L 206.89 211.375 Q 207.67 210.625 207.94 210.078 L 207.94 210.078 L 207.94 210.078 Q 208.21 209.53 208.21 208.975 L 208.21 208.975 L 208.21 208.975 Q 208.21 208.15 207.633 207.693 L 207.633 207.693 L 207.633 207.693 Q 207.055 207.235 205.975 207.235 L 205.975 207.235 L 205.975 207.235 Q 204.235 207.235 203.29 208.375 L 203.29 208.375 L 202.27 207.49 L 202.27 207.49 Q 202.885 206.74 203.883 206.32 L 203.883 206.32 L 203.883 206.32 Q 204.88 205.9 206.11 205.9 L 206.11 205.9 L 206.11 205.9 Q 207.76 205.9 208.735 206.688 L 208.735 206.688 L 208.735 206.688 Q 209.71 207.475 209.71 208.825 L 209.71 208.825 L 209.71 208.825 Q 209.71 209.665 209.35 210.415 L 209.35 210.415 L 209.35 210.415 Q 208.99 211.165 207.985 212.125 L 207.985 212.125 L 204.775 215.215 L 204.775 215.215 Z  M 168.52 216.64 L 168.52 216.64 Q 167.575 216.64 166.765 216.243 L 166.765 216.243 L 166.765 216.243 Q 165.955 215.845 165.46 215.125 L 165.46 215.125 L 166.33 214.105 L 166.33 214.105 Q 167.2 215.35 168.52 215.35 L 168.52 215.35 L 168.52 215.35 Q 169.405 215.35 169.863 214.81 L 169.863 214.81 L 169.863 214.81 Q 170.32 214.27 170.32 213.22 L 170.32 213.22 L 170.32 207.325 L 166.525 207.325 L 166.525 206.02 L 171.805 206.02 L 171.805 213.145 L 171.805 213.145 Q 171.805 214.885 170.973 215.763 L 170.973 215.763 L 170.973 215.763 Q 170.14 216.64 168.52 216.64 L 168.52 216.64 L 168.52 216.64 Z  M 177.55 208.495 L 177.55 208.495 Q 179.2 208.495 180.078 209.305 L 180.078 209.305 L 180.078 209.305 Q 180.955 210.115 180.955 211.72 L 180.955 211.72 L 180.955 216.52 L 179.59 216.52 L 179.59 215.47 L 179.59 215.47 Q 179.23 216.025 178.563 216.318 L 178.563 216.318 L 178.563 216.318 Q 177.895 216.61 176.98 216.61 L 176.98 216.61 L 176.98 216.61 Q 175.645 216.61 174.843 215.965 L 174.843 215.965 L 174.843 215.965 Q 174.04 215.32 174.04 214.27 L 174.04 214.27 L 174.04 214.27 Q 174.04 213.22 174.805 212.583 L 174.805 212.583 L 174.805 212.583 Q 175.57 211.945 177.235 211.945 L 177.235 211.945 L 179.515 211.945 L 179.515 211.66 L 179.515 211.66 Q 179.515 210.73 178.975 210.235 L 178.975 210.235 L 178.975 210.235 Q 178.435 209.74 177.385 209.74 L 177.385 209.74 L 177.385 209.74 Q 176.68 209.74 176.005 209.973 L 176.005 209.973 L 176.005 209.973 Q 175.33 210.205 174.865 210.595 L 174.865 210.595 L 174.265 209.515 L 174.265 209.515 Q 174.88 209.02 175.735 208.758 L 175.735 208.758 L 175.735 208.758 Q 176.59 208.495 177.55 208.495 L 177.55 208.495 L 177.55 208.495 Z  M 177.22 215.5 L 177.22 215.5 Q 178.045 215.5 178.645 215.133 L 178.645 215.133 L 178.645 215.133 Q 179.245 214.765 179.515 214.09 L 179.515 214.09 L 179.515 212.98 L 177.295 212.98 L 177.295 212.98 Q 175.465 212.98 175.465 214.21 L 175.465 214.21 L 175.465 214.21 Q 175.465 214.81 175.93 215.155 L 175.93 215.155 L 175.93 215.155 Q 176.395 215.5 177.22 215.5 L 177.22 215.5 L 177.22 215.5 Z  M 187.87 208.495 L 187.87 208.495 Q 189.385 208.495 190.278 209.373 L 190.278 209.373 L 190.278 209.373 Q 191.17 210.25 191.17 211.945 L 191.17 211.945 L 191.17 216.52 L 189.73 216.52 L 189.73 212.11 L 189.73 212.11 Q 189.73 210.955 189.175 210.37 L 189.175 210.37 L 189.175 210.37 Q 188.62 209.785 187.585 209.785 L 187.585 209.785 L 187.585 209.785 Q 186.415 209.785 185.74 210.468 L 185.74 210.468 L 185.74 210.468 Q 185.065 211.15 185.065 212.425 L 185.065 212.425 L 185.065 216.52 L 183.625 216.52 L 183.625 208.57 L 185.005 208.57 L 185.005 209.77 L 185.005 209.77 Q 185.44 209.155 186.183 208.825 L 186.183 208.825 L 186.183 208.825 Q 186.925 208.495 187.87 208.495 L 187.87 208.495 L 187.87 208.495 Z " fill="rgb(255,255,255)"/><path d=" M 225.003 239.52 L 225.003 229.02 L 229.428 229.02 L 229.428 229.02 Q 231.093 229.02 232.383 229.68 L 232.383 229.68 L 232.383 229.68 Q 233.673 230.34 234.385 231.533 L 234.385 231.533 L 234.385 231.533 Q 235.098 232.725 235.098 234.27 L 235.098 234.27 L 235.098 234.27 Q 235.098 235.815 234.385 237.008 L 234.385 237.008 L 234.385 237.008 Q 233.673 238.2 232.383 238.86 L 232.383 238.86 L 232.383 238.86 Q 231.093 239.52 229.428 239.52 L 229.428 239.52 L 225.003 239.52 L 225.003 239.52 Z  M 226.503 238.215 L 229.338 238.215 L 229.338 238.215 Q 230.613 238.215 231.58 237.72 L 231.58 237.72 L 231.58 237.72 Q 232.548 237.225 233.073 236.333 L 233.073 236.333 L 233.073 236.333 Q 233.598 235.44 233.598 234.27 L 233.598 234.27 L 233.598 234.27 Q 233.598 233.1 233.073 232.208 L 233.073 232.208 L 233.073 232.208 Q 232.548 231.315 231.58 230.82 L 231.58 230.82 L 231.58 230.82 Q 230.613 230.325 229.338 230.325 L 229.338 230.325 L 226.503 230.325 L 226.503 238.215 L 226.503 238.215 Z  M 244.368 235.59 L 244.368 235.59 Q 244.368 235.755 244.338 236.025 L 244.338 236.025 L 237.888 236.025 L 237.888 236.025 Q 238.023 237.075 238.81 237.713 L 238.81 237.713 L 238.81 237.713 Q 239.598 238.35 240.768 238.35 L 240.768 238.35 L 240.768 238.35 Q 242.193 238.35 243.063 237.39 L 243.063 237.39 L 243.858 238.32 L 243.858 238.32 Q 243.318 238.95 242.515 239.28 L 242.515 239.28 L 242.515 239.28 Q 241.713 239.61 240.723 239.61 L 240.723 239.61 L 240.723 239.61 Q 239.463 239.61 238.488 239.093 L 238.488 239.093 L 238.488 239.093 Q 237.513 238.575 236.98 237.645 L 236.98 237.645 L 236.98 237.645 Q 236.448 236.715 236.448 235.545 L 236.448 235.545 L 236.448 235.545 Q 236.448 234.39 236.965 233.46 L 236.965 233.46 L 236.965 233.46 Q 237.483 232.53 238.39 232.013 L 238.39 232.013 L 238.39 232.013 Q 239.298 231.495 240.438 231.495 L 240.438 231.495 L 240.438 231.495 Q 241.578 231.495 242.47 232.013 L 242.47 232.013 L 242.47 232.013 Q 243.363 232.53 243.865 233.46 L 243.865 233.46 L 243.865 233.46 Q 244.368 234.39 244.368 235.59 L 244.368 235.59 L 244.368 235.59 Z  M 240.438 232.71 L 240.438 232.71 Q 239.403 232.71 238.705 233.34 L 238.705 233.34 L 238.705 233.34 Q 238.008 233.97 237.888 234.99 L 237.888 234.99 L 242.988 234.99 L 242.988 234.99 Q 242.868 233.985 242.17 233.348 L 242.17 233.348 L 242.17 233.348 Q 241.473 232.71 240.438 232.71 L 240.438 232.71 L 240.438 232.71 Z  M 251.838 231.57 L 253.248 231.57 L 249.768 239.52 L 248.298 239.52 L 244.818 231.57 L 246.318 231.57 L 249.048 237.945 L 251.838 231.57 L 251.838 231.57 Z  M 261.558 235.59 L 261.558 235.59 Q 261.558 235.755 261.528 236.025 L 261.528 236.025 L 255.078 236.025 L 255.078 236.025 Q 255.213 237.075 256 237.713 L 256 237.713 L 256 237.713 Q 256.788 238.35 257.958 238.35 L 257.958 238.35 L 257.958 238.35 Q 259.383 238.35 260.253 237.39 L 260.253 237.39 L 261.048 238.32 L 261.048 238.32 Q 260.508 238.95 259.705 239.28 L 259.705 239.28 L 259.705 239.28 Q 258.903 239.61 257.913 239.61 L 257.913 239.61 L 257.913 239.61 Q 256.653 239.61 255.678 239.093 L 255.678 239.093 L 255.678 239.093 Q 254.703 238.575 254.17 237.645 L 254.17 237.645 L 254.17 237.645 Q 253.638 236.715 253.638 235.545 L 253.638 235.545 L 253.638 235.545 Q 253.638 234.39 254.155 233.46 L 254.155 233.46 L 254.155 233.46 Q 254.673 232.53 255.58 232.013 L 255.58 232.013 L 255.58 232.013 Q 256.488 231.495 257.628 231.495 L 257.628 231.495 L 257.628 231.495 Q 258.768 231.495 259.66 232.013 L 259.66 232.013 L 259.66 232.013 Q 260.553 232.53 261.055 233.46 L 261.055 233.46 L 261.055 233.46 Q 261.558 234.39 261.558 235.59 L 261.558 235.59 L 261.558 235.59 Z  M 257.628 232.71 L 257.628 232.71 Q 256.593 232.71 255.895 233.34 L 255.895 233.34 L 255.895 233.34 Q 255.198 233.97 255.078 234.99 L 255.078 234.99 L 260.178 234.99 L 260.178 234.99 Q 260.058 233.985 259.36 233.348 L 259.36 233.348 L 259.36 233.348 Q 258.663 232.71 257.628 232.71 L 257.628 232.71 L 257.628 232.71 Z  M 263.553 239.52 L 263.553 228.39 L 264.993 228.39 L 264.993 239.52 L 263.553 239.52 L 263.553 239.52 Z  M 271.143 239.61 L 271.143 239.61 Q 269.958 239.61 269.013 239.085 L 269.013 239.085 L 269.013 239.085 Q 268.068 238.56 267.535 237.638 L 267.535 237.638 L 267.535 237.638 Q 267.003 236.715 267.003 235.545 L 267.003 235.545 L 267.003 235.545 Q 267.003 234.375 267.535 233.453 L 267.535 233.453 L 267.535 233.453 Q 268.068 232.53 269.013 232.013 L 269.013 232.013 L 269.013 232.013 Q 269.958 231.495 271.143 231.495 L 271.143 231.495 L 271.143 231.495 Q 272.328 231.495 273.265 232.013 L 273.265 232.013 L 273.265 232.013 Q 274.203 232.53 274.735 233.453 L 274.735 233.453 L 274.735 233.453 Q 275.268 234.375 275.268 235.545 L 275.268 235.545 L 275.268 235.545 Q 275.268 236.715 274.735 237.638 L 274.735 237.638 L 274.735 237.638 Q 274.203 238.56 273.265 239.085 L 273.265 239.085 L 273.265 239.085 Q 272.328 239.61 271.143 239.61 L 271.143 239.61 L 271.143 239.61 Z  M 271.143 238.35 L 271.143 238.35 Q 271.908 238.35 272.515 237.998 L 272.515 237.998 L 272.515 237.998 Q 273.123 237.645 273.468 237.008 L 273.468 237.008 L 273.468 237.008 Q 273.813 236.37 273.813 235.545 L 273.813 235.545 L 273.813 235.545 Q 273.813 234.72 273.468 234.083 L 273.468 234.083 L 273.468 234.083 Q 273.123 233.445 272.515 233.1 L 272.515 233.1 L 272.515 233.1 Q 271.908 232.755 271.143 232.755 L 271.143 232.755 L 271.143 232.755 Q 270.378 232.755 269.77 233.1 L 269.77 233.1 L 269.77 233.1 Q 269.163 233.445 268.81 234.083 L 268.81 234.083 L 268.81 234.083 Q 268.458 234.72 268.458 235.545 L 268.458 235.545 L 268.458 235.545 Q 268.458 236.37 268.81 237.008 L 268.81 237.008 L 268.81 237.008 Q 269.163 237.645 269.77 237.998 L 269.77 237.998 L 269.77 237.998 Q 270.378 238.35 271.143 238.35 L 271.143 238.35 L 271.143 238.35 Z  M 281.478 231.495 L 281.478 231.495 Q 282.633 231.495 283.548 232.005 L 283.548 232.005 L 283.548 232.005 Q 284.463 232.515 284.98 233.43 L 284.98 233.43 L 284.98 233.43 Q 285.498 234.345 285.498 235.545 L 285.498 235.545 L 285.498 235.545 Q 285.498 236.745 284.98 237.668 L 284.98 237.668 L 284.98 237.668 Q 284.463 238.59 283.548 239.1 L 283.548 239.1 L 283.548 239.1 Q 282.633 239.61 281.478 239.61 L 281.478 239.61 L 281.478 239.61 Q 280.623 239.61 279.91 239.28 L 279.91 239.28 L 279.91 239.28 Q 279.198 238.95 278.703 238.32 L 278.703 238.32 L 278.703 242.43 L 277.263 242.43 L 277.263 231.57 L 278.643 231.57 L 278.643 232.83 L 278.643 232.83 Q 279.123 232.17 279.858 231.833 L 279.858 231.833 L 279.858 231.833 Q 280.593 231.495 281.478 231.495 L 281.478 231.495 L 281.478 231.495 Z  M 281.358 238.35 L 281.358 238.35 Q 282.123 238.35 282.73 237.998 L 282.73 237.998 L 282.73 237.998 Q 283.338 237.645 283.69 237.008 L 283.69 237.008 L 283.69 237.008 Q 284.043 236.37 284.043 235.545 L 284.043 235.545 L 284.043 235.545 Q 284.043 234.72 283.69 234.083 L 283.69 234.083 L 283.69 234.083 Q 283.338 233.445 282.73 233.1 L 282.73 233.1 L 282.73 233.1 Q 282.123 232.755 281.358 232.755 L 281.358 232.755 L 281.358 232.755 Q 280.608 232.755 280 233.108 L 280 233.108 L 280 233.108 Q 279.393 233.46 279.04 234.09 L 279.04 234.09 L 279.04 234.09 Q 278.688 234.72 278.688 235.545 L 278.688 235.545 L 278.688 235.545 Q 278.688 236.37 279.033 237.008 L 279.033 237.008 L 279.033 237.008 Q 279.378 237.645 279.993 237.998 L 279.993 237.998 L 279.993 237.998 Q 280.608 238.35 281.358 238.35 L 281.358 238.35 L 281.358 238.35 Z  M 297.438 231.495 L 297.438 231.495 Q 298.938 231.495 299.815 232.365 L 299.815 232.365 L 299.815 232.365 Q 300.693 233.235 300.693 234.945 L 300.693 234.945 L 300.693 239.52 L 299.253 239.52 L 299.253 235.11 L 299.253 235.11 Q 299.253 233.955 298.72 233.37 L 298.72 233.37 L 298.72 233.37 Q 298.188 232.785 297.198 232.785 L 297.198 232.785 L 297.198 232.785 Q 296.103 232.785 295.458 233.468 L 295.458 233.468 L 295.458 233.468 Q 294.813 234.15 294.813 235.425 L 294.813 235.425 L 294.813 239.52 L 293.373 239.52 L 293.373 235.11 L 293.373 235.11 Q 293.373 233.955 292.84 233.37 L 292.84 233.37 L 292.84 233.37 Q 292.308 232.785 291.318 232.785 L 291.318 232.785 L 291.318 232.785 Q 290.223 232.785 289.578 233.468 L 289.578 233.468 L 289.578 233.468 Q 288.933 234.15 288.933 235.425 L 288.933 235.425 L 288.933 239.52 L 287.493 239.52 L 287.493 231.57 L 288.873 231.57 L 288.873 232.755 L 288.873 232.755 Q 289.308 232.14 290.013 231.818 L 290.013 231.818 L 290.013 231.818 Q 290.718 231.495 291.618 231.495 L 291.618 231.495 L 291.618 231.495 Q 292.548 231.495 293.268 231.87 L 293.268 231.87 L 293.268 231.87 Q 293.988 232.245 294.378 232.965 L 294.378 232.965 L 294.378 232.965 Q 294.828 232.275 295.63 231.885 L 295.63 231.885 L 295.63 231.885 Q 296.433 231.495 297.438 231.495 L 297.438 231.495 L 297.438 231.495 Z  M 310.578 235.59 L 310.578 235.59 Q 310.578 235.755 310.548 236.025 L 310.548 236.025 L 304.098 236.025 L 304.098 236.025 Q 304.233 237.075 305.02 237.713 L 305.02 237.713 L 305.02 237.713 Q 305.808 238.35 306.978 238.35 L 306.978 238.35 L 306.978 238.35 Q 308.403 238.35 309.273 237.39 L 309.273 237.39 L 310.068 238.32 L 310.068 238.32 Q 309.528 238.95 308.725 239.28 L 308.725 239.28 L 308.725 239.28 Q 307.923 239.61 306.933 239.61 L 306.933 239.61 L 306.933 239.61 Q 305.673 239.61 304.698 239.093 L 304.698 239.093 L 304.698 239.093 Q 303.723 238.575 303.19 237.645 L 303.19 237.645 L 303.19 237.645 Q 302.658 236.715 302.658 235.545 L 302.658 235.545 L 302.658 235.545 Q 302.658 234.39 303.175 233.46 L 303.175 233.46 L 303.175 233.46 Q 303.693 232.53 304.6 232.013 L 304.6 232.013 L 304.6 232.013 Q 305.508 231.495 306.648 231.495 L 306.648 231.495 L 306.648 231.495 Q 307.788 231.495 308.68 232.013 L 308.68 232.013 L 308.68 232.013 Q 309.573 232.53 310.075 233.46 L 310.075 233.46 L 310.075 233.46 Q 310.578 234.39 310.578 235.59 L 310.578 235.59 L 310.578 235.59 Z  M 306.648 232.71 L 306.648 232.71 Q 305.613 232.71 304.915 233.34 L 304.915 233.34 L 304.915 233.34 Q 304.218 233.97 304.098 234.99 L 304.098 234.99 L 309.198 234.99 L 309.198 234.99 Q 309.078 233.985 308.38 233.348 L 308.38 233.348 L 308.38 233.348 Q 307.683 232.71 306.648 232.71 L 306.648 232.71 L 306.648 232.71 Z  M 316.818 231.495 L 316.818 231.495 Q 318.333 231.495 319.225 232.373 L 319.225 232.373 L 319.225 232.373 Q 320.118 233.25 320.118 234.945 L 320.118 234.945 L 320.118 239.52 L 318.678 239.52 L 318.678 235.11 L 318.678 235.11 Q 318.678 233.955 318.123 233.37 L 318.123 233.37 L 318.123 233.37 Q 317.568 232.785 316.533 232.785 L 316.533 232.785 L 316.533 232.785 Q 315.363 232.785 314.688 233.468 L 314.688 233.468 L 314.688 233.468 Q 314.013 234.15 314.013 235.425 L 314.013 235.425 L 314.013 239.52 L 312.573 239.52 L 312.573 231.57 L 313.953 231.57 L 313.953 232.77 L 313.953 232.77 Q 314.388 232.155 315.13 231.825 L 315.13 231.825 L 315.13 231.825 Q 315.873 231.495 316.818 231.495 L 316.818 231.495 L 316.818 231.495 Z  M 326.808 238.02 L 327.258 239.055 L 327.258 239.055 Q 326.943 239.325 326.478 239.468 L 326.478 239.468 L 326.478 239.468 Q 326.013 239.61 325.518 239.61 L 325.518 239.61 L 325.518 239.61 Q 324.318 239.61 323.658 238.965 L 323.658 238.965 L 323.658 238.965 Q 322.998 238.32 322.998 237.12 L 322.998 237.12 L 322.998 232.755 L 321.648 232.755 L 321.648 231.57 L 322.998 231.57 L 322.998 229.83 L 324.438 229.83 L 324.438 231.57 L 326.718 231.57 L 326.718 232.755 L 324.438 232.755 L 324.438 237.06 L 324.438 237.06 Q 324.438 237.705 324.76 238.05 L 324.76 238.05 L 324.76 238.05 Q 325.083 238.395 325.683 238.395 L 325.683 238.395 L 325.683 238.395 Q 326.343 238.395 326.808 238.02 L 326.808 238.02 L 326.808 238.02 Z  M 177.633 239.64 L 177.633 239.64 Q 175.533 239.64 174.363 238.44 L 174.363 238.44 L 174.363 238.44 Q 173.193 237.24 173.193 234.99 L 173.193 234.99 L 173.193 229.02 L 174.693 229.02 L 174.693 234.93 L 174.693 234.93 Q 174.693 238.305 177.648 238.305 L 177.648 238.305 L 177.648 238.305 Q 179.088 238.305 179.853 237.473 L 179.853 237.473 L 179.853 237.473 Q 180.618 236.64 180.618 234.93 L 180.618 234.93 L 180.618 229.02 L 182.073 229.02 L 182.073 234.99 L 182.073 234.99 Q 182.073 237.255 180.903 238.448 L 180.903 238.448 L 180.903 238.448 Q 179.733 239.64 177.633 239.64 L 177.633 239.64 L 177.633 239.64 Z  M 189.183 231.495 L 189.183 231.495 Q 190.698 231.495 191.59 232.373 L 191.59 232.373 L 191.59 232.373 Q 192.483 233.25 192.483 234.945 L 192.483 234.945 L 192.483 239.52 L 191.043 239.52 L 191.043 235.11 L 191.043 235.11 Q 191.043 233.955 190.488 233.37 L 190.488 233.37 L 190.488 233.37 Q 189.933 232.785 188.898 232.785 L 188.898 232.785 L 188.898 232.785 Q 187.728 232.785 187.053 233.468 L 187.053 233.468 L 187.053 233.468 Q 186.378 234.15 186.378 235.425 L 186.378 235.425 L 186.378 239.52 L 184.938 239.52 L 184.938 231.57 L 186.318 231.57 L 186.318 232.77 L 186.318 232.77 Q 186.753 232.155 187.495 231.825 L 187.495 231.825 L 187.495 231.825 Q 188.238 231.495 189.183 231.495 L 189.183 231.495 L 189.183 231.495 Z  M 201.258 228.39 L 202.698 228.39 L 202.698 239.52 L 201.318 239.52 L 201.318 238.26 L 201.318 238.26 Q 200.838 238.92 200.103 239.265 L 200.103 239.265 L 200.103 239.265 Q 199.368 239.61 198.483 239.61 L 198.483 239.61 L 198.483 239.61 Q 197.328 239.61 196.413 239.1 L 196.413 239.1 L 196.413 239.1 Q 195.498 238.59 194.98 237.668 L 194.98 237.668 L 194.98 237.668 Q 194.463 236.745 194.463 235.545 L 194.463 235.545 L 194.463 235.545 Q 194.463 234.345 194.98 233.43 L 194.98 233.43 L 194.98 233.43 Q 195.498 232.515 196.413 232.005 L 196.413 232.005 L 196.413 232.005 Q 197.328 231.495 198.483 231.495 L 198.483 231.495 L 198.483 231.495 Q 199.338 231.495 200.058 231.818 L 200.058 231.818 L 200.058 231.818 Q 200.778 232.14 201.258 232.77 L 201.258 232.77 L 201.258 228.39 L 201.258 228.39 Z  M 198.603 238.35 L 198.603 238.35 Q 199.353 238.35 199.968 237.998 L 199.968 237.998 L 199.968 237.998 Q 200.583 237.645 200.928 237.008 L 200.928 237.008 L 200.928 237.008 Q 201.273 236.37 201.273 235.545 L 201.273 235.545 L 201.273 235.545 Q 201.273 234.72 200.928 234.083 L 200.928 234.083 L 200.928 234.083 Q 200.583 233.445 199.968 233.1 L 199.968 233.1 L 199.968 233.1 Q 199.353 232.755 198.603 232.755 L 198.603 232.755 L 198.603 232.755 Q 197.838 232.755 197.23 233.1 L 197.23 233.1 L 197.23 233.1 Q 196.623 233.445 196.27 234.083 L 196.27 234.083 L 196.27 234.083 Q 195.918 234.72 195.918 235.545 L 195.918 235.545 L 195.918 235.545 Q 195.918 236.37 196.27 237.008 L 196.27 237.008 L 196.27 237.008 Q 196.623 237.645 197.23 237.998 L 197.23 237.998 L 197.23 237.998 Q 197.838 238.35 198.603 238.35 L 198.603 238.35 L 198.603 238.35 Z  M 212.613 235.59 L 212.613 235.59 Q 212.613 235.755 212.583 236.025 L 212.583 236.025 L 206.133 236.025 L 206.133 236.025 Q 206.268 237.075 207.055 237.713 L 207.055 237.713 L 207.055 237.713 Q 207.843 238.35 209.013 238.35 L 209.013 238.35 L 209.013 238.35 Q 210.438 238.35 211.308 237.39 L 211.308 237.39 L 212.103 238.32 L 212.103 238.32 Q 211.563 238.95 210.76 239.28 L 210.76 239.28 L 210.76 239.28 Q 209.958 239.61 208.968 239.61 L 208.968 239.61 L 208.968 239.61 Q 207.708 239.61 206.733 239.093 L 206.733 239.093 L 206.733 239.093 Q 205.758 238.575 205.225 237.645 L 205.225 237.645 L 205.225 237.645 Q 204.693 236.715 204.693 235.545 L 204.693 235.545 L 204.693 235.545 Q 204.693 234.39 205.21 233.46 L 205.21 233.46 L 205.21 233.46 Q 205.728 232.53 206.635 232.013 L 206.635 232.013 L 206.635 232.013 Q 207.543 231.495 208.683 231.495 L 208.683 231.495 L 208.683 231.495 Q 209.823 231.495 210.715 232.013 L 210.715 232.013 L 210.715 232.013 Q 211.608 232.53 212.11 233.46 L 212.11 233.46 L 212.11 233.46 Q 212.613 234.39 212.613 235.59 L 212.613 235.59 L 212.613 235.59 Z  M 208.683 232.71 L 208.683 232.71 Q 207.648 232.71 206.95 233.34 L 206.95 233.34 L 206.95 233.34 Q 206.253 233.97 206.133 234.99 L 206.133 234.99 L 211.233 234.99 L 211.233 234.99 Q 211.113 233.985 210.415 233.348 L 210.415 233.348 L 210.415 233.348 Q 209.718 232.71 208.683 232.71 L 208.683 232.71 L 208.683 232.71 Z  M 215.988 232.905 L 215.988 232.905 Q 216.363 232.215 217.098 231.855 L 217.098 231.855 L 217.098 231.855 Q 217.833 231.495 218.883 231.495 L 218.883 231.495 L 218.883 232.89 L 218.883 232.89 Q 218.763 232.875 218.553 232.875 L 218.553 232.875 L 218.553 232.875 Q 217.383 232.875 216.715 233.573 L 216.715 233.573 L 216.715 233.573 Q 216.048 234.27 216.048 235.56 L 216.048 235.56 L 216.048 239.52 L 214.608 239.52 L 214.608 231.57 L 215.988 231.57 L 215.988 232.905 L 215.988 232.905 Z  M 144.228 239.64 L 144.228 239.64 Q 143.043 239.64 141.94 239.273 L 141.94 239.273 L 141.94 239.273 Q 140.838 238.905 140.208 238.32 L 140.208 238.32 L 140.763 237.15 L 140.763 237.15 Q 141.363 237.69 142.3 238.028 L 142.3 238.028 L 142.3 238.028 Q 143.238 238.365 144.228 238.365 L 144.228 238.365 L 144.228 238.365 Q 145.533 238.365 146.178 237.923 L 146.178 237.923 L 146.178 237.923 Q 146.823 237.48 146.823 236.745 L 146.823 236.745 L 146.823 236.745 Q 146.823 236.205 146.47 235.868 L 146.47 235.868 L 146.47 235.868 Q 146.118 235.53 145.6 235.35 L 145.6 235.35 L 145.6 235.35 Q 145.083 235.17 144.138 234.945 L 144.138 234.945 L 144.138 234.945 Q 142.953 234.66 142.225 234.375 L 142.225 234.375 L 142.225 234.375 Q 141.498 234.09 140.98 233.498 L 140.98 233.498 L 140.98 233.498 Q 140.463 232.905 140.463 231.9 L 140.463 231.9 L 140.463 231.9 Q 140.463 231.06 140.905 230.385 L 140.905 230.385 L 140.905 230.385 Q 141.348 229.71 142.248 229.305 L 142.248 229.305 L 142.248 229.305 Q 143.148 228.9 144.483 228.9 L 144.483 228.9 L 144.483 228.9 Q 145.413 228.9 146.313 229.14 L 146.313 229.14 L 146.313 229.14 Q 147.213 229.38 147.858 229.83 L 147.858 229.83 L 147.363 231.03 L 147.363 231.03 Q 146.703 230.61 145.953 230.393 L 145.953 230.393 L 145.953 230.393 Q 145.203 230.175 144.483 230.175 L 144.483 230.175 L 144.483 230.175 Q 143.208 230.175 142.57 230.64 L 142.57 230.64 L 142.57 230.64 Q 141.933 231.105 141.933 231.84 L 141.933 231.84 L 141.933 231.84 Q 141.933 232.38 142.293 232.718 L 142.293 232.718 L 142.293 232.718 Q 142.653 233.055 143.185 233.243 L 143.185 233.243 L 143.185 233.243 Q 143.718 233.43 144.633 233.64 L 144.633 233.64 L 144.633 233.64 Q 145.818 233.925 146.538 234.21 L 146.538 234.21 L 146.538 234.21 Q 147.258 234.495 147.775 235.08 L 147.775 235.08 L 147.775 235.08 Q 148.293 235.665 148.293 236.655 L 148.293 236.655 L 148.293 236.655 Q 148.293 237.48 147.843 238.163 L 147.843 238.163 L 147.843 238.163 Q 147.393 238.845 146.478 239.243 L 146.478 239.243 L 146.478 239.243 Q 145.563 239.64 144.228 239.64 L 144.228 239.64 L 144.228 239.64 Z  M 154.293 238.02 L 154.743 239.055 L 154.743 239.055 Q 154.428 239.325 153.963 239.468 L 153.963 239.468 L 153.963 239.468 Q 153.498 239.61 153.003 239.61 L 153.003 239.61 L 153.003 239.61 Q 151.803 239.61 151.143 238.965 L 151.143 238.965 L 151.143 238.965 Q 150.483 238.32 150.483 237.12 L 150.483 237.12 L 150.483 232.755 L 149.133 232.755 L 149.133 231.57 L 150.483 231.57 L 150.483 229.83 L 151.923 229.83 L 151.923 231.57 L 154.203 231.57 L 154.203 232.755 L 151.923 232.755 L 151.923 237.06 L 151.923 237.06 Q 151.923 237.705 152.245 238.05 L 152.245 238.05 L 152.245 238.05 Q 152.568 238.395 153.168 238.395 L 153.168 238.395 L 153.168 238.395 Q 153.828 238.395 154.293 238.02 L 154.293 238.02 L 154.293 238.02 Z  M 156.483 239.52 L 156.483 231.57 L 157.923 231.57 L 157.923 239.52 L 156.483 239.52 L 156.483 239.52 Z  M 157.203 230.04 L 157.203 230.04 Q 156.783 230.04 156.505 229.77 L 156.505 229.77 L 156.505 229.77 Q 156.228 229.5 156.228 229.11 L 156.228 229.11 L 156.228 229.11 Q 156.228 228.72 156.505 228.443 L 156.505 228.443 L 156.505 228.443 Q 156.783 228.165 157.203 228.165 L 157.203 228.165 L 157.203 228.165 Q 157.623 228.165 157.9 228.428 L 157.9 228.428 L 157.9 228.428 Q 158.178 228.69 158.178 229.08 L 158.178 229.08 L 158.178 229.08 Q 158.178 229.485 157.9 229.763 L 157.9 229.763 L 157.9 229.763 Q 157.623 230.04 157.203 230.04 L 157.203 230.04 L 157.203 230.04 Z  M 160.668 239.52 L 160.668 228.39 L 162.108 228.39 L 162.108 239.52 L 160.668 239.52 L 160.668 239.52 Z  M 164.853 239.52 L 164.853 228.39 L 166.293 228.39 L 166.293 239.52 L 164.853 239.52 L 164.853 239.52 Z " fill="rgb(54,73,221)"/></g></svg>