<?xml version="1.0" encoding="UTF-8" standalone="no"?><!-- Generator: Gravit.io --><svg xmlns="http://www.w3.org/2000/svg" xmlns:xlink="http://www.w3.org/1999/xlink" style="isolation:isolate" viewBox="0 0 200 360" width="200pt" height="360pt"><defs><clipPath id="_clipPath_BvtRcSNnVJuksGKnzdhRoIsnp87rN0GL"><rect width="200" height="360"/></clipPath></defs><g clip-path="url(#_clipPath_BvtRcSNnVJuksGKnzdhRoIsnp87rN0GL)"><rect x="0" y="0" width="200" height="360" transform="matrix(1,0,0,1,0,0)" fill="rgb(54,54,54)"/><rect x="0" y="0" width="200" height="40" transform="matrix(1,0,0,1,0,0)" fill="rgb(54,54,54)"/><path d=" M 19.712 14.288 L 21.312 14.288 L 21.312 25.488 L 20 25.488 L 13.28 17.136 L 13.28 25.488 L 11.68 25.488 L 11.68 14.288 L 12.992 14.288 L 19.712 22.64 L 19.712 14.288 L 19.712 14.288 Z  M 32.112 21.296 L 32.112 21.296 Q 32.112 21.472 32.08 21.76 L 32.08 21.76 L 25.2 21.76 L 25.2 21.76 Q 25.344 22.88 26.184 23.56 L 26.184 23.56 L 26.184 23.56 Q 27.024 24.24 28.272 24.24 L 28.272 24.24 L 28.272 24.24 Q 29.792 24.24 30.72 23.216 L 30.72 23.216 L 31.568 24.208 L 31.568 24.208 Q 30.992 24.88 30.136 25.232 L 30.136 25.232 L 30.136 25.232 Q 29.28 25.584 28.224 25.584 L 28.224 25.584 L 28.224 25.584 Q 26.88 25.584 25.84 25.032 L 25.84 25.032 L 25.84 25.032 Q 24.8 24.48 24.232 23.488 L 24.232 23.488 L 24.232 23.488 Q 23.664 22.496 23.664 21.248 L 23.664 21.248 L 23.664 21.248 Q 23.664 20.016 24.216 19.024 L 24.216 19.024 L 24.216 19.024 Q 24.768 18.032 25.736 17.48 L 25.736 17.48 L 25.736 17.48 Q 26.704 16.928 27.92 16.928 L 27.92 16.928 L 27.92 16.928 Q 29.136 16.928 30.088 17.48 L 30.088 17.48 L 30.088 17.48 Q 31.04 18.032 31.576 19.024 L 31.576 19.024 L 31.576 19.024 Q 32.112 20.016 32.112 21.296 L 32.112 21.296 L 32.112 21.296 Z  M 27.92 18.224 L 27.92 18.224 Q 26.816 18.224 26.072 18.896 L 26.072 18.896 L 26.072 18.896 Q 25.328 19.568 25.2 20.656 L 25.2 20.656 L 30.64 20.656 L 30.64 20.656 Q 30.512 19.584 29.768 18.904 L 29.768 18.904 L 29.768 18.904 Q 29.024 18.224 27.92 18.224 L 27.92 18.224 L 27.92 18.224 Z  M 45.536 17.008 L 46.912 17.008 L 43.744 25.488 L 42.272 25.488 L 39.824 19.056 L 37.344 25.488 L 35.872 25.488 L 32.72 17.008 L 34.176 17.008 L 36.64 23.76 L 39.2 17.008 L 40.496 17.008 L 43.008 23.792 L 45.536 17.008 L 45.536 17.008 Z " fill="rgb(255,255,255)"/><rect x="0" y="40" width="200" height="40" transform="matrix(1,0,0,1,0,0)" fill="rgb(54,54,54)"/><path d=" M 13.28 64.096 L 19.808 64.096 L 19.808 65.488 L 11.68 65.488 L 11.68 54.288 L 19.584 54.288 L 19.584 55.68 L 13.28 55.68 L 13.28 59.12 L 18.896 59.12 L 18.896 60.48 L 13.28 60.48 L 13.28 64.096 L 13.28 64.096 Z  M 29.136 65.488 L 27.392 65.488 L 24.944 62.24 L 22.464 65.488 L 20.752 65.488 L 24.096 61.152 L 20.912 57.008 L 22.624 57.008 L 24.96 60.064 L 27.28 57.008 L 28.96 57.008 L 25.76 61.152 L 29.136 65.488 L 29.136 65.488 Z  M 35.312 56.928 L 35.312 56.928 Q 36.544 56.928 37.52 57.472 L 37.52 57.472 L 37.52 57.472 Q 38.496 58.016 39.048 58.992 L 39.048 58.992 L 39.048 58.992 Q 39.6 59.968 39.6 61.248 L 39.6 61.248 L 39.6 61.248 Q 39.6 62.528 39.048 63.512 L 39.048 63.512 L 39.048 63.512 Q 38.496 64.496 37.52 65.04 L 37.52 65.04 L 37.52 65.04 Q 36.544 65.584 35.312 65.584 L 35.312 65.584 L 35.312 65.584 Q 34.4 65.584 33.64 65.232 L 33.64 65.232 L 33.64 65.232 Q 32.88 64.88 32.352 64.208 L 32.352 64.208 L 32.352 68.592 L 30.816 68.592 L 30.816 57.008 L 32.288 57.008 L 32.288 58.352 L 32.288 58.352 Q 32.8 57.648 33.584 57.288 L 33.584 57.288 L 33.584 57.288 Q 34.368 56.928 35.312 56.928 L 35.312 56.928 L 35.312 56.928 Z  M 35.184 64.24 L 35.184 64.24 Q 36 64.24 36.648 63.864 L 36.648 63.864 L 36.648 63.864 Q 37.296 63.488 37.672 62.808 L 37.672 62.808 L 37.672 62.808 Q 38.048 62.128 38.048 61.248 L 38.048 61.248 L 38.048 61.248 Q 38.048 60.368 37.672 59.688 L 37.672 59.688 L 37.672 59.688 Q 37.296 59.008 36.648 58.64 L 36.648 58.64 L 36.648 58.64 Q 36 58.272 35.184 58.272 L 35.184 58.272 L 35.184 58.272 Q 34.384 58.272 33.736 58.648 L 33.736 58.648 L 33.736 58.648 Q 33.088 59.024 32.712 59.696 L 32.712 59.696 L 32.712 59.696 Q 32.336 60.368 32.336 61.248 L 32.336 61.248 L 32.336 61.248 Q 32.336 62.128 32.704 62.808 L 32.704 62.808 L 32.704 62.808 Q 33.072 63.488 33.728 63.864 L 33.728 63.864 L 33.728 63.864 Q 34.384 64.24 35.184 64.24 L 35.184 64.24 L 35.184 64.24 Z  M 45.36 65.584 L 45.36 65.584 Q 44.096 65.584 43.088 65.024 L 43.088 65.024 L 43.088 65.024 Q 42.08 64.464 41.512 63.48 L 41.512 63.48 L 41.512 63.48 Q 40.944 62.496 40.944 61.248 L 40.944 61.248 L 40.944 61.248 Q 40.944 60 41.512 59.016 L 41.512 59.016 L 41.512 59.016 Q 42.08 58.032 43.088 57.48 L 43.088 57.48 L 43.088 57.48 Q 44.096 56.928 45.36 56.928 L 45.36 56.928 L 45.36 56.928 Q 46.624 56.928 47.624 57.48 L 47.624 57.48 L 47.624 57.48 Q 48.624 58.032 49.192 59.016 L 49.192 59.016 L 49.192 59.016 Q 49.76 60 49.76 61.248 L 49.76 61.248 L 49.76 61.248 Q 49.76 62.496 49.192 63.48 L 49.192 63.48 L 49.192 63.48 Q 48.624 64.464 47.624 65.024 L 47.624 65.024 L 47.624 65.024 Q 46.624 65.584 45.36 65.584 L 45.36 65.584 L 45.36 65.584 Z  M 45.36 64.24 L 45.36 64.24 Q 46.176 64.24 46.824 63.864 L 46.824 63.864 L 46.824 63.864 Q 47.472 63.488 47.84 62.808 L 47.84 62.808 L 47.84 62.808 Q 48.208 62.128 48.208 61.248 L 48.208 61.248 L 48.208 61.248 Q 48.208 60.368 47.84 59.688 L 47.84 59.688 L 47.84 59.688 Q 47.472 59.008 46.824 58.64 L 46.824 58.64 L 46.824 58.64 Q 46.176 58.272 45.36 58.272 L 45.36 58.272 L 45.36 58.272 Q 44.544 58.272 43.896 58.64 L 43.896 58.64 L 43.896 58.64 Q 43.248 59.008 42.872 59.688 L 42.872 59.688 L 42.872 59.688 Q 42.496 60.368 42.496 61.248 L 42.496 61.248 L 42.496 61.248 Q 42.496 62.128 42.872 62.808 L 42.872 62.808 L 42.872 62.808 Q 43.248 63.488 43.896 63.864 L 43.896 63.864 L 43.896 63.864 Q 44.544 64.24 45.36 64.24 L 45.36 64.24 L 45.36 64.24 Z  M 53.36 58.432 L 53.36 58.432 Q 53.76 57.696 54.544 57.312 L 54.544 57.312 L 54.544 57.312 Q 55.328 56.928 56.448 56.928 L 56.448 56.928 L 56.448 58.416 L 56.448 58.416 Q 56.32 58.4 56.096 58.4 L 56.096 58.4 L 56.096 58.4 Q 54.848 58.4 54.136 59.144 L 54.136 59.144 L 54.136 59.144 Q 53.424 59.888 53.424 61.264 L 53.424 61.264 L 53.424 65.488 L 51.888 65.488 L 51.888 57.008 L 53.36 57.008 L 53.36 58.432 L 53.36 58.432 Z  M 62.976 63.888 L 63.456 64.992 L 63.456 64.992 Q 63.12 65.28 62.624 65.432 L 62.624 65.432 L 62.624 65.432 Q 62.128 65.584 61.6 65.584 L 61.6 65.584 L 61.6 65.584 Q 60.32 65.584 59.616 64.896 L 59.616 64.896 L 59.616 64.896 Q 58.912 64.208 58.912 62.928 L 58.912 62.928 L 58.912 58.272 L 57.472 58.272 L 57.472 57.008 L 58.912 57.008 L 58.912 55.152 L 60.448 55.152 L 60.448 57.008 L 62.88 57.008 L 62.88 58.272 L 60.448 58.272 L 60.448 62.864 L 60.448 62.864 Q 60.448 63.552 60.792 63.92 L 60.792 63.92 L 60.792 63.92 Q 61.136 64.288 61.776 64.288 L 61.776 64.288 L 61.776 64.288 Q 62.48 64.288 62.976 63.888 L 62.976 63.888 L 62.976 63.888 Z " fill="rgb(255,255,255)"/><rect x="0" y="80" width="200" height="40" transform="matrix(1,0,0,1,0,0)" fill="rgb(54,54,54)"/><path d=" M 11.68 105.488 L 11.68 94.288 L 13.28 94.288 L 13.28 105.488 L 11.68 105.488 L 11.68 105.488 Z  M 27.024 96.928 L 27.024 96.928 Q 28.624 96.928 29.56 97.856 L 29.56 97.856 L 29.56 97.856 Q 30.496 98.784 30.496 100.608 L 30.496 100.608 L 30.496 105.488 L 28.96 105.488 L 28.96 100.784 L 28.96 100.784 Q 28.96 99.552 28.392 98.928 L 28.392 98.928 L 28.392 98.928 Q 27.824 98.304 26.768 98.304 L 26.768 98.304 L 26.768 98.304 Q 25.6 98.304 24.912 99.032 L 24.912 99.032 L 24.912 99.032 Q 24.224 99.76 24.224 101.12 L 24.224 101.12 L 24.224 105.488 L 22.688 105.488 L 22.688 100.784 L 22.688 100.784 Q 22.688 99.552 22.12 98.928 L 22.12 98.928 L 22.12 98.928 Q 21.552 98.304 20.496 98.304 L 20.496 98.304 L 20.496 98.304 Q 19.328 98.304 18.64 99.032 L 18.64 99.032 L 18.64 99.032 Q 17.952 99.76 17.952 101.12 L 17.952 101.12 L 17.952 105.488 L 16.416 105.488 L 16.416 97.008 L 17.888 97.008 L 17.888 98.272 L 17.888 98.272 Q 18.352 97.616 19.104 97.272 L 19.104 97.272 L 19.104 97.272 Q 19.856 96.928 20.816 96.928 L 20.816 96.928 L 20.816 96.928 Q 21.808 96.928 22.576 97.328 L 22.576 97.328 L 22.576 97.328 Q 23.344 97.728 23.76 98.496 L 23.76 98.496 L 23.76 98.496 Q 24.24 97.76 25.096 97.344 L 25.096 97.344 L 25.096 97.344 Q 25.952 96.928 27.024 96.928 L 27.024 96.928 L 27.024 96.928 Z  M 37.824 96.928 L 37.824 96.928 Q 39.056 96.928 40.032 97.472 L 40.032 97.472 L 40.032 97.472 Q 41.008 98.016 41.56 98.992 L 41.56 98.992 L 41.56 98.992 Q 42.112 99.968 42.112 101.248 L 42.112 101.248 L 42.112 101.248 Q 42.112 102.528 41.56 103.512 L 41.56 103.512 L 41.56 103.512 Q 41.008 104.496 40.032 105.04 L 40.032 105.04 L 40.032 105.04 Q 39.056 105.584 37.824 105.584 L 37.824 105.584 L 37.824 105.584 Q 36.912 105.584 36.152 105.232 L 36.152 105.232 L 36.152 105.232 Q 35.392 104.88 34.864 104.208 L 34.864 104.208 L 34.864 108.592 L 33.328 108.592 L 33.328 97.008 L 34.8 97.008 L 34.8 98.352 L 34.8 98.352 Q 35.312 97.648 36.096 97.288 L 36.096 97.288 L 36.096 97.288 Q 36.88 96.928 37.824 96.928 L 37.824 96.928 L 37.824 96.928 Z  M 37.696 104.24 L 37.696 104.24 Q 38.512 104.24 39.16 103.864 L 39.16 103.864 L 39.16 103.864 Q 39.808 103.488 40.184 102.808 L 40.184 102.808 L 40.184 102.808 Q 40.56 102.128 40.56 101.248 L 40.56 101.248 L 40.56 101.248 Q 40.56 100.368 40.184 99.688 L 40.184 99.688 L 40.184 99.688 Q 39.808 99.008 39.16 98.64 L 39.16 98.64 L 39.16 98.64 Q 38.512 98.272 37.696 98.272 L 37.696 98.272 L 37.696 98.272 Q 36.896 98.272 36.248 98.648 L 36.248 98.648 L 36.248 98.648 Q 35.6 99.024 35.224 99.696 L 35.224 99.696 L 35.224 99.696 Q 34.848 100.368 34.848 101.248 L 34.848 101.248 L 34.848 101.248 Q 34.848 102.128 35.216 102.808 L 35.216 102.808 L 35.216 102.808 Q 35.584 103.488 36.24 103.864 L 36.24 103.864 L 36.24 103.864 Q 36.896 104.24 37.696 104.24 L 37.696 104.24 L 37.696 104.24 Z  M 47.872 105.584 L 47.872 105.584 Q 46.608 105.584 45.6 105.024 L 45.6 105.024 L 45.6 105.024 Q 44.592 104.464 44.024 103.48 L 44.024 103.48 L 44.024 103.48 Q 43.456 102.496 43.456 101.248 L 43.456 101.248 L 43.456 101.248 Q 43.456 100 44.024 99.016 L 44.024 99.016 L 44.024 99.016 Q 44.592 98.032 45.6 97.48 L 45.6 97.48 L 45.6 97.48 Q 46.608 96.928 47.872 96.928 L 47.872 96.928 L 47.872 96.928 Q 49.136 96.928 50.136 97.48 L 50.136 97.48 L 50.136 97.48 Q 51.136 98.032 51.704 99.016 L 51.704 99.016 L 51.704 99.016 Q 52.272 100 52.272 101.248 L 52.272 101.248 L 52.272 101.248 Q 52.272 102.496 51.704 103.48 L 51.704 103.48 L 51.704 103.48 Q 51.136 104.464 50.136 105.024 L 50.136 105.024 L 50.136 105.024 Q 49.136 105.584 47.872 105.584 L 47.872 105.584 L 47.872 105.584 Z  M 47.872 104.24 L 47.872 104.24 Q 48.688 104.24 49.336 103.864 L 49.336 103.864 L 49.336 103.864 Q 49.984 103.488 50.352 102.808 L 50.352 102.808 L 50.352 102.808 Q 50.72 102.128 50.72 101.248 L 50.72 101.248 L 50.72 101.248 Q 50.72 100.368 50.352 99.688 L 50.352 99.688 L 50.352 99.688 Q 49.984 99.008 49.336 98.64 L 49.336 98.64 L 49.336 98.64 Q 48.688 98.272 47.872 98.272 L 47.872 98.272 L 47.872 98.272 Q 47.056 98.272 46.408 98.64 L 46.408 98.64 L 46.408 98.64 Q 45.76 99.008 45.384 99.688 L 45.384 99.688 L 45.384 99.688 Q 45.008 100.368 45.008 101.248 L 45.008 101.248 L 45.008 101.248 Q 45.008 102.128 45.384 102.808 L 45.384 102.808 L 45.384 102.808 Q 45.76 103.488 46.408 103.864 L 46.408 103.864 L 46.408 103.864 Q 47.056 104.24 47.872 104.24 L 47.872 104.24 L 47.872 104.24 Z  M 55.872 98.432 L 55.872 98.432 Q 56.272 97.696 57.056 97.312 L 57.056 97.312 L 57.056 97.312 Q 57.84 96.928 58.96 96.928 L 58.96 96.928 L 58.96 98.416 L 58.96 98.416 Q 58.832 98.4 58.608 98.4 L 58.608 98.4 L 58.608 98.4 Q 57.36 98.4 56.648 99.144 L 56.648 99.144 L 56.648 99.144 Q 55.936 99.888 55.936 101.264 L 55.936 101.264 L 55.936 105.488 L 54.4 105.488 L 54.4 97.008 L 55.872 97.008 L 55.872 98.432 L 55.872 98.432 Z  M 65.488 103.888 L 65.968 104.992 L 65.968 104.992 Q 65.632 105.28 65.136 105.432 L 65.136 105.432 L 65.136 105.432 Q 64.64 105.584 64.112 105.584 L 64.112 105.584 L 64.112 105.584 Q 62.832 105.584 62.128 104.896 L 62.128 104.896 L 62.128 104.896 Q 61.424 104.208 61.424 102.928 L 61.424 102.928 L 61.424 98.272 L 59.984 98.272 L 59.984 97.008 L 61.424 97.008 L 61.424 95.152 L 62.96 95.152 L 62.96 97.008 L 65.392 97.008 L 65.392 98.272 L 62.96 98.272 L 62.96 102.864 L 62.96 102.864 Q 62.96 103.552 63.304 103.92 L 63.304 103.92 L 63.304 103.92 Q 63.648 104.288 64.288 104.288 L 64.288 104.288 L 64.288 104.288 Q 64.992 104.288 65.488 103.888 L 65.488 103.888 L 65.488 103.888 Z " fill="rgb(255,255,255)"/><rect x="0" y="120" width="200" height="40" transform="matrix(1,0,0,1,0,0)" fill="rgb(54,54,54)"/><path d=" M 19.808 134.288 L 21.408 134.288 L 16.496 145.488 L 14.912 145.488 L 9.984 134.288 L 11.712 134.288 L 15.744 143.488 L 19.808 134.288 L 19.808 134.288 Z  M 29.632 141.296 L 29.632 141.296 Q 29.632 141.472 29.6 141.76 L 29.6 141.76 L 22.72 141.76 L 22.72 141.76 Q 22.864 142.88 23.704 143.56 L 23.704 143.56 L 23.704 143.56 Q 24.544 144.24 25.792 144.24 L 25.792 144.24 L 25.792 144.24 Q 27.312 144.24 28.24 143.216 L 28.24 143.216 L 29.088 144.208 L 29.088 144.208 Q 28.512 144.88 27.656 145.232 L 27.656 145.232 L 27.656 145.232 Q 26.8 145.584 25.744 145.584 L 25.744 145.584 L 25.744 145.584 Q 24.4 145.584 23.36 145.032 L 23.36 145.032 L 23.36 145.032 Q 22.32 144.48 21.752 143.488 L 21.752 143.488 L 21.752 143.488 Q 21.184 142.496 21.184 141.248 L 21.184 141.248 L 21.184 141.248 Q 21.184 140.016 21.736 139.024 L 21.736 139.024 L 21.736 139.024 Q 22.288 138.032 23.256 137.48 L 23.256 137.48 L 23.256 137.48 Q 24.224 136.928 25.44 136.928 L 25.44 136.928 L 25.44 136.928 Q 26.656 136.928 27.608 137.48 L 27.608 137.48 L 27.608 137.48 Q 28.56 138.032 29.096 139.024 L 29.096 139.024 L 29.096 139.024 Q 29.632 140.016 29.632 141.296 L 29.632 141.296 L 29.632 141.296 Z  M 25.44 138.224 L 25.44 138.224 Q 24.336 138.224 23.592 138.896 L 23.592 138.896 L 23.592 138.896 Q 22.848 139.568 22.72 140.656 L 22.72 140.656 L 28.16 140.656 L 28.16 140.656 Q 28.032 139.584 27.288 138.904 L 27.288 138.904 L 27.288 138.904 Q 26.544 138.224 25.44 138.224 L 25.44 138.224 L 25.44 138.224 Z  M 33.232 138.432 L 33.232 138.432 Q 33.632 137.696 34.416 137.312 L 34.416 137.312 L 34.416 137.312 Q 35.2 136.928 36.32 136.928 L 36.32 136.928 L 36.32 138.416 L 36.32 138.416 Q 36.192 138.4 35.968 138.4 L 35.968 138.4 L 35.968 138.4 Q 34.72 138.4 34.008 139.144 L 34.008 139.144 L 34.008 139.144 Q 33.296 139.888 33.296 141.264 L 33.296 141.264 L 33.296 145.488 L 31.76 145.488 L 31.76 137.008 L 33.232 137.008 L 33.232 138.432 L 33.232 138.432 Z  M 40.704 145.584 L 40.704 145.584 Q 39.664 145.584 38.704 145.304 L 38.704 145.304 L 38.704 145.304 Q 37.744 145.024 37.2 144.592 L 37.2 144.592 L 37.84 143.376 L 37.84 143.376 Q 38.4 143.776 39.2 144.016 L 39.2 144.016 L 39.2 144.016 Q 40 144.256 40.816 144.256 L 40.816 144.256 L 40.816 144.256 Q 42.832 144.256 42.832 143.104 L 42.832 143.104 L 42.832 143.104 Q 42.832 142.72 42.56 142.496 L 42.56 142.496 L 42.56 142.496 Q 42.288 142.272 41.88 142.168 L 41.88 142.168 L 41.88 142.168 Q 41.472 142.064 40.72 141.936 L 40.72 141.936 L 40.72 141.936 Q 39.696 141.776 39.048 141.568 L 39.048 141.568 L 39.048 141.568 Q 38.4 141.36 37.936 140.864 L 37.936 140.864 L 37.936 140.864 Q 37.472 140.368 37.472 139.472 L 37.472 139.472 L 37.472 139.472 Q 37.472 138.32 38.432 137.624 L 38.432 137.624 L 38.432 137.624 Q 39.392 136.928 41.008 136.928 L 41.008 136.928 L 41.008 136.928 Q 41.856 136.928 42.704 137.136 L 42.704 137.136 L 42.704 137.136 Q 43.552 137.344 44.096 137.696 L 44.096 137.696 L 43.44 138.912 L 43.44 138.912 Q 42.4 138.24 40.992 138.24 L 40.992 138.24 L 40.992 138.24 Q 40.016 138.24 39.504 138.56 L 39.504 138.56 L 39.504 138.56 Q 38.992 138.88 38.992 139.408 L 38.992 139.408 L 38.992 139.408 Q 38.992 139.824 39.28 140.064 L 39.28 140.064 L 39.28 140.064 Q 39.568 140.304 39.992 140.416 L 39.992 140.416 L 39.992 140.416 Q 40.416 140.528 41.184 140.672 L 41.184 140.672 L 41.184 140.672 Q 42.208 140.848 42.84 141.048 L 42.84 141.048 L 42.84 141.048 Q 43.472 141.248 43.92 141.728 L 43.92 141.728 L 43.92 141.728 Q 44.368 142.208 44.368 143.072 L 44.368 143.072 L 44.368 143.072 Q 44.368 144.224 43.384 144.904 L 43.384 144.904 L 43.384 144.904 Q 42.4 145.584 40.704 145.584 L 40.704 145.584 L 40.704 145.584 Z  M 46.288 145.488 L 46.288 137.008 L 47.824 137.008 L 47.824 145.488 L 46.288 145.488 L 46.288 145.488 Z  M 47.056 135.376 L 47.056 135.376 Q 46.608 135.376 46.312 135.088 L 46.312 135.088 L 46.312 135.088 Q 46.016 134.8 46.016 134.384 L 46.016 134.384 L 46.016 134.384 Q 46.016 133.968 46.312 133.672 L 46.312 133.672 L 46.312 133.672 Q 46.608 133.376 47.056 133.376 L 47.056 133.376 L 47.056 133.376 Q 47.504 133.376 47.8 133.656 L 47.8 133.656 L 47.8 133.656 Q 48.096 133.936 48.096 134.352 L 48.096 134.352 L 48.096 134.352 Q 48.096 134.784 47.8 135.08 L 47.8 135.08 L 47.8 135.08 Q 47.504 135.376 47.056 135.376 L 47.056 135.376 L 47.056 135.376 Z  M 54.384 145.584 L 54.384 145.584 Q 53.12 145.584 52.112 145.024 L 52.112 145.024 L 52.112 145.024 Q 51.104 144.464 50.536 143.48 L 50.536 143.48 L 50.536 143.48 Q 49.968 142.496 49.968 141.248 L 49.968 141.248 L 49.968 141.248 Q 49.968 140 50.536 139.016 L 50.536 139.016 L 50.536 139.016 Q 51.104 138.032 52.112 137.48 L 52.112 137.48 L 52.112 137.48 Q 53.12 136.928 54.384 136.928 L 54.384 136.928 L 54.384 136.928 Q 55.648 136.928 56.648 137.48 L 56.648 137.48 L 56.648 137.48 Q 57.648 138.032 58.216 139.016 L 58.216 139.016 L 58.216 139.016 Q 58.784 140 58.784 141.248 L 58.784 141.248 L 58.784 141.248 Q 58.784 142.496 58.216 143.48 L 58.216 143.48 L 58.216 143.48 Q 57.648 144.464 56.648 145.024 L 56.648 145.024 L 56.648 145.024 Q 55.648 145.584 54.384 145.584 L 54.384 145.584 L 54.384 145.584 Z  M 54.384 144.24 L 54.384 144.24 Q 55.2 144.24 55.848 143.864 L 55.848 143.864 L 55.848 143.864 Q 56.496 143.488 56.864 142.808 L 56.864 142.808 L 56.864 142.808 Q 57.232 142.128 57.232 141.248 L 57.232 141.248 L 57.232 141.248 Q 57.232 140.368 56.864 139.688 L 56.864 139.688 L 56.864 139.688 Q 56.496 139.008 55.848 138.64 L 55.848 138.64 L 55.848 138.64 Q 55.2 138.272 54.384 138.272 L 54.384 138.272 L 54.384 138.272 Q 53.568 138.272 52.92 138.64 L 52.92 138.64 L 52.92 138.64 Q 52.272 139.008 51.896 139.688 L 51.896 139.688 L 51.896 139.688 Q 51.52 140.368 51.52 141.248 L 51.52 141.248 L 51.52 141.248 Q 51.52 142.128 51.896 142.808 L 51.896 142.808 L 51.896 142.808 Q 52.272 143.488 52.92 143.864 L 52.92 143.864 L 52.92 143.864 Q 53.568 144.24 54.384 144.24 L 54.384 144.24 L 54.384 144.24 Z  M 65.44 136.928 L 65.44 136.928 Q 67.056 136.928 68.008 137.864 L 68.008 137.864 L 68.008 137.864 Q 68.96 138.8 68.96 140.608 L 68.96 140.608 L 68.96 145.488 L 67.424 145.488 L 67.424 140.784 L 67.424 140.784 Q 67.424 139.552 66.832 138.928 L 66.832 138.928 L 66.832 138.928 Q 66.24 138.304 65.136 138.304 L 65.136 138.304 L 65.136 138.304 Q 63.888 138.304 63.168 139.032 L 63.168 139.032 L 63.168 139.032 Q 62.448 139.76 62.448 141.12 L 62.448 141.12 L 62.448 145.488 L 60.912 145.488 L 60.912 137.008 L 62.384 137.008 L 62.384 138.288 L 62.384 138.288 Q 62.848 137.632 63.64 137.28 L 63.64 137.28 L 63.64 137.28 Q 64.432 136.928 65.44 136.928 L 65.44 136.928 L 65.44 136.928 Z " fill="rgb(255,255,255)"/><rect x="0" y="160" width="200" height="40" transform="matrix(1,0,0,1,0,0)" fill="rgb(54,54,54)"/><path d=" M 16.688 185.616 L 16.688 185.616 Q 15.008 185.616 13.656 184.872 L 13.656 184.872 L 13.656 184.872 Q 12.304 184.128 11.536 182.824 L 11.536 182.824 L 11.536 182.824 Q 10.768 181.52 10.768 179.888 L 10.768 179.888 L 10.768 179.888 Q 10.768 178.256 11.536 176.952 L 11.536 176.952 L 11.536 176.952 Q 12.304 175.648 13.664 174.904 L 13.664 174.904 L 13.664 174.904 Q 15.024 174.16 16.704 174.16 L 16.704 174.16 L 16.704 174.16 Q 18.016 174.16 19.104 174.6 L 19.104 174.6 L 19.104 174.6 Q 20.192 175.04 20.96 175.904 L 20.96 175.904 L 19.92 176.912 L 19.92 176.912 Q 18.656 175.584 16.768 175.584 L 16.768 175.584 L 16.768 175.584 Q 15.52 175.584 14.512 176.144 L 14.512 176.144 L 14.512 176.144 Q 13.504 176.704 12.936 177.688 L 12.936 177.688 L 12.936 177.688 Q 12.368 178.672 12.368 179.888 L 12.368 179.888 L 12.368 179.888 Q 12.368 181.104 12.936 182.088 L 12.936 182.088 L 12.936 182.088 Q 13.504 183.072 14.512 183.632 L 14.512 183.632 L 14.512 183.632 Q 15.52 184.192 16.768 184.192 L 16.768 184.192 L 16.768 184.192 Q 18.64 184.192 19.92 182.848 L 19.92 182.848 L 20.96 183.856 L 20.96 183.856 Q 20.192 184.72 19.096 185.168 L 19.096 185.168 L 19.096 185.168 Q 18 185.616 16.688 185.616 L 16.688 185.616 L 16.688 185.616 Z  M 24.496 178.432 L 24.496 178.432 Q 24.896 177.696 25.68 177.312 L 25.68 177.312 L 25.68 177.312 Q 26.464 176.928 27.584 176.928 L 27.584 176.928 L 27.584 178.416 L 27.584 178.416 Q 27.456 178.4 27.232 178.4 L 27.232 178.4 L 27.232 178.4 Q 25.984 178.4 25.272 179.144 L 25.272 179.144 L 25.272 179.144 Q 24.56 179.888 24.56 181.264 L 24.56 181.264 L 24.56 185.488 L 23.024 185.488 L 23.024 177.008 L 24.496 177.008 L 24.496 178.432 L 24.496 178.432 Z  M 37.056 181.296 L 37.056 181.296 Q 37.056 181.472 37.024 181.76 L 37.024 181.76 L 30.144 181.76 L 30.144 181.76 Q 30.288 182.88 31.128 183.56 L 31.128 183.56 L 31.128 183.56 Q 31.968 184.24 33.216 184.24 L 33.216 184.24 L 33.216 184.24 Q 34.736 184.24 35.664 183.216 L 35.664 183.216 L 36.512 184.208 L 36.512 184.208 Q 35.936 184.88 35.08 185.232 L 35.08 185.232 L 35.08 185.232 Q 34.224 185.584 33.168 185.584 L 33.168 185.584 L 33.168 185.584 Q 31.824 185.584 30.784 185.032 L 30.784 185.032 L 30.784 185.032 Q 29.744 184.48 29.176 183.488 L 29.176 183.488 L 29.176 183.488 Q 28.608 182.496 28.608 181.248 L 28.608 181.248 L 28.608 181.248 Q 28.608 180.016 29.16 179.024 L 29.16 179.024 L 29.16 179.024 Q 29.712 178.032 30.68 177.48 L 30.68 177.48 L 30.68 177.48 Q 31.648 176.928 32.864 176.928 L 32.864 176.928 L 32.864 176.928 Q 34.08 176.928 35.032 177.48 L 35.032 177.48 L 35.032 177.48 Q 35.984 178.032 36.52 179.024 L 36.52 179.024 L 36.52 179.024 Q 37.056 180.016 37.056 181.296 L 37.056 181.296 L 37.056 181.296 Z  M 32.864 178.224 L 32.864 178.224 Q 31.76 178.224 31.016 178.896 L 31.016 178.896 L 31.016 178.896 Q 30.272 179.568 30.144 180.656 L 30.144 180.656 L 35.584 180.656 L 35.584 180.656 Q 35.456 179.584 34.712 178.904 L 34.712 178.904 L 34.712 178.904 Q 33.968 178.224 32.864 178.224 L 32.864 178.224 L 32.864 178.224 Z  M 45.648 173.616 L 47.184 173.616 L 47.184 185.488 L 45.712 185.488 L 45.712 184.144 L 45.712 184.144 Q 45.2 184.848 44.416 185.216 L 44.416 185.216 L 44.416 185.216 Q 43.632 185.584 42.688 185.584 L 42.688 185.584 L 42.688 185.584 Q 41.456 185.584 40.48 185.04 L 40.48 185.04 L 40.48 185.04 Q 39.504 184.496 38.952 183.512 L 38.952 183.512 L 38.952 183.512 Q 38.4 182.528 38.4 181.248 L 38.4 181.248 L 38.4 181.248 Q 38.4 179.968 38.952 178.992 L 38.952 178.992 L 38.952 178.992 Q 39.504 178.016 40.48 177.472 L 40.48 177.472 L 40.48 177.472 Q 41.456 176.928 42.688 176.928 L 42.688 176.928 L 42.688 176.928 Q 43.6 176.928 44.368 177.272 L 44.368 177.272 L 44.368 177.272 Q 45.136 177.616 45.648 178.288 L 45.648 178.288 L 45.648 173.616 L 45.648 173.616 Z  M 42.816 184.24 L 42.816 184.24 Q 43.616 184.24 44.272 183.864 L 44.272 183.864 L 44.272 183.864 Q 44.928 183.488 45.296 182.808 L 45.296 182.808 L 45.296 182.808 Q 45.664 182.128 45.664 181.248 L 45.664 181.248 L 45.664 181.248 Q 45.664 180.368 45.296 179.688 L 45.296 179.688 L 45.296 179.688 Q 44.928 179.008 44.272 178.64 L 44.272 178.64 L 44.272 178.64 Q 43.616 178.272 42.816 178.272 L 42.816 178.272 L 42.816 178.272 Q 42 178.272 41.352 178.64 L 41.352 178.64 L 41.352 178.64 Q 40.704 179.008 40.328 179.688 L 40.328 179.688 L 40.328 179.688 Q 39.952 180.368 39.952 181.248 L 39.952 181.248 L 39.952 181.248 Q 39.952 182.128 40.328 182.808 L 40.328 182.808 L 40.328 182.808 Q 40.704 183.488 41.352 183.864 L 41.352 183.864 L 41.352 183.864 Q 42 184.24 42.816 184.24 L 42.816 184.24 L 42.816 184.24 Z  M 50.096 185.488 L 50.096 177.008 L 51.632 177.008 L 51.632 185.488 L 50.096 185.488 L 50.096 185.488 Z  M 50.864 175.376 L 50.864 175.376 Q 50.416 175.376 50.12 175.088 L 50.12 175.088 L 50.12 175.088 Q 49.824 174.8 49.824 174.384 L 49.824 174.384 L 49.824 174.384 Q 49.824 173.968 50.12 173.672 L 50.12 173.672 L 50.12 173.672 Q 50.416 173.376 50.864 173.376 L 50.864 173.376 L 50.864 173.376 Q 51.312 173.376 51.608 173.656 L 51.608 173.656 L 51.608 173.656 Q 51.904 173.936 51.904 174.352 L 51.904 174.352 L 51.904 174.352 Q 51.904 174.784 51.608 175.08 L 51.608 175.08 L 51.608 175.08 Q 51.312 175.376 50.864 175.376 L 50.864 175.376 L 50.864 175.376 Z  M 58.848 183.888 L 59.328 184.992 L 59.328 184.992 Q 58.992 185.28 58.496 185.432 L 58.496 185.432 L 58.496 185.432 Q 58 185.584 57.472 185.584 L 57.472 185.584 L 57.472 185.584 Q 56.192 185.584 55.488 184.896 L 55.488 184.896 L 55.488 184.896 Q 54.784 184.208 54.784 182.928 L 54.784 182.928 L 54.784 178.272 L 53.344 178.272 L 53.344 177.008 L 54.784 177.008 L 54.784 175.152 L 56.32 175.152 L 56.32 177.008 L 58.752 177.008 L 58.752 178.272 L 56.32 178.272 L 56.32 182.864 L 56.32 182.864 Q 56.32 183.552 56.664 183.92 L 56.664 183.92 L 56.664 183.92 Q 57.008 184.288 57.648 184.288 L 57.648 184.288 L 57.648 184.288 Q 58.352 184.288 58.848 183.888 L 58.848 183.888 L 58.848 183.888 Z  M 63.616 185.584 L 63.616 185.584 Q 62.576 185.584 61.616 185.304 L 61.616 185.304 L 61.616 185.304 Q 60.656 185.024 60.112 184.592 L 60.112 184.592 L 60.752 183.376 L 60.752 183.376 Q 61.312 183.776 62.112 184.016 L 62.112 184.016 L 62.112 184.016 Q 62.912 184.256 63.728 184.256 L 63.728 184.256 L 63.728 184.256 Q 65.744 184.256 65.744 183.104 L 65.744 183.104 L 65.744 183.104 Q 65.744 182.72 65.472 182.496 L 65.472 182.496 L 65.472 182.496 Q 65.2 182.272 64.792 182.168 L 64.792 182.168 L 64.792 182.168 Q 64.384 182.064 63.632 181.936 L 63.632 181.936 L 63.632 181.936 Q 62.608 181.776 61.96 181.568 L 61.96 181.568 L 61.96 181.568 Q 61.312 181.36 60.848 180.864 L 60.848 180.864 L 60.848 180.864 Q 60.384 180.368 60.384 179.472 L 60.384 179.472 L 60.384 179.472 Q 60.384 178.32 61.344 177.624 L 61.344 177.624 L 61.344 177.624 Q 62.304 176.928 63.92 176.928 L 63.92 176.928 L 63.92 176.928 Q 64.768 176.928 65.616 177.136 L 65.616 177.136 L 65.616 177.136 Q 66.464 177.344 67.008 177.696 L 67.008 177.696 L 66.352 178.912 L 66.352 178.912 Q 65.312 178.24 63.904 178.24 L 63.904 178.24 L 63.904 178.24 Q 62.928 178.24 62.416 178.56 L 62.416 178.56 L 62.416 178.56 Q 61.904 178.88 61.904 179.408 L 61.904 179.408 L 61.904 179.408 Q 61.904 179.824 62.192 180.064 L 62.192 180.064 L 62.192 180.064 Q 62.48 180.304 62.904 180.416 L 62.904 180.416 L 62.904 180.416 Q 63.328 180.528 64.096 180.672 L 64.096 180.672 L 64.096 180.672 Q 65.12 180.848 65.752 181.048 L 65.752 181.048 L 65.752 181.048 Q 66.384 181.248 66.832 181.728 L 66.832 181.728 L 66.832 181.728 Q 67.28 182.208 67.28 183.072 L 67.28 183.072 L 67.28 183.072 Q 67.28 184.224 66.296 184.904 L 66.296 184.904 L 66.296 184.904 Q 65.312 185.584 63.616 185.584 L 63.616 185.584 L 63.616 185.584 Z " fill="rgb(255,255,255)"/></g></svg>