<?xml version="1.0" encoding="UTF-8" standalone="no"?><!-- Generator: Gravit.io --><svg xmlns="http://www.w3.org/2000/svg" xmlns:xlink="http://www.w3.org/1999/xlink" style="isolation:isolate" viewBox="0 0 480 360" width="480pt" height="360pt"><defs><clipPath id="_clipPath_GIQKAQm7dEjBDG8yITye02ddOmBaLLiS"><rect width="480" height="360"/></clipPath></defs><g clip-path="url(#_clipPath_GIQKAQm7dEjBDG8yITye02ddOmBaLLiS)"><rect x="0" y="0" width="480" height="360" transform="matrix(1,0,0,1,0,0)" fill="rgb(250,132,0)"/><path d=" M 64.505 170.293 C 83.673 167.619 103.678 168.659 123.536 173.98" fill="none" vector-effect="non-scaling-stroke" stroke-width="20" stroke="rgb(255,255,255)" stroke-opacity="0.5" stroke-linejoin="miter" stroke-linecap="square" stroke-miterlimit="3"/><path d=" M 131.483 165.413 L 141.397 166.718 L 140.092 176.633 L 138.787 186.547 L 128.872 185.242 L 128.872 185.242 C 134.344 185.962 139.372 182.105 140.092 176.633 L 140.092 176.633 C 140.812 171.161 136.955 166.133 131.483 165.413 Z " fill-rule="evenodd" fill="rgb(250,132,0)"/><path d="M 373.827 191.038 L 412.464 180.685 C 423.127 177.828 434.102 184.165 436.959 194.827 L 457.665 272.098 C 460.522 282.76 454.185 293.735 443.523 296.592 L 404.886 306.945 C 394.223 309.802 383.248 303.465 380.391 292.803 L 359.685 215.532 C 356.828 204.87 363.165 193.895 373.827 191.038 Z" style="stroke:none;fill:#000000;stroke-miterlimit:10;"/><path d="M 398.325 205.177 L 398.325 205.177 C 400.457 204.606 402.651 205.873 403.223 208.005 L 411.503 238.914 C 412.074 241.046 410.807 243.242 408.675 243.813 L 408.675 243.813 C 406.543 244.384 404.349 243.117 403.777 240.985 L 395.497 210.076 C 394.926 207.944 396.193 205.748 398.325 205.177 Z" style="stroke:none;fill:#FFFFFF;stroke-miterlimit:10;"/><path d="M 133.985 166.213 L 133.985 166.213 C 139.317 167.641 142.486 173.129 141.057 178.46 L 125.525 236.416 C 124.096 241.747 118.607 244.916 113.275 243.487 L 113.275 243.487 C 107.943 242.059 104.774 236.571 106.203 231.24 L 121.735 173.284 C 123.164 167.953 128.653 164.784 133.985 166.213 Z" style="stroke:none;fill:#FFFFFF;stroke-miterlimit:10;"/><path d="M 142.947 210.033 L 142.947 210.033 C 148.278 211.461 151.446 216.949 150.017 222.28 L 134.49 280.236 C 133.061 285.567 127.574 288.736 122.243 287.307 L 122.243 287.307 C 116.912 285.879 113.744 280.391 115.173 275.06 L 130.7 217.104 C 132.129 211.773 137.616 208.604 142.947 210.033 Z" style="stroke:none;fill:#FFFFFF;stroke-miterlimit:10;"/><path d="M 162.267 215.203 L 162.267 215.203 C 167.598 216.631 170.766 222.119 169.337 227.45 L 153.81 285.406 C 152.381 290.737 146.894 293.906 141.563 292.477 L 141.563 292.477 C 136.232 291.049 133.064 285.561 134.493 280.23 L 150.02 222.274 C 151.449 216.943 156.936 213.774 162.267 215.203 Z" style="stroke:none;fill:#FFFFFF;stroke-miterlimit:10;"/><path d="M 181.587 220.383 L 181.587 220.383 C 186.918 221.811 190.086 227.299 188.657 232.63 L 173.13 290.586 C 171.701 295.917 166.214 299.086 160.883 297.657 L 160.883 297.657 C 155.552 296.229 152.384 290.741 153.813 285.41 L 169.34 227.454 C 170.769 222.123 176.256 218.954 181.587 220.383 Z" style="stroke:none;fill:#FFFFFF;stroke-miterlimit:10;"/><path d="M 121.191 214.548 L 178.855 230.001 C 184.266 231.451 187.482 237.022 186.032 242.433 L 173.169 290.444 C 171.719 295.856 166.149 299.072 160.739 297.622 L 103.075 282.169 C 97.664 280.719 94.448 275.148 95.898 269.737 L 108.761 221.726 C 110.211 216.314 115.781 213.098 121.191 214.548 Z" style="stroke:none;fill:#FFFFFF;stroke-miterlimit:10;"/><path d="M 80.5 229.17 L 80.5 229.17 C 85.28 226.41 91.401 228.05 94.16 232.83 L 114.16 267.47 C 116.92 272.25 115.28 278.371 110.5 281.13 L 110.5 281.13 C 105.72 283.89 99.599 282.25 96.84 277.47 L 76.84 242.83 C 74.08 238.05 75.72 231.929 80.5 229.17 Z" style="stroke:none;fill:#FFFFFF;stroke-miterlimit:10;"/><path d=" M 62.652 160.74 L 52.738 162.046 L 54.043 171.96 L 55.348 181.874 L 65.262 180.569 L 65.262 180.569 C 59.791 181.29 54.763 177.432 54.043 171.96 L 54.043 171.96 C 53.322 166.488 57.18 161.461 62.652 160.74 Z " fill-rule="evenodd" fill="rgb(250,132,0)"/><path d=" M 303.777 83.001 L 292.157 69.517 L 286.608 75.154 L 286.608 83.001 L 282.272 83.001 L 282.272 52.652 L 286.608 52.652 L 286.608 69.604 L 303.083 52.652 L 308.025 52.652 L 295.062 66.309 L 308.849 83.001 L 303.777 83.001 Z  M 313.445 83.001 L 313.445 52.652 L 317.781 52.652 L 317.781 83.001 L 313.445 83.001 Z  M 332.912 83.001 L 332.912 56.424 L 322.506 56.424 L 322.506 52.652 L 347.609 52.652 L 347.609 56.424 L 337.204 56.424 L 337.204 83.001 L 332.912 83.001 Z  M 132.391 83.001 L 132.391 52.652 L 136.726 52.652 L 136.726 83.001 L 132.391 83.001 Z  M 167.596 52.652 L 171.931 52.652 L 171.931 83.001 L 168.376 83.001 L 150.167 60.369 L 150.167 83.001 L 145.831 83.001 L 145.831 52.652 L 149.386 52.652 L 167.596 75.284 L 167.596 52.652 Z  M 192.872 52.652 L 192.872 52.652 Q 198.769 52.652 202.15 55.47 L 202.15 55.47 L 202.15 55.47 Q 205.532 58.288 205.532 63.231 L 205.532 63.231 L 205.532 63.231 Q 205.532 68.173 202.15 70.992 L 202.15 70.992 L 202.15 70.992 Q 198.769 73.81 192.872 73.81 L 192.872 73.81 L 185.372 73.81 L 185.372 83.001 L 181.036 83.001 L 181.036 52.652 L 192.872 52.652 Z  M 192.742 70.038 L 192.742 70.038 Q 196.861 70.038 199.029 68.282 L 199.029 68.282 L 199.029 68.282 Q 201.196 66.526 201.196 63.231 L 201.196 63.231 L 201.196 63.231 Q 201.196 59.936 199.029 58.18 L 199.029 58.18 L 199.029 58.18 Q 196.861 56.424 192.742 56.424 L 192.742 56.424 L 185.372 56.424 L 185.372 70.038 L 192.742 70.038 Z  M 224.565 83.348 L 224.565 83.348 Q 218.495 83.348 215.114 79.88 L 215.114 79.88 L 215.114 79.88 Q 211.732 76.411 211.732 69.908 L 211.732 69.908 L 211.732 52.652 L 216.068 52.652 L 216.068 69.734 L 216.068 69.734 Q 216.068 79.489 224.609 79.489 L 224.609 79.489 L 224.609 79.489 Q 228.771 79.489 230.982 77.083 L 230.982 77.083 L 230.982 77.083 Q 233.193 74.677 233.193 69.734 L 233.193 69.734 L 233.193 52.652 L 237.399 52.652 L 237.399 69.908 L 237.399 69.908 Q 237.399 76.454 234.017 79.901 L 234.017 79.901 L 234.017 79.901 Q 230.635 83.348 224.565 83.348 L 224.565 83.348 Z  M 251.749 83.001 L 251.749 56.424 L 241.344 56.424 L 241.344 52.652 L 266.447 52.652 L 266.447 56.424 L 256.042 56.424 L 256.042 83.001 L 251.749 83.001 Z " fill="rgb(255,255,255)"/></g></svg>