<?xml version="1.0" encoding="UTF-8" standalone="no"?><!-- Generator: Gravit.io --><svg xmlns="http://www.w3.org/2000/svg" xmlns:xlink="http://www.w3.org/1999/xlink" style="isolation:isolate" viewBox="0 0 480 360" width="480pt" height="360pt"><defs><clipPath id="_clipPath_67N5u19cuEdYuIv3EOKORPEFycmHngsD"><rect width="480" height="360"/></clipPath></defs><g clip-path="url(#_clipPath_67N5u19cuEdYuIv3EOKORPEFycmHngsD)"><path d="M 227.76 164 L 236.24 164 C 238.315 164 240 165.685 240 167.76 L 240 176.24 C 240 178.315 238.315 180 236.24 180 L 227.76 180 C 225.685 180 224 178.315 224 176.24 L 224 167.76 C 224 165.685 225.685 164 227.76 164 Z" style="stroke:none;fill:#000000;stroke-miterlimit:10;"/><path d=" M 227.402 170.5 L 227.402 170.5 C 226.85 171.456 227.178 172.68 228.134 173.232 C 229.09 173.784 230.314 173.456 230.866 172.5 L 230.866 172.5 L 230.866 172.5 L 227.402 170.5 Z " fill-rule="evenodd" fill="rgb(235,235,235)"/><path d=" M 236.598 170.5 L 236.598 170.5 C 237.15 171.456 236.822 172.68 235.866 173.232 C 234.91 173.784 233.686 173.456 233.134 172.5 L 233.134 172.5 L 233.134 172.5 L 236.598 170.5 Z " fill-rule="evenodd" fill="rgb(235,235,235)"/><path d="M 269.76 164 L 278.24 164 C 280.315 164 282 165.685 282 167.76 L 282 176.24 C 282 178.315 280.315 180 278.24 180 L 269.76 180 C 267.685 180 266 178.315 266 176.24 L 266 167.76 C 266 165.685 267.685 164 269.76 164 Z" style="stroke:none;fill:#000000;stroke-miterlimit:10;"/><path d=" M 267.402 170.5 L 267.402 170.5 C 266.85 171.456 267.178 172.68 268.134 173.232 C 269.09 173.784 270.314 173.456 270.866 172.5 L 270.866 172.5 L 270.866 172.5 L 267.402 170.5 Z " fill-rule="evenodd" fill="rgb(235,235,235)"/><path d=" M 276.598 170.5 L 276.598 170.5 C 277.15 171.456 276.822 172.68 275.866 173.232 C 274.91 173.784 273.686 173.456 273.134 172.5 L 273.134 172.5 L 273.134 172.5 L 276.598 170.5 Z " fill-rule="evenodd" fill="rgb(235,235,235)"/><path d="M 320.24 164 L 311.76 164 C 309.685 164 308 165.685 308 167.76 L 308 176.24 C 308 178.315 309.685 180 311.76 180 L 320.24 180 C 322.315 180 324 178.315 324 176.24 L 324 167.76 C 324 165.685 322.315 164 320.24 164 Z" style="stroke:none;fill:#000000;stroke-miterlimit:10;"/><path d=" M 322.598 170.5 L 322.598 170.5 C 323.15 171.456 322.822 172.68 321.866 173.232 C 320.91 173.784 319.686 173.456 319.134 172.5 L 319.134 172.5 L 319.134 172.5 L 322.598 170.5 Z " fill-rule="evenodd" fill="rgb(235,235,235)"/><path d=" M 313.402 170.5 L 313.402 170.5 C 312.85 171.456 313.178 172.68 314.134 173.232 C 315.09 173.784 316.314 173.456 316.866 172.5 L 316.866 172.5 L 316.866 172.5 L 313.402 170.5 Z " fill-rule="evenodd" fill="rgb(235,235,235)"/><path d="M 267.05 205 L 247.21 205 C 243.854 205 241.13 207.724 241.13 211.08 L 241.13 230.92 C 241.13 234.276 243.854 237 247.21 237 L 267.05 237 C 270.406 237 273.13 234.276 273.13 230.92 L 273.13 211.08 C 273.13 207.724 270.406 205 267.05 205 Z" style="stroke:none;fill:#0064FF;stroke-miterlimit:10;"/><path d="M 262.41 217.16 L 246.73 217.16 C 244.611 217.16 242.89 218.881 242.89 221 L 242.89 221 C 242.89 223.119 244.611 224.84 246.73 224.84 L 262.41 224.84 C 264.529 224.84 266.25 223.119 266.25 221 L 266.25 221 C 266.25 218.881 264.529 217.16 262.41 217.16 Z" style="stroke:none;fill:#000000;stroke-miterlimit:10;"/><circle vector-effect="non-scaling-stroke" cx="248.8139596016269" cy="221.00000000000014" r="1.4399999999999977" fill="rgb(235,235,235)"/><circle vector-effect="non-scaling-stroke" cx="257.77395960162664" cy="221.00000000000014" r="1.4399999999999977" fill="rgb(235,235,235)"/><rect x="255.774" y="218.92" width="4" height="1.52" transform="matrix(0.966,-0.259,0.259,0.966,-48.074,74.202)" fill="rgb(0,0,0)"/><rect x="246.814" y="218.92" width="4" height="1.52" transform="matrix(0.966,0.259,-0.259,0.966,65.335,-56.912)" fill="rgb(0,0,0)"/><path d="M 268.92 245.38 L 249.08 245.38 C 245.724 245.38 243 248.104 243 251.46 L 243 271.3 C 243 274.656 245.724 277.38 249.08 277.38 L 268.92 277.38 C 272.276 277.38 275 274.656 275 271.3 L 275 251.46 C 275 248.104 272.276 245.38 268.92 245.38 Z" style="stroke:none;fill:#000000;stroke-miterlimit:10;"/><path d="M 264.28 257.54 L 248.6 257.54 C 246.481 257.54 244.76 259.261 244.76 261.38 L 244.76 261.38 C 244.76 263.499 246.481 265.22 248.6 265.22 L 264.28 265.22 C 266.399 265.22 268.12 263.499 268.12 261.38 L 268.12 261.38 C 268.12 259.261 266.399 257.54 264.28 257.54 Z" style="stroke:none;fill:#0064FF;stroke-miterlimit:10;"/><circle vector-effect="non-scaling-stroke" cx="250.68000000000018" cy="261.37557921305444" r="1.4399999999999977" fill="rgb(235,235,235)"/><circle vector-effect="non-scaling-stroke" cx="259.6399999999999" cy="261.37557921305444" r="1.4399999999999977" fill="rgb(235,235,235)"/><rect x="257.64" y="259.296" width="4" height="1.52" transform="matrix(0.966,-0.259,0.259,0.966,-58.46,76.061)" fill="rgb(0,100,255)"/><rect x="248.68" y="259.296" width="4" height="1.52" transform="matrix(0.966,0.259,-0.259,0.966,75.849,-56.02)" fill="rgb(0,100,255)"/><path d="M 286.32 245.31 L 306.16 245.31 C 309.516 245.31 312.24 248.034 312.24 251.39 L 312.24 271.23 C 312.24 274.586 309.516 277.31 306.16 277.31 L 286.32 277.31 C 282.964 277.31 280.24 274.586 280.24 271.23 L 280.24 251.39 C 280.24 248.034 282.964 245.31 286.32 245.31 Z" style="stroke:none;fill:#000000;stroke-miterlimit:10;"/><path d="M 290.96 257.47 L 306.64 257.47 C 308.759 257.47 310.48 259.191 310.48 261.31 L 310.48 261.31 C 310.48 263.429 308.759 265.15 306.64 265.15 L 290.96 265.15 C 288.841 265.15 287.12 263.429 287.12 261.31 L 287.12 261.31 C 287.12 259.191 288.841 257.47 290.96 257.47 Z" style="stroke:none;fill:#0064FF;stroke-miterlimit:10;"/><circle vector-effect="non-scaling-stroke" cx="304.5599999999997" cy="261.30732093123885" r="1.4399999999999977" fill="rgb(235,235,235)"/><circle vector-effect="non-scaling-stroke" cx="295.59999999999997" cy="261.3073209312389" r="1.4399999999999977" fill="rgb(235,235,235)"/><rect x="293.6" y="259.227" width="4" height="1.52" transform="matrix(0.966,0.259,-0.259,0.966,77.362,-67.648)" fill="rgb(0,100,255)"/><rect x="302.56" y="259.227" width="4" height="1.52" transform="matrix(0.966,-0.259,0.259,0.966,-56.912,87.685)" fill="rgb(0,100,255)"/><path d="M 288.08 203.68 L 307.92 203.68 C 311.276 203.68 314 206.404 314 209.76 L 314 229.6 C 314 232.956 311.276 235.68 307.92 235.68 L 288.08 235.68 C 284.724 235.68 282 232.956 282 229.6 L 282 209.76 C 282 206.404 284.724 203.68 288.08 203.68 Z" style="stroke:none;fill:#0064FF;stroke-miterlimit:10;"/><path d="M 292.72 215.84 L 308.4 215.84 C 310.519 215.84 312.24 217.561 312.24 219.68 L 312.24 219.68 C 312.24 221.799 310.519 223.52 308.4 223.52 L 292.72 223.52 C 290.601 223.52 288.88 221.799 288.88 219.68 L 288.88 219.68 C 288.88 217.561 290.601 215.84 292.72 215.84 Z" style="stroke:none;fill:#000000;stroke-miterlimit:10;"/><circle vector-effect="non-scaling-stroke" cx="306.31999999999994" cy="219.68000000000055" r="1.4399999999999977" fill="rgb(235,235,235)"/><circle vector-effect="non-scaling-stroke" cx="297.3600000000002" cy="219.68000000000055" r="1.4399999999999977" fill="rgb(235,235,235)"/><rect x="295.36" y="217.6" width="4" height="1.52" transform="matrix(0.966,0.259,-0.259,0.966,66.648,-69.522)" fill="rgb(0,0,0)"/><rect x="304.32" y="217.6" width="4" height="1.52" transform="matrix(0.966,-0.259,0.259,0.966,-46.078,86.722)" fill="rgb(0,0,0)"/><path d="M 230.79 205 L 210.95 205 C 207.594 205 204.87 207.724 204.87 211.08 L 204.87 230.92 C 204.87 234.276 207.594 237 210.95 237 L 230.79 237 C 234.146 237 236.87 234.276 236.87 230.92 L 236.87 211.08 C 236.87 207.724 234.146 205 230.79 205 Z" style="stroke:none;fill:#0064FF;stroke-miterlimit:10;"/><path d="M 228.71 217.16 L 213.03 217.16 C 210.911 217.16 209.19 218.881 209.19 221 L 209.19 221 C 209.19 223.119 210.911 224.84 213.03 224.84 L 228.71 224.84 C 230.829 224.84 232.55 223.119 232.55 221 L 232.55 221 C 232.55 218.881 230.829 217.16 228.71 217.16 Z" style="stroke:none;fill:#000000;stroke-miterlimit:10;"/><circle vector-effect="non-scaling-stroke" cx="216.54604039837326" cy="221.0000000000001" r="1.4399999999999977" fill="rgb(235,235,235)"/><circle vector-effect="non-scaling-stroke" cx="225.50604039837302" cy="221.0000000000002" r="1.4399999999999977" fill="rgb(235,235,235)"/><rect x="223.506" y="218.92" width="4" height="1.52" transform="matrix(0.966,-0.259,0.259,0.966,-49.173,65.851)" fill="rgb(0,0,0)"/><rect x="214.546" y="218.92" width="4" height="1.52" transform="matrix(0.966,0.259,-0.259,0.966,64.236,-48.561)" fill="rgb(0,0,0)"/><path d="M 185.92 285 L 166.08 285 C 162.724 285 160 287.724 160 291.08 L 160 310.92 C 160 314.276 162.724 317 166.08 317 L 185.92 317 C 189.276 317 192 314.276 192 310.92 L 192 291.08 C 192 287.724 189.276 285 185.92 285 Z" style="stroke:none;fill:#000000;stroke-miterlimit:10;"/><path d="M 314.11 285 L 294.27 285 C 290.914 285 288.19 287.724 288.19 291.08 L 288.19 310.92 C 288.19 314.276 290.914 317 294.27 317 L 314.11 317 C 317.466 317 320.19 314.276 320.19 310.92 L 320.19 291.08 C 320.19 287.724 317.466 285 314.11 285 Z" style="stroke:none;fill:#FFBF00;stroke-miterlimit:10;"/><circle vector-effect="non-scaling-stroke" cx="176" cy="301.00000000000006" r="8" fill="rgb(255,255,255)"/><circle vector-effect="non-scaling-stroke" cx="176" cy="301.00000000000006" r="4" fill="rgb(0,0,0)"/><path d="M 185.92 320 L 166.08 320 C 162.724 320 160 322.724 160 326.08 L 160 345.92 C 160 349.276 162.724 352 166.08 352 L 185.92 352 C 189.276 352 192 349.276 192 345.92 L 192 326.08 C 192 322.724 189.276 320 185.92 320 Z" style="stroke:none;fill:#000000;stroke-miterlimit:10;"/><circle vector-effect="non-scaling-stroke" cx="176.00000000000003" cy="335.99999999999994" r="8" fill="rgb(255,255,255)"/><circle vector-effect="non-scaling-stroke" cx="176.00000000000003" cy="335.99999999999994" r="2" fill="rgb(0,0,0)"/><path d="M 228.92 283 L 209.08 283 C 205.724 283 203 285.724 203 289.08 L 203 308.92 C 203 312.276 205.724 315 209.08 315 L 228.92 315 C 232.276 315 235 312.276 235 308.92 L 235 289.08 C 235 285.724 232.276 283 228.92 283 Z" style="stroke:none;fill:#000000;stroke-miterlimit:10;"/><circle vector-effect="non-scaling-stroke" cx="219" cy="299.00000000000006" r="8" fill="rgb(255,255,255)"/><circle vector-effect="non-scaling-stroke" cx="221" cy="299.00000000000006" r="4" fill="rgb(0,0,0)"/><path d="M 267.43 285 L 247.59 285 C 244.234 285 241.51 287.724 241.51 291.08 L 241.51 310.92 C 241.51 314.276 244.234 317 247.59 317 L 267.43 317 C 270.786 317 273.51 314.276 273.51 310.92 L 273.51 291.08 C 273.51 287.724 270.786 285 267.43 285 Z" style="stroke:none;fill:#000000;stroke-miterlimit:10;"/><circle vector-effect="non-scaling-stroke" cx="257.51144587314405" cy="301.00000000000006" r="8" fill="rgb(255,255,255)"/><circle vector-effect="non-scaling-stroke" cx="255.51144587314405" cy="301.00000000000006" r="4" fill="rgb(0,0,0)"/><path d="M 230.37 245.38 L 210.53 245.38 C 207.174 245.38 204.45 248.104 204.45 251.46 L 204.45 271.3 C 204.45 274.656 207.174 277.38 210.53 277.38 L 230.37 277.38 C 233.726 277.38 236.45 274.656 236.45 271.3 L 236.45 251.46 C 236.45 248.104 233.726 245.38 230.37 245.38 Z" style="stroke:none;fill:#000000;stroke-miterlimit:10;"/><path d="M 228.29 257.54 L 212.61 257.54 C 210.491 257.54 208.77 259.261 208.77 261.38 L 208.77 261.38 C 208.77 263.499 210.491 265.22 212.61 265.22 L 228.29 265.22 C 230.409 265.22 232.13 263.499 232.13 261.38 L 232.13 261.38 C 232.13 259.261 230.409 257.54 228.29 257.54 Z" style="stroke:none;fill:#0064FF;stroke-miterlimit:10;"/><circle vector-effect="non-scaling-stroke" cx="216.12855412685622" cy="261.37557921305415" r="1.4399999999999977" fill="rgb(235,235,235)"/><circle vector-effect="non-scaling-stroke" cx="225.08855412685605" cy="261.3755792130543" r="1.4399999999999977" fill="rgb(235,235,235)"/><rect x="223.089" y="259.296" width="4" height="1.52" transform="matrix(0.966,-0.259,0.259,0.966,-59.638,67.118)" fill="rgb(0,100,255)"/><rect x="214.129" y="259.296" width="4" height="1.52" transform="matrix(0.966,0.259,-0.259,0.966,74.672,-47.077)" fill="rgb(0,100,255)"/><path d=" M 345.054 205.936 L 325.214 205.936 C 321.858 205.936 319.134 208.66 319.134 212.016 L 319.134 231.856 C 319.134 235.211 321.82 237.478 325.128 236.914 Q 330.134 236.061 335.134 235.936 Q 340.134 235.811 345.164 236.782 C 348.459 237.419 351.134 235.211 351.134 231.856 L 351.134 212.016 C 351.134 208.66 348.41 205.936 345.054 205.936 Z " fill="rgb(0,100,255)"/><path d="M 342.97 218.1 L 327.29 218.1 C 325.171 218.1 323.45 219.821 323.45 221.94 L 323.45 221.94 C 323.45 224.059 325.171 225.78 327.29 225.78 L 342.97 225.78 C 345.089 225.78 346.81 224.059 346.81 221.94 L 346.81 221.94 C 346.81 219.821 345.089 218.1 342.97 218.1 Z" style="stroke:none;fill:#000000;stroke-miterlimit:10;"/><circle vector-effect="non-scaling-stroke" cx="330.81395960162695" cy="221.93557921305438" r="1.4399999999999977" fill="rgb(235,235,235)"/><circle vector-effect="non-scaling-stroke" cx="339.77395960162676" cy="221.93557921305444" r="1.4399999999999977" fill="rgb(235,235,235)"/><path d=" M 345.054 243.936 L 325.214 243.936 C 321.858 243.936 319.134 246.66 319.134 250.016 L 319.134 269.856 C 319.134 273.211 321.82 275.478 325.128 274.914 Q 330.134 274.061 335.134 273.936 Q 340.134 273.811 345.164 274.782 C 348.459 275.419 351.134 273.211 351.134 269.856 L 351.134 250.016 C 351.134 246.66 348.41 243.936 345.054 243.936 Z " fill="rgb(0,0,0)"/><path d="M 342.97 256.1 L 327.29 256.1 C 325.171 256.1 323.45 257.821 323.45 259.94 L 323.45 259.94 C 323.45 262.059 325.171 263.78 327.29 263.78 L 342.97 263.78 C 345.089 263.78 346.81 262.059 346.81 259.94 L 346.81 259.94 C 346.81 257.821 345.089 256.1 342.97 256.1 Z" style="stroke:none;fill:#0064FF;stroke-miterlimit:10;"/><circle vector-effect="non-scaling-stroke" cx="330.81395960162695" cy="259.9355792130542" r="1.4399999999999977" fill="rgb(235,235,235)"/><circle vector-effect="non-scaling-stroke" cx="339.77395960162664" cy="259.93557921305427" r="1.4399999999999977" fill="rgb(235,235,235)"/><rect x="182" y="93.084" width="32" height="64" transform="matrix(1,0,0,1,0,0)" fill="rgb(0,0,0)"/><path d=" M 197.974 131.933 L 199 133.693 L 202.821 140.246 C 203.471 141.363 204.529 141.363 205.179 140.246 L 209 133.693 L 212.821 127.14 C 212.821 127.14 212.821 127.14 212.821 127.14 L 214 125.116 L 210.701 125.116 L 210.701 125.116 L 204 125.116 L 201.981 125.116 L 202 125.084 L 198.714 125.084 L 198.714 125.084 L 192 125.084 L 185.286 125.084 L 185.286 125.084 L 182 125.084 L 183.416 127.493 L 187 133.59 L 190.817 140.084 C 191.47 141.195 192.53 141.195 193.183 140.084 L 197 133.59 L 197.974 131.933 Z " fill-rule="evenodd" fill="rgb(232,232,232)"/><rect x="230" y="101.084" width="32" height="32" transform="matrix(1,0,0,1,0,0)" fill="rgb(0,0,0)"/><path d=" M 246.026 126.067 L 245 124.307 L 241.346 118.04 C 240.603 116.765 239.397 116.765 238.654 118.04 L 235 124.307 L 231.667 130.025 L 231.667 130.025 L 230 132.884 L 232.673 132.884 L 232.673 132.884 L 240 132.884 L 242.019 132.884 L 242 132.916 L 244.662 132.916 L 244.662 132.916 L 252 132.916 L 259.338 132.916 L 259.338 132.916 L 262 132.916 L 260.584 130.507 L 257 124.41 L 253.349 118.199 C 252.605 116.932 251.395 116.932 250.651 118.199 L 247 124.41 L 246.026 126.067 Z " fill-rule="evenodd" fill="rgb(232,232,232)"/><path d=" M 302.89 305.105 L 302.89 301.87 L 302.89 301.87 Q 302.89 301.517 303.135 301.272 L 303.135 301.272 L 303.135 301.272 Q 303.38 301.027 303.706 301.027 L 303.706 301.027 L 303.706 301.027 Q 304.956 300.946 305.935 300.402 L 305.935 300.402 L 305.935 300.402 Q 306.914 299.858 307.485 298.934 L 307.485 298.934 L 307.485 298.934 Q 308.056 298.01 308.056 296.786 L 308.056 296.786 L 308.056 296.786 Q 308.056 295.509 307.525 294.571 L 307.525 294.571 L 307.525 294.571 Q 306.995 293.633 306.098 293.103 L 306.098 293.103 L 306.098 293.103 Q 305.201 292.573 304.059 292.573 L 304.059 292.573 L 304.059 292.573 Q 302.945 292.573 301.966 293.089 L 301.966 293.089 L 301.966 293.089 Q 300.987 293.606 300.335 294.448 L 300.335 294.448 L 300.335 294.448 Q 300.117 294.666 299.832 294.761 L 299.832 294.761 L 299.832 294.761 Q 299.546 294.856 299.22 294.639 L 299.22 294.639 L 299.22 294.639 Q 298.894 294.421 298.84 294.081 L 298.84 294.081 L 298.84 294.081 Q 298.785 293.741 299.03 293.442 L 299.03 293.442 L 299.03 293.442 Q 299.9 292.355 301.232 291.675 L 301.232 291.675 L 301.232 291.675 Q 302.564 290.996 304.059 290.996 L 304.059 290.996 L 304.059 290.996 Q 305.636 290.996 306.927 291.703 L 306.927 291.703 L 306.927 291.703 Q 308.219 292.409 308.98 293.714 L 308.98 293.714 L 308.98 293.714 Q 309.741 295.019 309.741 296.786 L 309.741 296.786 L 309.741 296.786 Q 309.741 297.874 309.306 298.88 L 309.306 298.88 L 309.306 298.88 Q 308.871 299.885 308.11 300.674 L 308.11 300.674 L 308.11 300.674 Q 307.349 301.462 306.343 301.924 L 306.343 301.924 L 306.343 301.924 Q 305.337 302.386 304.168 302.441 L 304.168 302.441 L 304.168 302.441 Q 304.086 302.441 304.222 302.414 L 304.222 302.414 L 304.222 302.414 Q 304.358 302.386 304.494 302.251 L 304.494 302.251 L 304.494 305.105 L 304.494 305.105 Q 304.494 305.458 304.263 305.689 L 304.263 305.689 L 304.263 305.689 Q 304.032 305.921 303.679 305.921 L 303.679 305.921 L 303.679 305.921 Q 303.325 305.921 303.094 305.689 L 303.094 305.689 L 303.094 305.689 Q 302.863 305.458 302.89 305.105 L 302.89 305.105 Z  M 303.869 311.004 L 303.706 311.004 L 303.706 311.004 Q 303.244 311.004 302.985 310.719 L 302.985 310.719 L 302.985 310.719 Q 302.727 310.433 302.727 309.971 L 302.727 309.971 L 302.727 309.373 L 302.727 309.373 Q 302.727 308.884 302.985 308.612 L 302.985 308.612 L 302.985 308.612 Q 303.244 308.34 303.706 308.34 L 303.706 308.34 L 303.869 308.34 L 303.869 308.34 Q 304.358 308.34 304.589 308.612 L 304.589 308.612 L 304.589 308.612 Q 304.82 308.884 304.82 309.373 L 304.82 309.373 L 304.82 309.971 L 304.82 309.971 Q 304.82 310.433 304.589 310.719 L 304.589 310.719 L 304.589 310.719 Q 304.358 311.004 303.869 311.004 L 303.869 311.004 Z " fill="rgb(0,0,0)"/><rect x="182" y="93.084" width="32" height="32" transform="matrix(-1,0,0,-1,396,218.168)" fill="rgb(232,232,232)"/><path d=" M 262 117.084 C 262 108.253 269.169 101.084 278 101.084 C 286.831 101.084 294 108.253 294 117.084 C 294 125.915 286.831 133.084 278 133.084 C 269.169 133.084 262 125.915 262 117.084 Z  M 274 117.084 C 274 114.876 275.792 113.084 278 113.084 C 280.208 113.084 282 114.876 282 117.084 C 282 119.292 280.208 121.084 278 121.084 C 275.792 121.084 274 119.292 274 117.084 Z " fill-rule="evenodd" fill="rgb(232,232,232)"/></g></svg>