<?xml version="1.0" encoding="UTF-8" standalone="no"?><!-- Generator: Gravit.io --><svg xmlns="http://www.w3.org/2000/svg" xmlns:xlink="http://www.w3.org/1999/xlink" style="isolation:isolate" viewBox="0 0 100 100" width="100pt" height="100pt"><defs><clipPath id="_clipPath_XFfEFzCaPajOUkjkqm9O6L6IpCeZ1i5a"><rect width="100" height="100"/></clipPath></defs><g clip-path="url(#_clipPath_XFfEFzCaPajOUkjkqm9O6L6IpCeZ1i5a)"><rect x="0" y="0" width="100" height="100" transform="matrix(1,0,0,1,0,0)" fill="rgb(0,100,255)"/><path d=" M 63.862 73.963 C 74.279 76.736 84.994 70.542 87.456 61.351 L 87.456 61.351 C 87.638 60.674 87.236 59.977 86.558 59.796 L 68.925 55.071 L 73.996 36.146 L 73.963 36.138 C 76.736 25.721 70.542 15.006 61.351 12.544 L 61.351 12.544 C 60.674 12.362 59.977 12.764 59.796 13.442 L 55.071 31.075 L 36.146 26.004 L 36.138 26.037 C 25.721 23.264 15.006 29.458 12.544 38.649 L 12.544 38.649 C 12.362 39.326 12.764 40.023 13.442 40.204 L 31.075 44.929 L 26.004 63.854 L 26.037 63.862 C 23.264 74.279 29.458 84.994 38.649 87.456 L 38.649 87.456 C 39.326 87.638 40.023 87.236 40.204 86.558 L 44.929 68.925 L 63.854 73.996 L 63.862 73.963 Z  M 44.976 48.654 C 45.719 45.881 48.573 44.233 51.346 44.976 C 54.119 45.719 55.767 48.573 55.024 51.346 C 54.281 54.119 51.427 55.767 48.654 55.024 C 45.881 54.281 44.233 51.427 44.976 48.654 Z " fill-rule="evenodd" fill="rgb(255,255,255)"/></g></svg>