<?xml version="1.0" encoding="UTF-8" standalone="no"?><!-- Generator: Gravit.io --><svg xmlns="http://www.w3.org/2000/svg" xmlns:xlink="http://www.w3.org/1999/xlink" style="isolation:isolate" viewBox="0 0 480 360" width="480pt" height="360pt"><defs><clipPath id="_clipPath_OyxH8eD8KTIMu9XewhI9XLCBsxB9D3MT"><rect width="480" height="360"/></clipPath></defs><g clip-path="url(#_clipPath_OyxH8eD8KTIMu9XewhI9XLCBsxB9D3MT)"><rect width="480" height="360" style="fill:rgb(54,54,54)"/><path d=" M 5.016 11.398 L 5.016 11.398 Q 3.756 11.398 2.742 10.84 L 2.742 10.84 L 2.742 10.84 Q 1.728 10.282 1.152 9.304 L 1.152 9.304 L 1.152 9.304 Q 0.576 8.326 0.576 7.102 L 0.576 7.102 L 0.576 7.102 Q 0.576 5.878 1.152 4.9 L 1.152 4.9 L 1.152 4.9 Q 1.728 3.922 2.748 3.364 L 2.748 3.364 L 2.748 3.364 Q 3.768 2.806 5.028 2.806 L 5.028 2.806 L 5.028 2.806 Q 6.012 2.806 6.828 3.136 L 6.828 3.136 L 6.828 3.136 Q 7.644 3.466 8.22 4.114 L 8.22 4.114 L 7.44 4.87 L 7.44 4.87 Q 6.492 3.874 5.076 3.874 L 5.076 3.874 L 5.076 3.874 Q 4.14 3.874 3.384 4.294 L 3.384 4.294 L 3.384 4.294 Q 2.628 4.714 2.202 5.452 L 2.202 5.452 L 2.202 5.452 Q 1.776 6.19 1.776 7.102 L 1.776 7.102 L 1.776 7.102 Q 1.776 8.014 2.202 8.752 L 2.202 8.752 L 2.202 8.752 Q 2.628 9.49 3.384 9.91 L 3.384 9.91 L 3.384 9.91 Q 4.14 10.33 5.076 10.33 L 5.076 10.33 L 5.076 10.33 Q 6.48 10.33 7.44 9.322 L 7.44 9.322 L 8.22 10.078 L 8.22 10.078 Q 7.644 10.726 6.822 11.062 L 6.822 11.062 L 6.822 11.062 Q 6 11.398 5.016 11.398 L 5.016 11.398 L 5.016 11.398 Z  M 12.228 11.374 L 12.228 11.374 Q 11.28 11.374 10.524 10.954 L 10.524 10.954 L 10.524 10.954 Q 9.768 10.534 9.342 9.796 L 9.342 9.796 L 9.342 9.796 Q 8.916 9.058 8.916 8.122 L 8.916 8.122 L 8.916 8.122 Q 8.916 7.186 9.342 6.448 L 9.342 6.448 L 9.342 6.448 Q 9.768 5.71 10.524 5.296 L 10.524 5.296 L 10.524 5.296 Q 11.28 4.882 12.228 4.882 L 12.228 4.882 L 12.228 4.882 Q 13.176 4.882 13.926 5.296 L 13.926 5.296 L 13.926 5.296 Q 14.676 5.71 15.102 6.448 L 15.102 6.448 L 15.102 6.448 Q 15.528 7.186 15.528 8.122 L 15.528 8.122 L 15.528 8.122 Q 15.528 9.058 15.102 9.796 L 15.102 9.796 L 15.102 9.796 Q 14.676 10.534 13.926 10.954 L 13.926 10.954 L 13.926 10.954 Q 13.176 11.374 12.228 11.374 L 12.228 11.374 L 12.228 11.374 Z  M 12.228 10.366 L 12.228 10.366 Q 12.84 10.366 13.326 10.084 L 13.326 10.084 L 13.326 10.084 Q 13.812 9.802 14.088 9.292 L 14.088 9.292 L 14.088 9.292 Q 14.364 8.782 14.364 8.122 L 14.364 8.122 L 14.364 8.122 Q 14.364 7.462 14.088 6.952 L 14.088 6.952 L 14.088 6.952 Q 13.812 6.442 13.326 6.166 L 13.326 6.166 L 13.326 6.166 Q 12.84 5.89 12.228 5.89 L 12.228 5.89 L 12.228 5.89 Q 11.616 5.89 11.13 6.166 L 11.13 6.166 L 11.13 6.166 Q 10.644 6.442 10.362 6.952 L 10.362 6.952 L 10.362 6.952 Q 10.08 7.462 10.08 8.122 L 10.08 8.122 L 10.08 8.122 Q 10.08 8.782 10.362 9.292 L 10.362 9.292 L 10.362 9.292 Q 10.644 9.802 11.13 10.084 L 11.13 10.084 L 11.13 10.084 Q 11.616 10.366 12.228 10.366 L 12.228 10.366 L 12.228 10.366 Z  M 25.08 4.882 L 25.08 4.882 Q 26.28 4.882 26.982 5.578 L 26.982 5.578 L 26.982 5.578 Q 27.684 6.274 27.684 7.642 L 27.684 7.642 L 27.684 11.302 L 26.532 11.302 L 26.532 7.774 L 26.532 7.774 Q 26.532 6.85 26.106 6.382 L 26.106 6.382 L 26.106 6.382 Q 25.68 5.914 24.888 5.914 L 24.888 5.914 L 24.888 5.914 Q 24.012 5.914 23.496 6.46 L 23.496 6.46 L 23.496 6.46 Q 22.98 7.006 22.98 8.026 L 22.98 8.026 L 22.98 11.302 L 21.828 11.302 L 21.828 7.774 L 21.828 7.774 Q 21.828 6.85 21.402 6.382 L 21.402 6.382 L 21.402 6.382 Q 20.976 5.914 20.184 5.914 L 20.184 5.914 L 20.184 5.914 Q 19.308 5.914 18.792 6.46 L 18.792 6.46 L 18.792 6.46 Q 18.276 7.006 18.276 8.026 L 18.276 8.026 L 18.276 11.302 L 17.124 11.302 L 17.124 4.942 L 18.228 4.942 L 18.228 5.89 L 18.228 5.89 Q 18.576 5.398 19.14 5.14 L 19.14 5.14 L 19.14 5.14 Q 19.704 4.882 20.424 4.882 L 20.424 4.882 L 20.424 4.882 Q 21.168 4.882 21.744 5.182 L 21.744 5.182 L 21.744 5.182 Q 22.32 5.482 22.632 6.058 L 22.632 6.058 L 22.632 6.058 Q 22.992 5.506 23.634 5.194 L 23.634 5.194 L 23.634 5.194 Q 24.276 4.882 25.08 4.882 L 25.08 4.882 L 25.08 4.882 Z  M 33.18 4.882 L 33.18 4.882 Q 34.104 4.882 34.836 5.29 L 34.836 5.29 L 34.836 5.29 Q 35.568 5.698 35.982 6.43 L 35.982 6.43 L 35.982 6.43 Q 36.396 7.162 36.396 8.122 L 36.396 8.122 L 36.396 8.122 Q 36.396 9.082 35.982 9.82 L 35.982 9.82 L 35.982 9.82 Q 35.568 10.558 34.836 10.966 L 34.836 10.966 L 34.836 10.966 Q 34.104 11.374 33.18 11.374 L 33.18 11.374 L 33.18 11.374 Q 32.496 11.374 31.926 11.11 L 31.926 11.11 L 31.926 11.11 Q 31.356 10.846 30.96 10.342 L 30.96 10.342 L 30.96 13.63 L 29.808 13.63 L 29.808 4.942 L 30.912 4.942 L 30.912 5.95 L 30.912 5.95 Q 31.296 5.422 31.884 5.152 L 31.884 5.152 L 31.884 5.152 Q 32.472 4.882 33.18 4.882 L 33.18 4.882 L 33.18 4.882 Z  M 33.084 10.366 L 33.084 10.366 Q 33.696 10.366 34.182 10.084 L 34.182 10.084 L 34.182 10.084 Q 34.668 9.802 34.95 9.292 L 34.95 9.292 L 34.95 9.292 Q 35.232 8.782 35.232 8.122 L 35.232 8.122 L 35.232 8.122 Q 35.232 7.462 34.95 6.952 L 34.95 6.952 L 34.95 6.952 Q 34.668 6.442 34.182 6.166 L 34.182 6.166 L 34.182 6.166 Q 33.696 5.89 33.084 5.89 L 33.084 5.89 L 33.084 5.89 Q 32.484 5.89 31.998 6.172 L 31.998 6.172 L 31.998 6.172 Q 31.512 6.454 31.23 6.958 L 31.23 6.958 L 31.23 6.958 Q 30.948 7.462 30.948 8.122 L 30.948 8.122 L 30.948 8.122 Q 30.948 8.782 31.224 9.292 L 31.224 9.292 L 31.224 9.292 Q 31.5 9.802 31.992 10.084 L 31.992 10.084 L 31.992 10.084 Q 32.484 10.366 33.084 10.366 L 33.084 10.366 L 33.084 10.366 Z  M 37.992 11.302 L 37.992 4.942 L 39.144 4.942 L 39.144 11.302 L 37.992 11.302 L 37.992 11.302 Z  M 38.568 3.718 L 38.568 3.718 Q 38.232 3.718 38.01 3.502 L 38.01 3.502 L 38.01 3.502 Q 37.788 3.286 37.788 2.974 L 37.788 2.974 L 37.788 2.974 Q 37.788 2.662 38.01 2.44 L 38.01 2.44 L 38.01 2.44 Q 38.232 2.218 38.568 2.218 L 38.568 2.218 L 38.568 2.218 Q 38.904 2.218 39.126 2.428 L 39.126 2.428 L 39.126 2.428 Q 39.348 2.638 39.348 2.95 L 39.348 2.95 L 39.348 2.95 Q 39.348 3.274 39.126 3.496 L 39.126 3.496 L 39.126 3.496 Q 38.904 3.718 38.568 3.718 L 38.568 3.718 L 38.568 3.718 Z  M 41.34 11.302 L 41.34 2.398 L 42.492 2.398 L 42.492 11.302 L 41.34 11.302 L 41.34 11.302 Z  M 50.436 8.158 L 50.436 8.158 Q 50.436 8.29 50.412 8.506 L 50.412 8.506 L 45.252 8.506 L 45.252 8.506 Q 45.36 9.346 45.99 9.856 L 45.99 9.856 L 45.99 9.856 Q 46.62 10.366 47.556 10.366 L 47.556 10.366 L 47.556 10.366 Q 48.696 10.366 49.392 9.598 L 49.392 9.598 L 50.028 10.342 L 50.028 10.342 Q 49.596 10.846 48.954 11.11 L 48.954 11.11 L 48.954 11.11 Q 48.312 11.374 47.52 11.374 L 47.52 11.374 L 47.52 11.374 Q 46.512 11.374 45.732 10.96 L 45.732 10.96 L 45.732 10.96 Q 44.952 10.546 44.526 9.802 L 44.526 9.802 L 44.526 9.802 Q 44.1 9.058 44.1 8.122 L 44.1 8.122 L 44.1 8.122 Q 44.1 7.198 44.514 6.454 L 44.514 6.454 L 44.514 6.454 Q 44.928 5.71 45.654 5.296 L 45.654 5.296 L 45.654 5.296 Q 46.38 4.882 47.292 4.882 L 47.292 4.882 L 47.292 4.882 Q 48.204 4.882 48.918 5.296 L 48.918 5.296 L 48.918 5.296 Q 49.632 5.71 50.034 6.454 L 50.034 6.454 L 50.034 6.454 Q 50.436 7.198 50.436 8.158 L 50.436 8.158 L 50.436 8.158 Z  M 47.292 5.854 L 47.292 5.854 Q 46.464 5.854 45.906 6.358 L 45.906 6.358 L 45.906 6.358 Q 45.348 6.862 45.252 7.678 L 45.252 7.678 L 49.332 7.678 L 49.332 7.678 Q 49.236 6.874 48.678 6.364 L 48.678 6.364 L 48.678 6.364 Q 48.12 5.854 47.292 5.854 L 47.292 5.854 L 47.292 5.854 Z  M 53.136 6.01 L 53.136 6.01 Q 53.436 5.458 54.024 5.17 L 54.024 5.17 L 54.024 5.17 Q 54.612 4.882 55.452 4.882 L 55.452 4.882 L 55.452 5.998 L 55.452 5.998 Q 55.356 5.986 55.188 5.986 L 55.188 5.986 L 55.188 5.986 Q 54.252 5.986 53.718 6.544 L 53.718 6.544 L 53.718 6.544 Q 53.184 7.102 53.184 8.134 L 53.184 8.134 L 53.184 11.302 L 52.032 11.302 L 52.032 4.942 L 53.136 4.942 L 53.136 6.01 L 53.136 6.01 Z " fill="rgb(255,255,255)"/><path d=" M 2.46 24.886 L 7.356 24.886 L 7.356 25.93 L 1.26 25.93 L 1.26 17.53 L 7.188 17.53 L 7.188 18.574 L 2.46 18.574 L 2.46 21.154 L 6.672 21.154 L 6.672 22.174 L 2.46 22.174 L 2.46 24.886 L 2.46 24.886 Z  M 13.896 17.026 L 15.048 17.026 L 15.048 25.93 L 13.944 25.93 L 13.944 24.922 L 13.944 24.922 Q 13.56 25.45 12.972 25.726 L 12.972 25.726 L 12.972 25.726 Q 12.384 26.002 11.676 26.002 L 11.676 26.002 L 11.676 26.002 Q 10.752 26.002 10.02 25.594 L 10.02 25.594 L 10.02 25.594 Q 9.288 25.186 8.874 24.448 L 8.874 24.448 L 8.874 24.448 Q 8.46 23.71 8.46 22.75 L 8.46 22.75 L 8.46 22.75 Q 8.46 21.79 8.874 21.058 L 8.874 21.058 L 8.874 21.058 Q 9.288 20.326 10.02 19.918 L 10.02 19.918 L 10.02 19.918 Q 10.752 19.51 11.676 19.51 L 11.676 19.51 L 11.676 19.51 Q 12.36 19.51 12.936 19.768 L 12.936 19.768 L 12.936 19.768 Q 13.512 20.026 13.896 20.53 L 13.896 20.53 L 13.896 17.026 L 13.896 17.026 Z  M 11.772 24.994 L 11.772 24.994 Q 12.372 24.994 12.864 24.712 L 12.864 24.712 L 12.864 24.712 Q 13.356 24.43 13.632 23.92 L 13.632 23.92 L 13.632 23.92 Q 13.908 23.41 13.908 22.75 L 13.908 22.75 L 13.908 22.75 Q 13.908 22.09 13.632 21.58 L 13.632 21.58 L 13.632 21.58 Q 13.356 21.07 12.864 20.794 L 12.864 20.794 L 12.864 20.794 Q 12.372 20.518 11.772 20.518 L 11.772 20.518 L 11.772 20.518 Q 11.16 20.518 10.674 20.794 L 10.674 20.794 L 10.674 20.794 Q 10.188 21.07 9.906 21.58 L 9.906 21.58 L 9.906 21.58 Q 9.624 22.09 9.624 22.75 L 9.624 22.75 L 9.624 22.75 Q 9.624 23.41 9.906 23.92 L 9.906 23.92 L 9.906 23.92 Q 10.188 24.43 10.674 24.712 L 10.674 24.712 L 10.674 24.712 Q 11.16 24.994 11.772 24.994 L 11.772 24.994 L 11.772 24.994 Z  M 17.232 25.93 L 17.232 19.57 L 18.384 19.57 L 18.384 25.93 L 17.232 25.93 L 17.232 25.93 Z  M 17.808 18.346 L 17.808 18.346 Q 17.472 18.346 17.25 18.13 L 17.25 18.13 L 17.25 18.13 Q 17.028 17.914 17.028 17.602 L 17.028 17.602 L 17.028 17.602 Q 17.028 17.29 17.25 17.068 L 17.25 17.068 L 17.25 17.068 Q 17.472 16.846 17.808 16.846 L 17.808 16.846 L 17.808 16.846 Q 18.144 16.846 18.366 17.056 L 18.366 17.056 L 18.366 17.056 Q 18.588 17.266 18.588 17.578 L 18.588 17.578 L 18.588 17.578 Q 18.588 17.902 18.366 18.124 L 18.366 18.124 L 18.366 18.124 Q 18.144 18.346 17.808 18.346 L 17.808 18.346 L 17.808 18.346 Z  M 23.796 24.73 L 24.156 25.558 L 24.156 25.558 Q 23.904 25.774 23.532 25.888 L 23.532 25.888 L 23.532 25.888 Q 23.16 26.002 22.764 26.002 L 22.764 26.002 L 22.764 26.002 Q 21.804 26.002 21.276 25.486 L 21.276 25.486 L 21.276 25.486 Q 20.748 24.97 20.748 24.01 L 20.748 24.01 L 20.748 20.518 L 19.668 20.518 L 19.668 19.57 L 20.748 19.57 L 20.748 18.178 L 21.9 18.178 L 21.9 19.57 L 23.724 19.57 L 23.724 20.518 L 21.9 20.518 L 21.9 23.962 L 21.9 23.962 Q 21.9 24.478 22.158 24.754 L 22.158 24.754 L 22.158 24.754 Q 22.416 25.03 22.896 25.03 L 22.896 25.03 L 22.896 25.03 Q 23.424 25.03 23.796 24.73 L 23.796 24.73 L 23.796 24.73 Z " fill="rgb(255,255,255)"/><path d=" M 8.184 40.558 L 6.876 40.558 L 5.064 37.978 L 5.064 37.978 Q 4.728 38.002 4.536 38.002 L 4.536 38.002 L 2.46 38.002 L 2.46 40.558 L 1.26 40.558 L 1.26 32.158 L 4.536 32.158 L 4.536 32.158 Q 6.168 32.158 7.104 32.938 L 7.104 32.938 L 7.104 32.938 Q 8.04 33.718 8.04 35.086 L 8.04 35.086 L 8.04 35.086 Q 8.04 36.058 7.56 36.742 L 7.56 36.742 L 7.56 36.742 Q 7.08 37.426 6.192 37.738 L 6.192 37.738 L 8.184 40.558 L 8.184 40.558 Z  M 4.5 36.982 L 4.5 36.982 Q 5.64 36.982 6.24 36.49 L 6.24 36.49 L 6.24 36.49 Q 6.84 35.998 6.84 35.086 L 6.84 35.086 L 6.84 35.086 Q 6.84 34.174 6.24 33.688 L 6.24 33.688 L 6.24 33.688 Q 5.64 33.202 4.5 33.202 L 4.5 33.202 L 2.46 33.202 L 2.46 36.982 L 4.5 36.982 L 4.5 36.982 Z  M 15.564 37.414 L 15.564 37.414 Q 15.564 37.546 15.54 37.762 L 15.54 37.762 L 10.38 37.762 L 10.38 37.762 Q 10.488 38.602 11.118 39.112 L 11.118 39.112 L 11.118 39.112 Q 11.748 39.622 12.684 39.622 L 12.684 39.622 L 12.684 39.622 Q 13.824 39.622 14.52 38.854 L 14.52 38.854 L 15.156 39.598 L 15.156 39.598 Q 14.724 40.102 14.082 40.366 L 14.082 40.366 L 14.082 40.366 Q 13.44 40.63 12.648 40.63 L 12.648 40.63 L 12.648 40.63 Q 11.64 40.63 10.86 40.216 L 10.86 40.216 L 10.86 40.216 Q 10.08 39.802 9.654 39.058 L 9.654 39.058 L 9.654 39.058 Q 9.228 38.314 9.228 37.378 L 9.228 37.378 L 9.228 37.378 Q 9.228 36.454 9.642 35.71 L 9.642 35.71 L 9.642 35.71 Q 10.056 34.966 10.782 34.552 L 10.782 34.552 L 10.782 34.552 Q 11.508 34.138 12.42 34.138 L 12.42 34.138 L 12.42 34.138 Q 13.332 34.138 14.046 34.552 L 14.046 34.552 L 14.046 34.552 Q 14.76 34.966 15.162 35.71 L 15.162 35.71 L 15.162 35.71 Q 15.564 36.454 15.564 37.414 L 15.564 37.414 L 15.564 37.414 Z  M 12.42 35.11 L 12.42 35.11 Q 11.592 35.11 11.034 35.614 L 11.034 35.614 L 11.034 35.614 Q 10.476 36.118 10.38 36.934 L 10.38 36.934 L 14.46 36.934 L 14.46 36.934 Q 14.364 36.13 13.806 35.62 L 13.806 35.62 L 13.806 35.62 Q 13.248 35.11 12.42 35.11 L 12.42 35.11 L 12.42 35.11 Z  M 19.932 40.63 L 19.932 40.63 Q 18.96 40.63 18.198 40.21 L 18.198 40.21 L 18.198 40.21 Q 17.436 39.79 17.004 39.052 L 17.004 39.052 L 17.004 39.052 Q 16.572 38.314 16.572 37.378 L 16.572 37.378 L 16.572 37.378 Q 16.572 36.442 17.004 35.704 L 17.004 35.704 L 17.004 35.704 Q 17.436 34.966 18.198 34.552 L 18.198 34.552 L 18.198 34.552 Q 18.96 34.138 19.932 34.138 L 19.932 34.138 L 19.932 34.138 Q 20.796 34.138 21.474 34.486 L 21.474 34.486 L 21.474 34.486 Q 22.152 34.834 22.524 35.494 L 22.524 35.494 L 21.648 36.058 L 21.648 36.058 Q 21.348 35.602 20.904 35.374 L 20.904 35.374 L 20.904 35.374 Q 20.46 35.146 19.92 35.146 L 19.92 35.146 L 19.92 35.146 Q 19.296 35.146 18.798 35.422 L 18.798 35.422 L 18.798 35.422 Q 18.3 35.698 18.018 36.208 L 18.018 36.208 L 18.018 36.208 Q 17.736 36.718 17.736 37.378 L 17.736 37.378 L 17.736 37.378 Q 17.736 38.05 18.018 38.56 L 18.018 38.56 L 18.018 38.56 Q 18.3 39.07 18.798 39.346 L 18.798 39.346 L 18.798 39.346 Q 19.296 39.622 19.92 39.622 L 19.92 39.622 L 19.92 39.622 Q 20.46 39.622 20.904 39.394 L 20.904 39.394 L 20.904 39.394 Q 21.348 39.166 21.648 38.71 L 21.648 38.71 L 22.524 39.262 L 22.524 39.262 Q 22.152 39.922 21.474 40.276 L 21.474 40.276 L 21.474 40.276 Q 20.796 40.63 19.932 40.63 L 19.932 40.63 L 19.932 40.63 Z  M 26.64 40.63 L 26.64 40.63 Q 25.692 40.63 24.936 40.21 L 24.936 40.21 L 24.936 40.21 Q 24.18 39.79 23.754 39.052 L 23.754 39.052 L 23.754 39.052 Q 23.328 38.314 23.328 37.378 L 23.328 37.378 L 23.328 37.378 Q 23.328 36.442 23.754 35.704 L 23.754 35.704 L 23.754 35.704 Q 24.18 34.966 24.936 34.552 L 24.936 34.552 L 24.936 34.552 Q 25.692 34.138 26.64 34.138 L 26.64 34.138 L 26.64 34.138 Q 27.588 34.138 28.338 34.552 L 28.338 34.552 L 28.338 34.552 Q 29.088 34.966 29.514 35.704 L 29.514 35.704 L 29.514 35.704 Q 29.94 36.442 29.94 37.378 L 29.94 37.378 L 29.94 37.378 Q 29.94 38.314 29.514 39.052 L 29.514 39.052 L 29.514 39.052 Q 29.088 39.79 28.338 40.21 L 28.338 40.21 L 28.338 40.21 Q 27.588 40.63 26.64 40.63 L 26.64 40.63 L 26.64 40.63 Z  M 26.64 39.622 L 26.64 39.622 Q 27.252 39.622 27.738 39.34 L 27.738 39.34 L 27.738 39.34 Q 28.224 39.058 28.5 38.548 L 28.5 38.548 L 28.5 38.548 Q 28.776 38.038 28.776 37.378 L 28.776 37.378 L 28.776 37.378 Q 28.776 36.718 28.5 36.208 L 28.5 36.208 L 28.5 36.208 Q 28.224 35.698 27.738 35.422 L 27.738 35.422 L 27.738 35.422 Q 27.252 35.146 26.64 35.146 L 26.64 35.146 L 26.64 35.146 Q 26.028 35.146 25.542 35.422 L 25.542 35.422 L 25.542 35.422 Q 25.056 35.698 24.774 36.208 L 24.774 36.208 L 24.774 36.208 Q 24.492 36.718 24.492 37.378 L 24.492 37.378 L 24.492 37.378 Q 24.492 38.038 24.774 38.548 L 24.774 38.548 L 24.774 38.548 Q 25.056 39.058 25.542 39.34 L 25.542 39.34 L 25.542 39.34 Q 26.028 39.622 26.64 39.622 L 26.64 39.622 L 26.64 39.622 Z  M 39.492 34.138 L 39.492 34.138 Q 40.692 34.138 41.394 34.834 L 41.394 34.834 L 41.394 34.834 Q 42.096 35.53 42.096 36.898 L 42.096 36.898 L 42.096 40.558 L 40.944 40.558 L 40.944 37.03 L 40.944 37.03 Q 40.944 36.106 40.518 35.638 L 40.518 35.638 L 40.518 35.638 Q 40.092 35.17 39.3 35.17 L 39.3 35.17 L 39.3 35.17 Q 38.424 35.17 37.908 35.716 L 37.908 35.716 L 37.908 35.716 Q 37.392 36.262 37.392 37.282 L 37.392 37.282 L 37.392 40.558 L 36.24 40.558 L 36.24 37.03 L 36.24 37.03 Q 36.24 36.106 35.814 35.638 L 35.814 35.638 L 35.814 35.638 Q 35.388 35.17 34.596 35.17 L 34.596 35.17 L 34.596 35.17 Q 33.72 35.17 33.204 35.716 L 33.204 35.716 L 33.204 35.716 Q 32.688 36.262 32.688 37.282 L 32.688 37.282 L 32.688 40.558 L 31.536 40.558 L 31.536 34.198 L 32.64 34.198 L 32.64 35.146 L 32.64 35.146 Q 32.988 34.654 33.552 34.396 L 33.552 34.396 L 33.552 34.396 Q 34.116 34.138 34.836 34.138 L 34.836 34.138 L 34.836 34.138 Q 35.58 34.138 36.156 34.438 L 36.156 34.438 L 36.156 34.438 Q 36.732 34.738 37.044 35.314 L 37.044 35.314 L 37.044 35.314 Q 37.404 34.762 38.046 34.45 L 38.046 34.45 L 38.046 34.45 Q 38.688 34.138 39.492 34.138 L 39.492 34.138 L 39.492 34.138 Z  M 47.592 34.138 L 47.592 34.138 Q 48.516 34.138 49.248 34.546 L 49.248 34.546 L 49.248 34.546 Q 49.98 34.954 50.394 35.686 L 50.394 35.686 L 50.394 35.686 Q 50.808 36.418 50.808 37.378 L 50.808 37.378 L 50.808 37.378 Q 50.808 38.338 50.394 39.076 L 50.394 39.076 L 50.394 39.076 Q 49.98 39.814 49.248 40.222 L 49.248 40.222 L 49.248 40.222 Q 48.516 40.63 47.592 40.63 L 47.592 40.63 L 47.592 40.63 Q 46.908 40.63 46.338 40.366 L 46.338 40.366 L 46.338 40.366 Q 45.768 40.102 45.372 39.598 L 45.372 39.598 L 45.372 42.886 L 44.22 42.886 L 44.22 34.198 L 45.324 34.198 L 45.324 35.206 L 45.324 35.206 Q 45.708 34.678 46.296 34.408 L 46.296 34.408 L 46.296 34.408 Q 46.884 34.138 47.592 34.138 L 47.592 34.138 L 47.592 34.138 Z  M 47.496 39.622 L 47.496 39.622 Q 48.108 39.622 48.594 39.34 L 48.594 39.34 L 48.594 39.34 Q 49.08 39.058 49.362 38.548 L 49.362 38.548 L 49.362 38.548 Q 49.644 38.038 49.644 37.378 L 49.644 37.378 L 49.644 37.378 Q 49.644 36.718 49.362 36.208 L 49.362 36.208 L 49.362 36.208 Q 49.08 35.698 48.594 35.422 L 48.594 35.422 L 48.594 35.422 Q 48.108 35.146 47.496 35.146 L 47.496 35.146 L 47.496 35.146 Q 46.896 35.146 46.41 35.428 L 46.41 35.428 L 46.41 35.428 Q 45.924 35.71 45.642 36.214 L 45.642 36.214 L 45.642 36.214 Q 45.36 36.718 45.36 37.378 L 45.36 37.378 L 45.36 37.378 Q 45.36 38.038 45.636 38.548 L 45.636 38.548 L 45.636 38.548 Q 45.912 39.058 46.404 39.34 L 46.404 39.34 L 46.404 39.34 Q 46.896 39.622 47.496 39.622 L 47.496 39.622 L 47.496 39.622 Z  M 52.404 40.558 L 52.404 34.198 L 53.556 34.198 L 53.556 40.558 L 52.404 40.558 L 52.404 40.558 Z  M 52.98 32.974 L 52.98 32.974 Q 52.644 32.974 52.422 32.758 L 52.422 32.758 L 52.422 32.758 Q 52.2 32.542 52.2 32.23 L 52.2 32.23 L 52.2 32.23 Q 52.2 31.918 52.422 31.696 L 52.422 31.696 L 52.422 31.696 Q 52.644 31.474 52.98 31.474 L 52.98 31.474 L 52.98 31.474 Q 53.316 31.474 53.538 31.684 L 53.538 31.684 L 53.538 31.684 Q 53.76 31.894 53.76 32.206 L 53.76 32.206 L 53.76 32.206 Q 53.76 32.53 53.538 32.752 L 53.538 32.752 L 53.538 32.752 Q 53.316 32.974 52.98 32.974 L 52.98 32.974 L 52.98 32.974 Z  M 55.752 40.558 L 55.752 31.654 L 56.904 31.654 L 56.904 40.558 L 55.752 40.558 L 55.752 40.558 Z  M 64.848 37.414 L 64.848 37.414 Q 64.848 37.546 64.824 37.762 L 64.824 37.762 L 59.664 37.762 L 59.664 37.762 Q 59.772 38.602 60.402 39.112 L 60.402 39.112 L 60.402 39.112 Q 61.032 39.622 61.968 39.622 L 61.968 39.622 L 61.968 39.622 Q 63.108 39.622 63.804 38.854 L 63.804 38.854 L 64.44 39.598 L 64.44 39.598 Q 64.008 40.102 63.366 40.366 L 63.366 40.366 L 63.366 40.366 Q 62.724 40.63 61.932 40.63 L 61.932 40.63 L 61.932 40.63 Q 60.924 40.63 60.144 40.216 L 60.144 40.216 L 60.144 40.216 Q 59.364 39.802 58.938 39.058 L 58.938 39.058 L 58.938 39.058 Q 58.512 38.314 58.512 37.378 L 58.512 37.378 L 58.512 37.378 Q 58.512 36.454 58.926 35.71 L 58.926 35.71 L 58.926 35.71 Q 59.34 34.966 60.066 34.552 L 60.066 34.552 L 60.066 34.552 Q 60.792 34.138 61.704 34.138 L 61.704 34.138 L 61.704 34.138 Q 62.616 34.138 63.33 34.552 L 63.33 34.552 L 63.33 34.552 Q 64.044 34.966 64.446 35.71 L 64.446 35.71 L 64.446 35.71 Q 64.848 36.454 64.848 37.414 L 64.848 37.414 L 64.848 37.414 Z  M 61.704 35.11 L 61.704 35.11 Q 60.876 35.11 60.318 35.614 L 60.318 35.614 L 60.318 35.614 Q 59.76 36.118 59.664 36.934 L 59.664 36.934 L 63.744 36.934 L 63.744 36.934 Q 63.648 36.13 63.09 35.62 L 63.09 35.62 L 63.09 35.62 Q 62.532 35.11 61.704 35.11 L 61.704 35.11 L 61.704 35.11 Z " fill="rgb(255,255,255)"/><path d=" M 8.184 55.186 L 6.876 55.186 L 5.064 52.606 L 5.064 52.606 Q 4.728 52.63 4.536 52.63 L 4.536 52.63 L 2.46 52.63 L 2.46 55.186 L 1.26 55.186 L 1.26 46.786 L 4.536 46.786 L 4.536 46.786 Q 6.168 46.786 7.104 47.566 L 7.104 47.566 L 7.104 47.566 Q 8.04 48.346 8.04 49.714 L 8.04 49.714 L 8.04 49.714 Q 8.04 50.686 7.56 51.37 L 7.56 51.37 L 7.56 51.37 Q 7.08 52.054 6.192 52.366 L 6.192 52.366 L 8.184 55.186 L 8.184 55.186 Z  M 4.5 51.61 L 4.5 51.61 Q 5.64 51.61 6.24 51.118 L 6.24 51.118 L 6.24 51.118 Q 6.84 50.626 6.84 49.714 L 6.84 49.714 L 6.84 49.714 Q 6.84 48.802 6.24 48.316 L 6.24 48.316 L 6.24 48.316 Q 5.64 47.83 4.5 47.83 L 4.5 47.83 L 2.46 47.83 L 2.46 51.61 L 4.5 51.61 L 4.5 51.61 Z  M 14.592 48.826 L 15.744 48.826 L 15.744 55.186 L 14.652 55.186 L 14.652 54.226 L 14.652 54.226 Q 14.304 54.718 13.734 54.988 L 13.734 54.988 L 13.734 54.988 Q 13.164 55.258 12.492 55.258 L 12.492 55.258 L 12.492 55.258 Q 11.22 55.258 10.488 54.556 L 10.488 54.556 L 10.488 54.556 Q 9.756 53.854 9.756 52.486 L 9.756 52.486 L 9.756 48.826 L 10.908 48.826 L 10.908 52.354 L 10.908 52.354 Q 10.908 53.278 11.352 53.752 L 11.352 53.752 L 11.352 53.752 Q 11.796 54.226 12.624 54.226 L 12.624 54.226 L 12.624 54.226 Q 13.536 54.226 14.064 53.674 L 14.064 53.674 L 14.064 53.674 Q 14.592 53.122 14.592 52.114 L 14.592 52.114 L 14.592 48.826 L 14.592 48.826 Z  M 21.336 48.766 L 21.336 48.766 Q 22.548 48.766 23.262 49.468 L 23.262 49.468 L 23.262 49.468 Q 23.976 50.17 23.976 51.526 L 23.976 51.526 L 23.976 55.186 L 22.824 55.186 L 22.824 51.658 L 22.824 51.658 Q 22.824 50.734 22.38 50.266 L 22.38 50.266 L 22.38 50.266 Q 21.936 49.798 21.108 49.798 L 21.108 49.798 L 21.108 49.798 Q 20.172 49.798 19.632 50.344 L 19.632 50.344 L 19.632 50.344 Q 19.092 50.89 19.092 51.91 L 19.092 51.91 L 19.092 55.186 L 17.94 55.186 L 17.94 48.826 L 19.044 48.826 L 19.044 49.786 L 19.044 49.786 Q 19.392 49.294 19.986 49.03 L 19.986 49.03 L 19.986 49.03 Q 20.58 48.766 21.336 48.766 L 21.336 48.766 L 21.336 48.766 Z " fill="rgb(255,255,255)"/><path d=" M 2.46 68.77 L 7.356 68.77 L 7.356 69.814 L 1.26 69.814 L 1.26 61.414 L 7.188 61.414 L 7.188 62.458 L 2.46 62.458 L 2.46 65.038 L 6.672 65.038 L 6.672 66.058 L 2.46 66.058 L 2.46 68.77 L 2.46 68.77 Z  M 10.236 64.522 L 10.236 64.522 Q 10.536 63.97 11.124 63.682 L 11.124 63.682 L 11.124 63.682 Q 11.712 63.394 12.552 63.394 L 12.552 63.394 L 12.552 64.51 L 12.552 64.51 Q 12.456 64.498 12.288 64.498 L 12.288 64.498 L 12.288 64.498 Q 11.352 64.498 10.818 65.056 L 10.818 65.056 L 10.818 65.056 Q 10.284 65.614 10.284 66.646 L 10.284 66.646 L 10.284 69.814 L 9.132 69.814 L 9.132 63.454 L 10.236 63.454 L 10.236 64.522 L 10.236 64.522 Z  M 15.072 64.522 L 15.072 64.522 Q 15.372 63.97 15.96 63.682 L 15.96 63.682 L 15.96 63.682 Q 16.548 63.394 17.388 63.394 L 17.388 63.394 L 17.388 64.51 L 17.388 64.51 Q 17.292 64.498 17.124 64.498 L 17.124 64.498 L 17.124 64.498 Q 16.188 64.498 15.654 65.056 L 15.654 65.056 L 15.654 65.056 Q 15.12 65.614 15.12 66.646 L 15.12 66.646 L 15.12 69.814 L 13.968 69.814 L 13.968 63.454 L 15.072 63.454 L 15.072 64.522 L 15.072 64.522 Z  M 21.468 69.886 L 21.468 69.886 Q 20.52 69.886 19.764 69.466 L 19.764 69.466 L 19.764 69.466 Q 19.008 69.046 18.582 68.308 L 18.582 68.308 L 18.582 68.308 Q 18.156 67.57 18.156 66.634 L 18.156 66.634 L 18.156 66.634 Q 18.156 65.698 18.582 64.96 L 18.582 64.96 L 18.582 64.96 Q 19.008 64.222 19.764 63.808 L 19.764 63.808 L 19.764 63.808 Q 20.52 63.394 21.468 63.394 L 21.468 63.394 L 21.468 63.394 Q 22.416 63.394 23.166 63.808 L 23.166 63.808 L 23.166 63.808 Q 23.916 64.222 24.342 64.96 L 24.342 64.96 L 24.342 64.96 Q 24.768 65.698 24.768 66.634 L 24.768 66.634 L 24.768 66.634 Q 24.768 67.57 24.342 68.308 L 24.342 68.308 L 24.342 68.308 Q 23.916 69.046 23.166 69.466 L 23.166 69.466 L 23.166 69.466 Q 22.416 69.886 21.468 69.886 L 21.468 69.886 L 21.468 69.886 Z  M 21.468 68.878 L 21.468 68.878 Q 22.08 68.878 22.566 68.596 L 22.566 68.596 L 22.566 68.596 Q 23.052 68.314 23.328 67.804 L 23.328 67.804 L 23.328 67.804 Q 23.604 67.294 23.604 66.634 L 23.604 66.634 L 23.604 66.634 Q 23.604 65.974 23.328 65.464 L 23.328 65.464 L 23.328 65.464 Q 23.052 64.954 22.566 64.678 L 22.566 64.678 L 22.566 64.678 Q 22.08 64.402 21.468 64.402 L 21.468 64.402 L 21.468 64.402 Q 20.856 64.402 20.37 64.678 L 20.37 64.678 L 20.37 64.678 Q 19.884 64.954 19.602 65.464 L 19.602 65.464 L 19.602 65.464 Q 19.32 65.974 19.32 66.634 L 19.32 66.634 L 19.32 66.634 Q 19.32 67.294 19.602 67.804 L 19.602 67.804 L 19.602 67.804 Q 19.884 68.314 20.37 68.596 L 20.37 68.596 L 20.37 68.596 Q 20.856 68.878 21.468 68.878 L 21.468 68.878 L 21.468 68.878 Z  M 27.468 64.522 L 27.468 64.522 Q 27.768 63.97 28.356 63.682 L 28.356 63.682 L 28.356 63.682 Q 28.944 63.394 29.784 63.394 L 29.784 63.394 L 29.784 64.51 L 29.784 64.51 Q 29.688 64.498 29.52 64.498 L 29.52 64.498 L 29.52 64.498 Q 28.584 64.498 28.05 65.056 L 28.05 65.056 L 28.05 65.056 Q 27.516 65.614 27.516 66.646 L 27.516 66.646 L 27.516 69.814 L 26.364 69.814 L 26.364 63.454 L 27.468 63.454 L 27.468 64.522 L 27.468 64.522 Z " fill="rgb(255,255,255)"/><path d=" M 3.708 84.538 L 3.708 84.538 Q 2.76 84.538 1.878 84.244 L 1.878 84.244 L 1.878 84.244 Q 0.996 83.95 0.492 83.482 L 0.492 83.482 L 0.936 82.546 L 0.936 82.546 Q 1.416 82.978 2.166 83.248 L 2.166 83.248 L 2.166 83.248 Q 2.916 83.518 3.708 83.518 L 3.708 83.518 L 3.708 83.518 Q 4.752 83.518 5.268 83.164 L 5.268 83.164 L 5.268 83.164 Q 5.784 82.81 5.784 82.222 L 5.784 82.222 L 5.784 82.222 Q 5.784 81.79 5.502 81.52 L 5.502 81.52 L 5.502 81.52 Q 5.22 81.25 4.806 81.106 L 4.806 81.106 L 4.806 81.106 Q 4.392 80.962 3.636 80.782 L 3.636 80.782 L 3.636 80.782 Q 2.688 80.554 2.106 80.326 L 2.106 80.326 L 2.106 80.326 Q 1.524 80.098 1.11 79.624 L 1.11 79.624 L 1.11 79.624 Q 0.696 79.15 0.696 78.346 L 0.696 78.346 L 0.696 78.346 Q 0.696 77.674 1.05 77.134 L 1.05 77.134 L 1.05 77.134 Q 1.404 76.594 2.124 76.27 L 2.124 76.27 L 2.124 76.27 Q 2.844 75.946 3.912 75.946 L 3.912 75.946 L 3.912 75.946 Q 4.656 75.946 5.376 76.138 L 5.376 76.138 L 5.376 76.138 Q 6.096 76.33 6.612 76.69 L 6.612 76.69 L 6.216 77.65 L 6.216 77.65 Q 5.688 77.314 5.088 77.14 L 5.088 77.14 L 5.088 77.14 Q 4.488 76.966 3.912 76.966 L 3.912 76.966 L 3.912 76.966 Q 2.892 76.966 2.382 77.338 L 2.382 77.338 L 2.382 77.338 Q 1.872 77.71 1.872 78.298 L 1.872 78.298 L 1.872 78.298 Q 1.872 78.73 2.16 79 L 2.16 79 L 2.16 79 Q 2.448 79.27 2.874 79.42 L 2.874 79.42 L 2.874 79.42 Q 3.3 79.57 4.032 79.738 L 4.032 79.738 L 4.032 79.738 Q 4.98 79.966 5.556 80.194 L 5.556 80.194 L 5.556 80.194 Q 6.132 80.422 6.546 80.89 L 6.546 80.89 L 6.546 80.89 Q 6.96 81.358 6.96 82.15 L 6.96 82.15 L 6.96 82.15 Q 6.96 82.81 6.6 83.356 L 6.6 83.356 L 6.6 83.356 Q 6.24 83.902 5.508 84.22 L 5.508 84.22 L 5.508 84.22 Q 4.776 84.538 3.708 84.538 L 3.708 84.538 L 3.708 84.538 Z  M 10.86 78.022 L 10.86 78.022 Q 12.18 78.022 12.882 78.67 L 12.882 78.67 L 12.882 78.67 Q 13.584 79.318 13.584 80.602 L 13.584 80.602 L 13.584 84.442 L 12.492 84.442 L 12.492 83.602 L 12.492 83.602 Q 12.204 84.046 11.67 84.28 L 11.67 84.28 L 11.67 84.28 Q 11.136 84.514 10.404 84.514 L 10.404 84.514 L 10.404 84.514 Q 9.336 84.514 8.694 83.998 L 8.694 83.998 L 8.694 83.998 Q 8.052 83.482 8.052 82.642 L 8.052 82.642 L 8.052 82.642 Q 8.052 81.802 8.664 81.292 L 8.664 81.292 L 8.664 81.292 Q 9.276 80.782 10.608 80.782 L 10.608 80.782 L 12.432 80.782 L 12.432 80.554 L 12.432 80.554 Q 12.432 79.81 12 79.414 L 12 79.414 L 12 79.414 Q 11.568 79.018 10.728 79.018 L 10.728 79.018 L 10.728 79.018 Q 10.164 79.018 9.624 79.204 L 9.624 79.204 L 9.624 79.204 Q 9.084 79.39 8.712 79.702 L 8.712 79.702 L 8.232 78.838 L 8.232 78.838 Q 8.724 78.442 9.408 78.232 L 9.408 78.232 L 9.408 78.232 Q 10.092 78.022 10.86 78.022 L 10.86 78.022 L 10.86 78.022 Z  M 10.596 83.626 L 10.596 83.626 Q 11.256 83.626 11.736 83.332 L 11.736 83.332 L 11.736 83.332 Q 12.216 83.038 12.432 82.498 L 12.432 82.498 L 12.432 81.61 L 10.656 81.61 L 10.656 81.61 Q 9.192 81.61 9.192 82.594 L 9.192 82.594 L 9.192 82.594 Q 9.192 83.074 9.564 83.35 L 9.564 83.35 L 9.564 83.35 Q 9.936 83.626 10.596 83.626 L 10.596 83.626 L 10.596 83.626 Z  M 20.1 78.082 L 21.228 78.082 L 18.444 84.442 L 17.268 84.442 L 14.484 78.082 L 15.684 78.082 L 17.868 83.182 L 20.1 78.082 L 20.1 78.082 Z  M 27.876 81.298 L 27.876 81.298 Q 27.876 81.43 27.852 81.646 L 27.852 81.646 L 22.692 81.646 L 22.692 81.646 Q 22.8 82.486 23.43 82.996 L 23.43 82.996 L 23.43 82.996 Q 24.06 83.506 24.996 83.506 L 24.996 83.506 L 24.996 83.506 Q 26.136 83.506 26.832 82.738 L 26.832 82.738 L 27.468 83.482 L 27.468 83.482 Q 27.036 83.986 26.394 84.25 L 26.394 84.25 L 26.394 84.25 Q 25.752 84.514 24.96 84.514 L 24.96 84.514 L 24.96 84.514 Q 23.952 84.514 23.172 84.1 L 23.172 84.1 L 23.172 84.1 Q 22.392 83.686 21.966 82.942 L 21.966 82.942 L 21.966 82.942 Q 21.54 82.198 21.54 81.262 L 21.54 81.262 L 21.54 81.262 Q 21.54 80.338 21.954 79.594 L 21.954 79.594 L 21.954 79.594 Q 22.368 78.85 23.094 78.436 L 23.094 78.436 L 23.094 78.436 Q 23.82 78.022 24.732 78.022 L 24.732 78.022 L 24.732 78.022 Q 25.644 78.022 26.358 78.436 L 26.358 78.436 L 26.358 78.436 Q 27.072 78.85 27.474 79.594 L 27.474 79.594 L 27.474 79.594 Q 27.876 80.338 27.876 81.298 L 27.876 81.298 L 27.876 81.298 Z  M 24.732 78.994 L 24.732 78.994 Q 23.904 78.994 23.346 79.498 L 23.346 79.498 L 23.346 79.498 Q 22.788 80.002 22.692 80.818 L 22.692 80.818 L 26.772 80.818 L 26.772 80.818 Q 26.676 80.014 26.118 79.504 L 26.118 79.504 L 26.118 79.504 Q 25.56 78.994 24.732 78.994 L 24.732 78.994 L 24.732 78.994 Z " fill="rgb(255,255,255)"/><path d=" M 4.536 90.67 L 4.536 90.67 Q 6.168 90.67 7.104 91.45 L 7.104 91.45 L 7.104 91.45 Q 8.04 92.23 8.04 93.598 L 8.04 93.598 L 8.04 93.598 Q 8.04 94.966 7.104 95.746 L 7.104 95.746 L 7.104 95.746 Q 6.168 96.526 4.536 96.526 L 4.536 96.526 L 2.46 96.526 L 2.46 99.07 L 1.26 99.07 L 1.26 90.67 L 4.536 90.67 L 4.536 90.67 Z  M 4.5 95.482 L 4.5 95.482 Q 5.64 95.482 6.24 94.996 L 6.24 94.996 L 6.24 94.996 Q 6.84 94.51 6.84 93.598 L 6.84 93.598 L 6.84 93.598 Q 6.84 92.686 6.24 92.2 L 6.24 92.2 L 6.24 92.2 Q 5.64 91.714 4.5 91.714 L 4.5 91.714 L 2.46 91.714 L 2.46 95.482 L 4.5 95.482 L 4.5 95.482 Z  M 9.756 99.07 L 9.756 90.166 L 10.908 90.166 L 10.908 99.07 L 9.756 99.07 L 9.756 99.07 Z  M 15.42 92.65 L 15.42 92.65 Q 16.74 92.65 17.442 93.298 L 17.442 93.298 L 17.442 93.298 Q 18.144 93.946 18.144 95.23 L 18.144 95.23 L 18.144 99.07 L 17.052 99.07 L 17.052 98.23 L 17.052 98.23 Q 16.764 98.674 16.23 98.908 L 16.23 98.908 L 16.23 98.908 Q 15.696 99.142 14.964 99.142 L 14.964 99.142 L 14.964 99.142 Q 13.896 99.142 13.254 98.626 L 13.254 98.626 L 13.254 98.626 Q 12.612 98.11 12.612 97.27 L 12.612 97.27 L 12.612 97.27 Q 12.612 96.43 13.224 95.92 L 13.224 95.92 L 13.224 95.92 Q 13.836 95.41 15.168 95.41 L 15.168 95.41 L 16.992 95.41 L 16.992 95.182 L 16.992 95.182 Q 16.992 94.438 16.56 94.042 L 16.56 94.042 L 16.56 94.042 Q 16.128 93.646 15.288 93.646 L 15.288 93.646 L 15.288 93.646 Q 14.724 93.646 14.184 93.832 L 14.184 93.832 L 14.184 93.832 Q 13.644 94.018 13.272 94.33 L 13.272 94.33 L 12.792 93.466 L 12.792 93.466 Q 13.284 93.07 13.968 92.86 L 13.968 92.86 L 13.968 92.86 Q 14.652 92.65 15.42 92.65 L 15.42 92.65 L 15.42 92.65 Z  M 15.156 98.254 L 15.156 98.254 Q 15.816 98.254 16.296 97.96 L 16.296 97.96 L 16.296 97.96 Q 16.776 97.666 16.992 97.126 L 16.992 97.126 L 16.992 96.238 L 15.216 96.238 L 15.216 96.238 Q 13.752 96.238 13.752 97.222 L 13.752 97.222 L 13.752 97.222 Q 13.752 97.702 14.124 97.978 L 14.124 97.978 L 14.124 97.978 Q 14.496 98.254 15.156 98.254 L 15.156 98.254 L 15.156 98.254 Z  M 24.66 92.71 L 25.788 92.71 L 22.704 99.706 L 22.704 99.706 Q 22.296 100.678 21.75 101.074 L 21.75 101.074 L 21.75 101.074 Q 21.204 101.47 20.436 101.47 L 20.436 101.47 L 20.436 101.47 Q 19.968 101.47 19.53 101.32 L 19.53 101.32 L 19.53 101.32 Q 19.092 101.17 18.804 100.882 L 18.804 100.882 L 19.296 100.018 L 19.296 100.018 Q 19.788 100.486 20.436 100.486 L 20.436 100.486 L 20.436 100.486 Q 20.856 100.486 21.138 100.264 L 21.138 100.264 L 21.138 100.264 Q 21.42 100.042 21.648 99.502 L 21.648 99.502 L 21.852 99.058 L 19.044 92.71 L 20.244 92.71 L 22.464 97.798 L 24.66 92.71 L 24.66 92.71 Z " fill="rgb(255,255,255)"/><path d=" M 6.912 109.342 L 6.912 109.342 Q 7.644 109.546 8.064 110.08 L 8.064 110.08 L 8.064 110.08 Q 8.484 110.614 8.484 111.43 L 8.484 111.43 L 8.484 111.43 Q 8.484 112.522 7.662 113.11 L 7.662 113.11 L 7.662 113.11 Q 6.84 113.698 5.268 113.698 L 5.268 113.698 L 1.26 113.698 L 1.26 105.298 L 5.028 105.298 L 5.028 105.298 Q 6.468 105.298 7.254 105.874 L 7.254 105.874 L 7.254 105.874 Q 8.04 106.45 8.04 107.47 L 8.04 107.47 L 8.04 107.47 Q 8.04 108.13 7.734 108.61 L 7.734 108.61 L 7.734 108.61 Q 7.428 109.09 6.912 109.342 L 6.912 109.342 L 6.912 109.342 Z  M 4.92 106.27 L 2.46 106.27 L 2.46 108.958 L 4.92 108.958 L 4.92 108.958 Q 5.844 108.958 6.342 108.616 L 6.342 108.616 L 6.342 108.616 Q 6.84 108.274 6.84 107.614 L 6.84 107.614 L 6.84 107.614 Q 6.84 106.954 6.342 106.612 L 6.342 106.612 L 6.342 106.612 Q 5.844 106.27 4.92 106.27 L 4.92 106.27 L 4.92 106.27 Z  M 5.22 112.726 L 5.22 112.726 Q 6.24 112.726 6.756 112.39 L 6.756 112.39 L 6.756 112.39 Q 7.272 112.054 7.272 111.334 L 7.272 111.334 L 7.272 111.334 Q 7.272 109.93 5.22 109.93 L 5.22 109.93 L 2.46 109.93 L 2.46 112.726 L 5.22 112.726 L 5.22 112.726 Z  M 10.176 113.698 L 10.176 104.794 L 11.328 104.794 L 11.328 113.698 L 10.176 113.698 L 10.176 113.698 Z  M 18.3 107.338 L 19.452 107.338 L 19.452 113.698 L 18.36 113.698 L 18.36 112.738 L 18.36 112.738 Q 18.012 113.23 17.442 113.5 L 17.442 113.5 L 17.442 113.5 Q 16.872 113.77 16.2 113.77 L 16.2 113.77 L 16.2 113.77 Q 14.928 113.77 14.196 113.068 L 14.196 113.068 L 14.196 113.068 Q 13.464 112.366 13.464 110.998 L 13.464 110.998 L 13.464 107.338 L 14.616 107.338 L 14.616 110.866 L 14.616 110.866 Q 14.616 111.79 15.06 112.264 L 15.06 112.264 L 15.06 112.264 Q 15.504 112.738 16.332 112.738 L 16.332 112.738 L 16.332 112.738 Q 17.244 112.738 17.772 112.186 L 17.772 112.186 L 17.772 112.186 Q 18.3 111.634 18.3 110.626 L 18.3 110.626 L 18.3 107.338 L 18.3 107.338 Z  M 27.396 110.554 L 27.396 110.554 Q 27.396 110.686 27.372 110.902 L 27.372 110.902 L 22.212 110.902 L 22.212 110.902 Q 22.32 111.742 22.95 112.252 L 22.95 112.252 L 22.95 112.252 Q 23.58 112.762 24.516 112.762 L 24.516 112.762 L 24.516 112.762 Q 25.656 112.762 26.352 111.994 L 26.352 111.994 L 26.988 112.738 L 26.988 112.738 Q 26.556 113.242 25.914 113.506 L 25.914 113.506 L 25.914 113.506 Q 25.272 113.77 24.48 113.77 L 24.48 113.77 L 24.48 113.77 Q 23.472 113.77 22.692 113.356 L 22.692 113.356 L 22.692 113.356 Q 21.912 112.942 21.486 112.198 L 21.486 112.198 L 21.486 112.198 Q 21.06 111.454 21.06 110.518 L 21.06 110.518 L 21.06 110.518 Q 21.06 109.594 21.474 108.85 L 21.474 108.85 L 21.474 108.85 Q 21.888 108.106 22.614 107.692 L 22.614 107.692 L 22.614 107.692 Q 23.34 107.278 24.252 107.278 L 24.252 107.278 L 24.252 107.278 Q 25.164 107.278 25.878 107.692 L 25.878 107.692 L 25.878 107.692 Q 26.592 108.106 26.994 108.85 L 26.994 108.85 L 26.994 108.85 Q 27.396 109.594 27.396 110.554 L 27.396 110.554 L 27.396 110.554 Z  M 24.252 108.25 L 24.252 108.25 Q 23.424 108.25 22.866 108.754 L 22.866 108.754 L 22.866 108.754 Q 22.308 109.258 22.212 110.074 L 22.212 110.074 L 26.292 110.074 L 26.292 110.074 Q 26.196 109.27 25.638 108.76 L 25.638 108.76 L 25.638 108.76 Q 25.08 108.25 24.252 108.25 L 24.252 108.25 L 24.252 108.25 Z  M 31.608 113.794 L 31.608 113.794 Q 30.66 113.794 29.778 113.5 L 29.778 113.5 L 29.778 113.5 Q 28.896 113.206 28.392 112.738 L 28.392 112.738 L 28.836 111.802 L 28.836 111.802 Q 29.316 112.234 30.066 112.504 L 30.066 112.504 L 30.066 112.504 Q 30.816 112.774 31.608 112.774 L 31.608 112.774 L 31.608 112.774 Q 32.652 112.774 33.168 112.42 L 33.168 112.42 L 33.168 112.42 Q 33.684 112.066 33.684 111.478 L 33.684 111.478 L 33.684 111.478 Q 33.684 111.046 33.402 110.776 L 33.402 110.776 L 33.402 110.776 Q 33.12 110.506 32.706 110.362 L 32.706 110.362 L 32.706 110.362 Q 32.292 110.218 31.536 110.038 L 31.536 110.038 L 31.536 110.038 Q 30.588 109.81 30.006 109.582 L 30.006 109.582 L 30.006 109.582 Q 29.424 109.354 29.01 108.88 L 29.01 108.88 L 29.01 108.88 Q 28.596 108.406 28.596 107.602 L 28.596 107.602 L 28.596 107.602 Q 28.596 106.93 28.95 106.39 L 28.95 106.39 L 28.95 106.39 Q 29.304 105.85 30.024 105.526 L 30.024 105.526 L 30.024 105.526 Q 30.744 105.202 31.812 105.202 L 31.812 105.202 L 31.812 105.202 Q 32.556 105.202 33.276 105.394 L 33.276 105.394 L 33.276 105.394 Q 33.996 105.586 34.512 105.946 L 34.512 105.946 L 34.116 106.906 L 34.116 106.906 Q 33.588 106.57 32.988 106.396 L 32.988 106.396 L 32.988 106.396 Q 32.388 106.222 31.812 106.222 L 31.812 106.222 L 31.812 106.222 Q 30.792 106.222 30.282 106.594 L 30.282 106.594 L 30.282 106.594 Q 29.772 106.966 29.772 107.554 L 29.772 107.554 L 29.772 107.554 Q 29.772 107.986 30.06 108.256 L 30.06 108.256 L 30.06 108.256 Q 30.348 108.526 30.774 108.676 L 30.774 108.676 L 30.774 108.676 Q 31.2 108.826 31.932 108.994 L 31.932 108.994 L 31.932 108.994 Q 32.88 109.222 33.456 109.45 L 33.456 109.45 L 33.456 109.45 Q 34.032 109.678 34.446 110.146 L 34.446 110.146 L 34.446 110.146 Q 34.86 110.614 34.86 111.406 L 34.86 111.406 L 34.86 111.406 Q 34.86 112.066 34.5 112.612 L 34.5 112.612 L 34.5 112.612 Q 34.14 113.158 33.408 113.476 L 33.408 113.476 L 33.408 113.476 Q 32.676 113.794 31.608 113.794 L 31.608 113.794 L 31.608 113.794 Z  M 39.216 113.77 L 39.216 113.77 Q 38.244 113.77 37.482 113.35 L 37.482 113.35 L 37.482 113.35 Q 36.72 112.93 36.288 112.192 L 36.288 112.192 L 36.288 112.192 Q 35.856 111.454 35.856 110.518 L 35.856 110.518 L 35.856 110.518 Q 35.856 109.582 36.288 108.844 L 36.288 108.844 L 36.288 108.844 Q 36.72 108.106 37.482 107.692 L 37.482 107.692 L 37.482 107.692 Q 38.244 107.278 39.216 107.278 L 39.216 107.278 L 39.216 107.278 Q 40.08 107.278 40.758 107.626 L 40.758 107.626 L 40.758 107.626 Q 41.436 107.974 41.808 108.634 L 41.808 108.634 L 40.932 109.198 L 40.932 109.198 Q 40.632 108.742 40.188 108.514 L 40.188 108.514 L 40.188 108.514 Q 39.744 108.286 39.204 108.286 L 39.204 108.286 L 39.204 108.286 Q 38.58 108.286 38.082 108.562 L 38.082 108.562 L 38.082 108.562 Q 37.584 108.838 37.302 109.348 L 37.302 109.348 L 37.302 109.348 Q 37.02 109.858 37.02 110.518 L 37.02 110.518 L 37.02 110.518 Q 37.02 111.19 37.302 111.7 L 37.302 111.7 L 37.302 111.7 Q 37.584 112.21 38.082 112.486 L 38.082 112.486 L 38.082 112.486 Q 38.58 112.762 39.204 112.762 L 39.204 112.762 L 39.204 112.762 Q 39.744 112.762 40.188 112.534 L 40.188 112.534 L 40.188 112.534 Q 40.632 112.306 40.932 111.85 L 40.932 111.85 L 41.808 112.402 L 41.808 112.402 Q 41.436 113.062 40.758 113.416 L 40.758 113.416 L 40.758 113.416 Q 40.08 113.77 39.216 113.77 L 39.216 113.77 L 39.216 113.77 Z  M 44.4 108.406 L 44.4 108.406 Q 44.7 107.854 45.288 107.566 L 45.288 107.566 L 45.288 107.566 Q 45.876 107.278 46.716 107.278 L 46.716 107.278 L 46.716 108.394 L 46.716 108.394 Q 46.62 108.382 46.452 108.382 L 46.452 108.382 L 46.452 108.382 Q 45.516 108.382 44.982 108.94 L 44.982 108.94 L 44.982 108.94 Q 44.448 109.498 44.448 110.53 L 44.448 110.53 L 44.448 113.698 L 43.296 113.698 L 43.296 107.338 L 44.4 107.338 L 44.4 108.406 L 44.4 108.406 Z  M 48.132 113.698 L 48.132 107.338 L 49.284 107.338 L 49.284 113.698 L 48.132 113.698 L 48.132 113.698 Z  M 48.708 106.114 L 48.708 106.114 Q 48.372 106.114 48.15 105.898 L 48.15 105.898 L 48.15 105.898 Q 47.928 105.682 47.928 105.37 L 47.928 105.37 L 47.928 105.37 Q 47.928 105.058 48.15 104.836 L 48.15 104.836 L 48.15 104.836 Q 48.372 104.614 48.708 104.614 L 48.708 104.614 L 48.708 104.614 Q 49.044 104.614 49.266 104.824 L 49.266 104.824 L 49.266 104.824 Q 49.488 105.034 49.488 105.346 L 49.488 105.346 L 49.488 105.346 Q 49.488 105.67 49.266 105.892 L 49.266 105.892 L 49.266 105.892 Q 49.044 106.114 48.708 106.114 L 48.708 106.114 L 48.708 106.114 Z  M 54.852 107.278 L 54.852 107.278 Q 55.776 107.278 56.508 107.686 L 56.508 107.686 L 56.508 107.686 Q 57.24 108.094 57.654 108.826 L 57.654 108.826 L 57.654 108.826 Q 58.068 109.558 58.068 110.518 L 58.068 110.518 L 58.068 110.518 Q 58.068 111.478 57.654 112.216 L 57.654 112.216 L 57.654 112.216 Q 57.24 112.954 56.508 113.362 L 56.508 113.362 L 56.508 113.362 Q 55.776 113.77 54.852 113.77 L 54.852 113.77 L 54.852 113.77 Q 54.168 113.77 53.598 113.506 L 53.598 113.506 L 53.598 113.506 Q 53.028 113.242 52.632 112.738 L 52.632 112.738 L 52.632 116.026 L 51.48 116.026 L 51.48 107.338 L 52.584 107.338 L 52.584 108.346 L 52.584 108.346 Q 52.968 107.818 53.556 107.548 L 53.556 107.548 L 53.556 107.548 Q 54.144 107.278 54.852 107.278 L 54.852 107.278 L 54.852 107.278 Z  M 54.756 112.762 L 54.756 112.762 Q 55.368 112.762 55.854 112.48 L 55.854 112.48 L 55.854 112.48 Q 56.34 112.198 56.622 111.688 L 56.622 111.688 L 56.622 111.688 Q 56.904 111.178 56.904 110.518 L 56.904 110.518 L 56.904 110.518 Q 56.904 109.858 56.622 109.348 L 56.622 109.348 L 56.622 109.348 Q 56.34 108.838 55.854 108.562 L 55.854 108.562 L 55.854 108.562 Q 55.368 108.286 54.756 108.286 L 54.756 108.286 L 54.756 108.286 Q 54.156 108.286 53.67 108.568 L 53.67 108.568 L 53.67 108.568 Q 53.184 108.85 52.902 109.354 L 52.902 109.354 L 52.902 109.354 Q 52.62 109.858 52.62 110.518 L 52.62 110.518 L 52.62 110.518 Q 52.62 111.178 52.896 111.688 L 52.896 111.688 L 52.896 111.688 Q 53.172 112.198 53.664 112.48 L 53.664 112.48 L 53.664 112.48 Q 54.156 112.762 54.756 112.762 L 54.756 112.762 L 54.756 112.762 Z  M 62.88 112.498 L 63.24 113.326 L 63.24 113.326 Q 62.988 113.542 62.616 113.656 L 62.616 113.656 L 62.616 113.656 Q 62.244 113.77 61.848 113.77 L 61.848 113.77 L 61.848 113.77 Q 60.888 113.77 60.36 113.254 L 60.36 113.254 L 60.36 113.254 Q 59.832 112.738 59.832 111.778 L 59.832 111.778 L 59.832 108.286 L 58.752 108.286 L 58.752 107.338 L 59.832 107.338 L 59.832 105.946 L 60.984 105.946 L 60.984 107.338 L 62.808 107.338 L 62.808 108.286 L 60.984 108.286 L 60.984 111.73 L 60.984 111.73 Q 60.984 112.246 61.242 112.522 L 61.242 112.522 L 61.242 112.522 Q 61.5 112.798 61.98 112.798 L 61.98 112.798 L 61.98 112.798 Q 62.508 112.798 62.88 112.498 L 62.88 112.498 L 62.88 112.498 Z " fill="rgb(255,255,255)"/><path d=" M 36.18 128.422 L 36.18 128.422 Q 34.908 128.422 33.888 127.864 L 33.888 127.864 L 33.888 127.864 Q 32.868 127.306 32.286 126.322 L 32.286 126.322 L 32.286 126.322 Q 31.704 125.338 31.704 124.126 L 31.704 124.126 L 31.704 124.126 Q 31.704 122.914 32.286 121.93 L 32.286 121.93 L 32.286 121.93 Q 32.868 120.946 33.888 120.388 L 33.888 120.388 L 33.888 120.388 Q 34.908 119.83 36.18 119.83 L 36.18 119.83 L 36.18 119.83 Q 37.44 119.83 38.46 120.388 L 38.46 120.388 L 38.46 120.388 Q 39.48 120.946 40.056 121.924 L 40.056 121.924 L 40.056 121.924 Q 40.632 122.902 40.632 124.126 L 40.632 124.126 L 40.632 124.126 Q 40.632 125.35 40.056 126.328 L 40.056 126.328 L 40.056 126.328 Q 39.48 127.306 38.46 127.864 L 38.46 127.864 L 38.46 127.864 Q 37.44 128.422 36.18 128.422 L 36.18 128.422 L 36.18 128.422 Z  M 36.18 127.354 L 36.18 127.354 Q 37.104 127.354 37.842 126.934 L 37.842 126.934 L 37.842 126.934 Q 38.58 126.514 39.006 125.776 L 39.006 125.776 L 39.006 125.776 Q 39.432 125.038 39.432 124.126 L 39.432 124.126 L 39.432 124.126 Q 39.432 123.214 39.006 122.476 L 39.006 122.476 L 39.006 122.476 Q 38.58 121.738 37.842 121.318 L 37.842 121.318 L 37.842 121.318 Q 37.104 120.898 36.18 120.898 L 36.18 120.898 L 36.18 120.898 Q 35.256 120.898 34.506 121.318 L 34.506 121.318 L 34.506 121.318 Q 33.756 121.738 33.33 122.476 L 33.33 122.476 L 33.33 122.476 Q 32.904 123.214 32.904 124.126 L 32.904 124.126 L 32.904 124.126 Q 32.904 125.038 33.33 125.776 L 33.33 125.776 L 33.33 125.776 Q 33.756 126.514 34.506 126.934 L 34.506 126.934 L 34.506 126.934 Q 35.256 127.354 36.18 127.354 L 36.18 127.354 L 36.18 127.354 Z  M 44.916 128.422 L 44.916 128.422 Q 43.968 128.422 43.086 128.128 L 43.086 128.128 L 43.086 128.128 Q 42.204 127.834 41.7 127.366 L 41.7 127.366 L 42.144 126.43 L 42.144 126.43 Q 42.624 126.862 43.374 127.132 L 43.374 127.132 L 43.374 127.132 Q 44.124 127.402 44.916 127.402 L 44.916 127.402 L 44.916 127.402 Q 45.96 127.402 46.476 127.048 L 46.476 127.048 L 46.476 127.048 Q 46.992 126.694 46.992 126.106 L 46.992 126.106 L 46.992 126.106 Q 46.992 125.674 46.71 125.404 L 46.71 125.404 L 46.71 125.404 Q 46.428 125.134 46.014 124.99 L 46.014 124.99 L 46.014 124.99 Q 45.6 124.846 44.844 124.666 L 44.844 124.666 L 44.844 124.666 Q 43.896 124.438 43.314 124.21 L 43.314 124.21 L 43.314 124.21 Q 42.732 123.982 42.318 123.508 L 42.318 123.508 L 42.318 123.508 Q 41.904 123.034 41.904 122.23 L 41.904 122.23 L 41.904 122.23 Q 41.904 121.558 42.258 121.018 L 42.258 121.018 L 42.258 121.018 Q 42.612 120.478 43.332 120.154 L 43.332 120.154 L 43.332 120.154 Q 44.052 119.83 45.12 119.83 L 45.12 119.83 L 45.12 119.83 Q 45.864 119.83 46.584 120.022 L 46.584 120.022 L 46.584 120.022 Q 47.304 120.214 47.82 120.574 L 47.82 120.574 L 47.424 121.534 L 47.424 121.534 Q 46.896 121.198 46.296 121.024 L 46.296 121.024 L 46.296 121.024 Q 45.696 120.85 45.12 120.85 L 45.12 120.85 L 45.12 120.85 Q 44.1 120.85 43.59 121.222 L 43.59 121.222 L 43.59 121.222 Q 43.08 121.594 43.08 122.182 L 43.08 122.182 L 43.08 122.182 Q 43.08 122.614 43.368 122.884 L 43.368 122.884 L 43.368 122.884 Q 43.656 123.154 44.082 123.304 L 44.082 123.304 L 44.082 123.304 Q 44.508 123.454 45.24 123.622 L 45.24 123.622 L 45.24 123.622 Q 46.188 123.85 46.764 124.078 L 46.764 124.078 L 46.764 124.078 Q 47.34 124.306 47.754 124.774 L 47.754 124.774 L 47.754 124.774 Q 48.168 125.242 48.168 126.034 L 48.168 126.034 L 48.168 126.034 Q 48.168 126.694 47.808 127.24 L 47.808 127.24 L 47.808 127.24 Q 47.448 127.786 46.716 128.104 L 46.716 128.104 L 46.716 128.104 Q 45.984 128.422 44.916 128.422 L 44.916 128.422 L 44.916 128.422 Z  M 6.912 123.97 L 6.912 123.97 Q 7.644 124.174 8.064 124.708 L 8.064 124.708 L 8.064 124.708 Q 8.484 125.242 8.484 126.058 L 8.484 126.058 L 8.484 126.058 Q 8.484 127.15 7.662 127.738 L 7.662 127.738 L 7.662 127.738 Q 6.84 128.326 5.268 128.326 L 5.268 128.326 L 1.26 128.326 L 1.26 119.926 L 5.028 119.926 L 5.028 119.926 Q 6.468 119.926 7.254 120.502 L 7.254 120.502 L 7.254 120.502 Q 8.04 121.078 8.04 122.098 L 8.04 122.098 L 8.04 122.098 Q 8.04 122.758 7.734 123.238 L 7.734 123.238 L 7.734 123.238 Q 7.428 123.718 6.912 123.97 L 6.912 123.97 L 6.912 123.97 Z  M 4.92 120.898 L 2.46 120.898 L 2.46 123.586 L 4.92 123.586 L 4.92 123.586 Q 5.844 123.586 6.342 123.244 L 6.342 123.244 L 6.342 123.244 Q 6.84 122.902 6.84 122.242 L 6.84 122.242 L 6.84 122.242 Q 6.84 121.582 6.342 121.24 L 6.342 121.24 L 6.342 121.24 Q 5.844 120.898 4.92 120.898 L 4.92 120.898 L 4.92 120.898 Z  M 5.22 127.354 L 5.22 127.354 Q 6.24 127.354 6.756 127.018 L 6.756 127.018 L 6.756 127.018 Q 7.272 126.682 7.272 125.962 L 7.272 125.962 L 7.272 125.962 Q 7.272 124.558 5.22 124.558 L 5.22 124.558 L 2.46 124.558 L 2.46 127.354 L 5.22 127.354 L 5.22 127.354 Z  M 10.176 128.326 L 10.176 119.422 L 11.328 119.422 L 11.328 128.326 L 10.176 128.326 L 10.176 128.326 Z  M 18.3 121.966 L 19.452 121.966 L 19.452 128.326 L 18.36 128.326 L 18.36 127.366 L 18.36 127.366 Q 18.012 127.858 17.442 128.128 L 17.442 128.128 L 17.442 128.128 Q 16.872 128.398 16.2 128.398 L 16.2 128.398 L 16.2 128.398 Q 14.928 128.398 14.196 127.696 L 14.196 127.696 L 14.196 127.696 Q 13.464 126.994 13.464 125.626 L 13.464 125.626 L 13.464 121.966 L 14.616 121.966 L 14.616 125.494 L 14.616 125.494 Q 14.616 126.418 15.06 126.892 L 15.06 126.892 L 15.06 126.892 Q 15.504 127.366 16.332 127.366 L 16.332 127.366 L 16.332 127.366 Q 17.244 127.366 17.772 126.814 L 17.772 126.814 L 17.772 126.814 Q 18.3 126.262 18.3 125.254 L 18.3 125.254 L 18.3 121.966 L 18.3 121.966 Z  M 27.396 125.182 L 27.396 125.182 Q 27.396 125.314 27.372 125.53 L 27.372 125.53 L 22.212 125.53 L 22.212 125.53 Q 22.32 126.37 22.95 126.88 L 22.95 126.88 L 22.95 126.88 Q 23.58 127.39 24.516 127.39 L 24.516 127.39 L 24.516 127.39 Q 25.656 127.39 26.352 126.622 L 26.352 126.622 L 26.988 127.366 L 26.988 127.366 Q 26.556 127.87 25.914 128.134 L 25.914 128.134 L 25.914 128.134 Q 25.272 128.398 24.48 128.398 L 24.48 128.398 L 24.48 128.398 Q 23.472 128.398 22.692 127.984 L 22.692 127.984 L 22.692 127.984 Q 21.912 127.57 21.486 126.826 L 21.486 126.826 L 21.486 126.826 Q 21.06 126.082 21.06 125.146 L 21.06 125.146 L 21.06 125.146 Q 21.06 124.222 21.474 123.478 L 21.474 123.478 L 21.474 123.478 Q 21.888 122.734 22.614 122.32 L 22.614 122.32 L 22.614 122.32 Q 23.34 121.906 24.252 121.906 L 24.252 121.906 L 24.252 121.906 Q 25.164 121.906 25.878 122.32 L 25.878 122.32 L 25.878 122.32 Q 26.592 122.734 26.994 123.478 L 26.994 123.478 L 26.994 123.478 Q 27.396 124.222 27.396 125.182 L 27.396 125.182 L 27.396 125.182 Z  M 24.252 122.878 L 24.252 122.878 Q 23.424 122.878 22.866 123.382 L 22.866 123.382 L 22.866 123.382 Q 22.308 123.886 22.212 124.702 L 22.212 124.702 L 26.292 124.702 L 26.292 124.702 Q 26.196 123.898 25.638 123.388 L 25.638 123.388 L 25.638 123.388 Q 25.08 122.878 24.252 122.878 L 24.252 122.878 L 24.252 122.878 Z " fill="rgb(255,255,255)"/><path d=" M 3.708 143.05 L 3.708 143.05 Q 2.76 143.05 1.878 142.756 L 1.878 142.756 L 1.878 142.756 Q 0.996 142.462 0.492 141.994 L 0.492 141.994 L 0.936 141.058 L 0.936 141.058 Q 1.416 141.49 2.166 141.76 L 2.166 141.76 L 2.166 141.76 Q 2.916 142.03 3.708 142.03 L 3.708 142.03 L 3.708 142.03 Q 4.752 142.03 5.268 141.676 L 5.268 141.676 L 5.268 141.676 Q 5.784 141.322 5.784 140.734 L 5.784 140.734 L 5.784 140.734 Q 5.784 140.302 5.502 140.032 L 5.502 140.032 L 5.502 140.032 Q 5.22 139.762 4.806 139.618 L 4.806 139.618 L 4.806 139.618 Q 4.392 139.474 3.636 139.294 L 3.636 139.294 L 3.636 139.294 Q 2.688 139.066 2.106 138.838 L 2.106 138.838 L 2.106 138.838 Q 1.524 138.61 1.11 138.136 L 1.11 138.136 L 1.11 138.136 Q 0.696 137.662 0.696 136.858 L 0.696 136.858 L 0.696 136.858 Q 0.696 136.186 1.05 135.646 L 1.05 135.646 L 1.05 135.646 Q 1.404 135.106 2.124 134.782 L 2.124 134.782 L 2.124 134.782 Q 2.844 134.458 3.912 134.458 L 3.912 134.458 L 3.912 134.458 Q 4.656 134.458 5.376 134.65 L 5.376 134.65 L 5.376 134.65 Q 6.096 134.842 6.612 135.202 L 6.612 135.202 L 6.216 136.162 L 6.216 136.162 Q 5.688 135.826 5.088 135.652 L 5.088 135.652 L 5.088 135.652 Q 4.488 135.478 3.912 135.478 L 3.912 135.478 L 3.912 135.478 Q 2.892 135.478 2.382 135.85 L 2.382 135.85 L 2.382 135.85 Q 1.872 136.222 1.872 136.81 L 1.872 136.81 L 1.872 136.81 Q 1.872 137.242 2.16 137.512 L 2.16 137.512 L 2.16 137.512 Q 2.448 137.782 2.874 137.932 L 2.874 137.932 L 2.874 137.932 Q 3.3 138.082 4.032 138.25 L 4.032 138.25 L 4.032 138.25 Q 4.98 138.478 5.556 138.706 L 5.556 138.706 L 5.556 138.706 Q 6.132 138.934 6.546 139.402 L 6.546 139.402 L 6.546 139.402 Q 6.96 139.87 6.96 140.662 L 6.96 140.662 L 6.96 140.662 Q 6.96 141.322 6.6 141.868 L 6.6 141.868 L 6.6 141.868 Q 6.24 142.414 5.508 142.732 L 5.508 142.732 L 5.508 142.732 Q 4.776 143.05 3.708 143.05 L 3.708 143.05 L 3.708 143.05 Z  M 12.924 136.594 L 14.052 136.594 L 10.968 143.59 L 10.968 143.59 Q 10.56 144.562 10.014 144.958 L 10.014 144.958 L 10.014 144.958 Q 9.468 145.354 8.7 145.354 L 8.7 145.354 L 8.7 145.354 Q 8.232 145.354 7.794 145.204 L 7.794 145.204 L 7.794 145.204 Q 7.356 145.054 7.068 144.766 L 7.068 144.766 L 7.56 143.902 L 7.56 143.902 Q 8.052 144.37 8.7 144.37 L 8.7 144.37 L 8.7 144.37 Q 9.12 144.37 9.402 144.148 L 9.402 144.148 L 9.402 144.148 Q 9.684 143.926 9.912 143.386 L 9.912 143.386 L 10.116 142.942 L 7.308 136.594 L 8.508 136.594 L 10.728 141.682 L 12.924 136.594 L 12.924 136.594 Z  M 18.528 136.534 L 18.528 136.534 Q 19.74 136.534 20.454 137.236 L 20.454 137.236 L 20.454 137.236 Q 21.168 137.938 21.168 139.294 L 21.168 139.294 L 21.168 142.954 L 20.016 142.954 L 20.016 139.426 L 20.016 139.426 Q 20.016 138.502 19.572 138.034 L 19.572 138.034 L 19.572 138.034 Q 19.128 137.566 18.3 137.566 L 18.3 137.566 L 18.3 137.566 Q 17.364 137.566 16.824 138.112 L 16.824 138.112 L 16.824 138.112 Q 16.284 138.658 16.284 139.678 L 16.284 139.678 L 16.284 142.954 L 15.132 142.954 L 15.132 136.594 L 16.236 136.594 L 16.236 137.554 L 16.236 137.554 Q 16.584 137.062 17.178 136.798 L 17.178 136.798 L 17.178 136.798 Q 17.772 136.534 18.528 136.534 L 18.528 136.534 L 18.528 136.534 Z  M 26.52 141.754 L 26.88 142.582 L 26.88 142.582 Q 26.628 142.798 26.256 142.912 L 26.256 142.912 L 26.256 142.912 Q 25.884 143.026 25.488 143.026 L 25.488 143.026 L 25.488 143.026 Q 24.528 143.026 24 142.51 L 24 142.51 L 24 142.51 Q 23.472 141.994 23.472 141.034 L 23.472 141.034 L 23.472 137.542 L 22.392 137.542 L 22.392 136.594 L 23.472 136.594 L 23.472 135.202 L 24.624 135.202 L 24.624 136.594 L 26.448 136.594 L 26.448 137.542 L 24.624 137.542 L 24.624 140.986 L 24.624 140.986 Q 24.624 141.502 24.882 141.778 L 24.882 141.778 L 24.882 141.778 Q 25.14 142.054 25.62 142.054 L 25.62 142.054 L 25.62 142.054 Q 26.148 142.054 26.52 141.754 L 26.52 141.754 L 26.52 141.754 Z  M 30.588 136.534 L 30.588 136.534 Q 31.908 136.534 32.61 137.182 L 32.61 137.182 L 32.61 137.182 Q 33.312 137.83 33.312 139.114 L 33.312 139.114 L 33.312 142.954 L 32.22 142.954 L 32.22 142.114 L 32.22 142.114 Q 31.932 142.558 31.398 142.792 L 31.398 142.792 L 31.398 142.792 Q 30.864 143.026 30.132 143.026 L 30.132 143.026 L 30.132 143.026 Q 29.064 143.026 28.422 142.51 L 28.422 142.51 L 28.422 142.51 Q 27.78 141.994 27.78 141.154 L 27.78 141.154 L 27.78 141.154 Q 27.78 140.314 28.392 139.804 L 28.392 139.804 L 28.392 139.804 Q 29.004 139.294 30.336 139.294 L 30.336 139.294 L 32.16 139.294 L 32.16 139.066 L 32.16 139.066 Q 32.16 138.322 31.728 137.926 L 31.728 137.926 L 31.728 137.926 Q 31.296 137.53 30.456 137.53 L 30.456 137.53 L 30.456 137.53 Q 29.892 137.53 29.352 137.716 L 29.352 137.716 L 29.352 137.716 Q 28.812 137.902 28.44 138.214 L 28.44 138.214 L 27.96 137.35 L 27.96 137.35 Q 28.452 136.954 29.136 136.744 L 29.136 136.744 L 29.136 136.744 Q 29.82 136.534 30.588 136.534 L 30.588 136.534 L 30.588 136.534 Z  M 30.324 142.138 L 30.324 142.138 Q 30.984 142.138 31.464 141.844 L 31.464 141.844 L 31.464 141.844 Q 31.944 141.55 32.16 141.01 L 32.16 141.01 L 32.16 140.122 L 30.384 140.122 L 30.384 140.122 Q 28.92 140.122 28.92 141.106 L 28.92 141.106 L 28.92 141.106 Q 28.92 141.586 29.292 141.862 L 29.292 141.862 L 29.292 141.862 Q 29.664 142.138 30.324 142.138 L 30.324 142.138 L 30.324 142.138 Z  M 40.812 142.954 L 39.504 142.954 L 37.668 140.518 L 35.808 142.954 L 34.524 142.954 L 37.032 139.702 L 34.644 136.594 L 35.928 136.594 L 37.68 138.886 L 39.42 136.594 L 40.68 136.594 L 38.28 139.702 L 40.812 142.954 L 40.812 142.954 Z " fill="rgb(255,255,255)"/></g></svg>