<?xml version="1.0" encoding="UTF-8" standalone="no"?><!-- Generator: Gravit.io --><svg xmlns="http://www.w3.org/2000/svg" xmlns:xlink="http://www.w3.org/1999/xlink" style="isolation:isolate" viewBox="0 0 480 360" width="480pt" height="360pt"><defs><clipPath id="_clipPath_zTmvqw9G9I9lVCcQeUECGzoNrQjeoxEt"><rect width="480" height="360"/></clipPath></defs><g clip-path="url(#_clipPath_zTmvqw9G9I9lVCcQeUECGzoNrQjeoxEt)"><path d=" M 0 0 L 480 0 L 480 360 L 0 360 L 0 0 Z " fill="rgb(54,54,54)"/><path d=" M 20 40 L 460 40 C 465.519 40 470 44.481 470 50 L 470 360 L 10 360 L 10 50 C 10 44.481 14.481 40 20 40 Z " fill="rgb(18,18,18)"/><path d=" M 10 10 L 30 10 L 30 30 L 10 30 L 10 10 Z " fill="rgb(54,54,54)"/><path d=" M 13.328 10.5 L 29.5 26.672 C 30.281 27.452 30.281 28.719 29.5 29.5 L 29.5 29.5 C 28.719 30.281 27.452 30.281 26.672 29.5 L 10.5 13.328 C 9.719 12.548 9.719 11.281 10.5 10.5 L 10.5 10.5 C 11.281 9.719 12.548 9.719 13.328 10.5 Z " fill="rgb(235,235,235)"/><path d=" M 26.672 10.5 L 10.5 26.672 C 9.719 27.452 9.719 28.719 10.5 29.5 L 10.5 29.5 C 11.281 30.281 12.548 30.281 13.328 29.5 L 29.5 13.328 C 30.281 12.548 30.281 11.281 29.5 10.5 L 29.5 10.5 C 28.719 9.719 27.452 9.719 26.672 10.5 Z " fill="rgb(235,235,235)"/><path d=" M 40 10 L 60 10 L 60 30 L 40 30 L 40 10 Z " fill="rgb(54,54,54)"/><path d=" M 42 18 L 58 18 C 59.104 18 60 18.896 60 20 L 60 20 C 60 21.104 59.104 22 58 22 L 42 22 C 40.896 22 40 21.104 40 20 L 40 20 C 40 18.896 40.896 18 42 18 Z " fill="rgb(235,235,235)"/><path d=" M 42 10 L 58 10 C 59.104 10 60 10.896 60 12 L 60 12 C 60 13.104 59.104 14 58 14 L 42 14 C 40.896 14 40 13.104 40 12 L 40 12 C 40 10.896 40.896 10 42 10 Z " fill="rgb(235,235,235)"/><path d=" M 42 26 L 58 26 C 59.104 26 60 26.896 60 28 L 60 28 C 60 29.104 59.104 30 58 30 L 42 30 C 40.896 30 40 29.104 40 28 L 40 28 C 40 26.896 40.896 26 42 26 Z " fill="rgb(235,235,235)"/><g><path d="M 80 9.96 L 140 9.96 C 145.519 9.96 150 14.441 150 19.96 L 150 19.96 C 150 25.479 145.519 29.96 140 29.96 L 80 29.96 C 74.481 29.96 70 25.479 70 19.96 L 70 19.96 C 70 14.441 74.481 9.96 80 9.96 Z" style="stroke:none;fill:#121212;stroke-miterlimit:10;"/><path d=" M 99.232 23.258 L 104.128 23.258 L 104.128 24.302 L 98.032 24.302 L 98.032 15.902 L 103.96 15.902 L 103.96 16.946 L 99.232 16.946 L 99.232 19.526 L 103.444 19.526 L 103.444 20.546 L 99.232 20.546 L 99.232 23.258 L 99.232 23.258 Z  M 110.668 15.398 L 111.82 15.398 L 111.82 24.302 L 110.716 24.302 L 110.716 23.294 L 110.716 23.294 Q 110.332 23.822 109.744 24.098 L 109.744 24.098 L 109.744 24.098 Q 109.156 24.374 108.448 24.374 L 108.448 24.374 L 108.448 24.374 Q 107.524 24.374 106.792 23.966 L 106.792 23.966 L 106.792 23.966 Q 106.06 23.558 105.646 22.82 L 105.646 22.82 L 105.646 22.82 Q 105.232 22.082 105.232 21.122 L 105.232 21.122 L 105.232 21.122 Q 105.232 20.162 105.646 19.43 L 105.646 19.43 L 105.646 19.43 Q 106.06 18.698 106.792 18.29 L 106.792 18.29 L 106.792 18.29 Q 107.524 17.882 108.448 17.882 L 108.448 17.882 L 108.448 17.882 Q 109.132 17.882 109.708 18.14 L 109.708 18.14 L 109.708 18.14 Q 110.284 18.398 110.668 18.902 L 110.668 18.902 L 110.668 15.398 L 110.668 15.398 Z  M 108.544 23.366 L 108.544 23.366 Q 109.144 23.366 109.636 23.084 L 109.636 23.084 L 109.636 23.084 Q 110.128 22.802 110.404 22.292 L 110.404 22.292 L 110.404 22.292 Q 110.68 21.782 110.68 21.122 L 110.68 21.122 L 110.68 21.122 Q 110.68 20.462 110.404 19.952 L 110.404 19.952 L 110.404 19.952 Q 110.128 19.442 109.636 19.166 L 109.636 19.166 L 109.636 19.166 Q 109.144 18.89 108.544 18.89 L 108.544 18.89 L 108.544 18.89 Q 107.932 18.89 107.446 19.166 L 107.446 19.166 L 107.446 19.166 Q 106.96 19.442 106.678 19.952 L 106.678 19.952 L 106.678 19.952 Q 106.396 20.462 106.396 21.122 L 106.396 21.122 L 106.396 21.122 Q 106.396 21.782 106.678 22.292 L 106.678 22.292 L 106.678 22.292 Q 106.96 22.802 107.446 23.084 L 107.446 23.084 L 107.446 23.084 Q 107.932 23.366 108.544 23.366 L 108.544 23.366 L 108.544 23.366 Z  M 114.004 24.302 L 114.004 17.942 L 115.156 17.942 L 115.156 24.302 L 114.004 24.302 L 114.004 24.302 Z  M 114.58 16.718 L 114.58 16.718 Q 114.244 16.718 114.022 16.502 L 114.022 16.502 L 114.022 16.502 Q 113.8 16.286 113.8 15.974 L 113.8 15.974 L 113.8 15.974 Q 113.8 15.662 114.022 15.44 L 114.022 15.44 L 114.022 15.44 Q 114.244 15.218 114.58 15.218 L 114.58 15.218 L 114.58 15.218 Q 114.916 15.218 115.138 15.428 L 115.138 15.428 L 115.138 15.428 Q 115.36 15.638 115.36 15.95 L 115.36 15.95 L 115.36 15.95 Q 115.36 16.274 115.138 16.496 L 115.138 16.496 L 115.138 16.496 Q 114.916 16.718 114.58 16.718 L 114.58 16.718 L 114.58 16.718 Z  M 120.568 23.102 L 120.928 23.93 L 120.928 23.93 Q 120.676 24.146 120.304 24.26 L 120.304 24.26 L 120.304 24.26 Q 119.932 24.374 119.536 24.374 L 119.536 24.374 L 119.536 24.374 Q 118.576 24.374 118.048 23.858 L 118.048 23.858 L 118.048 23.858 Q 117.52 23.342 117.52 22.382 L 117.52 22.382 L 117.52 18.89 L 116.44 18.89 L 116.44 17.942 L 117.52 17.942 L 117.52 16.55 L 118.672 16.55 L 118.672 17.942 L 120.496 17.942 L 120.496 18.89 L 118.672 18.89 L 118.672 22.334 L 118.672 22.334 Q 118.672 22.85 118.93 23.126 L 118.93 23.126 L 118.93 23.126 Q 119.188 23.402 119.668 23.402 L 119.668 23.402 L 119.668 23.402 Q 120.196 23.402 120.568 23.102 L 120.568 23.102 L 120.568 23.102 Z " fill="rgb(255,255,255)"/></g><g><path d="M 170 9.98 L 230 9.98 C 235.519 9.98 240 14.461 240 19.98 L 240 19.98 C 240 25.499 235.519 29.98 230 29.98 L 170 29.98 C 164.481 29.98 160 25.499 160 19.98 L 160 19.98 C 160 14.461 164.481 9.98 170 9.98 Z" style="stroke:none;fill:#121212;stroke-miterlimit:10;"/><path d=" M 194.674 24.323 L 193.366 24.323 L 191.554 21.743 L 191.554 21.743 Q 191.218 21.767 191.026 21.767 L 191.026 21.767 L 188.95 21.767 L 188.95 24.323 L 187.75 24.323 L 187.75 15.923 L 191.026 15.923 L 191.026 15.923 Q 192.658 15.923 193.594 16.703 L 193.594 16.703 L 193.594 16.703 Q 194.53 17.483 194.53 18.851 L 194.53 18.851 L 194.53 18.851 Q 194.53 19.823 194.05 20.507 L 194.05 20.507 L 194.05 20.507 Q 193.57 21.191 192.682 21.503 L 192.682 21.503 L 194.674 24.323 L 194.674 24.323 Z  M 190.99 20.747 L 190.99 20.747 Q 192.13 20.747 192.73 20.255 L 192.73 20.255 L 192.73 20.255 Q 193.33 19.763 193.33 18.851 L 193.33 18.851 L 193.33 18.851 Q 193.33 17.939 192.73 17.453 L 192.73 17.453 L 192.73 17.453 Q 192.13 16.967 190.99 16.967 L 190.99 16.967 L 188.95 16.967 L 188.95 20.747 L 190.99 20.747 L 190.99 20.747 Z  M 201.082 17.963 L 202.234 17.963 L 202.234 24.323 L 201.142 24.323 L 201.142 23.363 L 201.142 23.363 Q 200.794 23.855 200.224 24.125 L 200.224 24.125 L 200.224 24.125 Q 199.654 24.395 198.982 24.395 L 198.982 24.395 L 198.982 24.395 Q 197.71 24.395 196.978 23.693 L 196.978 23.693 L 196.978 23.693 Q 196.246 22.991 196.246 21.623 L 196.246 21.623 L 196.246 17.963 L 197.398 17.963 L 197.398 21.491 L 197.398 21.491 Q 197.398 22.415 197.842 22.889 L 197.842 22.889 L 197.842 22.889 Q 198.286 23.363 199.114 23.363 L 199.114 23.363 L 199.114 23.363 Q 200.026 23.363 200.554 22.811 L 200.554 22.811 L 200.554 22.811 Q 201.082 22.259 201.082 21.251 L 201.082 21.251 L 201.082 17.963 L 201.082 17.963 Z  M 207.826 17.903 L 207.826 17.903 Q 209.038 17.903 209.752 18.605 L 209.752 18.605 L 209.752 18.605 Q 210.466 19.307 210.466 20.663 L 210.466 20.663 L 210.466 24.323 L 209.314 24.323 L 209.314 20.795 L 209.314 20.795 Q 209.314 19.871 208.87 19.403 L 208.87 19.403 L 208.87 19.403 Q 208.426 18.935 207.598 18.935 L 207.598 18.935 L 207.598 18.935 Q 206.662 18.935 206.122 19.481 L 206.122 19.481 L 206.122 19.481 Q 205.582 20.027 205.582 21.047 L 205.582 21.047 L 205.582 24.323 L 204.43 24.323 L 204.43 17.963 L 205.534 17.963 L 205.534 18.923 L 205.534 18.923 Q 205.882 18.431 206.476 18.167 L 206.476 18.167 L 206.476 18.167 Q 207.07 17.903 207.826 17.903 L 207.826 17.903 L 207.826 17.903 Z " fill="rgb(255,255,255)"/></g><g><path d="M 260 9.96 L 320 9.96 C 325.519 9.96 330 14.441 330 19.96 L 330 19.96 C 330 25.479 325.519 29.96 320 29.96 L 260 29.96 C 254.481 29.96 250 25.479 250 19.96 L 250 19.96 C 250 14.441 254.481 9.96 260 9.96 Z" style="stroke:none;fill:#121212;stroke-miterlimit:10;"/><path d=" M 271.174 23.258 L 276.07 23.258 L 276.07 24.302 L 269.974 24.302 L 269.974 15.902 L 275.902 15.902 L 275.902 16.946 L 271.174 16.946 L 271.174 19.526 L 275.386 19.526 L 275.386 20.546 L 271.174 20.546 L 271.174 23.258 L 271.174 23.258 Z  M 283.066 24.302 L 281.758 24.302 L 279.922 21.866 L 278.062 24.302 L 276.778 24.302 L 279.286 21.05 L 276.898 17.942 L 278.182 17.942 L 279.934 20.234 L 281.674 17.942 L 282.934 17.942 L 280.534 21.05 L 283.066 24.302 L 283.066 24.302 Z  M 287.698 17.882 L 287.698 17.882 Q 288.622 17.882 289.354 18.29 L 289.354 18.29 L 289.354 18.29 Q 290.086 18.698 290.5 19.43 L 290.5 19.43 L 290.5 19.43 Q 290.914 20.162 290.914 21.122 L 290.914 21.122 L 290.914 21.122 Q 290.914 22.082 290.5 22.82 L 290.5 22.82 L 290.5 22.82 Q 290.086 23.558 289.354 23.966 L 289.354 23.966 L 289.354 23.966 Q 288.622 24.374 287.698 24.374 L 287.698 24.374 L 287.698 24.374 Q 287.014 24.374 286.444 24.11 L 286.444 24.11 L 286.444 24.11 Q 285.874 23.846 285.478 23.342 L 285.478 23.342 L 285.478 26.63 L 284.326 26.63 L 284.326 17.942 L 285.43 17.942 L 285.43 18.95 L 285.43 18.95 Q 285.814 18.422 286.402 18.152 L 286.402 18.152 L 286.402 18.152 Q 286.99 17.882 287.698 17.882 L 287.698 17.882 L 287.698 17.882 Z  M 287.602 23.366 L 287.602 23.366 Q 288.214 23.366 288.7 23.084 L 288.7 23.084 L 288.7 23.084 Q 289.186 22.802 289.468 22.292 L 289.468 22.292 L 289.468 22.292 Q 289.75 21.782 289.75 21.122 L 289.75 21.122 L 289.75 21.122 Q 289.75 20.462 289.468 19.952 L 289.468 19.952 L 289.468 19.952 Q 289.186 19.442 288.7 19.166 L 288.7 19.166 L 288.7 19.166 Q 288.214 18.89 287.602 18.89 L 287.602 18.89 L 287.602 18.89 Q 287.002 18.89 286.516 19.172 L 286.516 19.172 L 286.516 19.172 Q 286.03 19.454 285.748 19.958 L 285.748 19.958 L 285.748 19.958 Q 285.466 20.462 285.466 21.122 L 285.466 21.122 L 285.466 21.122 Q 285.466 21.782 285.742 22.292 L 285.742 22.292 L 285.742 22.292 Q 286.018 22.802 286.51 23.084 L 286.51 23.084 L 286.51 23.084 Q 287.002 23.366 287.602 23.366 L 287.602 23.366 L 287.602 23.366 Z  M 295.234 24.374 L 295.234 24.374 Q 294.286 24.374 293.53 23.954 L 293.53 23.954 L 293.53 23.954 Q 292.774 23.534 292.348 22.796 L 292.348 22.796 L 292.348 22.796 Q 291.922 22.058 291.922 21.122 L 291.922 21.122 L 291.922 21.122 Q 291.922 20.186 292.348 19.448 L 292.348 19.448 L 292.348 19.448 Q 292.774 18.71 293.53 18.296 L 293.53 18.296 L 293.53 18.296 Q 294.286 17.882 295.234 17.882 L 295.234 17.882 L 295.234 17.882 Q 296.182 17.882 296.932 18.296 L 296.932 18.296 L 296.932 18.296 Q 297.682 18.71 298.108 19.448 L 298.108 19.448 L 298.108 19.448 Q 298.534 20.186 298.534 21.122 L 298.534 21.122 L 298.534 21.122 Q 298.534 22.058 298.108 22.796 L 298.108 22.796 L 298.108 22.796 Q 297.682 23.534 296.932 23.954 L 296.932 23.954 L 296.932 23.954 Q 296.182 24.374 295.234 24.374 L 295.234 24.374 L 295.234 24.374 Z  M 295.234 23.366 L 295.234 23.366 Q 295.846 23.366 296.332 23.084 L 296.332 23.084 L 296.332 23.084 Q 296.818 22.802 297.094 22.292 L 297.094 22.292 L 297.094 22.292 Q 297.37 21.782 297.37 21.122 L 297.37 21.122 L 297.37 21.122 Q 297.37 20.462 297.094 19.952 L 297.094 19.952 L 297.094 19.952 Q 296.818 19.442 296.332 19.166 L 296.332 19.166 L 296.332 19.166 Q 295.846 18.89 295.234 18.89 L 295.234 18.89 L 295.234 18.89 Q 294.622 18.89 294.136 19.166 L 294.136 19.166 L 294.136 19.166 Q 293.65 19.442 293.368 19.952 L 293.368 19.952 L 293.368 19.952 Q 293.086 20.462 293.086 21.122 L 293.086 21.122 L 293.086 21.122 Q 293.086 21.782 293.368 22.292 L 293.368 22.292 L 293.368 22.292 Q 293.65 22.802 294.136 23.084 L 294.136 23.084 L 294.136 23.084 Q 294.622 23.366 295.234 23.366 L 295.234 23.366 L 295.234 23.366 Z  M 301.234 19.01 L 301.234 19.01 Q 301.534 18.458 302.122 18.17 L 302.122 18.17 L 302.122 18.17 Q 302.71 17.882 303.55 17.882 L 303.55 17.882 L 303.55 18.998 L 303.55 18.998 Q 303.454 18.986 303.286 18.986 L 303.286 18.986 L 303.286 18.986 Q 302.35 18.986 301.816 19.544 L 301.816 19.544 L 301.816 19.544 Q 301.282 20.102 301.282 21.134 L 301.282 21.134 L 301.282 24.302 L 300.13 24.302 L 300.13 17.942 L 301.234 17.942 L 301.234 19.01 L 301.234 19.01 Z  M 308.446 23.102 L 308.806 23.93 L 308.806 23.93 Q 308.554 24.146 308.182 24.26 L 308.182 24.26 L 308.182 24.26 Q 307.81 24.374 307.414 24.374 L 307.414 24.374 L 307.414 24.374 Q 306.454 24.374 305.926 23.858 L 305.926 23.858 L 305.926 23.858 Q 305.398 23.342 305.398 22.382 L 305.398 22.382 L 305.398 18.89 L 304.318 18.89 L 304.318 17.942 L 305.398 17.942 L 305.398 16.55 L 306.55 16.55 L 306.55 17.942 L 308.374 17.942 L 308.374 18.89 L 306.55 18.89 L 306.55 22.334 L 306.55 22.334 Q 306.55 22.85 306.808 23.126 L 306.808 23.126 L 306.808 23.126 Q 307.066 23.402 307.546 23.402 L 307.546 23.402 L 307.546 23.402 Q 308.074 23.402 308.446 23.102 L 308.446 23.102 L 308.446 23.102 Z " fill="rgb(255,255,255)"/></g><g><path d="M 350 9.96 L 410 9.96 C 415.519 9.96 420 14.441 420 19.96 L 420 19.96 C 420 25.479 415.519 29.96 410 29.96 L 350 29.96 C 344.481 29.96 340 25.479 340 19.96 L 340 19.96 C 340 14.441 344.481 9.96 350 9.96 Z" style="stroke:none;fill:#121212;stroke-miterlimit:10;"/><path d=" M 358.546 24.398 L 358.546 24.398 Q 357.286 24.398 356.272 23.84 L 356.272 23.84 L 356.272 23.84 Q 355.258 23.282 354.682 22.304 L 354.682 22.304 L 354.682 22.304 Q 354.106 21.326 354.106 20.102 L 354.106 20.102 L 354.106 20.102 Q 354.106 18.878 354.682 17.9 L 354.682 17.9 L 354.682 17.9 Q 355.258 16.922 356.278 16.364 L 356.278 16.364 L 356.278 16.364 Q 357.298 15.806 358.558 15.806 L 358.558 15.806 L 358.558 15.806 Q 359.542 15.806 360.358 16.136 L 360.358 16.136 L 360.358 16.136 Q 361.174 16.466 361.75 17.114 L 361.75 17.114 L 360.97 17.87 L 360.97 17.87 Q 360.022 16.874 358.606 16.874 L 358.606 16.874 L 358.606 16.874 Q 357.67 16.874 356.914 17.294 L 356.914 17.294 L 356.914 17.294 Q 356.158 17.714 355.732 18.452 L 355.732 18.452 L 355.732 18.452 Q 355.306 19.19 355.306 20.102 L 355.306 20.102 L 355.306 20.102 Q 355.306 21.014 355.732 21.752 L 355.732 21.752 L 355.732 21.752 Q 356.158 22.49 356.914 22.91 L 356.914 22.91 L 356.914 22.91 Q 357.67 23.33 358.606 23.33 L 358.606 23.33 L 358.606 23.33 Q 360.01 23.33 360.97 22.322 L 360.97 22.322 L 361.75 23.078 L 361.75 23.078 Q 361.174 23.726 360.352 24.062 L 360.352 24.062 L 360.352 24.062 Q 359.53 24.398 358.546 24.398 L 358.546 24.398 L 358.546 24.398 Z  M 365.758 24.374 L 365.758 24.374 Q 364.81 24.374 364.054 23.954 L 364.054 23.954 L 364.054 23.954 Q 363.298 23.534 362.872 22.796 L 362.872 22.796 L 362.872 22.796 Q 362.446 22.058 362.446 21.122 L 362.446 21.122 L 362.446 21.122 Q 362.446 20.186 362.872 19.448 L 362.872 19.448 L 362.872 19.448 Q 363.298 18.71 364.054 18.296 L 364.054 18.296 L 364.054 18.296 Q 364.81 17.882 365.758 17.882 L 365.758 17.882 L 365.758 17.882 Q 366.706 17.882 367.456 18.296 L 367.456 18.296 L 367.456 18.296 Q 368.206 18.71 368.632 19.448 L 368.632 19.448 L 368.632 19.448 Q 369.058 20.186 369.058 21.122 L 369.058 21.122 L 369.058 21.122 Q 369.058 22.058 368.632 22.796 L 368.632 22.796 L 368.632 22.796 Q 368.206 23.534 367.456 23.954 L 367.456 23.954 L 367.456 23.954 Q 366.706 24.374 365.758 24.374 L 365.758 24.374 L 365.758 24.374 Z  M 365.758 23.366 L 365.758 23.366 Q 366.37 23.366 366.856 23.084 L 366.856 23.084 L 366.856 23.084 Q 367.342 22.802 367.618 22.292 L 367.618 22.292 L 367.618 22.292 Q 367.894 21.782 367.894 21.122 L 367.894 21.122 L 367.894 21.122 Q 367.894 20.462 367.618 19.952 L 367.618 19.952 L 367.618 19.952 Q 367.342 19.442 366.856 19.166 L 366.856 19.166 L 366.856 19.166 Q 366.37 18.89 365.758 18.89 L 365.758 18.89 L 365.758 18.89 Q 365.146 18.89 364.66 19.166 L 364.66 19.166 L 364.66 19.166 Q 364.174 19.442 363.892 19.952 L 363.892 19.952 L 363.892 19.952 Q 363.61 20.462 363.61 21.122 L 363.61 21.122 L 363.61 21.122 Q 363.61 21.782 363.892 22.292 L 363.892 22.292 L 363.892 22.292 Q 364.174 22.802 364.66 23.084 L 364.66 23.084 L 364.66 23.084 Q 365.146 23.366 365.758 23.366 L 365.758 23.366 L 365.758 23.366 Z  M 378.61 17.882 L 378.61 17.882 Q 379.81 17.882 380.512 18.578 L 380.512 18.578 L 380.512 18.578 Q 381.214 19.274 381.214 20.642 L 381.214 20.642 L 381.214 24.302 L 380.062 24.302 L 380.062 20.774 L 380.062 20.774 Q 380.062 19.85 379.636 19.382 L 379.636 19.382 L 379.636 19.382 Q 379.21 18.914 378.418 18.914 L 378.418 18.914 L 378.418 18.914 Q 377.542 18.914 377.026 19.46 L 377.026 19.46 L 377.026 19.46 Q 376.51 20.006 376.51 21.026 L 376.51 21.026 L 376.51 24.302 L 375.358 24.302 L 375.358 20.774 L 375.358 20.774 Q 375.358 19.85 374.932 19.382 L 374.932 19.382 L 374.932 19.382 Q 374.506 18.914 373.714 18.914 L 373.714 18.914 L 373.714 18.914 Q 372.838 18.914 372.322 19.46 L 372.322 19.46 L 372.322 19.46 Q 371.806 20.006 371.806 21.026 L 371.806 21.026 L 371.806 24.302 L 370.654 24.302 L 370.654 17.942 L 371.758 17.942 L 371.758 18.89 L 371.758 18.89 Q 372.106 18.398 372.67 18.14 L 372.67 18.14 L 372.67 18.14 Q 373.234 17.882 373.954 17.882 L 373.954 17.882 L 373.954 17.882 Q 374.698 17.882 375.274 18.182 L 375.274 18.182 L 375.274 18.182 Q 375.85 18.482 376.162 19.058 L 376.162 19.058 L 376.162 19.058 Q 376.522 18.506 377.164 18.194 L 377.164 18.194 L 377.164 18.194 Q 377.806 17.882 378.61 17.882 L 378.61 17.882 L 378.61 17.882 Z  M 386.71 17.882 L 386.71 17.882 Q 387.634 17.882 388.366 18.29 L 388.366 18.29 L 388.366 18.29 Q 389.098 18.698 389.512 19.43 L 389.512 19.43 L 389.512 19.43 Q 389.926 20.162 389.926 21.122 L 389.926 21.122 L 389.926 21.122 Q 389.926 22.082 389.512 22.82 L 389.512 22.82 L 389.512 22.82 Q 389.098 23.558 388.366 23.966 L 388.366 23.966 L 388.366 23.966 Q 387.634 24.374 386.71 24.374 L 386.71 24.374 L 386.71 24.374 Q 386.026 24.374 385.456 24.11 L 385.456 24.11 L 385.456 24.11 Q 384.886 23.846 384.49 23.342 L 384.49 23.342 L 384.49 26.63 L 383.338 26.63 L 383.338 17.942 L 384.442 17.942 L 384.442 18.95 L 384.442 18.95 Q 384.826 18.422 385.414 18.152 L 385.414 18.152 L 385.414 18.152 Q 386.002 17.882 386.71 17.882 L 386.71 17.882 L 386.71 17.882 Z  M 386.614 23.366 L 386.614 23.366 Q 387.226 23.366 387.712 23.084 L 387.712 23.084 L 387.712 23.084 Q 388.198 22.802 388.48 22.292 L 388.48 22.292 L 388.48 22.292 Q 388.762 21.782 388.762 21.122 L 388.762 21.122 L 388.762 21.122 Q 388.762 20.462 388.48 19.952 L 388.48 19.952 L 388.48 19.952 Q 388.198 19.442 387.712 19.166 L 387.712 19.166 L 387.712 19.166 Q 387.226 18.89 386.614 18.89 L 386.614 18.89 L 386.614 18.89 Q 386.014 18.89 385.528 19.172 L 385.528 19.172 L 385.528 19.172 Q 385.042 19.454 384.76 19.958 L 384.76 19.958 L 384.76 19.958 Q 384.478 20.462 384.478 21.122 L 384.478 21.122 L 384.478 21.122 Q 384.478 21.782 384.754 22.292 L 384.754 22.292 L 384.754 22.292 Q 385.03 22.802 385.522 23.084 L 385.522 23.084 L 385.522 23.084 Q 386.014 23.366 386.614 23.366 L 386.614 23.366 L 386.614 23.366 Z  M 391.522 24.302 L 391.522 17.942 L 392.674 17.942 L 392.674 24.302 L 391.522 24.302 L 391.522 24.302 Z  M 392.098 16.718 L 392.098 16.718 Q 391.762 16.718 391.54 16.502 L 391.54 16.502 L 391.54 16.502 Q 391.318 16.286 391.318 15.974 L 391.318 15.974 L 391.318 15.974 Q 391.318 15.662 391.54 15.44 L 391.54 15.44 L 391.54 15.44 Q 391.762 15.218 392.098 15.218 L 392.098 15.218 L 392.098 15.218 Q 392.434 15.218 392.656 15.428 L 392.656 15.428 L 392.656 15.428 Q 392.878 15.638 392.878 15.95 L 392.878 15.95 L 392.878 15.95 Q 392.878 16.274 392.656 16.496 L 392.656 16.496 L 392.656 16.496 Q 392.434 16.718 392.098 16.718 L 392.098 16.718 L 392.098 16.718 Z  M 394.87 24.302 L 394.87 15.398 L 396.022 15.398 L 396.022 24.302 L 394.87 24.302 L 394.87 24.302 Z  M 403.966 21.158 L 403.966 21.158 Q 403.966 21.29 403.942 21.506 L 403.942 21.506 L 398.782 21.506 L 398.782 21.506 Q 398.89 22.346 399.52 22.856 L 399.52 22.856 L 399.52 22.856 Q 400.15 23.366 401.086 23.366 L 401.086 23.366 L 401.086 23.366 Q 402.226 23.366 402.922 22.598 L 402.922 22.598 L 403.558 23.342 L 403.558 23.342 Q 403.126 23.846 402.484 24.11 L 402.484 24.11 L 402.484 24.11 Q 401.842 24.374 401.05 24.374 L 401.05 24.374 L 401.05 24.374 Q 400.042 24.374 399.262 23.96 L 399.262 23.96 L 399.262 23.96 Q 398.482 23.546 398.056 22.802 L 398.056 22.802 L 398.056 22.802 Q 397.63 22.058 397.63 21.122 L 397.63 21.122 L 397.63 21.122 Q 397.63 20.198 398.044 19.454 L 398.044 19.454 L 398.044 19.454 Q 398.458 18.71 399.184 18.296 L 399.184 18.296 L 399.184 18.296 Q 399.91 17.882 400.822 17.882 L 400.822 17.882 L 400.822 17.882 Q 401.734 17.882 402.448 18.296 L 402.448 18.296 L 402.448 18.296 Q 403.162 18.71 403.564 19.454 L 403.564 19.454 L 403.564 19.454 Q 403.966 20.198 403.966 21.158 L 403.966 21.158 L 403.966 21.158 Z  M 400.822 18.854 L 400.822 18.854 Q 399.994 18.854 399.436 19.358 L 399.436 19.358 L 399.436 19.358 Q 398.878 19.862 398.782 20.678 L 398.782 20.678 L 402.862 20.678 L 402.862 20.678 Q 402.766 19.874 402.208 19.364 L 402.208 19.364 L 402.208 19.364 Q 401.65 18.854 400.822 18.854 L 400.822 18.854 L 400.822 18.854 Z " fill="rgb(255,255,255)"/></g></g></svg>