<?xml version="1.0" encoding="UTF-8" standalone="no"?><!-- Generator: Gravit.io --><svg xmlns="http://www.w3.org/2000/svg" xmlns:xlink="http://www.w3.org/1999/xlink" style="isolation:isolate" viewBox="0 0 1600 1200" width="1600pt" height="1200pt"><defs><clipPath id="_clipPath_TMeu7KGyG0LAzmE7tzAFq4JYCA6DGQEX"><rect width="1600" height="1200"/></clipPath></defs><g clip-path="url(#_clipPath_TMeu7KGyG0LAzmE7tzAFq4JYCA6DGQEX)"><rect width="1600" height="1200" style="fill:rgb(0,100,255)"/><path d=" M 265.43 966.696 L 265.43 966.696 L 265.43 966.696 Q 256.007 966.696 247.012 963.697 L 247.012 963.697 L 247.012 963.697 Q 238.016 960.699 231.591 955.131 L 231.591 955.131 L 238.73 943.137 L 238.73 943.137 Q 245.584 947.992 252.08 950.49 L 252.08 950.49 L 252.08 950.49 Q 258.577 952.989 265.002 952.989 L 265.002 952.989 L 265.002 952.989 Q 270.713 952.989 273.997 950.847 L 273.997 950.847 L 273.997 950.847 Q 277.281 948.705 277.281 944.708 L 277.281 944.708 L 277.281 944.708 Q 277.281 940.71 273.426 938.854 L 273.426 938.854 L 273.426 938.854 Q 269.571 936.997 260.861 934.57 L 260.861 934.57 L 260.861 934.57 Q 253.579 932.571 248.439 930.715 L 248.439 930.715 L 248.439 930.715 Q 243.299 928.859 240.158 926.503 L 240.158 926.503 L 240.158 926.503 Q 237.017 924.147 235.589 921.077 L 235.589 921.077 L 235.589 921.077 Q 234.161 918.008 234.161 913.724 L 234.161 913.724 L 234.161 913.724 Q 234.161 908.013 236.374 903.444 L 236.374 903.444 L 236.374 903.444 Q 238.588 898.875 242.585 895.662 L 242.585 895.662 L 242.585 895.662 Q 246.583 892.45 251.938 890.737 L 251.938 890.737 L 251.938 890.737 Q 257.292 889.023 263.574 889.023 L 263.574 889.023 L 263.574 889.023 Q 271.998 889.023 279.351 891.45 L 279.351 891.45 L 279.351 891.45 Q 286.705 893.878 292.844 899.303 L 292.844 899.303 L 285.134 910.869 L 285.134 910.869 Q 279.423 906.585 274.068 904.586 L 274.068 904.586 L 274.068 904.586 Q 268.714 902.587 263.431 902.587 L 263.431 902.587 L 263.431 902.587 Q 258.577 902.587 255.293 904.586 L 255.293 904.586 L 255.293 904.586 Q 252.009 906.585 252.009 911.011 L 252.009 911.011 L 252.009 911.011 Q 252.009 913.01 252.794 914.295 L 252.794 914.295 L 252.794 914.295 Q 253.579 915.58 255.293 916.58 L 255.293 916.58 L 255.293 916.58 Q 257.006 917.579 259.79 918.507 L 259.79 918.507 L 259.79 918.507 Q 262.575 919.435 266.715 920.435 L 266.715 920.435 L 266.715 920.435 Q 274.425 922.434 279.922 924.433 L 279.922 924.433 L 279.922 924.433 Q 285.42 926.432 288.918 929.002 L 288.918 929.002 L 288.918 929.002 Q 292.416 931.572 294.058 934.927 L 294.058 934.927 L 294.058 934.927 Q 295.7 938.282 295.7 942.994 L 295.7 942.994 L 295.7 942.994 Q 295.7 953.988 287.561 960.342 L 287.561 960.342 L 287.561 960.342 Q 279.423 966.696 265.43 966.696 Z  M 328.539 966.696 L 328.539 966.696 L 328.539 966.696 Q 323.114 966.696 318.402 964.911 L 318.402 964.911 L 318.402 964.911 Q 313.69 963.126 310.263 959.914 L 310.263 959.914 L 310.263 959.914 Q 306.837 956.701 304.909 952.418 L 304.909 952.418 L 304.909 952.418 Q 302.982 948.134 302.982 942.994 L 302.982 942.994 L 302.982 942.994 Q 302.982 937.711 305.337 933.214 L 305.337 933.214 L 305.337 933.214 Q 307.693 928.716 311.905 925.575 L 311.905 925.575 L 311.905 925.575 Q 316.117 922.434 321.971 920.649 L 321.971 920.649 L 321.971 920.649 Q 327.825 918.864 334.822 918.864 L 334.822 918.864 L 334.822 918.864 Q 339.819 918.864 344.602 919.721 L 344.602 919.721 L 344.602 919.721 Q 349.385 920.578 353.097 922.148 L 353.097 922.148 L 353.097 917.865 L 353.097 917.865 Q 353.097 910.44 348.885 906.442 L 348.885 906.442 L 348.885 906.442 Q 344.673 902.445 336.392 902.445 L 336.392 902.445 L 336.392 902.445 Q 330.395 902.445 324.684 904.586 L 324.684 904.586 L 324.684 904.586 Q 318.973 906.728 312.976 910.869 L 312.976 910.869 L 307.122 898.732 L 307.122 898.732 Q 321.543 889.166 338.248 889.166 L 338.248 889.166 L 338.248 889.166 Q 354.382 889.166 363.306 897.09 L 363.306 897.09 L 363.306 897.09 Q 372.23 905.015 372.23 920.007 L 372.23 920.007 L 372.23 943.28 L 372.23 943.28 Q 372.23 946.278 373.301 947.563 L 373.301 947.563 L 373.301 947.563 Q 374.372 948.848 376.799 948.991 L 376.799 948.991 L 376.799 965.268 L 376.799 965.268 Q 371.944 966.267 368.375 966.267 L 368.375 966.267 L 368.375 966.267 Q 362.949 966.267 360.022 963.84 L 360.022 963.84 L 360.022 963.84 Q 357.095 961.413 356.381 957.415 L 356.381 957.415 L 355.953 953.274 L 355.953 953.274 Q 350.956 959.842 343.817 963.269 L 343.817 963.269 L 343.817 963.269 Q 336.678 966.696 328.539 966.696 Z  M 333.965 952.703 L 333.965 952.703 L 333.965 952.703 Q 338.819 952.703 343.174 950.99 L 343.174 950.99 L 343.174 950.99 Q 347.529 949.277 349.956 946.421 L 349.956 946.421 L 349.956 946.421 Q 353.097 943.994 353.097 940.995 L 353.097 940.995 L 353.097 932.428 L 353.097 932.428 Q 349.671 931.143 345.673 930.358 L 345.673 930.358 L 345.673 930.358 Q 341.675 929.573 337.963 929.573 L 337.963 929.573 L 337.963 929.573 Q 330.538 929.573 325.826 932.928 L 325.826 932.928 L 325.826 932.928 Q 321.115 936.284 321.115 941.424 L 321.115 941.424 L 321.115 941.424 Q 321.115 946.278 324.827 949.491 L 324.827 949.491 L 324.827 949.491 Q 328.539 952.703 333.965 952.703 Z  M 506.301 918.579 L 506.301 965.268 L 487.168 965.268 L 487.168 923.29 L 487.168 923.29 Q 487.168 914.295 484.098 910.155 L 484.098 910.155 L 484.098 910.155 Q 481.029 906.014 475.603 906.014 L 475.603 906.014 L 475.603 906.014 Q 469.892 906.014 464.894 910.369 L 464.894 910.369 L 464.894 910.369 Q 459.897 914.724 457.755 921.72 L 457.755 921.72 L 457.755 965.268 L 438.623 965.268 L 438.623 923.29 L 438.623 923.29 Q 438.623 914.295 435.553 910.155 L 435.553 910.155 L 435.553 910.155 Q 432.483 906.014 427.058 906.014 L 427.058 906.014 L 427.058 906.014 Q 421.489 906.014 416.421 910.297 L 416.421 910.297 L 416.421 910.297 Q 411.352 914.581 409.21 921.577 L 409.21 921.577 L 409.21 965.268 L 390.078 965.268 L 390.078 890.451 L 407.354 890.451 L 407.354 904.301 L 407.354 904.301 Q 411.495 897.019 418.705 893.092 L 418.705 893.092 L 418.705 893.092 Q 425.915 889.166 435.196 889.166 L 435.196 889.166 L 435.196 889.166 Q 444.62 889.166 449.76 893.735 L 449.76 893.735 L 449.76 893.735 Q 454.9 898.304 456.328 905.015 L 456.328 905.015 L 456.328 905.015 Q 460.897 897.304 467.893 893.235 L 467.893 893.235 L 467.893 893.235 Q 474.889 889.166 483.884 889.166 L 483.884 889.166 L 483.884 889.166 Q 490.738 889.166 495.164 891.736 L 495.164 891.736 L 495.164 891.736 Q 499.59 894.306 502.017 898.447 L 502.017 898.447 L 502.017 898.447 Q 504.445 902.587 505.373 907.87 L 505.373 907.87 L 505.373 907.87 Q 506.301 913.153 506.301 918.579 L 506.301 918.579 L 506.301 918.579 Z  M 545.851 966.696 L 545.851 966.696 L 545.851 966.696 Q 534.286 966.696 528.289 959.271 L 528.289 959.271 L 528.289 959.271 Q 522.292 951.847 522.292 937.283 L 522.292 937.283 L 522.292 890.451 L 541.425 890.451 L 541.425 933.142 L 541.425 933.142 Q 541.425 950.419 553.847 950.419 L 553.847 950.419 L 553.847 950.419 Q 559.415 950.419 564.627 947.063 L 564.627 947.063 L 564.627 947.063 Q 569.838 943.708 573.122 936.855 L 573.122 936.855 L 573.122 890.451 L 592.255 890.451 L 592.255 943.28 L 592.255 943.28 Q 592.255 946.278 593.325 947.563 L 593.325 947.563 L 593.325 947.563 Q 594.396 948.848 596.824 948.991 L 596.824 948.991 L 596.824 965.268 L 596.824 965.268 Q 593.968 965.839 592.04 965.982 L 592.04 965.982 L 592.04 965.982 Q 590.113 966.125 588.542 966.125 L 588.542 966.125 L 588.542 966.125 Q 583.402 966.125 580.19 963.769 L 580.19 963.769 L 580.19 963.769 Q 576.977 961.413 576.406 957.272 L 576.406 957.272 L 575.978 951.275 L 575.978 951.275 Q 570.98 958.986 563.127 962.841 L 563.127 962.841 L 563.127 962.841 Q 555.274 966.696 545.851 966.696 Z  M 655.792 889.594 L 655.792 907.014 L 655.792 907.014 Q 647.082 907.156 640.229 910.369 L 640.229 910.369 L 640.229 910.369 Q 633.375 913.581 630.377 920.007 L 630.377 920.007 L 630.377 965.268 L 611.244 965.268 L 611.244 890.451 L 628.806 890.451 L 628.806 906.442 L 628.806 906.442 Q 630.805 902.587 633.518 899.518 L 633.518 899.518 L 633.518 899.518 Q 636.231 896.448 639.372 894.163 L 639.372 894.163 L 639.372 894.163 Q 642.513 891.879 645.726 890.665 L 645.726 890.665 L 645.726 890.665 Q 648.938 889.452 651.937 889.452 L 651.937 889.452 L 651.937 889.452 Q 653.507 889.452 654.293 889.452 L 654.293 889.452 L 654.293 889.452 Q 655.078 889.452 655.792 889.594 L 655.792 889.594 L 655.792 889.594 Z  M 685.918 966.696 L 685.918 966.696 L 685.918 966.696 Q 680.493 966.696 675.781 964.911 L 675.781 964.911 L 675.781 964.911 Q 671.069 963.126 667.643 959.914 L 667.643 959.914 L 667.643 959.914 Q 664.216 956.701 662.288 952.418 L 662.288 952.418 L 662.288 952.418 Q 660.361 948.134 660.361 942.994 L 660.361 942.994 L 660.361 942.994 Q 660.361 937.711 662.717 933.214 L 662.717 933.214 L 662.717 933.214 Q 665.073 928.716 669.285 925.575 L 669.285 925.575 L 669.285 925.575 Q 673.497 922.434 679.351 920.649 L 679.351 920.649 L 679.351 920.649 Q 685.205 918.864 692.201 918.864 L 692.201 918.864 L 692.201 918.864 Q 697.198 918.864 701.981 919.721 L 701.981 919.721 L 701.981 919.721 Q 706.764 920.578 710.477 922.148 L 710.477 922.148 L 710.477 917.865 L 710.477 917.865 Q 710.477 910.44 706.265 906.442 L 706.265 906.442 L 706.265 906.442 Q 702.053 902.445 693.771 902.445 L 693.771 902.445 L 693.771 902.445 Q 687.775 902.445 682.063 904.586 L 682.063 904.586 L 682.063 904.586 Q 676.352 906.728 670.355 910.869 L 670.355 910.869 L 664.501 898.732 L 664.501 898.732 Q 678.922 889.166 695.628 889.166 L 695.628 889.166 L 695.628 889.166 Q 711.762 889.166 720.686 897.09 L 720.686 897.09 L 720.686 897.09 Q 729.609 905.015 729.609 920.007 L 729.609 920.007 L 729.609 943.28 L 729.609 943.28 Q 729.609 946.278 730.68 947.563 L 730.68 947.563 L 730.68 947.563 Q 731.751 948.848 734.178 948.991 L 734.178 948.991 L 734.178 965.268 L 734.178 965.268 Q 729.324 966.267 725.754 966.267 L 725.754 966.267 L 725.754 966.267 Q 720.329 966.267 717.402 963.84 L 717.402 963.84 L 717.402 963.84 Q 714.475 961.413 713.761 957.415 L 713.761 957.415 L 713.332 953.274 L 713.332 953.274 Q 708.335 959.842 701.196 963.269 L 701.196 963.269 L 701.196 963.269 Q 694.057 966.696 685.918 966.696 Z  M 691.344 952.703 L 691.344 952.703 L 691.344 952.703 Q 696.199 952.703 700.553 950.99 L 700.553 950.99 L 700.553 950.99 Q 704.908 949.277 707.336 946.421 L 707.336 946.421 L 707.336 946.421 Q 710.477 943.994 710.477 940.995 L 710.477 940.995 L 710.477 932.428 L 710.477 932.428 Q 707.05 931.143 703.052 930.358 L 703.052 930.358 L 703.052 930.358 Q 699.054 929.573 695.342 929.573 L 695.342 929.573 L 695.342 929.573 Q 687.917 929.573 683.206 932.928 L 683.206 932.928 L 683.206 932.928 Q 678.494 936.284 678.494 941.424 L 678.494 941.424 L 678.494 941.424 Q 678.494 946.278 682.206 949.491 L 682.206 949.491 L 682.206 949.491 Q 685.918 952.703 691.344 952.703 Z  M 766.589 965.268 L 747.457 965.268 L 747.457 890.451 L 766.589 890.451 L 766.589 965.268 L 766.589 965.268 Z  M 766.589 880.028 L 747.457 880.028 L 747.457 861.038 L 766.589 861.038 L 766.589 880.028 L 766.589 880.028 Z  M 853.4 918.579 L 853.4 965.268 L 834.267 965.268 L 834.267 923.29 L 834.267 923.29 Q 834.267 914.295 831.126 910.155 L 831.126 910.155 L 831.126 910.155 Q 827.985 906.014 822.417 906.014 L 822.417 906.014 L 822.417 906.014 Q 819.561 906.014 816.563 907.156 L 816.563 907.156 L 816.563 907.156 Q 813.564 908.299 810.923 910.369 L 810.923 910.369 L 810.923 910.369 Q 808.281 912.439 806.14 915.295 L 806.14 915.295 L 806.14 915.295 Q 803.998 918.15 802.998 921.577 L 802.998 921.577 L 802.998 965.268 L 783.866 965.268 L 783.866 890.451 L 801.142 890.451 L 801.142 904.301 L 801.142 904.301 Q 805.283 897.162 813.136 893.164 L 813.136 893.164 L 813.136 893.164 Q 820.989 889.166 830.841 889.166 L 830.841 889.166 L 830.841 889.166 Q 837.837 889.166 842.263 891.736 L 842.263 891.736 L 842.263 891.736 Q 846.689 894.306 849.116 898.447 L 849.116 898.447 L 849.116 898.447 Q 851.544 902.587 852.472 907.87 L 852.472 907.87 L 852.472 907.87 Q 853.4 913.153 853.4 918.579 L 853.4 918.579 L 853.4 918.579 Z  M 889.238 965.268 L 870.105 965.268 L 870.105 890.451 L 889.238 890.451 L 889.238 965.268 L 889.238 965.268 Z  M 889.238 880.028 L 870.105 880.028 L 870.105 861.038 L 889.238 861.038 L 889.238 880.028 L 889.238 880.028 Z  M 976.048 918.579 L 976.048 965.268 L 956.916 965.268 L 956.916 923.29 L 956.916 923.29 Q 956.916 914.295 953.774 910.155 L 953.774 910.155 L 953.774 910.155 Q 950.633 906.014 945.065 906.014 L 945.065 906.014 L 945.065 906.014 Q 942.209 906.014 939.211 907.156 L 939.211 907.156 L 939.211 907.156 Q 936.212 908.299 933.571 910.369 L 933.571 910.369 L 933.571 910.369 Q 930.93 912.439 928.788 915.295 L 928.788 915.295 L 928.788 915.295 Q 926.646 918.15 925.647 921.577 L 925.647 921.577 L 925.647 965.268 L 906.514 965.268 L 906.514 890.451 L 923.791 890.451 L 923.791 904.301 L 923.791 904.301 Q 927.931 897.162 935.784 893.164 L 935.784 893.164 L 935.784 893.164 Q 943.637 889.166 953.489 889.166 L 953.489 889.166 L 953.489 889.166 Q 960.485 889.166 964.911 891.736 L 964.911 891.736 L 964.911 891.736 Q 969.338 894.306 971.765 898.447 L 971.765 898.447 L 971.765 898.447 Q 974.192 902.587 975.12 907.87 L 975.12 907.87 L 975.12 907.87 Q 976.048 913.153 976.048 918.579 L 976.048 918.579 L 976.048 918.579 Z  M 986.614 993.253 L 986.614 993.253 L 986.614 993.253 Q 981.188 993.253 976.334 991.611 L 976.334 991.611 L 976.334 991.611 Q 971.479 989.969 967.624 986.542 L 967.624 986.542 L 975.905 973.549 L 975.905 973.549 Q 977.476 975.12 979.76 975.905 L 979.76 975.905 L 979.76 975.905 Q 982.045 976.69 984.329 976.69 L 984.329 976.69 L 984.329 976.69 Q 988.042 976.69 990.755 974.049 L 990.755 974.049 L 990.755 974.049 Q 993.467 971.407 993.467 967.267 L 993.467 967.267 L 993.467 890.451 L 1012.6 890.451 L 1012.6 965.839 L 1012.6 965.839 Q 1012.6 971.836 1010.601 976.905 L 1010.601 976.905 L 1010.601 976.905 Q 1008.602 981.973 1005.104 985.614 L 1005.104 985.614 L 1005.104 985.614 Q 1001.606 989.255 996.823 991.254 L 996.823 991.254 L 996.823 991.254 Q 992.04 993.253 986.614 993.253 Z  M 1012.6 880.028 L 993.467 880.028 L 993.467 861.038 L 1012.6 861.038 L 1012.6 880.028 L 1012.6 880.028 Z  M 1050.437 966.696 L 1050.437 966.696 L 1050.437 966.696 Q 1045.011 966.696 1040.299 964.911 L 1040.299 964.911 L 1040.299 964.911 Q 1035.588 963.126 1032.161 959.914 L 1032.161 959.914 L 1032.161 959.914 Q 1028.734 956.701 1026.807 952.418 L 1026.807 952.418 L 1026.807 952.418 Q 1024.879 948.134 1024.879 942.994 L 1024.879 942.994 L 1024.879 942.994 Q 1024.879 937.711 1027.235 933.214 L 1027.235 933.214 L 1027.235 933.214 Q 1029.591 928.716 1033.803 925.575 L 1033.803 925.575 L 1033.803 925.575 Q 1038.015 922.434 1043.869 920.649 L 1043.869 920.649 L 1043.869 920.649 Q 1049.723 918.864 1056.719 918.864 L 1056.719 918.864 L 1056.719 918.864 Q 1061.716 918.864 1066.5 919.721 L 1066.5 919.721 L 1066.5 919.721 Q 1071.283 920.578 1074.995 922.148 L 1074.995 922.148 L 1074.995 917.865 L 1074.995 917.865 Q 1074.995 910.44 1070.783 906.442 L 1070.783 906.442 L 1070.783 906.442 Q 1066.571 902.445 1058.29 902.445 L 1058.29 902.445 L 1058.29 902.445 Q 1052.293 902.445 1046.582 904.586 L 1046.582 904.586 L 1046.582 904.586 Q 1040.87 906.728 1034.874 910.869 L 1034.874 910.869 L 1029.02 898.732 L 1029.02 898.732 Q 1043.441 889.166 1060.146 889.166 L 1060.146 889.166 L 1060.146 889.166 Q 1076.28 889.166 1085.204 897.09 L 1085.204 897.09 L 1085.204 897.09 Q 1094.128 905.015 1094.128 920.007 L 1094.128 920.007 L 1094.128 943.28 L 1094.128 943.28 Q 1094.128 946.278 1095.198 947.563 L 1095.198 947.563 L 1095.198 947.563 Q 1096.269 948.848 1098.697 948.991 L 1098.697 948.991 L 1098.697 965.268 L 1098.697 965.268 Q 1093.842 966.267 1090.273 966.267 L 1090.273 966.267 L 1090.273 966.267 Q 1084.847 966.267 1081.92 963.84 L 1081.92 963.84 L 1081.92 963.84 Q 1078.993 961.413 1078.279 957.415 L 1078.279 957.415 L 1077.851 953.274 L 1077.851 953.274 Q 1072.853 959.842 1065.714 963.269 L 1065.714 963.269 L 1065.714 963.269 Q 1058.575 966.696 1050.437 966.696 Z  M 1055.862 952.703 L 1055.862 952.703 L 1055.862 952.703 Q 1060.717 952.703 1065.072 950.99 L 1065.072 950.99 L 1065.072 950.99 Q 1069.427 949.277 1071.854 946.421 L 1071.854 946.421 L 1071.854 946.421 Q 1074.995 943.994 1074.995 940.995 L 1074.995 940.995 L 1074.995 932.428 L 1074.995 932.428 Q 1071.568 931.143 1067.57 930.358 L 1067.57 930.358 L 1067.57 930.358 Q 1063.573 929.573 1059.86 929.573 L 1059.86 929.573 L 1059.86 929.573 Q 1052.436 929.573 1047.724 932.928 L 1047.724 932.928 L 1047.724 932.928 Q 1043.012 936.284 1043.012 941.424 L 1043.012 941.424 L 1043.012 941.424 Q 1043.012 946.278 1046.724 949.491 L 1046.724 949.491 L 1046.724 949.491 Q 1050.437 952.703 1055.862 952.703 Z  M 1157.665 931.572 L 1157.665 931.572 L 1157.665 931.572 Q 1166.517 933.142 1172.014 940.067 L 1172.014 940.067 L 1172.014 940.067 Q 1177.511 946.992 1177.511 956.987 L 1177.511 956.987 L 1177.511 956.987 Q 1177.511 963.697 1174.87 969.123 L 1174.87 969.123 L 1174.87 969.123 Q 1172.228 974.549 1167.445 978.332 L 1167.445 978.332 L 1167.445 978.332 Q 1162.662 982.116 1155.809 984.186 L 1155.809 984.186 L 1155.809 984.186 Q 1148.955 986.257 1140.388 986.257 L 1140.388 986.257 L 1140.388 986.257 Q 1129.537 986.257 1121.184 982.759 L 1121.184 982.759 L 1121.184 982.759 Q 1112.832 979.26 1107.263 972.55 L 1107.263 972.55 L 1118.115 958.986 L 1118.115 958.986 Q 1121.827 963.697 1126.967 966.267 L 1126.967 966.267 L 1126.967 966.267 Q 1132.107 968.837 1139.817 968.837 L 1139.817 968.837 L 1139.817 968.837 Q 1148.527 968.837 1153.096 965.411 L 1153.096 965.411 L 1153.096 965.411 Q 1157.665 961.984 1157.665 954.845 L 1157.665 954.845 L 1157.665 954.845 Q 1157.665 947.42 1152.382 943.423 L 1152.382 943.423 L 1152.382 943.423 Q 1147.099 939.425 1136.391 939.425 L 1136.391 939.425 L 1132.393 939.425 L 1132.393 925.147 L 1136.819 925.147 L 1136.819 925.147 Q 1145.671 925.147 1150.526 921.22 L 1150.526 921.22 L 1150.526 921.22 Q 1155.38 917.294 1155.38 911.154 L 1155.38 911.154 L 1155.38 911.154 Q 1155.38 905.3 1151.383 902.445 L 1151.383 902.445 L 1151.383 902.445 Q 1147.385 899.589 1140.96 899.589 L 1140.96 899.589 L 1140.96 899.589 Q 1134.392 899.589 1129.18 902.587 L 1129.18 902.587 L 1129.18 902.587 Q 1123.969 905.586 1120.685 911.011 L 1120.685 911.011 L 1108.691 897.59 L 1108.691 897.59 Q 1110.833 894.306 1114.402 891.665 L 1114.402 891.665 L 1114.402 891.665 Q 1117.972 889.023 1122.469 887.096 L 1122.469 887.096 L 1122.469 887.096 Q 1126.967 885.168 1132.25 884.097 L 1132.25 884.097 L 1132.25 884.097 Q 1137.533 883.026 1143.101 883.026 L 1143.101 883.026 L 1143.101 883.026 Q 1150.383 883.026 1156.38 884.883 L 1156.38 884.883 L 1156.38 884.883 Q 1162.377 886.739 1166.731 890.023 L 1166.731 890.023 L 1166.731 890.023 Q 1171.086 893.307 1173.442 897.947 L 1173.442 897.947 L 1173.442 897.947 Q 1175.798 902.587 1175.798 908.299 L 1175.798 908.299 L 1175.798 908.299 Q 1175.798 912.582 1174.513 916.437 L 1174.513 916.437 L 1174.513 916.437 Q 1173.228 920.292 1170.801 923.433 L 1170.801 923.433 L 1170.801 923.433 Q 1168.373 926.574 1165.018 928.716 L 1165.018 928.716 L 1165.018 928.716 Q 1161.663 930.858 1157.665 931.572 Z  M 1263.893 931.429 L 1263.893 931.429 L 1263.893 931.429 Q 1263.893 938.854 1261.038 945.279 L 1261.038 945.279 L 1261.038 945.279 Q 1258.182 951.704 1253.185 956.487 L 1253.185 956.487 L 1253.185 956.487 Q 1248.188 961.27 1241.406 963.983 L 1241.406 963.983 L 1241.406 963.983 Q 1234.623 966.696 1226.771 966.696 L 1226.771 966.696 L 1226.771 966.696 Q 1218.204 966.696 1211.279 963.555 L 1211.279 963.555 L 1211.279 963.555 Q 1204.354 960.413 1199.499 954.417 L 1199.499 954.417 L 1199.499 954.417 Q 1194.645 948.42 1192.075 939.782 L 1192.075 939.782 L 1192.075 939.782 Q 1189.505 931.143 1189.505 920.149 L 1189.505 920.149 L 1189.505 920.149 Q 1189.505 906.3 1192.218 895.662 L 1192.218 895.662 L 1192.218 895.662 Q 1194.931 885.025 1200.071 877.815 L 1200.071 877.815 L 1200.071 877.815 Q 1205.211 870.605 1212.493 866.892 L 1212.493 866.892 L 1212.493 866.892 Q 1219.774 863.18 1228.769 863.18 L 1228.769 863.18 L 1228.769 863.18 Q 1238.336 863.18 1246.403 867.321 L 1246.403 867.321 L 1246.403 867.321 Q 1254.47 871.461 1260.038 879.171 L 1260.038 879.171 L 1249.044 891.165 L 1249.044 891.165 Q 1245.618 885.739 1240.192 882.741 L 1240.192 882.741 L 1240.192 882.741 Q 1234.766 879.742 1228.484 879.742 L 1228.484 879.742 L 1228.484 879.742 Q 1218.918 879.742 1213.206 887.31 L 1213.206 887.31 L 1213.206 887.31 Q 1207.495 894.877 1207.21 908.727 L 1207.21 908.727 L 1207.21 908.727 Q 1210.208 903.587 1215.705 900.588 L 1215.705 900.588 L 1215.705 900.588 Q 1221.202 897.59 1228.484 897.59 L 1228.484 897.59 L 1228.484 897.59 Q 1235.908 897.59 1242.405 900.16 L 1242.405 900.16 L 1242.405 900.16 Q 1248.902 902.73 1253.685 907.299 L 1253.685 907.299 L 1253.685 907.299 Q 1258.468 911.868 1261.181 918.079 L 1261.181 918.079 L 1261.181 918.079 Q 1263.893 924.29 1263.893 931.429 Z  M 1226.913 950.562 L 1226.913 950.562 L 1226.913 950.562 Q 1230.626 950.562 1234.052 949.062 L 1234.052 949.062 L 1234.052 949.062 Q 1237.479 947.563 1240.049 944.922 L 1240.049 944.922 L 1240.049 944.922 Q 1242.619 942.28 1244.118 938.782 L 1244.118 938.782 L 1244.118 938.782 Q 1245.618 935.284 1245.618 931.429 L 1245.618 931.429 L 1245.618 931.429 Q 1245.618 927.574 1244.118 924.219 L 1244.118 924.219 L 1244.118 924.219 Q 1242.619 920.863 1240.049 918.293 L 1240.049 918.293 L 1240.049 918.293 Q 1237.479 915.723 1234.124 914.295 L 1234.124 914.295 L 1234.124 914.295 Q 1230.768 912.868 1226.913 912.868 L 1226.913 912.868 L 1226.913 912.868 Q 1223.058 912.868 1219.632 914.295 L 1219.632 914.295 L 1219.632 914.295 Q 1216.205 915.723 1213.635 918.293 L 1213.635 918.293 L 1213.635 918.293 Q 1211.065 920.863 1209.637 924.219 L 1209.637 924.219 L 1209.637 924.219 Q 1208.209 927.574 1208.209 931.429 L 1208.209 931.429 L 1208.209 931.429 Q 1208.209 935.284 1209.708 938.782 L 1209.708 938.782 L 1209.708 938.782 Q 1211.207 942.28 1213.778 944.85 L 1213.778 944.85 L 1213.778 944.85 Q 1216.348 947.42 1219.703 948.991 L 1219.703 948.991 L 1219.703 948.991 Q 1223.058 950.562 1226.913 950.562 Z  M 1350.276 923.433 L 1350.276 923.433 L 1350.276 923.433 Q 1350.276 932.857 1347.491 940.781 L 1347.491 940.781 L 1347.491 940.781 Q 1344.707 948.705 1339.781 954.488 L 1339.781 954.488 L 1339.781 954.488 Q 1334.855 960.271 1328.073 963.483 L 1328.073 963.483 L 1328.073 963.483 Q 1321.291 966.696 1313.438 966.696 L 1313.438 966.696 L 1313.438 966.696 Q 1305.443 966.696 1298.732 963.483 L 1298.732 963.483 L 1298.732 963.483 Q 1292.021 960.271 1287.095 954.488 L 1287.095 954.488 L 1287.095 954.488 Q 1282.169 948.705 1279.385 940.781 L 1279.385 940.781 L 1279.385 940.781 Q 1276.601 932.857 1276.601 923.433 L 1276.601 923.433 L 1276.601 923.433 Q 1276.601 914.01 1279.385 906.085 L 1279.385 906.085 L 1279.385 906.085 Q 1282.169 898.161 1287.095 892.379 L 1287.095 892.379 L 1287.095 892.379 Q 1292.021 886.596 1298.732 883.312 L 1298.732 883.312 L 1298.732 883.312 Q 1305.443 880.028 1313.438 880.028 L 1313.438 880.028 L 1313.438 880.028 Q 1321.291 880.028 1328.073 883.312 L 1328.073 883.312 L 1328.073 883.312 Q 1334.855 886.596 1339.781 892.379 L 1339.781 892.379 L 1339.781 892.379 Q 1344.707 898.161 1347.491 906.085 L 1347.491 906.085 L 1347.491 906.085 Q 1350.276 914.01 1350.276 923.433 Z  M 1331 923.433 L 1331 923.433 L 1331 923.433 Q 1331 917.722 1329.715 912.939 L 1329.715 912.939 L 1329.715 912.939 Q 1328.43 908.156 1326.074 904.729 L 1326.074 904.729 L 1326.074 904.729 Q 1323.718 901.302 1320.506 899.446 L 1320.506 899.446 L 1320.506 899.446 Q 1317.293 897.59 1313.438 897.59 L 1313.438 897.59 L 1313.438 897.59 Q 1309.44 897.59 1306.228 899.446 L 1306.228 899.446 L 1306.228 899.446 Q 1303.015 901.302 1300.659 904.729 L 1300.659 904.729 L 1300.659 904.729 Q 1298.304 908.156 1297.018 912.939 L 1297.018 912.939 L 1297.018 912.939 Q 1295.733 917.722 1295.733 923.433 L 1295.733 923.433 L 1295.733 923.433 Q 1295.733 929.144 1297.018 933.856 L 1297.018 933.856 L 1297.018 933.856 Q 1298.304 938.568 1300.659 941.995 L 1300.659 941.995 L 1300.659 941.995 Q 1303.015 945.421 1306.228 947.278 L 1306.228 947.278 L 1306.228 947.278 Q 1309.44 949.134 1313.438 949.134 L 1313.438 949.134 L 1313.438 949.134 Q 1317.293 949.134 1320.506 947.278 L 1320.506 947.278 L 1320.506 947.278 Q 1323.718 945.421 1326.074 941.995 L 1326.074 941.995 L 1326.074 941.995 Q 1328.43 938.568 1329.715 933.856 L 1329.715 933.856 L 1329.715 933.856 Q 1331 929.144 1331 923.433 Z " fill="rgb(255,255,255)"/><path d=" M 908.97 691.899 C 990.856 713.695 1075.079 665.006 1094.438 592.757 L 1094.438 592.757 C 1095.864 587.435 1092.701 581.957 1087.379 580.53 L 948.764 543.388 L 988.625 394.625 L 988.372 394.557 C 1010.167 312.671 961.478 228.448 889.229 209.089 L 889.229 209.089 C 883.907 207.663 878.429 210.826 877.003 216.148 L 839.861 354.764 L 691.097 314.903 L 691.03 315.155 C 609.144 293.36 524.921 342.049 505.562 414.297 L 505.562 414.297 C 504.136 419.619 507.299 425.098 512.621 426.524 L 651.236 463.666 L 611.375 612.43 L 611.628 612.497 C 589.833 694.384 638.522 778.607 710.771 797.966 L 710.771 797.966 C 716.093 799.392 721.571 796.229 722.997 790.907 L 760.139 652.291 L 908.903 692.152 L 908.97 691.899 Z  M 760.504 492.944 C 766.345 471.146 788.785 458.191 810.583 464.031 C 832.381 469.872 845.337 492.312 839.496 514.11 C 833.655 535.908 811.215 548.864 789.417 543.023 C 767.619 537.182 754.663 514.743 760.504 492.944 Z " fill-rule="evenodd" fill="rgb(255,255,255)"/></g></svg>